<svg xmlns="http://www.w3.org/2000/svg" viewBox="0 0 47.5 47.5"><defs><style>.cls-1{fill:#fff;}.cls-2{fill:#ed232f;}</style></defs><title>Asset 3</title><g id="Layer_2" data-name="Layer 2"><g id="Layer_1-2" data-name="Layer 1"><circle class="cls-1" cx="23.75" cy="23.75" r="23.75" transform="translate(-9.84 23.75) rotate(-45)"/><path class="cls-2" d="M19.47,12c0-2.16,1.7-3.24,3.86-3.24S27.2,9.83,27.2,12v.57c0,2.16-1.65,3.24-3.87,3.24s-3.86-1.08-3.86-3.24Zm.16,9.43a3.73,3.73,0,0,1,3.7-3.76,3.78,3.78,0,0,1,3.76,3.76V34.76a3.78,3.78,0,0,1-3.76,3.76,3.73,3.73,0,0,1-3.7-3.76Z"/></g></g></svg>