<svg xmlns="http://www.w3.org/2000/svg" xmlns:xlink="http://www.w3.org/1999/xlink" viewBox="0 0 137 76.38"><defs><style>.cls-1{isolation:isolate;}.cls-2{fill:#fff;}.cls-3{fill:#fcd9b7;}.cls-4{fill:url(#radial-gradient);}.cls-5{fill:#e08e62;}.cls-6{opacity:0.33;fill:url(#linear-gradient);}.cls-14,.cls-23,.cls-31,.cls-32,.cls-42,.cls-6{mix-blend-mode:multiply;}.cls-7{fill:#eb2227;}.cls-8{fill:url(#linear-gradient-2);}.cls-9{fill:url(#radial-gradient-2);}.cls-10{fill:url(#radial-gradient-3);}.cls-11{fill:url(#linear-gradient-3);}.cls-12{fill:#603a17;}.cls-13{fill:url(#radial-gradient-4);}.cls-14,.cls-23,.cls-32,.cls-42{opacity:0.43;}.cls-14{fill:url(#radial-gradient-5);}.cls-15{fill:#49494b;}.cls-16{fill:url(#linear-gradient-4);}.cls-17{fill:#4e4c50;}.cls-18{fill:url(#linear-gradient-5);}.cls-19,.cls-20{opacity:0.78;}.cls-19{fill:url(#linear-gradient-6);}.cls-20{fill:url(#linear-gradient-7);}.cls-21{opacity:0.65;fill:url(#radial-gradient-6);}.cls-22{fill:url(#radial-gradient-7);}.cls-23{fill:url(#radial-gradient-8);}.cls-24{fill:url(#radial-gradient-9);}.cls-25,.cls-26{opacity:0.13;}.cls-25{fill:url(#linear-gradient-8);}.cls-26{fill:url(#linear-gradient-9);}.cls-27{fill:url(#radial-gradient-10);}.cls-28{fill:url(#radial-gradient-11);}.cls-29{fill:#341718;}.cls-30{fill:url(#radial-gradient-13);}.cls-31{fill:url(#radial-gradient-14);}.cls-32{fill:url(#linear-gradient-10);}.cls-33{opacity:0.9;fill:url(#linear-gradient-11);}.cls-34{opacity:0.42;fill:url(#linear-gradient-12);}.cls-35{opacity:0.27;fill:url(#linear-gradient-13);}.cls-36{fill:url(#linear-gradient-14);}.cls-37{fill:url(#linear-gradient-15);}.cls-38{fill:url(#linear-gradient-16);}.cls-39{fill:url(#linear-gradient-17);}.cls-40{fill:url(#radial-gradient-15);}.cls-41{opacity:0.88;fill:url(#linear-gradient-18);}.cls-42{fill:url(#radial-gradient-16);}.cls-43{fill:#ed232f;}</style><radialGradient id="radial-gradient" cx="-35.3" cy="69.29" r="5.76" gradientTransform="matrix(0.08, 1, -0.59, 0.05, 113.95, 53.17)" gradientUnits="userSpaceOnUse"><stop offset="0.39" stop-color="#fff"/><stop offset="0.42" stop-color="#fffcf9"/><stop offset="0.57" stop-color="#feeddc"/><stop offset="0.72" stop-color="#fde2c8"/><stop offset="0.86" stop-color="#fcdbbb"/><stop offset="1" stop-color="#fcd9b7"/></radialGradient><linearGradient id="linear-gradient" x1="-46.58" y1="69.69" x2="-29.63" y2="69.69" gradientTransform="translate(124.02 -34.84) rotate(16.79)" gradientUnits="userSpaceOnUse"><stop offset="0.63" stop-color="#fff" stop-opacity="0"/><stop offset="0.67" stop-color="#fef4f0" stop-opacity="0.06"/><stop offset="0.73" stop-color="#fcd8c9" stop-opacity="0.22"/><stop offset="0.81" stop-color="#f8ab8b" stop-opacity="0.48"/><stop offset="0.86" stop-color="#f68d62" stop-opacity="0.65"/><stop offset="0.87" stop-color="#ee885c" stop-opacity="0.69"/><stop offset="0.94" stop-color="#cb703e" stop-opacity="0.88"/><stop offset="1" stop-color="#bf6834" stop-opacity="0.95"/></linearGradient><linearGradient id="linear-gradient-2" x1="-3.46" y1="73.53" x2="-6.3" y2="80.69" gradientTransform="translate(124.02 -34.84) rotate(16.79)" gradientUnits="userSpaceOnUse"><stop offset="0" stop-color="#a91f27"/><stop offset="0.17" stop-color="#ad1f27"/><stop offset="0.35" stop-color="#ba1f28"/><stop offset="0.54" stop-color="#ce2029"/><stop offset="0.58" stop-color="#d42029"/><stop offset="0.74" stop-color="#eb2227"/></linearGradient><radialGradient id="radial-gradient-2" cx="-32.36" cy="57.94" r="18.93" gradientTransform="translate(124.02 -34.84) rotate(16.79)" gradientUnits="userSpaceOnUse"><stop offset="0" stop-color="#fff"/><stop offset="0.04" stop-color="#fdedee"/><stop offset="0.18" stop-color="#f9b8b9"/><stop offset="0.32" stop-color="#f48a8d"/><stop offset="0.46" stop-color="#f16468"/><stop offset="0.6" stop-color="#ee474c"/><stop offset="0.74" stop-color="#ed3337"/><stop offset="0.87" stop-color="#eb262b"/><stop offset="1" stop-color="#eb2227"/></radialGradient><radialGradient id="radial-gradient-3" cx="-27.62" cy="73.15" r="15.93" gradientTransform="translate(124.02 -34.84) rotate(16.79)" xlink:href="#radial-gradient"/><linearGradient id="linear-gradient-3" x1="-4.42" y1="62.37" x2="-10.48" y2="63.19" gradientTransform="translate(124.02 -34.84) rotate(16.79)" gradientUnits="userSpaceOnUse"><stop offset="0" stop-color="#ae1f28"/><stop offset="0.19" stop-color="#b21f28"/><stop offset="0.38" stop-color="#bf1f28"/><stop offset="0.57" stop-color="#d32029"/><stop offset="0.58" stop-color="#d42029"/><stop offset="0.74" stop-color="#eb2227"/></linearGradient><radialGradient id="radial-gradient-4" cx="-0.31" cy="65.13" r="9.34" gradientTransform="translate(124.02 -34.84) rotate(16.79)" xlink:href="#radial-gradient"/><radialGradient id="radial-gradient-5" cx="-1.86" cy="67.03" r="9.07" gradientTransform="translate(124.02 -34.84) rotate(16.79)" xlink:href="#linear-gradient"/><linearGradient id="linear-gradient-4" x1="-29.64" y1="50.51" x2="-3.59" y2="50.51" gradientTransform="translate(124.02 -34.84) rotate(16.79)" gradientUnits="userSpaceOnUse"><stop offset="0" stop-color="#929497"/><stop offset="0.12" stop-color="#808284"/><stop offset="0.35" stop-color="#656567"/><stop offset="0.57" stop-color="#515153"/><stop offset="0.79" stop-color="#454546"/><stop offset="1" stop-color="#414142"/></linearGradient><linearGradient id="linear-gradient-5" x1="-20.52" y1="52.53" x2="-17.88" y2="54.12" gradientTransform="translate(124.02 -34.84) rotate(16.79)" gradientUnits="userSpaceOnUse"><stop offset="0" stop-color="#fff"/><stop offset="0.05" stop-color="#eee"/><stop offset="0.21" stop-color="#c1c1c2"/><stop offset="0.38" stop-color="#9b9c9d"/><stop offset="0.54" stop-color="#7e7f81"/><stop offset="0.69" stop-color="#6a6b6c"/><stop offset="0.85" stop-color="#5d5e60"/><stop offset="1" stop-color="#595a5c"/></linearGradient><linearGradient id="linear-gradient-6" x1="-9.82" y1="57.37" x2="-4.56" y2="53.18" gradientTransform="translate(124.02 -34.84) rotate(16.79)" gradientUnits="userSpaceOnUse"><stop offset="0" stop-color="#414142"/><stop offset="0.21" stop-color="#4a4a4b"/><stop offset="0.61" stop-color="#555658"/><stop offset="1" stop-color="#595a5c"/></linearGradient><linearGradient id="linear-gradient-7" x1="-1.03" y1="56.56" x2="-10.06" y2="52.51" xlink:href="#linear-gradient-6"/><radialGradient id="radial-gradient-6" cx="-11.19" cy="82.64" r="4.95" gradientTransform="matrix(0.96, 0.29, -0.29, 0.95, 124.45, -35.24)" xlink:href="#radial-gradient"/><radialGradient id="radial-gradient-7" cx="2033.23" cy="-369.52" r="4.95" gradientTransform="matrix(-0.59, -0.48, 0.39, -0.48, 1435.97, 834.5)" xlink:href="#radial-gradient"/><radialGradient id="radial-gradient-8" cx="-21.48" cy="75.3" r="15.13" gradientTransform="matrix(0.96, 0.29, -0.29, 0.96, 124.28, -35.71)" xlink:href="#linear-gradient"/><radialGradient id="radial-gradient-9" cx="-17.34" cy="71.77" r="3.31" gradientTransform="matrix(0.96, 0.29, -0.34, 1.12, 127.62, -46.79)" gradientUnits="userSpaceOnUse"><stop offset="0.81" stop-color="#fff"/><stop offset="0.84" stop-color="#f8f8f8"/><stop offset="0.92" stop-color="#ebebeb"/><stop offset="1" stop-color="#e7e7e7"/></radialGradient><linearGradient id="linear-gradient-8" x1="-18.78" y1="74.01" x2="-12.63" y2="74.01" gradientTransform="matrix(0.96, 0.29, -0.29, 0.96, 122.6, -37.94)" gradientUnits="userSpaceOnUse"><stop offset="0" stop-color="#914f37"/><stop offset="0.17" stop-color="#94533b"/><stop offset="0.34" stop-color="#9e6046"/><stop offset="0.51" stop-color="#ae745a"/><stop offset="0.69" stop-color="#c49175"/><stop offset="0.86" stop-color="#e1b697"/><stop offset="1" stop-color="#fcd9b7"/></linearGradient><linearGradient id="linear-gradient-9" x1="-181.8" y1="288.67" x2="-175.65" y2="288.67" gradientTransform="matrix(0.7, 0.44, -0.34, 0.78, 301.71, -119.81)" xlink:href="#linear-gradient-8"/><radialGradient id="radial-gradient-10" cx="-171.82" cy="-71.25" r="3.31" gradientTransform="matrix(0.8, 0.1, -0.15, 1.01, 206.06, 114.6)" xlink:href="#radial-gradient-9"/><radialGradient id="radial-gradient-11" cx="-171.44" cy="-70.78" r="2.34" gradientTransform="matrix(-0.31, 0.82, -0.56, -0.22, -14.26, 150.85)" gradientUnits="userSpaceOnUse"><stop offset="0.65" stop-color="#914f37"/><stop offset="0.71" stop-color="#763f2e"/><stop offset="0.78" stop-color="#592d24"/><stop offset="0.86" stop-color="#45211e"/><stop offset="0.93" stop-color="#381a19"/><stop offset="1" stop-color="#341718"/></radialGradient><radialGradient id="radial-gradient-13" cx="-16.97" cy="72.23" r="2.34" gradientTransform="matrix(-0.5, 0.86, -0.65, -0.38, 125, 71.34)" xlink:href="#radial-gradient-11"/><radialGradient id="radial-gradient-14" cx="-16.9" cy="50.05" r="18.65" gradientTransform="translate(124.02 -34.84) rotate(16.79)" gradientUnits="userSpaceOnUse"><stop offset="0" stop-color="#fff" stop-opacity="0"/><stop offset="0.16" stop-color="#f3f3f4" stop-opacity="0.09"/><stop offset="0.47" stop-color="#d4d5d6" stop-opacity="0.32"/><stop offset="0.86" stop-color="#a6a8ac" stop-opacity="0.65"/><stop offset="0.87" stop-color="#97999c" stop-opacity="0.68"/><stop offset="0.9" stop-color="#656466" stop-opacity="0.8"/><stop offset="0.94" stop-color="#403e3f" stop-opacity="0.88"/><stop offset="0.97" stop-color="#2a2728" stop-opacity="0.93"/><stop offset="1" stop-color="#231f20" stop-opacity="0.95"/></radialGradient><linearGradient id="linear-gradient-10" x1="-3.73" y1="67.27" x2="3.42" y2="67.27" xlink:href="#linear-gradient"/><linearGradient id="linear-gradient-11" x1="-12.99" y1="-57.18" x2="-8.54" y2="-57.18" gradientTransform="matrix(0.99, 0.14, -0.14, 0.99, 77.86, 86.95)" xlink:href="#radial-gradient"/><linearGradient id="linear-gradient-12" x1="0.06" y1="73.64" x2="-0.33" y2="76.35" gradientTransform="translate(124.02 -34.84) rotate(16.79)" gradientUnits="userSpaceOnUse"><stop offset="0.39" stop-color="#fff"/><stop offset="0.41" stop-color="#fffcfa"/><stop offset="0.53" stop-color="#fde5d5"/><stop offset="0.65" stop-color="#fcd3b8"/><stop offset="0.77" stop-color="#fbc6a4"/><stop offset="0.89" stop-color="#fabf97"/><stop offset="1" stop-color="#fabc93"/></linearGradient><linearGradient id="linear-gradient-13" x1="19.42" y1="362.27" x2="19.92" y2="364.15" gradientTransform="matrix(0.84, 0.58, -0.57, 0.82, 266.24, -271.99)" xlink:href="#linear-gradient-8"/><linearGradient id="linear-gradient-14" x1="-5.78" y1="54.56" x2="-2.77" y2="54.56" gradientTransform="translate(124.02 -34.84) rotate(16.79)" gradientUnits="userSpaceOnUse"><stop offset="0" stop-color="#fecf0a"/><stop offset="0.18" stop-color="#fcbd11"/><stop offset="0.46" stop-color="#f9a919"/><stop offset="0.73" stop-color="#f89c1e"/><stop offset="1" stop-color="#f79820"/></linearGradient><linearGradient id="linear-gradient-15" x1="-2.59" y1="58.5" x2="-1.04" y2="57.63" xlink:href="#linear-gradient-14"/><linearGradient id="linear-gradient-16" x1="-2.68" y1="60.98" x2="1.33" y2="60.98" gradientTransform="translate(124.02 -34.84) rotate(16.79)" gradientUnits="userSpaceOnUse"><stop offset="0.01" stop-color="#fff"/><stop offset="0.32" stop-color="#fecf0a"/><stop offset="0.44" stop-color="#fcbd11"/><stop offset="0.63" stop-color="#f9a919"/><stop offset="0.82" stop-color="#f89c1e"/><stop offset="1" stop-color="#f79820"/></linearGradient><linearGradient id="linear-gradient-17" x1="-3.44" y1="58.94" x2="-1.83" y2="58.94" gradientTransform="translate(124.02 -34.84) rotate(16.79)" gradientUnits="userSpaceOnUse"><stop offset="0" stop-color="#fff"/><stop offset="0.09" stop-color="#fff6d5"/><stop offset="0.22" stop-color="#ffeba0"/><stop offset="0.36" stop-color="#ffe172"/><stop offset="0.49" stop-color="#ffd94d"/><stop offset="0.62" stop-color="#ffd32f"/><stop offset="0.75" stop-color="#ffcf1b"/><stop offset="0.88" stop-color="#ffcc0e"/><stop offset="1" stop-color="#ffcb0a"/></linearGradient><radialGradient id="radial-gradient-15" cx="-1.52" cy="61.13" r="5.61" gradientTransform="translate(124.02 -34.84) rotate(16.79)" gradientUnits="userSpaceOnUse"><stop offset="0.1" stop-color="#fff"/><stop offset="0.14" stop-color="#fff6d5"/><stop offset="0.18" stop-color="#ffeba0"/><stop offset="0.23" stop-color="#ffe172"/><stop offset="0.28" stop-color="#ffd94d"/><stop offset="0.33" stop-color="#ffd32f"/><stop offset="0.38" stop-color="#ffcf1b"/><stop offset="0.42" stop-color="#ffcc0e"/><stop offset="0.47" stop-color="#ffcb0a"/></radialGradient><linearGradient id="linear-gradient-18" x1="-5.64" y1="53.74" x2="-4.21" y2="53.74" xlink:href="#linear-gradient-17"/><radialGradient id="radial-gradient-16" cx="-2.68" cy="60.71" r="3.34" gradientTransform="translate(124.02 -34.84) rotate(16.79)" gradientUnits="userSpaceOnUse"><stop offset="0.63" stop-color="#fff" stop-opacity="0"/><stop offset="0.67" stop-color="#fef4ea" stop-opacity="0.06"/><stop offset="0.73" stop-color="#fcd7b3" stop-opacity="0.22"/><stop offset="0.81" stop-color="#f8a95a" stop-opacity="0.48"/><stop offset="0.86" stop-color="#f68a20" stop-opacity="0.65"/><stop offset="0.9" stop-color="#f47722" stop-opacity="0.77"/><stop offset="0.93" stop-color="#f26724" stop-opacity="0.87"/><stop offset="0.97" stop-color="#f15d25" stop-opacity="0.93"/><stop offset="1" stop-color="#f15a25" stop-opacity="0.95"/></radialGradient></defs><title>Asset 5</title><g class="cls-1"><g id="Layer_2" data-name="Layer 2"><g id="Layer_1-2" data-name="Layer 1"><path class="cls-2" d="M85.27,47.6c-.49,0-1,0-1.5-.05h-.09c-.34,0-.66,0-1-.09l-.26,0-.88-.12-.33,0-.91-.16L80,47l-1.22-.26a18.86,18.86,0,0,1-10.17-6.4l-.07-.09,0-.06A16.42,16.42,0,0,1,67,37.89l-.35-.18-.16-.1-.21-.13L66,37.31l-.25-.21-.25-.22-.26-.3a4.18,4.18,0,0,1-.26-.34c-.1-.15-.18-.3-.23-.39s-.11-.21-.17-.35a4.13,4.13,0,0,1-.22-.65c0-.06,0-.12,0-.17v0A4.79,4.79,0,0,1,64.63,32c.05-.13.12-.26.18-.38l.12-.2c0-.17,0-.33,0-.5v-.12c0-.16,0-.32,0-.48a1.1,1.1,0,0,0,0-.18,3.82,3.82,0,0,1,.09-.44,1.42,1.42,0,0,1,0-.2,4.58,4.58,0,0,1,.24-.66,3.66,3.66,0,0,1,.37-.67.16.16,0,0,1,0-.07l.05-.07a3.58,3.58,0,0,1,.44-.51l0,0,.22-.19a3.2,3.2,0,0,1,.43-.32h0a11.14,11.14,0,0,1-.94-8.89s0,0,0-.08a8.23,8.23,0,0,1,7.28-5.58h.21l.74.06a5.09,5.09,0,0,1-.34-.95,4,4,0,0,1,1.13-4,3.89,3.89,0,0,1,2.52-.93,4.26,4.26,0,0,1,.86.09,3.07,3.07,0,0,1,.35-.28A1.44,1.44,0,0,1,79,6.21l0,0a3.66,3.66,0,0,1,.83-.38l.14,0-.41-.48-.19-.23A3.14,3.14,0,0,1,81.83,0h.08c2.4.06,17.62,4.24,17.76,4.28a5.83,5.83,0,0,1,2.74,1.91c.34.36,1,1.14,2.77,3.4l1,1.23.11.15.38.47.11.15.85,1.1.06.08c2.32,3,4.57,5.95,4.59,6a3.12,3.12,0,0,1,.36,3.19,9.07,9.07,0,0,1,2.44,7,.19.19,0,0,1,0,.08c0,.23,0,.45-.08.69l0,.16c0,.21-.07.39-.11.57l0,.18c-.06.21-.11.42-.18.62a.74.74,0,0,1,0,.14,14.29,14.29,0,0,1-6.24,7.42c-.1.07-.2.12-.3.18a16.93,16.93,0,0,1-7.33,1.84h0c-.31,0-.61,0-.91,0-.31.33-.62.66-.94,1l0,0c-.28.28-.57.55-.86.8l-.14.12-.75.62-.2.16-.41.31-.36.26-.51.35c-.12.08-.24.16-.37.23l-.45.28-.44.26-.32.17c-.18.1-.35.2-.53.28l-.08,0a19.66,19.66,0,0,1-3.74,1.41,13.45,13.45,0,0,1-1.4.31l-.14,0a1.86,1.86,0,0,1-.33,0A17,17,0,0,1,85.27,47.6Z"/><path class="cls-3" d="M73.35,15.53a6.49,6.49,0,0,1,1.5.23,6.09,6.09,0,0,1,2.27,1.18s0,0,0,0h0c2.44,2,3.8,5.93,3.78,9.06,0,0-3.23.08-4.25,4.9-2.09-.24-4.43-1.86-6.12-3.9-2.27-3.46-2.27-6.11-1.64-7.95A5.08,5.08,0,0,1,73.35,15.53Z"/><path class="cls-4" d="M71.48,27.48c-2.27-3.46-2.27-6.11-1.64-7.94A5.11,5.11,0,0,1,74.3,16a6.51,6.51,0,0,1,1.5.24,3.27,3.27,0,0,1,.53.17,5.87,5.87,0,0,0-1.48-.64,6.49,6.49,0,0,0-1.5-.23,5.08,5.08,0,0,0-4.45,3.54c-.63,1.84-.63,4.49,1.64,8a12,12,0,0,0,4.51,3.47A12.82,12.82,0,0,1,71.48,27.48Z"/><path class="cls-5" d="M75,25.89a.73.73,0,0,0,.6-.91c-.11-.82-.52-1.68.15-1.75s2.19.71,1.28-1.37-3.93-4.17-5.34-2.64S71.87,26.17,75,25.89Z"/><path class="cls-6" d="M73.35,15.53a6.49,6.49,0,0,1,1.5.23,6.09,6.09,0,0,1,2.27,1.18s0,0,0,0h0c2.44,2,3.8,5.93,3.78,9.06,0,0-3.23.08-4.25,4.9-2.09-.24-4.43-1.86-6.12-3.9-2.27-3.46-2.27-6.11-1.64-7.95A5.08,5.08,0,0,1,73.35,15.53Z"/><path class="cls-7" d="M94.68,14.17c-3.29-1.75-5.93-2.45-8.74-2.27h0c-1.61.17-1.88-.38-2.53-1.25s-2.25-2.84-3.14-1.37,2,3.32,2,3.32l-.72-.38a10.84,10.84,0,0,1-2.11-1.42c-.93-.87-1.87-1.36-2.36-.92s-.22,2.5,3.18,3.33l-.26.12h0l-.11.06a10.65,10.65,0,0,0-1.51.86l-.12.08h0a12.5,12.5,0,0,0-3.28,3.33,16.47,16.47,0,0,0-1.25,2.48A15.28,15.28,0,0,0,73,27.48h0c-1.51.51-2.69,2.62-2.69,2.62-.17-.27-1.61-1.26-2.16,0s.74,2.65.74,2.65a1,1,0,0,0-1.36.39c-.76,1.91,1.69,2.18,1.69,2.18,2.87,7,10.21,8.39,10.21,8.39a21.29,21.29,0,0,0,8,.61h0l.18,0,.36-.07.19,0,.33-.08c3.36-.81,7.48-3,11.14-8.25a11.27,11.27,0,0,0,.56-1C103.37,28.63,102.72,18.46,94.68,14.17Z"/><path class="cls-8" d="M92.06,42.8a19.79,19.79,0,0,0,6.66-5.62l.15-3.57s-2.77,6.21-6.13,8.52A1.82,1.82,0,0,0,92.06,42.8Z"/><path class="cls-9" d="M70.72,29.48a1.81,1.81,0,0,1,.57.42s1.18-2.1,2.69-2.61h0A15,15,0,0,1,74.64,20a15.17,15.17,0,0,1,1.25-2.48,12.21,12.21,0,0,1,3.28-3.33h0l.12-.08a12.86,12.86,0,0,1,1.51-.87l.11,0h0l.26-.12c-3.16-.77-3.6-2.63-3.26-3.22a.85.85,0,0,0-.87.08c-.48.42-.22,2.5,3.18,3.33l-.26.12h0l-.11.06a10.65,10.65,0,0,0-1.51.86l-.12.08h0a12.5,12.5,0,0,0-3.28,3.33,16.47,16.47,0,0,0-1.25,2.48A15.28,15.28,0,0,0,73,27.48h0A5.41,5.41,0,0,0,70.72,29.48ZM88.44,44.12a21.35,21.35,0,0,1-8-.61s-7.34-1.42-10.2-8.39c0,0-2.45-.26-1.69-2.18a1,1,0,0,1,.22-.26,1,1,0,0,0-1.18.45c-.76,1.91,1.69,2.18,1.69,2.18,2.87,7,10.21,8.39,10.21,8.39a21.29,21.29,0,0,0,8,.61h0l.18,0,.36-.07.19,0,.19,0Zm-8.1-33.51A11.15,11.15,0,0,0,82.45,12l.73.39s-2.88-1.86-2-3.33a2.12,2.12,0,0,1,.21-.27.89.89,0,0,0-1.16.46,1.27,1.27,0,0,0,0,1.21Zm-11.53,22a1,1,0,0,1,1.06-.07s-1.3-1.4-.75-2.65a1.39,1.39,0,0,1,.25-.38.93.93,0,0,0-1.2.57A2.64,2.64,0,0,0,68.81,32.62Z"/><path class="cls-3" d="M92.83,30.73c.32-.9,3.85-7.26-2.23-10.18-3.68-1.77-6-.75-7.2.33h0c-1,.68-1.3,0-1.3,0a4.08,4.08,0,0,0-2.2-2.73c-1-.51-2.88-.35-4.29,2.53A20.26,20.26,0,0,0,74,27.31l-.56.07c-1.7.23-3.09,2.72-3.09,2.72-.17-.27-1.61-1.26-2.16,0s.74,2.65.74,2.65a1,1,0,0,0-1.36.39c-.76,1.91,1.69,2.18,1.69,2.18,2.87,7,10.21,8.39,10.21,8.39,11.34,2.68,14.22-2.24,15.39-6S92.83,30.73,92.83,30.73Z"/><path class="cls-10" d="M90.6,20.55c-3.68-1.77-6-.75-7.2.33h0a1.57,1.57,0,0,1-.55.26,3.87,3.87,0,0,1,.19.63s.29.72,1.3.07h0c1.27-1,3.59-2,7.21-.1a7,7,0,0,1,2,1.53A6.14,6.14,0,0,0,90.6,20.55Zm3,11.13-.14.3A9.74,9.74,0,0,1,94.76,34,9.25,9.25,0,0,0,93.58,31.68ZM69.43,35.74A13.4,13.4,0,0,0,71,38.38a12.71,12.71,0,0,1-1.3-2.58ZM75.6,20.65A20.26,20.26,0,0,0,74,27.31l-.56.07c-1.7.23-3.09,2.72-3.09,2.72-.17-.27-1.61-1.26-2.16,0s.74,2.65.74,2.65a1,1,0,0,0-1.36.39A1.32,1.32,0,0,0,68.13,35a1.38,1.38,0,0,1,0-1.38,1,1,0,0,1,1.37-.34s-1.25-1.45-.66-2.68,1.39-.15,1.54.11c0,0,1.84-2.61,3.8-2.65l.56-.05a20.11,20.11,0,0,1,1.84-6.6c1.5-2.84,3.34-2.94,4.36-2.4l.31.18a4.39,4.39,0,0,0-1.33-1C78.85,17.61,77,17.77,75.6,20.65Z"/><path class="cls-11" d="M102,26.2A14.17,14.17,0,0,0,95.6,14.74c-1.4.18-2.62,1.18-.82,2.8,5.22,4.68,1.27,13,1.27,13A46.45,46.45,0,0,1,102,26.2Z"/><path class="cls-3" d="M109,23.07a7.08,7.08,0,0,0-4.51-.26h0c-3.43,1-6.6,4.37-8,7.59,0,0,3.27,1.56,2.13,7,2.25.7,5.4.1,8.06-1.22,3.9-2.53,5.11-5.25,5.3-7.42A5.71,5.71,0,0,0,109,23.07Z"/><path class="cls-5" d="M102.56,33a.81.81,0,0,1-.21-1.2c.49-.8,1.3-1.49.64-1.87s-2.57-.26-.68-2,5.93-2.49,6.68-.29S105.63,34.67,102.56,33Z"/><path class="cls-12" d="M105.24,30.45a8.5,8.5,0,0,1-1.87,2.81,2.57,2.57,0,0,1-.81-.3.81.81,0,0,1-.21-1.2c.49-.8,1.3-1.49.64-1.87s-2.57-.26-.68-2a6,6,0,0,1,1.35-.91A2.35,2.35,0,0,1,105.24,30.45Z"/><path class="cls-13" d="M104,24.21h0a6.64,6.64,0,0,1,2.87-.19,7.48,7.48,0,0,1,1.64.44,5.74,5.74,0,0,1,3,5.67c0,.26-.06.52-.12.8a7.36,7.36,0,0,0,.54-2.2,5.71,5.71,0,0,0-3-5.66,7.08,7.08,0,0,0-4.51-.26h0c-3.43,1-6.6,4.37-8,7.59l.21.13C98.24,27.73,101,25.06,104,24.21Z"/><path class="cls-14" d="M109,23.07a7.08,7.08,0,0,0-4.51-.26h0c-3.43,1-6.59,4.37-8,7.59,0,0,3.27,1.56,2.13,7,2.25.7,5.4.1,8.06-1.22,3.9-2.53,5.11-5.25,5.3-7.42A5.71,5.71,0,0,0,109,23.07Z"/><path class="cls-15" d="M81.83,3.14a43.93,43.93,0,0,0,10.08,8.73,89.41,89.41,0,0,0,17.84,8.78S101.44,9.73,100,8.25a3.14,3.14,0,0,0-1.25-1C98.14,7.1,83.57,3.18,81.83,3.14Z"/><path class="cls-16" d="M97.86,8.17s6,5.52,7.38,7c.24.26.16,0-.12-.58C103,11.82,100.71,9,100,8.25a3.14,3.14,0,0,0-1.25-1c-.65-.19-15.22-4.11-17-4.15A37.39,37.39,0,0,0,85,6.53l.32.15s-.74-1.42-.85-1.61S94.52,7.3,97.86,8.17Z"/><path class="cls-17" d="M90.94,8.78,85.22,12s1.3,3.77,6.4,6a22.59,22.59,0,0,0,8.82,2.15l.72-5.53S97.07,9.49,90.94,8.78Z"/><path class="cls-18" d="M99,12.71a9.74,9.74,0,0,0-1.25-1.21,14.92,14.92,0,0,0-6.8-2.72L85.22,12A10,10,0,0,0,88,15.71l.18,0-1.38-3L91,10.27A18,18,0,0,1,99,12.71Z"/><path class="cls-19" d="M100.44,20.12l.72-5.53a14.42,14.42,0,0,0-1.67-1.7l-.11,0-2.07,4.6C96.49,19.26,94,18.89,94,18.89l2.14.67a12.17,12.17,0,0,0,1.21.23A16,16,0,0,0,100.44,20.12Z"/><path class="cls-20" d="M101.45,14.5l3.72.7,3.8,4.87a75.8,75.8,0,0,1-7.8-3.37Z"/><path class="cls-21" d="M94.19,37.61s-1.25,6.1-8.36,6.1A12.67,12.67,0,0,0,94.19,37.61Z"/><path class="cls-22" d="M85.15,33.66s2.37-3.31,6.93-1A11.2,11.2,0,0,0,85.15,33.66Z"/><path class="cls-23" d="M92.83,30.73c.32-.9,3.85-7.26-2.23-10.18-3.68-1.77-6-.75-7.2.33h0c-1,.68-1.3,0-1.3,0a4.08,4.08,0,0,0-2.2-2.73c-1-.51-2.88-.35-4.29,2.53A20.26,20.26,0,0,0,74,27.31l-.56.07c-1.7.23-3.09,2.72-3.09,2.72-.17-.27-1.61-1.26-2.16,0s.74,2.65.74,2.65a1,1,0,0,0-1.36.39c-.76,1.91,1.69,2.18,1.69,2.18,2.87,7,10.21,8.39,10.21,8.39,11.34,2.68,14.22-2.24,15.39-6S92.83,30.73,92.83,30.73Z"/><path class="cls-12" d="M88.76,22.76A1.74,1.74,0,0,0,87.39,22a1.42,1.42,0,0,0-1.25.57.41.41,0,0,0,0,.09c-.17.52.23.79.49.54a1.64,1.64,0,0,1,.79-.34,1.17,1.17,0,0,1,1,.46s0,0,.05,0l0,.06c.16.23.29.45.33.49s.17,0,.17,0A1.53,1.53,0,0,0,88.76,22.76Z"/><path class="cls-12" d="M78.07,20.5a1.31,1.31,0,0,1,1.32-.16,1.24,1.24,0,0,1,.74,1,.34.34,0,0,1,0,.1c-.06.54-.47.64-.58.31a1.24,1.24,0,0,0-.48-.6.87.87,0,0,0-.94,0l0,0-.06,0-.44.32c-.1.05-.12-.08-.12-.08A1.62,1.62,0,0,1,78.07,20.5Z"/><path class="cls-24" d="M89,29.74c-.72,1.81-2.5,2.82-4,2.24s-2.12-2.52-1.41-4.34,2.49-2.82,4-2.24S89.72,27.92,89,29.74Z"/><path class="cls-25" d="M89.16,29.73c-.77,1.93-2.66,3-4.24,2.38s-2.25-2.67-1.5-4.59,2.66-3,4.24-2.38S89.91,27.8,89.16,29.73Z"/><path class="cls-26" d="M80.08,27.36c-.82,1.52-2.41,2.07-3.55,1.23a3.46,3.46,0,0,1-.58-4.3c.83-1.53,2.42-2.08,3.56-1.23A3.45,3.45,0,0,1,80.08,27.36Z"/><path class="cls-27" d="M80.3,26.37c-.37,1.66-1.69,2.8-3,2.54s-2-1.82-1.63-3.48,1.69-2.8,3-2.55S80.67,24.7,80.3,26.37Z"/><path class="cls-28" d="M79.66,26.8A1.2,1.2,0,1,1,79.05,25,1.37,1.37,0,0,1,79.66,26.8Z"/><path class="cls-29" d="M79.34,26.83c-.21.6-.73,1-1.18.81a1,1,0,0,1-.42-1.36c.2-.61.73-1,1.17-.82A1.05,1.05,0,0,1,79.34,26.83Z"/><path class="cls-2" d="M78.39,26a.38.38,0,0,1-.48.21.4.4,0,0,1-.12-.53.39.39,0,0,1,.49-.2A.39.39,0,0,1,78.39,26Z"/><path class="cls-2" d="M79.1,27.42a.28.28,0,0,1-.36.17.3.3,0,0,1-.07-.4A.28.28,0,0,1,79,27,.3.3,0,0,1,79.1,27.42Z"/><path class="cls-12" d="M81.36,33.48c.23-.36.57-1,.19-1.15s-.87.44-1.14.85Z"/><path class="cls-12" d="M78,32.39c0-.43.11-1.13.52-1s.44.87.42,1.35Z"/><path class="cls-24" d="M89,29.74c-.72,1.81-2.5,2.82-4,2.24s-2.12-2.52-1.41-4.34,2.49-2.82,4-2.24S89.72,27.92,89,29.74Z"/><path class="cls-30" d="M88.15,30.08a1.62,1.62,0,0,1-2.09.85,1.59,1.59,0,0,1-.44-2.2,1.62,1.62,0,0,1,2.09-.85A1.59,1.59,0,0,1,88.15,30.08Z"/><path class="cls-29" d="M87.9,30a1.2,1.2,0,0,1-1.56.63A1.18,1.18,0,0,1,86,29a1.2,1.2,0,0,1,1.56-.63A1.18,1.18,0,0,1,87.9,30Z"/><path class="cls-2" d="M86.75,28.84a.44.44,0,0,1-.61.13.43.43,0,0,1,0-.62.44.44,0,0,1,.61-.12A.43.43,0,0,1,86.75,28.84Z"/><path class="cls-2" d="M87.39,30.67a.35.35,0,0,1-.47.11.33.33,0,0,1,0-.47.34.34,0,0,1,.46-.11A.33.33,0,0,1,87.39,30.67Z"/><path class="cls-31" d="M109.75,20.65S101.44,9.73,100,8.25a3.14,3.14,0,0,0-1.25-1c-.65-.19-15.22-4.11-17-4.15A44,44,0,0,0,89,9.86L85.22,12s1.3,3.77,6.4,6a22.59,22.59,0,0,0,8.82,2.15l.42-3.23A77.8,77.8,0,0,0,109.75,20.65Z"/><path class="cls-32" d="M102.56,33a.81.81,0,0,1-.21-1.2c.49-.8,1.3-1.49.64-1.87s-2.57-.26-.68-2,5.93-2.49,6.68-.29S105.63,34.67,102.56,33Z"/><path class="cls-33" d="M77.53,30a5.09,5.09,0,0,0-3.32-2.28h0l-.91.44C75.39,28,77.53,30,77.53,30Z"/><path class="cls-34" d="M99.77,36.15a2.62,2.62,0,0,1-.21.85,8.86,8.86,0,0,0,6.17-1.57A15.9,15.9,0,0,1,99.77,36.15Z"/><path class="cls-35" d="M69.53,33.39S76,40.75,84.36,38.6C84.36,38.6,75.88,38.91,69.53,33.39Z"/><path class="cls-36" d="M103.63,12.7c-.2,2.53-.24,5.3.43,6.72l.66.12s-.83-1.24-.54-6.15Z"/><path class="cls-37" d="M103.8,22l-.33-2.08s.11-.47.31-.54a6.26,6.26,0,0,0,.8-.46s.5-.16.65.16,1,1.69,1,1.69,0,.36-.17.47S104,22.31,103.8,22Z"/><path class="cls-38" d="M104,22.08l-.25,2.86A3.35,3.35,0,0,0,106,25c1.07-.4,1.79-1,1.7-1.22s-1.61-2.57-1.61-2.57Z"/><polygon class="cls-39" points="103.76 19.43 104.82 21.46 103.93 21.84 103.64 19.78 103.76 19.43"/><path class="cls-40" d="M104.61,25.11l0,0,.42,0-.46-2.92Zm1.08,0L106,25l.22-.09,0-.07-1.2-2.6Zm.39-3.13,1,2.3,0,.18a3.5,3.5,0,0,0,.42-.35Zm.47,2.81a4.6,4.6,0,0,0,.45-.24l-1.41-2.31Z"/><path class="cls-41" d="M103.74,12.83a20.28,20.28,0,0,0,.07,4.72,43.68,43.68,0,0,1,.09-4.48Z"/><path class="cls-42" d="M107.68,23.8c-.1-.22-1.61-2.57-1.61-2.57.19-.11.17-.47.17-.47s-.86-1.38-1-1.69-.65-.16-.65-.16a6.26,6.26,0,0,1-.8.46c-.2.07-.31.54-.31.54L103.8,22c0,.07.17.07.32.05l-.08,0-.25,2.86A3.35,3.35,0,0,0,106,25C107.05,24.62,107.77,24,107.68,23.8Z"/><path class="cls-12" d="M90.5,37.06A18.63,18.63,0,0,1,79.33,38c-.55-.12-1.08-.26-1.6-.42h0c-.85-.25-1.62-.52-2.34-.81l0,0-.92-.39-.19-.09a18.27,18.27,0,0,1-5.49-3.75l-.05,0a15.67,15.67,0,0,0,5.8,4.24l.19.09.9.39h0c.7.28,1.47.55,2.29.8h0c.5.15,1,.29,1.56.4a17.93,17.93,0,0,0,10.93-1,.29.29,0,0,0,.15-.37Z"/><path class="cls-12" d="M90.5,35.82s-1.23,1.78,1.12,2.29A2.06,2.06,0,0,1,90.5,35.82Z"/><path class="cls-2" d="M133.29,72.39a.34.34,0,0,1-.34.34.33.33,0,0,1-.33-.34V70.45h-.49a.32.32,0,0,1,0-.63h1.64a.32.32,0,1,1,0,.63h-.48Z"/><path class="cls-2" d="M135.24,71.92l-.32-.52v1a.33.33,0,0,1-.66,0V70.07a.25.25,0,0,1,.24-.25.27.27,0,0,1,.22.12l.91,1.48.91-1.48a.26.26,0,0,1,.21-.12.25.25,0,0,1,.25.25V72.4a.33.33,0,1,1-.66,0v-1l-.33.52a.45.45,0,0,1-.38.22A.48.48,0,0,1,135.24,71.92Z"/><path class="cls-43" d="M59.86,67.64c0-.07,0-.14,0-.21l0-.07s0-.07,0-.11L59.62,67h0l0,0a1.25,1.25,0,0,0-.12-.17l0,0,0,0,0,0c-.34-.47-1-1.45-1.41-2.13l0-.05,0-.06c-.31-.58-.54-1-.54-1h0c0-.1-.09-.22-.14-.32a22.29,22.29,0,0,1-.91-2.3,41.23,41.23,0,0,1-1.08-5.12h0c-.05-.41-.08-.71-.09-.79,0-.35-.1-.69-.16-1-.42-2.13-1.29-3.29-2.64-3.53a2.38,2.38,0,0,0-.46,0c-1.13,0-2.24.77-3.31,2.29a29.79,29.79,0,0,0-2.5,5.21l-1.4,3.72c0,.12-.18.48-.48.48-.15,0-.35-.09-.49-.52a16.74,16.74,0,0,1-.4-1.72s-.63-3.71-1.61-10.13c-.55-3.57-1.92-5.48-4.06-5.54-2.79,0-5,3.68-6.49,10.92-2.36,11.25.49,18.5.62,18.8A1.79,1.79,0,0,0,33.27,75h.21a1.79,1.79,0,0,0,.68-.13,1.81,1.81,0,0,0,1-2.35c0-.07-2.54-6.63-.43-16.71A25.29,25.29,0,0,1,37,48.94a.56.56,0,0,1,.45-.29c.33,0,.47.38.53.53s.14.65.21,1.07c1,6.42,1.62,10.16,1.62,10.19.5,2.91,1.61,6.44,4.06,6.7a1.37,1.37,0,0,0,.28,0c2.34,0,3.54-3.11,4-4.28L49.55,59c.43-1.15.91-2.18,1.23-2.85.15-.3.31-.44.49-.44s.35.18.39.55c0,.18,0,.36,0,.56v.09a26.31,26.31,0,0,0,2,7.09l.07.18h0c.13.3.3.7.52,1.15a12.34,12.34,0,0,0,2.63,4h0a2.75,2.75,0,0,0,.38.25,1.85,1.85,0,0,0,2.6-1.7,2.11,2.11,0,0,0,0-.26S59.86,67.66,59.86,67.64Zm7.55-13.13a7.67,7.67,0,1,0,7.67,7.66A7.66,7.66,0,0,0,67.41,54.51Zm3.24,8.91a12,12,0,0,1-3.24,2.7h0a12.11,12.11,0,0,1-3.24-2.7c-1.58-1.93-.63-4.18,1-4.14a2.65,2.65,0,0,1,2.21,1.54h0a2.67,2.67,0,0,1,2.21-1.54C71.28,59.24,72.24,61.49,70.65,63.42ZM119.39,66a2,2,0,0,0-.61-1.38,1.85,1.85,0,0,0-1.34-.53,1.91,1.91,0,0,0-1.42.62,3.69,3.69,0,0,1-2.68,1.17,3.73,3.73,0,0,1-.8-.1,3.62,3.62,0,0,1-2.29-1.64,3.71,3.71,0,0,1,3.1-5.68,3.15,3.15,0,0,1,.81.1,3.65,3.65,0,0,1,1.35.62c.11.1.46.46.34.82s-1.06.76-2.66.85h-.06l-.17,0a1.31,1.31,0,0,0,.25,2.57h.23c.26,0,6.54-.43,6.66-3.27v-.13a3.71,3.71,0,0,0-.22-1.62,1.72,1.72,0,0,0-.07-.21l-.1-.19a.64.64,0,0,0-.06-.1,2,2,0,0,0-.22-.33l-.07-.08A7.62,7.62,0,0,0,115,54.72a7.27,7.27,0,0,0-1.68-.19A7.67,7.67,0,0,0,107,66.26a7.5,7.5,0,0,0,4.72,3.4,7.85,7.85,0,0,0,1.67.19,7.57,7.57,0,0,0,5.52-2.41A2,2,0,0,0,119.39,66Zm15.94-11.46H135a1.89,1.89,0,0,0-1.8,1.67A18.1,18.1,0,0,1,129.77,64l-.37.47-.3.28-.13-.4a29.06,29.06,0,0,0-4.78-9,1.89,1.89,0,0,0-2.64-.31,1.91,1.91,0,0,0-.7,1.26,1.86,1.86,0,0,0,.4,1.38A24.86,24.86,0,0,1,125.82,67l.14.85-.55.42-.16.13h0a27.14,27.14,0,0,1-9.8,4.26,1.85,1.85,0,0,0-1.19.85,1.89,1.89,0,0,0,1.63,2.91h.07a1.86,1.86,0,0,0,.34,0C135,72,136.91,57.3,137,56.67A1.91,1.91,0,0,0,135.33,54.56Zm-35.79,7,.21-.2a24.31,24.31,0,0,1,4.66-3.42,1.88,1.88,0,0,0-.92-3.52,1.85,1.85,0,0,0-.91.24,28.4,28.4,0,0,0-6,4.6l0,0,0,0-.38.19v-3a1.91,1.91,0,0,0-3.82,0V67.91a1.91,1.91,0,0,0,3.82,0V64.37l0-.16.1-.08.17-.1h.07a.5.5,0,0,1,.34.17l6.65,6.25a1.88,1.88,0,0,0,1.3.52,2,2,0,0,0,1.4-.6,1.92,1.92,0,0,0-.09-2.7Zm-11.25-7a1.91,1.91,0,0,0-1.91,1.9v7.29L85.89,63c-1.25-2-3.44-5.54-4.13-6.55-.31-.46-1.26-1.86-2.65-1.86a2.05,2.05,0,0,0-.65.1c-1.78.54-1.8,2.66-1.8,4l0,9.26a1.91,1.91,0,0,0,3.82,0V61.44l.49.79c1.41,2.26,3,4.76,3,4.82,1.13,1.81,2.36,2.77,3.58,2.77a2.34,2.34,0,0,0,.63-.09c1.3-.35,2-1.58,2-3.63V56.45A1.91,1.91,0,0,0,88.29,54.55Z"/><path class="cls-2" d="M15.81,46.3c-.7-.83-9.52-6-13.5-6.9a63.56,63.56,0,0,1,6.47,5.27c2.35,2.2,5.71,4.23,7,3.75.28-.11.14-.19.26-.33-2-1.4-9.7-6.62-9.7-6.62l10.2,6.28C16.6,47.32,16.24,46.82,15.81,46.3Zm1,4.61c-.59,2.28-2.67,11-2.67,11l2.14-11.25c-.46.08-.82.59-1.15,1.17-.54.93-2.13,10.55-1.44,14.33a57.78,57.78,0,0,1,2.61-7.65c1.24-2.88,1.91-6.58.93-7.46C17,50.81,17,51,16.78,50.91Zm-.94-1.33L4.2,54.26,15.51,49c-.8-.19-3.06-.35-7.2,2A94.54,94.54,0,0,0,0,56.33s4.11-1.55,7.52-2.64C10.76,52.65,16.38,50.59,15.84,49.58Zm19.81-14c0-1-.71-1.5-1.74-1.5-.75,0-.93-.32-1.33.06a4.55,4.55,0,0,1,1,3.37c-1.16,6.54-3.89,7.81-7.3,18.53-6.32-12.2-4-22.88-10.8-23.21a9.28,9.28,0,0,0-3.94,1.36s1.57,1.45,4.34,9.6h0c.61,1.61,1,2.78,1.58,4.41,0,0,.16.48.17.48,1.68.21,4.49-1.1,4.49-1.1-.8,1.43-3.65,2-4.27,2,1.78,5.48,3.24,10.42,5.19,13l.31,0c1.69.21,3.49-1.42,3.49-1.42-.44,1.8-2.46,2.12-3.16,2.14a3.16,3.16,0,0,0,2.25,1,2.75,2.75,0,0,0,1.3-.33c-.05-.25,0-.51-.09-.83C25.42,55.48,35.65,40.16,35.65,35.62Z"/></g></g></g></svg>