<svg xmlns="http://www.w3.org/2000/svg" xmlns:xlink="http://www.w3.org/1999/xlink" viewBox="0 0 192.71 54.59"><defs><style>.cls-1{isolation:isolate;}.cls-2{fill:#fff;}.cls-3{fill:#fbd8b7;}.cls-4{fill:url(#radial-gradient);}.cls-5{fill:#de8b62;}.cls-6{opacity:0.33;fill:url(#linear-gradient);}.cls-14,.cls-23,.cls-31,.cls-32,.cls-42,.cls-6{mix-blend-mode:multiply;}.cls-7{fill:#e92629;}.cls-8{fill:url(#linear-gradient-2);}.cls-9{fill:url(#radial-gradient-2);}.cls-10{fill:url(#radial-gradient-3);}.cls-11{fill:url(#linear-gradient-3);}.cls-12{fill:#603b19;}.cls-13{fill:url(#radial-gradient-4);}.cls-14,.cls-23,.cls-32,.cls-42{opacity:0.43;}.cls-14{fill:url(#radial-gradient-5);}.cls-15{fill:#49494b;}.cls-16{fill:url(#linear-gradient-4);}.cls-17{fill:#4e4c50;}.cls-18{fill:url(#linear-gradient-5);}.cls-19,.cls-20{opacity:0.78;}.cls-19{fill:url(#linear-gradient-6);}.cls-20{fill:url(#linear-gradient-7);}.cls-21{opacity:0.65;fill:url(#radial-gradient-6);}.cls-22{fill:url(#radial-gradient-7);}.cls-23{fill:url(#radial-gradient-8);}.cls-24{fill:url(#radial-gradient-9);}.cls-25,.cls-26{opacity:0.13;}.cls-25{fill:url(#linear-gradient-8);}.cls-26{fill:url(#linear-gradient-9);}.cls-27{fill:url(#radial-gradient-10);}.cls-28{fill:url(#radial-gradient-11);}.cls-29{fill:#331818;}.cls-30{fill:url(#radial-gradient-13);}.cls-31{fill:url(#radial-gradient-14);}.cls-32{fill:url(#linear-gradient-10);}.cls-33{opacity:0.9;fill:url(#linear-gradient-11);}.cls-34{opacity:0.42;fill:url(#linear-gradient-12);}.cls-35{opacity:0.27;fill:url(#linear-gradient-13);}.cls-36{fill:url(#linear-gradient-14);}.cls-37{fill:url(#linear-gradient-15);}.cls-38{fill:url(#linear-gradient-16);}.cls-39{fill:url(#linear-gradient-17);}.cls-40{fill:url(#radial-gradient-15);}.cls-41{opacity:0.88;fill:url(#linear-gradient-18);}.cls-42{fill:url(#radial-gradient-16);}</style><radialGradient id="radial-gradient" cx="-391.19" cy="104.36" r="6.6" gradientTransform="matrix(0.08, 1, -0.59, 0.05, 234.46, 409.35)" gradientUnits="userSpaceOnUse"><stop offset="0.39" stop-color="#fff"/><stop offset="0.42" stop-color="#fffcf9"/><stop offset="0.57" stop-color="#fdecdc"/><stop offset="0.72" stop-color="#fce1c8"/><stop offset="0.86" stop-color="#fbdabb"/><stop offset="1" stop-color="#fbd8b7"/></radialGradient><linearGradient id="linear-gradient" x1="-404.13" y1="104.82" x2="-384.69" y2="104.82" gradientTransform="translate(545.93 37.52) rotate(16.79)" gradientUnits="userSpaceOnUse"><stop offset="0.63" stop-color="#fff" stop-opacity="0"/><stop offset="0.67" stop-color="#fef4f0" stop-opacity="0.06"/><stop offset="0.73" stop-color="#fcd8ca" stop-opacity="0.22"/><stop offset="0.81" stop-color="#f8aa8c" stop-opacity="0.48"/><stop offset="0.86" stop-color="#f68c63" stop-opacity="0.65"/><stop offset="0.87" stop-color="#f0885e" stop-opacity="0.68"/><stop offset="0.94" stop-color="#cb703d" stop-opacity="0.88"/><stop offset="1" stop-color="#be6832" stop-opacity="0.95"/></linearGradient><linearGradient id="linear-gradient-2" x1="-354.67" y1="109.23" x2="-357.93" y2="117.43" gradientTransform="translate(545.93 37.52) rotate(16.79)" gradientUnits="userSpaceOnUse"><stop offset="0" stop-color="#a81f26"/><stop offset="0.17" stop-color="#ac1f26"/><stop offset="0.35" stop-color="#b91f28"/><stop offset="0.54" stop-color="#cd2029"/><stop offset="0.58" stop-color="#d3202a"/><stop offset="0.74" stop-color="#e92629"/></linearGradient><radialGradient id="radial-gradient-2" cx="-387.81" cy="91.34" r="21.71" gradientTransform="translate(545.93 37.52) rotate(16.79)" gradientUnits="userSpaceOnUse"><stop offset="0" stop-color="#fff"/><stop offset="0.03" stop-color="#fef1f1"/><stop offset="0.17" stop-color="#f8bcbd"/><stop offset="0.32" stop-color="#f48e90"/><stop offset="0.46" stop-color="#f0686b"/><stop offset="0.6" stop-color="#ed4b4e"/><stop offset="0.73" stop-color="#eb3739"/><stop offset="0.87" stop-color="#e92a2d"/><stop offset="1" stop-color="#e92629"/></radialGradient><radialGradient id="radial-gradient-3" cx="-382.38" cy="108.79" r="18.27" gradientTransform="translate(545.93 37.52) rotate(16.79)" xlink:href="#radial-gradient"/><linearGradient id="linear-gradient-3" x1="-355.78" y1="96.42" x2="-362.73" y2="97.37" gradientTransform="translate(545.93 37.52) rotate(16.79)" gradientUnits="userSpaceOnUse"><stop offset="0" stop-color="#ac1f27"/><stop offset="0.18" stop-color="#b01f27"/><stop offset="0.37" stop-color="#bd1f28"/><stop offset="0.57" stop-color="#d1202a"/><stop offset="0.58" stop-color="#d3202a"/><stop offset="0.74" stop-color="#e92629"/></linearGradient><radialGradient id="radial-gradient-4" cx="-351.07" cy="99.59" r="10.71" gradientTransform="translate(545.93 37.52) rotate(16.79)" xlink:href="#radial-gradient"/><radialGradient id="radial-gradient-5" cx="-352.85" cy="101.77" r="10.4" gradientTransform="translate(545.93 37.52) rotate(16.79)" xlink:href="#linear-gradient"/><linearGradient id="linear-gradient-4" x1="-384.7" y1="82.82" x2="-354.83" y2="82.82" gradientTransform="translate(545.93 37.52) rotate(16.79)" gradientUnits="userSpaceOnUse"><stop offset="0" stop-color="#919495"/><stop offset="0.11" stop-color="#818384"/><stop offset="0.34" stop-color="#666767"/><stop offset="0.56" stop-color="#525253"/><stop offset="0.79" stop-color="#464646"/><stop offset="1" stop-color="#424242"/></linearGradient><linearGradient id="linear-gradient-5" x1="-374.24" y1="85.14" x2="-371.21" y2="86.96" gradientTransform="translate(545.93 37.52) rotate(16.79)" gradientUnits="userSpaceOnUse"><stop offset="0" stop-color="#fff"/><stop offset="0.05" stop-color="#efefef"/><stop offset="0.21" stop-color="#c2c2c3"/><stop offset="0.37" stop-color="#9c9c9e"/><stop offset="0.53" stop-color="#7f7f82"/><stop offset="0.69" stop-color="#6b6b6d"/><stop offset="0.85" stop-color="#5e5e61"/><stop offset="1" stop-color="#5a5a5d"/></linearGradient><linearGradient id="linear-gradient-6" x1="-361.96" y1="90.69" x2="-355.93" y2="85.89" gradientTransform="translate(545.93 37.52) rotate(16.79)" gradientUnits="userSpaceOnUse"><stop offset="0" stop-color="#424242"/><stop offset="0.22" stop-color="#4b4b4c"/><stop offset="0.62" stop-color="#565659"/><stop offset="1" stop-color="#5a5a5d"/></linearGradient><linearGradient id="linear-gradient-7" x1="-351.89" y1="89.77" x2="-362.25" y2="85.12" xlink:href="#linear-gradient-6"/><radialGradient id="radial-gradient-6" cx="-363.43" cy="103.28" r="5.67" gradientTransform="matrix(0.96, 0.29, -0.29, 0.95, 541.96, 51.52)" xlink:href="#radial-gradient"/><radialGradient id="radial-gradient-7" cx="3094.59" cy="3053.5" r="5.67" gradientTransform="matrix(-0.59, -0.48, 0.39, -0.48, 813.63, 2983.5)" xlink:href="#radial-gradient"/><radialGradient id="radial-gradient-8" cx="-375.34" cy="111.25" r="17.35" gradientTransform="matrix(0.96, 0.29, -0.29, 0.96, 546.62, 35.21)" xlink:href="#linear-gradient"/><radialGradient id="radial-gradient-9" cx="-370.6" cy="107.2" r="3.8" gradientTransform="matrix(0.96, 0.29, -0.34, 1.12, 551.31, 19.68)" gradientUnits="userSpaceOnUse"><stop offset="0.81" stop-color="#fff"/><stop offset="0.85" stop-color="#f6f6f6"/><stop offset="0.92" stop-color="#eaeae9"/><stop offset="1" stop-color="#e6e6e5"/></radialGradient><linearGradient id="linear-gradient-8" x1="-367.82" y1="115.07" x2="-360.78" y2="115.07" gradientTransform="matrix(0.96, 0.29, -0.29, 0.96, 542.07, 28.68)" gradientUnits="userSpaceOnUse"><stop offset="0" stop-color="#8f5037"/><stop offset="0.17" stop-color="#92543b"/><stop offset="0.34" stop-color="#9c6147"/><stop offset="0.51" stop-color="#ad755a"/><stop offset="0.69" stop-color="#c49276"/><stop offset="0.87" stop-color="#e1b798"/><stop offset="1" stop-color="#fbd8b7"/></linearGradient><linearGradient id="linear-gradient-9" x1="-811.98" y1="219.49" x2="-804.93" y2="219.49" gradientTransform="matrix(0.7, 0.44, -0.34, 0.78, 791.43, 218.03)" xlink:href="#linear-gradient-8"/><radialGradient id="radial-gradient-10" cx="-333.64" cy="-285.16" r="3.8" gradientTransform="matrix(0.8, 0.1, -0.15, 1.01, 377.14, 350.61)" xlink:href="#radial-gradient-9"/><radialGradient id="radial-gradient-11" cx="-333.2" cy="-284.63" r="2.69" gradientTransform="matrix(-0.31, 0.82, -0.56, -0.22, -112.39, 239.71)" gradientUnits="userSpaceOnUse"><stop offset="0.65" stop-color="#8f5037"/><stop offset="0.7" stop-color="#75402e"/><stop offset="0.78" stop-color="#582f25"/><stop offset="0.85" stop-color="#44221e"/><stop offset="0.93" stop-color="#371b19"/><stop offset="1" stop-color="#331818"/></radialGradient><radialGradient id="radial-gradient-13" cx="-370.16" cy="107.74" r="2.68" gradientTransform="matrix(-0.5, 0.86, -0.65, -0.38, 43.18, 393.99)" xlink:href="#radial-gradient-11"/><radialGradient id="radial-gradient-14" cx="-370.08" cy="82.29" r="21.39" gradientTransform="translate(545.93 37.52) rotate(16.79)" gradientUnits="userSpaceOnUse"><stop offset="0" stop-color="#fff" stop-opacity="0"/><stop offset="0.16" stop-color="#f3f3f3" stop-opacity="0.09"/><stop offset="0.48" stop-color="#d3d4d5" stop-opacity="0.32"/><stop offset="0.86" stop-color="#a6a7aa" stop-opacity="0.65"/><stop offset="0.87" stop-color="#98989b" stop-opacity="0.68"/><stop offset="0.9" stop-color="#656465" stop-opacity="0.8"/><stop offset="0.94" stop-color="#403e3e" stop-opacity="0.88"/><stop offset="0.97" stop-color="#2a2727" stop-opacity="0.93"/><stop offset="1" stop-color="#221f1f" stop-opacity="0.95"/></radialGradient><linearGradient id="linear-gradient-10" x1="-354.98" y1="102.04" x2="-346.78" y2="102.04" xlink:href="#linear-gradient"/><linearGradient id="linear-gradient-11" x1="-153.48" y1="-53.03" x2="-148.37" y2="-53.03" gradientTransform="matrix(0.99, 0.14, -0.14, 0.99, 288.97, 107.3)" xlink:href="#radial-gradient"/><linearGradient id="linear-gradient-12" x1="-350.64" y1="109.35" x2="-351.09" y2="112.46" gradientTransform="translate(545.93 37.52) rotate(16.79)" gradientUnits="userSpaceOnUse"><stop offset="0.39" stop-color="#fff"/><stop offset="0.41" stop-color="#fffbf9"/><stop offset="0.53" stop-color="#fce4d4"/><stop offset="0.65" stop-color="#fad2b7"/><stop offset="0.77" stop-color="#f9c5a3"/><stop offset="0.89" stop-color="#f8be96"/><stop offset="1" stop-color="#f8bb92"/></linearGradient><linearGradient id="linear-gradient-13" x1="-744.3" y1="566.41" x2="-743.72" y2="568.56" gradientTransform="matrix(0.84, 0.58, -0.57, 0.82, 1094.08, 7.91)" xlink:href="#linear-gradient-8"/><linearGradient id="linear-gradient-14" x1="-357.34" y1="87.47" x2="-353.88" y2="87.47" gradientTransform="translate(545.93 37.52) rotate(16.79)" gradientUnits="userSpaceOnUse"><stop offset="0" stop-color="#fdcd0f"/><stop offset="0.17" stop-color="#fbbd15"/><stop offset="0.45" stop-color="#f9a91c"/><stop offset="0.73" stop-color="#f79c21"/><stop offset="1" stop-color="#f79822"/></linearGradient><linearGradient id="linear-gradient-15" x1="-353.68" y1="91.98" x2="-351.9" y2="90.99" xlink:href="#linear-gradient-14"/><linearGradient id="linear-gradient-16" x1="-353.79" y1="94.83" x2="-349.19" y2="94.83" gradientTransform="translate(545.93 37.52) rotate(16.79)" gradientUnits="userSpaceOnUse"><stop offset="0.01" stop-color="#fff"/><stop offset="0.32" stop-color="#fdcd0f"/><stop offset="0.43" stop-color="#fbbd15"/><stop offset="0.62" stop-color="#f9a91c"/><stop offset="0.81" stop-color="#f79c21"/><stop offset="1" stop-color="#f79822"/></linearGradient><linearGradient id="linear-gradient-17" x1="-354.66" y1="92.49" x2="-352.81" y2="92.49" gradientTransform="translate(545.93 37.52) rotate(16.79)" gradientUnits="userSpaceOnUse"><stop offset="0" stop-color="#fff"/><stop offset="0.09" stop-color="#fff6d5"/><stop offset="0.22" stop-color="#ffeba0"/><stop offset="0.36" stop-color="#ffe172"/><stop offset="0.49" stop-color="#ffd94d"/><stop offset="0.62" stop-color="#ffd32f"/><stop offset="0.75" stop-color="#ffcf1b"/><stop offset="0.88" stop-color="#ffcc0e"/><stop offset="1" stop-color="#ffcb0a"/></linearGradient><radialGradient id="radial-gradient-15" cx="-352.45" cy="95.01" r="6.43" gradientTransform="translate(545.93 37.52) rotate(16.79)" gradientUnits="userSpaceOnUse"><stop offset="0.1" stop-color="#fff"/><stop offset="0.14" stop-color="#fff6d5"/><stop offset="0.18" stop-color="#ffeba0"/><stop offset="0.23" stop-color="#ffe172"/><stop offset="0.28" stop-color="#ffd94d"/><stop offset="0.33" stop-color="#ffd32f"/><stop offset="0.38" stop-color="#ffcf1b"/><stop offset="0.42" stop-color="#ffcc0e"/><stop offset="0.47" stop-color="#ffcb0a"/></radialGradient><linearGradient id="linear-gradient-18" x1="-357.18" y1="86.53" x2="-355.54" y2="86.53" xlink:href="#linear-gradient-17"/><radialGradient id="radial-gradient-16" cx="-353.78" cy="94.52" r="3.83" gradientTransform="translate(545.93 37.52) rotate(16.79)" gradientUnits="userSpaceOnUse"><stop offset="0.63" stop-color="#fff" stop-opacity="0"/><stop offset="0.67" stop-color="#fef4ea" stop-opacity="0.06"/><stop offset="0.73" stop-color="#fcd7b3" stop-opacity="0.22"/><stop offset="0.81" stop-color="#f8a85a" stop-opacity="0.48"/><stop offset="0.86" stop-color="#f68920" stop-opacity="0.65"/><stop offset="0.9" stop-color="#f47622" stop-opacity="0.77"/><stop offset="0.93" stop-color="#f26724" stop-opacity="0.87"/><stop offset="0.97" stop-color="#f15d26" stop-opacity="0.93"/><stop offset="1" stop-color="#f15a26" stop-opacity="0.95"/></radialGradient></defs><title>Asset 1</title><g class="cls-1"><g id="Layer_2" data-name="Layer 2"><g id="Layer_1-2" data-name="Layer 1"><path class="cls-2" d="M158.53,54.59c-.56,0-1.13,0-1.72-.06h-.11l-1.14-.1-.29,0-1-.13-.38-.06-1-.19-.38-.07-1.39-.3a21.53,21.53,0,0,1-11.66-7.33.76.76,0,0,1-.08-.11l-.06-.07a18.64,18.64,0,0,1-1.7-2.67l-.41-.21-.18-.11-.24-.15-.27-.19-.29-.24-.28-.26a4.57,4.57,0,0,1-.31-.34c-.08-.1-.18-.23-.29-.39a4.4,4.4,0,0,1-.27-.45,2.16,2.16,0,0,1-.19-.4,5.35,5.35,0,0,1-.25-.74,1.55,1.55,0,0,1,0-.21l0,0a5.47,5.47,0,0,1,.34-3,3.49,3.49,0,0,1,.2-.44l.14-.22a5.48,5.48,0,0,1-.05-.57V35.3a5.07,5.07,0,0,1,0-.55,1.36,1.36,0,0,1,0-.21c0-.15,0-.33.09-.51l.06-.22a4.48,4.48,0,0,1,.27-.76,5.19,5.19,0,0,1,.42-.77l0-.08.06-.08a4.72,4.72,0,0,1,.5-.59l0,0,.25-.22a3.46,3.46,0,0,1,.49-.36h0c-2.23-4.4-1.87-7.92-1.09-10.2l0-.09a9.45,9.45,0,0,1,8.34-6.41H145c.28,0,.57,0,.85.06a5.63,5.63,0,0,1-.39-1.09,4.57,4.57,0,0,1,1.3-4.56,4,4,0,0,1,1.2-.74,4.43,4.43,0,0,1,1.69-.33,4.73,4.73,0,0,1,1,.1,4.12,4.12,0,0,1,.4-.33l.29-.2,0,0a4.27,4.27,0,0,1,1-.43l.16,0s-.47-.55-.47-.56l-.22-.26A3.6,3.6,0,0,1,154.59,0h.08c2.76.07,20.21,4.86,20.38,4.91a6.83,6.83,0,0,1,3.14,2.19c.38.42,1.14,1.3,3.18,3.9l1.1,1.41a1.09,1.09,0,0,1,.13.17l.43.54.13.17,1,1.26.06.09c2.67,3.45,5.25,6.83,5.27,6.86a3.62,3.62,0,0,1,.42,3.66,10.43,10.43,0,0,1,2.79,8,.28.28,0,0,1,0,.09q0,.39-.09.78l0,.19c0,.24-.08.44-.13.65l0,.22c-.06.24-.13.47-.2.7a1,1,0,0,1,0,.16c-1.05,3.25-3.46,6.13-7.15,8.51a2.43,2.43,0,0,1-.35.2,19.34,19.34,0,0,1-8.41,2.12h0c-.35,0-.7,0-1,0-.35.39-.71.76-1.07,1.1l0,0c-.33.32-.66.62-1,.91l-.15.14c-.3.25-.58.49-.87.71l-.23.19-.47.35-.41.3-.59.4-.41.27-.52.32-.51.3-.36.2-.62.32-.08,0A22,22,0,0,1,163.56,54a15,15,0,0,1-1.61.36l-.16,0a2.32,2.32,0,0,1-.38.06A22.11,22.11,0,0,1,158.53,54.59Z"/><path class="cls-3" d="M144.86,17.81a7.25,7.25,0,0,1,1.72.27,6.55,6.55,0,0,1,2.6,1.35l0,0h0c2.79,2.32,4.35,6.79,4.33,10.39,0,0-3.7.09-4.88,5.62-2.39-.28-5.07-2.13-7-4.47-2.6-4-2.6-7-1.88-9.12A5.84,5.84,0,0,1,144.86,17.81Z"/><path class="cls-4" d="M142.72,31.52c-2.6-4-2.6-7-1.88-9.12A5.82,5.82,0,0,1,146,18.34a6.78,6.78,0,0,1,1.72.27,6.17,6.17,0,0,1,.61.19,6.21,6.21,0,0,0-1.7-.72,7.25,7.25,0,0,0-1.72-.27,5.84,5.84,0,0,0-5.11,4.06C139,24,139,27,141.63,31a14,14,0,0,0,5.18,4A15,15,0,0,1,142.72,31.52Z"/><path class="cls-5" d="M146.74,29.69a.83.83,0,0,0,.69-1c-.12-.94-.59-1.93.17-2s2.51.82,1.47-1.57-4.51-4.78-6.12-3S143.17,30,146.74,29.69Z"/><path class="cls-6" d="M144.86,17.81a7.25,7.25,0,0,1,1.72.27,6.55,6.55,0,0,1,2.6,1.35l0,0h0c2.79,2.32,4.35,6.79,4.33,10.39,0,0-3.7.09-4.88,5.62-2.39-.28-5.07-2.13-7-4.47-2.6-4-2.6-7-1.88-9.12A5.84,5.84,0,0,1,144.86,17.81Z"/><path class="cls-7" d="M169.32,16.25c-3.77-2-6.8-2.81-10-2.6h0c-1.85.19-2.16-.44-2.9-1.43s-2.59-3.26-3.61-1.58S155,14.45,155,14.45l-.83-.43a12.91,12.91,0,0,1-2.43-1.63c-1.06-1-2.13-1.56-2.7-1.06s-.24,2.86,3.64,3.82l-.29.14h0l-.13.06a13.94,13.94,0,0,0-1.73,1l-.13.09h0a13.93,13.93,0,0,0-3.76,3.82,18.6,18.6,0,0,0-1.44,2.85,17.4,17.4,0,0,0-.75,8.41h0c-1.73.59-3.09,3-3.09,3-.19-.3-1.85-1.44-2.48,0s.85,3,.85,3a1.15,1.15,0,0,0-1.56.44c-.87,2.2,1.94,2.5,1.94,2.5,3.29,8,11.7,9.63,11.7,9.63a24.49,24.49,0,0,0,9.22.69h.05l.21,0,.41-.08.22,0,.38-.09c3.85-.93,8.58-3.41,12.77-9.46.23-.38.45-.77.65-1.18C179.29,32.83,178.54,21.17,169.32,16.25Z"/><path class="cls-8" d="M166.32,49.08A22.68,22.68,0,0,0,174,42.63l.17-4.09s-3.18,7.12-7,9.77A2.11,2.11,0,0,0,166.32,49.08Z"/><path class="cls-9" d="M141.85,33.81a1.92,1.92,0,0,1,.64.48s1.36-2.41,3.09-3h0a17.42,17.42,0,0,1,.76-8.42A18.52,18.52,0,0,1,147.77,20a14.22,14.22,0,0,1,3.76-3.82h0l.14-.1a12.62,12.62,0,0,1,1.73-1l.12-.06h0l.3-.14c-3.62-.89-4.13-3-3.74-3.69a1,1,0,0,0-1,.09c-.55.48-.24,2.86,3.64,3.82l-.29.14h0l-.13.06a13.94,13.94,0,0,0-1.73,1l-.13.09h0a13.93,13.93,0,0,0-3.76,3.82,18.6,18.6,0,0,0-1.44,2.85,17.4,17.4,0,0,0-.75,8.41h0A6.24,6.24,0,0,0,141.85,33.81Zm20.32,16.78A24.49,24.49,0,0,1,153,49.9s-8.42-1.64-11.7-9.63c0,0-2.81-.3-1.94-2.49a1.57,1.57,0,0,1,.25-.3,1.17,1.17,0,0,0-1.35.51c-.87,2.2,1.94,2.5,1.94,2.5,3.29,8,11.7,9.63,11.7,9.63a24.49,24.49,0,0,0,9.22.69h.05l.21,0,.41-.08.22,0,.22,0Zm-9.29-38.42a13.17,13.17,0,0,0,2.42,1.63l.83.44s-3.3-2.14-2.29-3.82a2,2,0,0,1,.24-.3,1,1,0,0,0-1.33.52,1.44,1.44,0,0,0,0,1.38ZM139.66,37.4a1.09,1.09,0,0,1,1.21-.07s-1.49-1.61-.86-3a1.35,1.35,0,0,1,.29-.44,1.08,1.08,0,0,0-1.38.65C138.39,35.7,139.32,37,139.66,37.4Z"/><path class="cls-3" d="M167.2,35.24c.37-1,4.41-8.33-2.56-11.68-4.21-2-6.84-.85-8.26.38h0c-1.13.79-1.49,0-1.49,0a4.68,4.68,0,0,0-2.53-3.13c-1.2-.59-3.3-.41-4.92,2.9a23,23,0,0,0-1.85,7.64l-.65.08c-1.94.26-3.54,3.11-3.54,3.11-.19-.3-1.85-1.44-2.48,0s.85,3,.85,3a1.15,1.15,0,0,0-1.56.44c-.87,2.2,1.94,2.5,1.94,2.5,3.29,8,11.7,9.63,11.7,9.63,13,3.07,16.32-2.58,17.66-6.83S167.2,35.24,167.2,35.24Z"/><path class="cls-10" d="M164.64,23.56c-4.21-2-6.84-.85-8.26.38h0a1.9,1.9,0,0,1-.63.31A4.56,4.56,0,0,1,156,25s.34.83,1.49.08h0c1.46-1.19,4.12-2.27,8.27-.11a8,8,0,0,1,2.33,1.76A7,7,0,0,0,164.64,23.56Zm3.42,12.77c-.07.15-.13.27-.16.35A11.18,11.18,0,0,1,169.42,39,10.83,10.83,0,0,0,168.06,36.33ZM140.37,41a16.43,16.43,0,0,0,1.81,3,15.94,15.94,0,0,1-1.48-2.95Zm7.07-17.31a23,23,0,0,0-1.85,7.64l-.65.08c-1.94.26-3.54,3.11-3.54,3.11-.19-.3-1.85-1.44-2.48,0s.85,3,.85,3a1.15,1.15,0,0,0-1.56.44,1.52,1.52,0,0,0,.66,2.08,1.55,1.55,0,0,1,0-1.57,1.17,1.17,0,0,1,1.58-.4S139,36.45,139.66,35s1.59-.17,1.77.13c0,0,2.1-3,4.35-3l.65-.07a23,23,0,0,1,2.1-7.57c1.72-3.25,3.83-3.37,5-2.74l.34.2a4.89,4.89,0,0,0-1.52-1.17C151.16,20.19,149.06,20.37,147.44,23.68Z"/><path class="cls-11" d="M177.66,30.05a16.23,16.23,0,0,0-7.28-13.14c-1.61.2-3,1.35-.94,3.2,6,5.37,1.45,14.92,1.45,14.92S175.52,31.1,177.66,30.05Z"/><path class="cls-3" d="M185.69,26.45a8,8,0,0,0-1.89-.5,7.3,7.3,0,0,0-3.28.21h0c-3.93,1.11-7.56,5-9.17,8.71,0,0,3.76,1.78,2.45,8,2.58.8,6.19.11,9.24-1.41,4.48-2.89,5.87-6,6.08-8.5A6.57,6.57,0,0,0,185.69,26.45Z"/><path class="cls-5" d="M178.36,37.8a.94.94,0,0,1-.24-1.38c.56-.92,1.49-1.71.74-2.14s-3-.3-.79-2.29,6.8-2.85,7.67-.32S181.88,39.75,178.36,37.8Z"/><path class="cls-12" d="M181.44,34.92a9.59,9.59,0,0,1-2.16,3.22,3,3,0,0,1-.92-.34.94.94,0,0,1-.24-1.38c.56-.92,1.49-1.71.74-2.14s-3-.3-.79-2.29a7,7,0,0,1,1.55-1C180.87,31.4,182.45,32.45,181.44,34.92Z"/><path class="cls-13" d="M180,27.77h0a7.49,7.49,0,0,1,3.29-.21,7.91,7.91,0,0,1,1.88.51,6.54,6.54,0,0,1,3.41,6.49,7.9,7.9,0,0,1-.14.92,8.5,8.5,0,0,0,.62-2.52,6.57,6.57,0,0,0-3.4-6.5,8,8,0,0,0-1.89-.5,7.3,7.3,0,0,0-3.28.21h0c-3.93,1.11-7.56,5-9.17,8.71l.25.14C173.4,31.8,176.6,28.73,180,27.77Z"/><path class="cls-14" d="M185.69,26.45a8,8,0,0,0-1.89-.5,7.3,7.3,0,0,0-3.28.21h0c-3.93,1.11-7.56,5-9.17,8.71,0,0,3.76,1.78,2.45,8,2.58.8,6.19.11,9.24-1.41,4.48-2.89,5.87-6,6.08-8.5A6.57,6.57,0,0,0,185.69,26.45Z"/><path class="cls-15" d="M154.59,3.6a50.27,50.27,0,0,0,11.55,10,102.7,102.7,0,0,0,20.47,10.07s-9.53-12.52-11.14-14.22A3.64,3.64,0,0,0,174,8.36C173.29,8.14,156.59,3.64,154.59,3.6Z"/><path class="cls-16" d="M173,9.37s6.9,6.33,8.47,8.05c.27.3.18,0-.13-.66-2.49-3.21-5.06-6.49-5.83-7.3A3.64,3.64,0,0,0,174,8.36c-.75-.22-17.45-4.72-19.45-4.76a42,42,0,0,0,3.68,3.89l.36.17-1-1.84C157.56,5.6,169.14,8.38,173,9.37Z"/><path class="cls-17" d="M165,10.06l-6.56,3.65s1.5,4.33,7.35,6.9a26,26,0,0,0,10.11,2.47l.83-6.35S172.06,10.88,165,10.06Z"/><path class="cls-18" d="M174.27,14.58a10.68,10.68,0,0,0-1.44-1.39,17.21,17.21,0,0,0-7.8-3.13l-6.56,3.65a11.32,11.32,0,0,0,3.22,4.3l.2,0-1.58-3.43,4.81-2.83A20.58,20.58,0,0,1,174.27,14.58Z"/><path class="cls-19" d="M175.93,23.08l.83-6.35a16.76,16.76,0,0,0-1.92-2l-.12,0L172.33,20c-.93,2.05-3.75,1.62-3.75,1.62l2.45.78s.47.12,1.38.25A18.51,18.51,0,0,0,175.93,23.08Z"/><path class="cls-20" d="M177.09,16.63l4.26.8L185.71,23s-7.21-2.73-9-3.87Z"/><path class="cls-21" d="M168.76,43.14s-1.43,7-9.58,7A14.49,14.49,0,0,0,168.76,43.14Z"/><path class="cls-22" d="M158.39,38.6s2.72-3.79,8-1.13A12.88,12.88,0,0,0,158.39,38.6Z"/><path class="cls-23" d="M167.2,35.24c.37-1,4.41-8.33-2.56-11.68-4.21-2-6.84-.85-8.26.38h0c-1.13.79-1.49,0-1.49,0a4.68,4.68,0,0,0-2.53-3.13c-1.2-.59-3.3-.41-4.92,2.9a23,23,0,0,0-1.85,7.64l-.65.08c-1.94.26-3.54,3.11-3.54,3.11-.19-.3-1.85-1.44-2.48,0s.85,3,.85,3a1.15,1.15,0,0,0-1.56.44c-.87,2.2,1.94,2.5,1.94,2.5,3.29,8,11.7,9.63,11.7,9.63,13,3.07,16.32-2.58,17.66-6.83S167.2,35.24,167.2,35.24Z"/><path class="cls-12" d="M162.53,26.1a2,2,0,0,0-1.57-.83,1.62,1.62,0,0,0-1.43.64l-.06.11c-.2.59.26.9.57.62a1.73,1.73,0,0,1,.9-.39,1.38,1.38,0,0,1,1.16.52l.05.06a.22.22,0,0,0,.06.07c.19.26.34.51.38.56s.2,0,.2,0A1.79,1.79,0,0,0,162.53,26.1Z"/><path class="cls-12" d="M150.27,23.51a1.48,1.48,0,0,1,1.52-.18,1.45,1.45,0,0,1,.85,1.13v.12c-.07.61-.54.73-.66.36a1.59,1.59,0,0,0-.55-.7,1,1,0,0,0-1.08.05l-.07,0-.06.05c-.25.17-.46.34-.51.37s-.13-.1-.13-.1A1.81,1.81,0,0,1,150.27,23.51Z"/><path class="cls-24" d="M162.82,34.1c-.82,2.09-2.87,3.24-4.58,2.57s-2.43-2.89-1.62-5,2.86-3.23,4.57-2.57S163.63,32,162.82,34.1Z"/><path class="cls-25" d="M163,34.09c-.88,2.21-3.05,3.43-4.86,2.73s-2.58-3.06-1.72-5.26,3.05-3.43,4.86-2.74S163.85,31.89,163,34.09Z"/><path class="cls-26" d="M152.58,31.37c-.94,1.75-2.77,2.38-4.07,1.41s-1.6-3.17-.66-4.92,2.77-2.39,4.07-1.41S153.53,29.62,152.58,31.37Z"/><path class="cls-27" d="M152.84,30.24c-.43,1.91-1.94,3.21-3.39,2.92s-2.29-2.09-1.87-4S149.52,26,151,26.24,153.26,28.33,152.84,30.24Z"/><path class="cls-28" d="M152.09,30.73a1.37,1.37,0,1,1-.69-2.07A1.56,1.56,0,0,1,152.09,30.73Z"/><path class="cls-29" d="M151.73,30.77c-.24.69-.84,1.11-1.35.93a1.2,1.2,0,0,1-.49-1.57c.24-.69.84-1.11,1.35-.93A1.21,1.21,0,0,1,151.73,30.77Z"/><path class="cls-2" d="M150.64,29.78a.43.43,0,0,1-.55.23.44.44,0,0,1-.13-.6.41.41,0,0,1,.55-.23A.44.44,0,0,1,150.64,29.78Z"/><path class="cls-2" d="M151.46,31.45a.32.32,0,0,1-.41.19.34.34,0,0,1-.09-.46.33.33,0,0,1,.42-.19A.35.35,0,0,1,151.46,31.45Z"/><path class="cls-12" d="M154,38.4c.28-.42.66-1.13.22-1.33s-1,.51-1.3,1Z"/><path class="cls-12" d="M150.2,37.15c0-.5.13-1.3.6-1.2s.5,1,.48,1.55Z"/><path class="cls-24" d="M162.82,34.1c-.82,2.09-2.87,3.24-4.58,2.57s-2.43-2.89-1.62-5,2.86-3.23,4.57-2.57S163.63,32,162.82,34.1Z"/><path class="cls-30" d="M161.84,34.5a1.84,1.84,0,0,1-2.4,1,1.82,1.82,0,0,1-.51-2.51,1.85,1.85,0,0,1,2.4-1A1.83,1.83,0,0,1,161.84,34.5Z"/><path class="cls-29" d="M161.54,34.41a1.25,1.25,0,1,1-2.16-1.16,1.25,1.25,0,1,1,2.16,1.16Z"/><path class="cls-2" d="M160.23,33.08a.51.51,0,0,1-.7.14.5.5,0,0,1-.06-.71.51.51,0,0,1,.7-.14A.5.5,0,0,1,160.23,33.08Z"/><path class="cls-2" d="M161,35.17a.39.39,0,0,1-.54.13.43.43,0,0,1,.51-.67A.39.39,0,0,1,161,35.17Z"/><path class="cls-31" d="M186.61,23.68s-9.53-12.52-11.14-14.22A3.64,3.64,0,0,0,174,8.36c-.75-.22-17.45-4.72-19.45-4.76a50,50,0,0,0,8.2,7.71l-4.32,2.4s1.5,4.33,7.35,6.9a26,26,0,0,0,10.11,2.47l.48-3.71A89.94,89.94,0,0,0,186.61,23.68Z"/><path class="cls-32" d="M178.36,37.8a.94.94,0,0,1-.24-1.38c.56-.92,1.49-1.71.74-2.14s-3-.3-.79-2.29,6.8-2.85,7.67-.32S181.88,39.75,178.36,37.8Z"/><path class="cls-33" d="M149.66,34.43c-1.77-2.21-2.64-2.27-3.81-2.62h0l-1,.5C147.2,32.15,149.66,34.43,149.66,34.43Z"/><path class="cls-34" d="M175.16,41.46a3,3,0,0,1-.24,1,10.16,10.16,0,0,0,7.07-1.8A18.41,18.41,0,0,1,175.16,41.46Z"/><path class="cls-35" d="M140.48,38.29s7.39,8.44,17,6C157.48,44.26,147.76,44.62,140.48,38.29Z"/><path class="cls-36" d="M179.58,14.56c-.22,2.91-.27,6.09.5,7.71l.75.14s-1-1.42-.62-7Z"/><path class="cls-37" d="M179.78,25.22l-.37-2.39s.11-.54.35-.62a7.23,7.23,0,0,0,.92-.53s.57-.18.74.18,1.16,1.95,1.16,1.95,0,.41-.2.54S180,25.58,179.78,25.22Z"/><path class="cls-38" d="M180.05,25.31l-.28,3.29a3.9,3.9,0,0,0,2.51.09c1.23-.45,2.06-1.14,1.95-1.4s-1.85-2.94-1.85-2.94Z"/><polygon class="cls-39" points="179.73 22.28 180.95 24.61 179.93 25.05 179.6 22.68 179.73 22.28"/><path class="cls-40" d="M180.71,28.79l.06.05.47,0-.51-3.34Zm1.24,0,.33-.09.25-.1,0-.08-1.38-3Zm.45-3.6,1.18,2.64,0,.2a2.65,2.65,0,0,0,.48-.4Zm.54,3.22q.28-.13.51-.27l-1.61-2.65Z"/><path class="cls-41" d="M179.71,14.71a23.48,23.48,0,0,0,.08,5.41A49,49,0,0,1,179.9,15Z"/><path class="cls-42" d="M184.23,27.29c-.11-.25-1.85-2.94-1.85-2.94.22-.13.2-.54.2-.54s-1-1.58-1.16-1.95-.74-.18-.74-.18a7.23,7.23,0,0,1-.92.53c-.24.08-.35.62-.35.62l.37,2.39c.06.07.19.08.37.05l-.1,0-.28,3.29a3.9,3.9,0,0,0,2.51.09C183.51,28.24,184.34,27.55,184.23,27.29Z"/><path class="cls-12" d="M164.52,42.5a21.3,21.3,0,0,1-12.8,1.08c-.63-.13-1.24-.29-1.84-.47h0c-1-.29-1.86-.61-2.68-.94h0c-.37-.15-.72-.3-1.06-.46l-.22-.1a21.08,21.08,0,0,1-6.29-4.29l-.06-.05a18,18,0,0,0,6.66,4.86l.21.1,1,.45h0c.8.32,1.68.64,2.62.92h0c.58.17,1.17.33,1.79.46a20.6,20.6,0,0,0,12.53-1.17.34.34,0,0,0,.18-.43Z"/><path class="cls-12" d="M164.53,41.07s-1.41,2,1.28,2.64A2.37,2.37,0,0,1,164.53,41.07Z"/><path class="cls-2" d="M118.16,41.13a.38.38,0,0,1-.38.39.38.38,0,0,1-.38-.39V38.91h-.56a.37.37,0,0,1,0-.73h1.88a.37.37,0,0,1,0,.73h-.56Z"/><path class="cls-2" d="M120.41,40.59,120,40v1.15a.38.38,0,1,1-.75,0V38.46a.28.28,0,0,1,.28-.28.29.29,0,0,1,.24.14l1,1.7,1-1.7a.32.32,0,0,1,.25-.14.28.28,0,0,1,.28.28v2.68a.38.38,0,0,1-.76,0V40l-.37.6a.52.52,0,0,1-.44.25A.51.51,0,0,1,120.41,40.59Z"/><path class="cls-2" d="M34,35.68l-.06-.24,0-.08a.61.61,0,0,0,0-.12,1.59,1.59,0,0,0-.14-.26h0l0,0a1.73,1.73,0,0,0-.15-.2l0,0,0,0,0,0c-.39-.54-1.18-1.66-1.62-2.44l0-.06,0-.07c-.36-.66-.62-1.19-.62-1.19h0L31,30.54c-.42-.93-.77-1.82-1.05-2.64A47.71,47.71,0,0,1,28.69,22h0c-.05-.47-.09-.81-.1-.9-.05-.41-.11-.79-.18-1.15-.48-2.44-1.48-3.77-3-4a2.38,2.38,0,0,0-.53,0c-1.29,0-2.57.88-3.79,2.62a33.77,33.77,0,0,0-2.86,6l-1.61,4.27c-.05.14-.21.55-.55.55-.17,0-.4-.1-.57-.6a19.3,19.3,0,0,1-.45-2s-.73-4.26-1.86-11.62C12.54,11,11,8.82,8.51,8.76c-3.19,0-5.7,4.21-7.44,12.52-2.71,12.9.57,21.21.71,21.56a2,2,0,0,0,1.69,1.28l.23,0a2.07,2.07,0,0,0,1.93-2.85c0-.08-2.92-7.6-.49-19.16A28.56,28.56,0,0,1,7.7,14.24a.62.62,0,0,1,.51-.34c.38,0,.55.44.61.62.08.34.17.74.24,1.22,1.13,7.36,1.86,11.65,1.86,11.68.57,3.34,1.84,7.39,4.66,7.69a1.77,1.77,0,0,0,.32,0c2.68,0,4-3.56,4.57-4.9l1.67-4.43c.49-1.32,1-2.5,1.41-3.27.17-.35.35-.51.56-.51s.4.21.44.64c0,.2,0,.41.05.63v.11a30.89,30.89,0,0,0,2.26,8.13,1.8,1.8,0,0,1,.08.21h0c.14.34.34.8.58,1.32.72,1.51,1.83,3.72,3,4.64h0A3,3,0,0,0,31,38a2.15,2.15,0,0,0,.85.18A2.12,2.12,0,0,0,34,36.05c0-.1,0-.21,0-.31S34,35.7,34,35.68Zm8.66-15.06a8.79,8.79,0,1,0,8.79,8.79A8.79,8.79,0,0,0,42.62,20.62Zm3.72,10.22a13.76,13.76,0,0,1-3.72,3.1h0a13.76,13.76,0,0,1-3.72-3.1c-1.81-2.21-.71-4.79,1.18-4.75a3.06,3.06,0,0,1,2.54,1.77h0a3.06,3.06,0,0,1,2.54-1.77C47.05,26.05,48.15,28.63,46.34,30.84Zm55.89,3a2.27,2.27,0,0,0-.71-1.58,2.32,2.32,0,0,0-1-.56,2.73,2.73,0,0,0-.5-.05,2.23,2.23,0,0,0-1.63.71,4.21,4.21,0,0,1-3.07,1.34,4.88,4.88,0,0,1-.92-.1,4.18,4.18,0,0,1-2.62-1.89,4.26,4.26,0,0,1,3.55-6.51,4.15,4.15,0,0,1,.93.11,4.21,4.21,0,0,1,1.54.71c.13.12.53.53.39.94s-1.21.87-3,1H95l-.19.05a1.49,1.49,0,0,0-1.11,1.44,1.51,1.51,0,0,0,1.4,1.51h.26c.31,0,7.5-.49,7.64-3.75V27a4.29,4.29,0,0,0-.25-1.85,2.25,2.25,0,0,0-.08-.24l-.12-.22a1.29,1.29,0,0,0-.06-.12c-.11-.17-.19-.3-.25-.38l-.09-.09a8.65,8.65,0,0,0-5-3.25,8.34,8.34,0,0,0-1.93-.22A8.79,8.79,0,0,0,88,34.1,8.61,8.61,0,0,0,93.37,38a8.23,8.23,0,0,0,1.91.22,8.69,8.69,0,0,0,6.34-2.76A2.27,2.27,0,0,0,102.23,33.82ZM120.5,20.68a1.57,1.57,0,0,0-.32,0h-.05a2.19,2.19,0,0,0-2.07,1.92,20.57,20.57,0,0,1-3.93,8.86l-.42.54-.35.32-.15-.46a33.26,33.26,0,0,0-5.48-10.38,2.15,2.15,0,0,0-1.71-.81,2.12,2.12,0,0,0-1.32.46,2.15,2.15,0,0,0-.34,3,28.67,28.67,0,0,1,5.24,10.76l.16,1-.63.48-.18.15,0,0a30.91,30.91,0,0,1-11.24,4.89,2.19,2.19,0,0,0,.51,4.32h.08a2.6,2.6,0,0,0,.39-.05c21.46-4.93,23.66-21.84,23.75-22.56A2.19,2.19,0,0,0,120.5,20.68Zm-41,8,.24-.23a27.92,27.92,0,0,1,5.35-3.93,2.15,2.15,0,0,0-1-4,2.28,2.28,0,0,0-1,.27A32.2,32.2,0,0,0,76,26.06l0,0-.06,0-.44.22V22.85a2.19,2.19,0,0,0-4.38,0V36a2.19,2.19,0,1,0,4.38,0V31.93l0-.19.12-.09.2-.11h.08a.6.6,0,0,1,.39.19l7.62,7.18a2.2,2.2,0,0,0,3.1-.1,2.13,2.13,0,0,0,.59-1.56,2.16,2.16,0,0,0-.69-1.53Zm-12.9-8a2.19,2.19,0,0,0-2.19,2.18v8.36l-.56-.91c-1.43-2.31-4-6.35-4.74-7.51-.35-.53-1.44-2.13-3-2.13a2.79,2.79,0,0,0-.76.11c-2,.63-2.05,3.06-2.06,4.61V36a2.19,2.19,0,1,0,4.37,0V28.57l.56.91c1.62,2.59,3.39,5.45,3.43,5.53,1.3,2.07,2.71,3.17,4.11,3.17a2.73,2.73,0,0,0,.73-.1c1.49-.41,2.27-1.81,2.34-4.17V22.85A2.19,2.19,0,0,0,66.56,20.67Z"/></g></g></g></svg>