<?xml version="1.0" encoding="utf-8"?>
<!-- Generator: Adobe Illustrator 24.0.0, SVG Export Plug-In . SVG Version: 6.00 Build 0)  -->
<svg version="1.1" id="Layer_1" xmlns="http://www.w3.org/2000/svg" xmlns:xlink="http://www.w3.org/1999/xlink" x="0px" y="0px"
	 viewBox="0 0 192.71 54.59" style="enable-background:new 0 0 192.71 54.59;" xml:space="preserve">
<style type="text/css">
	.st0{fill:#FFFFFF;}
	.st1{fill:#FAD7B5;}
	.st2{fill:url(#XMLID_2_);}
	.st3{fill:#DD8A61;}
	.st4{opacity:0.33;fill:url(#XMLID_3_);}
	.st5{fill:#E82429;}
	.st6{fill:url(#XMLID_4_);}
	.st7{fill:url(#XMLID_5_);}
	.st8{fill:url(#XMLID_6_);}
	.st9{fill:url(#XMLID_7_);}
	.st10{fill:#603B19;}
	.st11{fill:url(#XMLID_8_);}
	.st12{opacity:0.43;fill:url(#XMLID_9_);}
	.st13{fill:#48484A;}
	.st14{fill:url(#XMLID_10_);}
	.st15{fill:#4E4C50;}
	.st16{fill:url(#XMLID_11_);}
	.st17{opacity:0.78;fill:url(#XMLID_12_);}
	.st18{opacity:0.78;fill:url(#XMLID_13_);}
	.st19{opacity:0.65;fill:url(#XMLID_14_);}
	.st20{fill:url(#XMLID_15_);}
	.st21{opacity:0.43;fill:url(#XMLID_16_);}
	.st22{fill:url(#XMLID_17_);}
	.st23{opacity:0.13;fill:url(#XMLID_18_);}
	.st24{opacity:0.13;fill:url(#XMLID_19_);}
	.st25{fill:url(#XMLID_20_);}
	.st26{fill:url(#XMLID_21_);}
	.st27{fill:#321818;}
	.st28{fill:url(#XMLID_22_);}
	.st29{fill:url(#XMLID_23_);}
	.st30{fill:url(#XMLID_24_);}
	.st31{opacity:0.43;fill:url(#XMLID_25_);}
	.st32{opacity:0.9;fill:url(#XMLID_26_);}
	.st33{opacity:0.42;fill:url(#XMLID_27_);}
	.st34{opacity:0.27;fill:url(#XMLID_28_);}
	.st35{fill:url(#XMLID_29_);}
	.st36{fill:url(#XMLID_30_);}
	.st37{fill:url(#XMLID_31_);}
	.st38{fill:url(#XMLID_32_);}
	.st39{fill:url(#XMLID_33_);}
	.st40{opacity:0.88;fill:url(#XMLID_34_);}
	.st41{opacity:0.43;fill:url(#XMLID_35_);}
	.st42{fill:#EC2A31;}
</style>
<g id="XMLID_86_">
	<path id="XMLID_1532_" class="st0" d="M158.53,54.59c-0.55,0-1.13-0.02-1.71-0.06l-0.11-0.01c-0.38-0.03-0.76-0.06-1.14-0.1
		l-0.3-0.03c-0.34-0.04-0.67-0.09-1.01-0.14l-0.38-0.06c-0.34-0.05-0.68-0.12-1.03-0.18c0,0-0.28-0.05-0.37-0.07
		c-0.45-0.09-0.92-0.19-1.4-0.3c-0.9-0.19-7.28-1.73-11.66-7.33c-0.03-0.03-0.06-0.07-0.08-0.1c-0.02-0.02-0.04-0.05-0.06-0.07
		c-0.63-0.82-1.2-1.72-1.7-2.67c-0.13-0.06-0.27-0.13-0.41-0.21c-0.06-0.03-0.12-0.07-0.18-0.11c-0.08-0.05-0.16-0.1-0.24-0.15
		c-0.1-0.06-0.19-0.12-0.27-0.19c-0.08-0.06-0.19-0.15-0.29-0.24c-0.1-0.09-0.2-0.17-0.29-0.26c-0.12-0.12-0.21-0.23-0.3-0.34
		c-0.08-0.1-0.18-0.22-0.29-0.38c-0.12-0.17-0.21-0.34-0.27-0.45c-0.06-0.1-0.13-0.24-0.19-0.4c-0.1-0.24-0.18-0.48-0.24-0.75
		c-0.02-0.07-0.03-0.14-0.05-0.2c0-0.02-0.01-0.04-0.01-0.05c-0.19-0.99-0.07-2.01,0.33-3.04c0.06-0.15,0.13-0.3,0.21-0.44
		c0.04-0.07,0.09-0.15,0.14-0.22c-0.02-0.19-0.04-0.38-0.04-0.57c0-0.04,0-0.09,0-0.14c0-0.18,0.01-0.37,0.02-0.55
		c0.01-0.07,0.01-0.14,0.02-0.21c0.02-0.15,0.05-0.33,0.09-0.51c0.02-0.07,0.03-0.15,0.05-0.22c0.08-0.29,0.17-0.53,0.27-0.76
		c0.12-0.27,0.26-0.53,0.42-0.77c0.02-0.03,0.03-0.05,0.05-0.08c0.02-0.03,0.04-0.05,0.06-0.08c0.15-0.21,0.32-0.41,0.5-0.59
		c0.01-0.01,0.02-0.02,0.03-0.03c0.07-0.07,0.16-0.15,0.25-0.22c0.14-0.12,0.29-0.24,0.49-0.36c0,0,0.01,0,0.01-0.01
		c-2.23-4.4-1.87-7.92-1.09-10.2c0.01-0.03,0.02-0.06,0.03-0.09c1.69-4.55,5.55-6.3,8.34-6.4c0.05,0,0.09,0,0.14,0
		c0.03,0,0.07,0,0.1,0c0.28,0.01,0.56,0.03,0.85,0.06c-0.2-0.43-0.32-0.81-0.39-1.09c-0.42-1.75,0.07-3.5,1.29-4.57
		c0.34-0.3,0.75-0.56,1.2-0.74c0.53-0.22,1.1-0.33,1.68-0.33c0.33,0,0.66,0.03,0.99,0.1c0.13-0.12,0.26-0.23,0.4-0.33
		c0.1-0.07,0.19-0.14,0.29-0.2c0.01-0.01,0.03-0.02,0.04-0.02c0.3-0.18,0.62-0.33,0.94-0.43c0.06-0.02,0.11-0.04,0.16-0.05
		c-0.01-0.01-0.47-0.55-0.47-0.55c0,0-0.2-0.24-0.22-0.26c-0.85-1.1-0.99-2.59-0.37-3.82c0.61-1.21,1.86-1.97,3.21-1.97
		c0.03,0,0.06,0,0.09,0c2.76,0.07,20.21,4.86,20.38,4.91c1.55,0.46,2.65,1.6,3.14,2.19c0.38,0.42,1.13,1.3,3.17,3.9
		c0,0,1.1,1.41,1.1,1.41c0.05,0.06,0.09,0.11,0.13,0.17l0.43,0.54c0.04,0.06,0.09,0.11,0.13,0.17l0.98,1.26
		c0.02,0.03,0.04,0.06,0.07,0.09c2.67,3.45,5.24,6.83,5.27,6.86c0.81,1.07,0.95,2.48,0.42,3.66c1.7,1.79,3.01,4.48,2.79,8
		c0,0.03,0,0.06-0.01,0.09c-0.02,0.26-0.05,0.52-0.1,0.78c-0.01,0.07-0.02,0.13-0.03,0.19c-0.04,0.24-0.08,0.44-0.13,0.65
		l-0.05,0.22c-0.06,0.24-0.12,0.47-0.2,0.71c-0.02,0.05-0.03,0.1-0.05,0.16c-1.05,3.26-3.46,6.13-7.15,8.51
		c-0.11,0.07-0.23,0.14-0.35,0.2c-2.75,1.37-5.73,2.12-8.4,2.12h0c-0.35,0-0.7-0.01-1.04-0.04c-0.35,0.38-0.71,0.75-1.07,1.1
		c0,0-0.03,0.03-0.04,0.04c-0.32,0.31-0.66,0.62-0.99,0.91l-0.15,0.13c-0.3,0.26-0.58,0.49-0.86,0.72c0,0-0.17,0.14-0.23,0.18
		c-0.15,0.12-0.31,0.24-0.47,0.35c-0.14,0.1-0.28,0.2-0.41,0.3c-0.2,0.14-0.39,0.27-0.59,0.4c-0.14,0.09-0.28,0.18-0.42,0.27
		c-0.18,0.11-0.35,0.22-0.52,0.32c-0.17,0.1-0.34,0.2-0.51,0.3c-0.11,0.07-0.24,0.13-0.36,0.2c-0.21,0.11-0.41,0.22-0.61,0.32
		c-0.03,0.01-0.06,0.03-0.09,0.04c-1.38,0.69-2.82,1.23-4.29,1.61c-0.52,0.15-1.07,0.27-1.61,0.36c0,0-0.15,0.03-0.15,0.03
		c-0.13,0.02-0.26,0.04-0.39,0.05C160.5,54.52,159.53,54.59,158.53,54.59z"/>
	<g id="XMLID_427_">
		<path id="XMLID_1530_" class="st1" d="M144.86,17.81c0.58,0.02,1.15,0.11,1.72,0.27c0.96,0.24,1.83,0.71,2.6,1.35
			c0.01,0,0.01,0.01,0.02,0.02v0c2.8,2.32,4.35,6.8,4.33,10.39c0,0-3.7,0.1-4.87,5.63c-2.39-0.28-5.08-2.14-7.02-4.48
			c-2.6-3.97-2.6-7.01-1.88-9.11C141.16,18.08,144.43,17.83,144.86,17.81z"/>
		
			<radialGradient id="XMLID_2_" cx="162.4981" cy="10.9606" r="6.601" gradientTransform="matrix(0.0808 0.9968 -0.5901 0.0479 134.5849 -138.0749)" gradientUnits="userSpaceOnUse">
			<stop  offset="0.3939" style="stop-color:#FFFFFF"/>
			<stop  offset="0.4279" style="stop-color:#FEFBF7"/>
			<stop  offset="0.5739" style="stop-color:#FDEBDA"/>
			<stop  offset="0.7191" style="stop-color:#FBE0C6"/>
			<stop  offset="0.862" style="stop-color:#FAD9B9"/>
			<stop  offset="1" style="stop-color:#FAD7B5"/>
		</radialGradient>
		<path id="XMLID_1529_" class="st2" d="M142.72,31.52c-2.6-3.97-2.6-7.01-1.88-9.11c1.4-3.79,4.68-4.05,5.11-4.06
			c0.58,0.02,1.15,0.11,1.72,0.27c0.21,0.05,0.41,0.12,0.61,0.19c-0.53-0.32-1.09-0.57-1.7-0.72c-0.57-0.16-1.14-0.25-1.72-0.27
			c-0.43,0.02-3.7,0.27-5.11,4.06c-0.72,2.11-0.72,5.15,1.88,9.11c1.45,1.75,3.33,3.23,5.18,3.98
			C145.33,34.15,143.89,32.92,142.72,31.52z"/>
		<path id="XMLID_1527_" class="st3" d="M146.74,29.69c0,0,0.82-0.1,0.69-1.04c-0.13-0.94-0.59-1.93,0.17-2.01
			c0.76-0.08,2.51,0.81,1.47-1.58c-1.05-2.39-4.51-4.78-6.12-3.03C141.33,23.79,143.17,30.01,146.74,29.69z"/>
		
			<linearGradient id="XMLID_3_" gradientUnits="userSpaceOnUse" x1="149.5623" y1="11.4142" x2="168.9966" y2="11.4142" gradientTransform="matrix(0.9574 0.2889 -0.2889 0.9574 -11.1588 -33.0169)">
			<stop  offset="0.635" style="stop-color:#FFFFFF;stop-opacity:0"/>
			<stop  offset="0.6671" style="stop-color:#FEF4F0;stop-opacity:0.0928"/>
			<stop  offset="0.7292" style="stop-color:#FBD6C8;stop-opacity:0.2718"/>
			<stop  offset="0.814" style="stop-color:#F7A689;stop-opacity:0.5167"/>
			<stop  offset="0.8606" style="stop-color:#F58A63;stop-opacity:0.6512"/>
			<stop  offset="0.8829" style="stop-color:#E68156;stop-opacity:0.699"/>
			<stop  offset="0.9249" style="stop-color:#CF7241;stop-opacity:0.789"/>
			<stop  offset="0.9648" style="stop-color:#C26A35;stop-opacity:0.8745"/>
			<stop  offset="1" style="stop-color:#BD6731;stop-opacity:0.95"/>
		</linearGradient>
		<path id="XMLID_1526_" class="st4" d="M144.86,17.81c0.58,0.02,1.15,0.11,1.72,0.27c0.96,0.24,1.83,0.71,2.6,1.35
			c0.01,0,0.01,0.01,0.02,0.02v0c2.8,2.32,4.35,6.8,4.33,10.39c0,0-3.7,0.1-4.87,5.63c-2.39-0.28-5.08-2.14-7.02-4.48
			c-2.6-3.97-2.6-7.01-1.88-9.11C141.16,18.08,144.43,17.83,144.86,17.81z"/>
		<path id="XMLID_1525_" class="st5" d="M169.32,16.25c-3.77-2.01-6.79-2.81-10.02-2.6c-0.01,0-0.03,0-0.04,0
			c-1.85,0.19-2.16-0.44-2.9-1.43c-0.74-0.99-2.59-3.26-3.61-1.58c-1.02,1.68,2.29,3.81,2.29,3.81s-0.39-0.2-0.83-0.44
			c-0.73-0.4-1.78-1.03-2.42-1.63c-1.06-1-2.14-1.55-2.7-1.06c-0.55,0.48-0.25,2.86,3.64,3.82c-0.1,0.04-0.2,0.09-0.3,0.14v0
			c-0.04,0.02-0.08,0.04-0.13,0.06c-0.4,0.19-1.01,0.51-1.73,0.99c-0.08,0.06-0.13,0.09-0.13,0.09h0c-1.17,0.81-2.59,2.04-3.76,3.82
			c-0.58,0.94-1.05,1.9-1.43,2.85c-0.81,2.22-1.21,4.98-0.75,8.42l0,0c-1.73,0.59-3.09,3-3.09,3c-0.19-0.3-1.85-1.44-2.48-0.01
			c-0.64,1.43,0.86,3.04,0.86,3.04c-1.03-0.5-1.56,0.45-1.56,0.45c-0.87,2.19,1.94,2.5,1.94,2.5c3.28,7.99,11.7,9.63,11.7,9.63
			c3.86,0.91,6.86,1.05,9.22,0.69c0.01,0,0.03,0,0.05,0c0.07-0.01,0.14-0.03,0.21-0.04c0.14-0.03,0.28-0.05,0.41-0.08
			c0.07-0.01,0.14-0.03,0.22-0.04c0.13-0.03,0.26-0.06,0.38-0.09c3.84-0.93,8.58-3.41,12.77-9.47c0.23-0.38,0.45-0.77,0.65-1.17
			C179.29,32.83,178.54,21.17,169.32,16.25z"/>
		
			<linearGradient id="XMLID_4_" gradientUnits="userSpaceOnUse" x1="199.0154" y1="15.8238" x2="195.7601" y2="24.0303" gradientTransform="matrix(0.9574 0.2889 -0.2889 0.9574 -11.1588 -33.0169)">
			<stop  offset="0" style="stop-color:#A71F26"/>
			<stop  offset="0.1743" style="stop-color:#AB1F26"/>
			<stop  offset="0.3548" style="stop-color:#B81F27"/>
			<stop  offset="0.5376" style="stop-color:#CC2029"/>
			<stop  offset="0.5791" style="stop-color:#D22029"/>
			<stop  offset="0.7394" style="stop-color:#E82429"/>
		</linearGradient>
		<path id="XMLID_1524_" class="st6" d="M166.32,49.08c2.5-1.26,5.14-3.28,7.64-6.45l0.17-4.09c0,0-3.19,7.12-7.03,9.77
			C166.64,48.63,166.4,48.88,166.32,49.08z"/>
		
			<radialGradient id="XMLID_5_" cx="165.8738" cy="-2.0581" r="21.7052" gradientTransform="matrix(0.9574 0.2889 -0.2889 0.9574 -11.1588 -33.0169)" gradientUnits="userSpaceOnUse">
			<stop  offset="0" style="stop-color:#FFFFFF"/>
			<stop  offset="0.038" style="stop-color:#FDEFEF"/>
			<stop  offset="0.1774" style="stop-color:#F8BABB"/>
			<stop  offset="0.3185" style="stop-color:#F38C8F"/>
			<stop  offset="0.4585" style="stop-color:#EF666A"/>
			<stop  offset="0.5974" style="stop-color:#EC494E"/>
			<stop  offset="0.7347" style="stop-color:#EA3539"/>
			<stop  offset="0.8697" style="stop-color:#E8282D"/>
			<stop  offset="1" style="stop-color:#E82429"/>
		</radialGradient>
		<path id="XMLID_1518_" class="st7" d="M141.85,33.81c0.32,0.17,0.58,0.37,0.64,0.48c0,0,1.36-2.41,3.09-3h0
			c-0.46-3.44-0.06-6.2,0.75-8.42c0.38-0.95,0.86-1.91,1.43-2.85c1.18-1.78,2.59-3.01,3.76-3.82l0,0c0,0,0.05-0.04,0.14-0.09
			c0.71-0.48,1.33-0.8,1.73-0.99c0.04-0.02,0.08-0.04,0.13-0.06l0,0c0.1-0.05,0.2-0.09,0.3-0.14c-3.62-0.89-4.14-3.01-3.74-3.69
			c-0.4-0.13-0.75-0.13-1,0.09c-0.55,0.48-0.25,2.86,3.64,3.82c-0.1,0.04-0.2,0.09-0.3,0.14v0c-0.04,0.02-0.08,0.04-0.13,0.06
			c-0.4,0.19-1.01,0.51-1.73,0.99c-0.08,0.06-0.13,0.09-0.13,0.09h0c-1.17,0.81-2.59,2.04-3.76,3.82c-0.58,0.94-1.05,1.9-1.43,2.85
			c-0.81,2.22-1.21,4.98-0.75,8.42l0,0C143.36,31.9,142.39,33.05,141.85,33.81z M162.17,50.59c-2.35,0.36-5.36,0.22-9.22-0.7
			c0,0-8.41-1.63-11.7-9.62c0,0-2.81-0.3-1.94-2.5c0,0,0.09-0.15,0.26-0.3c-0.89-0.28-1.35,0.52-1.35,0.52
			c-0.87,2.19,1.94,2.5,1.94,2.5c3.28,7.99,11.7,9.63,11.7,9.63c3.86,0.91,6.86,1.05,9.22,0.69c0.01,0,0.03,0,0.05,0
			c0.07-0.01,0.14-0.03,0.21-0.04c0.14-0.03,0.28-0.05,0.41-0.08c0.07-0.01,0.14-0.03,0.22-0.04c0.07-0.01,0.15-0.03,0.22-0.05
			C162.18,50.59,162.17,50.59,162.17,50.59z M152.88,12.17c0.64,0.6,1.69,1.23,2.42,1.63c0.45,0.23,0.83,0.44,0.83,0.44
			s-3.31-2.13-2.29-3.82c0.08-0.12,0.16-0.22,0.24-0.3c-0.49-0.17-0.97-0.09-1.33,0.52c-0.27,0.45-0.23,0.92-0.03,1.38
			C152.77,12.07,152.83,12.12,152.88,12.17z M139.66,37.4c0.26-0.19,0.66-0.34,1.22-0.08c0,0-1.5-1.61-0.86-3.04
			c0.08-0.19,0.18-0.32,0.29-0.43c-0.51-0.14-1.07-0.06-1.39,0.65C138.39,35.7,139.32,36.99,139.66,37.4z"/>
		<path id="XMLID_1516_" class="st1" d="M167.2,35.24c0.37-1.03,4.41-8.33-2.56-11.67c-4.22-2.02-6.84-0.86-8.26,0.38c0,0,0,0,0,0
			c-1.13,0.78-1.49-0.04-1.49-0.04c-0.43-1.73-1.6-2.67-2.53-3.13c-1.2-0.58-3.3-0.4-4.92,2.9c-1.62,3.31-1.85,7.63-1.85,7.63
			l-0.65,0.08c-1.94,0.26-3.54,3.11-3.54,3.11c-0.19-0.3-1.85-1.44-2.48-0.01c-0.64,1.43,0.86,3.04,0.86,3.04
			c-1.03-0.5-1.56,0.45-1.56,0.45c-0.87,2.19,1.94,2.5,1.94,2.5c3.28,7.99,11.7,9.63,11.7,9.63c13.01,3.07,16.32-2.58,17.66-6.82
			C170.85,39.04,167.2,35.24,167.2,35.24z"/>
		
			<radialGradient id="XMLID_6_" cx="171.3069" cy="15.39" r="18.2698" gradientTransform="matrix(0.9574 0.2889 -0.2889 0.9574 -11.1588 -33.0169)" gradientUnits="userSpaceOnUse">
			<stop  offset="0.3939" style="stop-color:#FFFFFF"/>
			<stop  offset="0.4279" style="stop-color:#FEFBF7"/>
			<stop  offset="0.5739" style="stop-color:#FDEBDA"/>
			<stop  offset="0.7191" style="stop-color:#FBE0C6"/>
			<stop  offset="0.862" style="stop-color:#FAD9B9"/>
			<stop  offset="1" style="stop-color:#FAD7B5"/>
		</radialGradient>
		<path id="XMLID_1511_" class="st8" d="M164.64,23.56c-4.22-2.02-6.84-0.86-8.26,0.38c0,0,0,0,0,0c-0.25,0.17-0.45,0.26-0.63,0.3
			c0.09,0.22,0.16,0.46,0.21,0.72c0,0,0.33,0.83,1.49,0.08c0,0,0,0,0,0c1.46-1.19,4.12-2.27,8.27-0.11c1,0.52,1.75,1.12,2.33,1.76
			C167.46,25.51,166.4,24.41,164.64,23.56z M168.06,36.33c-0.07,0.15-0.13,0.27-0.16,0.35c0,0,0.83,0.93,1.52,2.36
			C169.06,37.94,168.52,37,168.06,36.33z M140.37,40.99c0.52,1.14,1.14,2.13,1.81,3.02c-0.57-0.88-1.08-1.86-1.49-2.95
			C140.7,41.06,140.57,41.03,140.37,40.99z M147.44,23.68c-1.62,3.31-1.85,7.63-1.85,7.63l-0.65,0.08
			c-1.94,0.26-3.54,3.11-3.54,3.11c-0.19-0.3-1.85-1.44-2.48-0.01c-0.64,1.43,0.86,3.04,0.86,3.04c-1.03-0.5-1.56,0.45-1.56,0.45
			c-0.44,1.11,0.06,1.73,0.66,2.08c-0.25-0.37-0.33-0.88-0.03-1.57c0,0,0.56-0.93,1.58-0.4c0,0-1.44-1.65-0.76-3.07
			c0.68-1.42,1.59-0.17,1.77,0.13c0,0,2.11-3,4.35-3.04l0.65-0.06c0,0,0.37-4.32,2.1-7.57c1.72-3.26,3.84-3.37,5.01-2.75
			c0.11,0.06,0.23,0.13,0.35,0.2c-0.48-0.56-1.04-0.94-1.52-1.17C151.16,20.19,149.06,20.37,147.44,23.68z"/>
		
			<linearGradient id="XMLID_7_" gradientUnits="userSpaceOnUse" x1="197.9125" y1="3.0178" x2="190.9636" y2="3.9655" gradientTransform="matrix(0.9574 0.2889 -0.2889 0.9574 -11.1588 -33.0169)">
			<stop  offset="0" style="stop-color:#AB1F27"/>
			<stop  offset="0.1833" style="stop-color:#AF1F27"/>
			<stop  offset="0.3731" style="stop-color:#BC1F28"/>
			<stop  offset="0.5653" style="stop-color:#D02029"/>
			<stop  offset="0.5791" style="stop-color:#D22029"/>
			<stop  offset="0.7394" style="stop-color:#E82429"/>
		</linearGradient>
		<path id="XMLID_1510_" class="st9" d="M177.66,30.05c-0.29-5.03-2.47-10.07-7.28-13.14c-1.61,0.21-3.01,1.35-0.95,3.21
			c5.99,5.36,1.46,14.92,1.46,14.92S175.52,31.1,177.66,30.05z"/>
		<path id="XMLID_1508_" class="st1" d="M185.69,26.45c-0.6-0.25-1.23-0.41-1.89-0.5c-1.1-0.18-2.2-0.1-3.28,0.21
			c-0.01,0-0.02,0-0.03,0l0,0c-3.93,1.11-7.56,5-9.17,8.7c0.01,0,3.76,1.78,2.45,7.99c2.58,0.8,6.19,0.11,9.24-1.41
			c4.47-2.89,5.86-6.01,6.08-8.5C189.37,28.41,186.12,26.67,185.69,26.45z"/>
		<path id="XMLID_1507_" class="st3" d="M178.36,37.8c0,0-0.8-0.47-0.24-1.38c0.56-0.91,1.48-1.71,0.74-2.14
			c-0.75-0.43-2.95-0.3-0.79-2.28c2.17-1.98,6.8-2.86,7.67-0.33C186.59,34.2,181.88,39.75,178.36,37.8z"/>
		<path id="XMLID_1505_" class="st10" d="M181.44,34.92c-0.56,1.38-1.36,2.43-2.15,3.22c-0.31-0.06-0.62-0.17-0.93-0.34
			c0,0-0.8-0.47-0.24-1.38c0.56-0.91,1.48-1.71,0.74-2.14c-0.75-0.43-2.95-0.3-0.79-2.28c0.44-0.4,0.97-0.75,1.55-1.04
			C180.87,31.4,182.45,32.45,181.44,34.92z"/>
		
			<radialGradient id="XMLID_8_" cx="202.6219" cy="6.186" r="10.7116" gradientTransform="matrix(0.9574 0.2889 -0.2889 0.9574 -11.1588 -33.0169)" gradientUnits="userSpaceOnUse">
			<stop  offset="0.3939" style="stop-color:#FFFFFF"/>
			<stop  offset="0.4279" style="stop-color:#FEFBF7"/>
			<stop  offset="0.5739" style="stop-color:#FDEBDA"/>
			<stop  offset="0.7191" style="stop-color:#FBE0C6"/>
			<stop  offset="0.862" style="stop-color:#FAD9B9"/>
			<stop  offset="1" style="stop-color:#FAD7B5"/>
		</radialGradient>
		<path id="XMLID_1504_" class="st11" d="M180.01,27.77L180.01,27.77c0.01,0,0.01,0,0.02-0.01c1.08-0.3,2.19-0.39,3.29-0.21
			c0.65,0.1,1.29,0.26,1.88,0.51c0.44,0.22,3.68,1.96,3.4,6.49c-0.03,0.3-0.07,0.6-0.13,0.92c0.36-0.89,0.55-1.74,0.62-2.52
			c0.28-4.54-2.97-6.28-3.4-6.5c-0.6-0.25-1.23-0.41-1.89-0.5c-1.1-0.18-2.2-0.1-3.28,0.21c-0.01,0-0.02,0-0.03,0l0,0
			c-3.93,1.11-7.56,5-9.17,8.7c0,0,0.1,0.05,0.25,0.15C173.4,31.8,176.6,28.73,180.01,27.77z"/>
		
			<radialGradient id="XMLID_9_" cx="200.8433" cy="8.3672" r="10.3981" gradientTransform="matrix(0.9574 0.2889 -0.2889 0.9574 -11.1588 -33.0169)" gradientUnits="userSpaceOnUse">
			<stop  offset="0.635" style="stop-color:#FFFFFF;stop-opacity:0"/>
			<stop  offset="0.6671" style="stop-color:#FEF4F0;stop-opacity:0.0928"/>
			<stop  offset="0.7292" style="stop-color:#FBD6C8;stop-opacity:0.2718"/>
			<stop  offset="0.814" style="stop-color:#F7A689;stop-opacity:0.5167"/>
			<stop  offset="0.8606" style="stop-color:#F58A63;stop-opacity:0.6512"/>
			<stop  offset="0.8829" style="stop-color:#E68156;stop-opacity:0.699"/>
			<stop  offset="0.9249" style="stop-color:#CF7241;stop-opacity:0.789"/>
			<stop  offset="0.9648" style="stop-color:#C26A35;stop-opacity:0.8745"/>
			<stop  offset="1" style="stop-color:#BD6731;stop-opacity:0.95"/>
		</radialGradient>
		<path id="XMLID_1503_" class="st12" d="M185.69,26.45c-0.6-0.25-1.23-0.41-1.89-0.5c-1.1-0.18-2.2-0.1-3.28,0.21
			c-0.01,0-0.02,0-0.03,0l0,0c-3.93,1.11-7.56,5-9.17,8.7c0.01,0,3.76,1.78,2.45,7.99c2.58,0.8,6.19,0.11,9.24-1.41
			c4.47-2.89,5.86-6.01,6.08-8.5C189.37,28.41,186.12,26.67,185.69,26.45z"/>
		<path id="XMLID_1502_" class="st13" d="M154.59,3.6c0,0,4.5,5.63,11.56,10.01c7.06,4.38,13.55,7.65,20.46,10.07
			c0,0-9.53-12.52-11.14-14.22c0,0-0.68-0.87-1.43-1.09C173.29,8.14,156.59,3.64,154.59,3.6z"/>
		
			<linearGradient id="XMLID_10_" gradientUnits="userSpaceOnUse" x1="168.9881" y1="-10.5814" x2="198.8614" y2="-10.5814" gradientTransform="matrix(0.9574 0.2889 -0.2889 0.9574 -11.1588 -33.0169)">
			<stop  offset="0" style="stop-color:#909294"/>
			<stop  offset="0.1047" style="stop-color:#818384"/>
			<stop  offset="0.3331" style="stop-color:#656667"/>
			<stop  offset="0.5604" style="stop-color:#515253"/>
			<stop  offset="0.7841" style="stop-color:#454646"/>
			<stop  offset="1" style="stop-color:#414242"/>
		</linearGradient>
		<path id="XMLID_1501_" class="st14" d="M172.96,9.37c0,0,6.9,6.33,8.46,8.05c0.28,0.3,0.18,0.01-0.13-0.66
			c-2.48-3.21-5.06-6.49-5.82-7.3c0,0-0.68-0.87-1.43-1.09c-0.75-0.22-17.45-4.72-19.45-4.77c0,0,1.33,1.67,3.68,3.89
			c0.23,0.1,0.36,0.17,0.36,0.17s-0.85-1.63-0.97-1.84C157.56,5.6,169.14,8.38,172.96,9.37z"/>
		<path id="XMLID_1500_" class="st15" d="M165.03,10.06l-6.57,3.65c0,0,1.5,4.33,7.35,6.9c5.85,2.57,10.11,2.47,10.11,2.47
			l0.83-6.35C176.76,16.73,172.06,10.88,165.03,10.06z"/>
		
			<linearGradient id="XMLID_11_" gradientUnits="userSpaceOnUse" x1="179.4451" y1="-8.2637" x2="182.4819" y2="-6.4412" gradientTransform="matrix(0.9574 0.2889 -0.2889 0.9574 -11.1588 -33.0169)">
			<stop  offset="0" style="stop-color:#FFFFFF"/>
			<stop  offset="0.054" style="stop-color:#EEEEEE"/>
			<stop  offset="0.2143" style="stop-color:#C1C1C2"/>
			<stop  offset="0.3758" style="stop-color:#9C9B9D"/>
			<stop  offset="0.5358" style="stop-color:#7F7E81"/>
			<stop  offset="0.6941" style="stop-color:#6B6A6C"/>
			<stop  offset="0.8498" style="stop-color:#5E5D60"/>
			<stop  offset="1" style="stop-color:#5A595C"/>
		</linearGradient>
		<path id="XMLID_1499_" class="st16" d="M174.27,14.58c0,0-0.48-0.6-1.44-1.39c-1.99-1.4-4.66-2.76-7.8-3.13l-6.57,3.65
			c0,0,0.75,2.14,3.22,4.3c0.13,0.02,0.21,0.03,0.21,0.03l-1.58-3.43l4.81-2.83C165.12,11.78,170.11,11.95,174.27,14.58z"/>
		
			<linearGradient id="XMLID_12_" gradientUnits="userSpaceOnUse" x1="191.7242" y1="-2.7153" x2="197.7558" y2="-7.5097" gradientTransform="matrix(0.9574 0.2889 -0.2889 0.9574 -11.1588 -33.0169)">
			<stop  offset="0" style="stop-color:#414242"/>
			<stop  offset="0.2069" style="stop-color:#4A4A4B"/>
			<stop  offset="0.6101" style="stop-color:#565558"/>
			<stop  offset="1" style="stop-color:#5A595C"/>
		</linearGradient>
		<path id="XMLID_1497_" class="st17" d="M175.93,23.08l0.83-6.35c0,0-0.68-0.85-1.92-1.94l-0.12-0.02l-2.38,5.27
			c-0.93,2.05-3.76,1.62-3.76,1.62l2.45,0.78c0,0,0.47,0.12,1.39,0.26C174.6,23.11,175.93,23.08,175.93,23.08z"/>
		
			<linearGradient id="XMLID_13_" gradientUnits="userSpaceOnUse" x1="201.7992" y1="-3.6367" x2="191.443" y2="-8.2879" gradientTransform="matrix(0.9574 0.2889 -0.2889 0.9574 -11.1588 -33.0169)">
			<stop  offset="0" style="stop-color:#414242"/>
			<stop  offset="0.2069" style="stop-color:#4A4A4B"/>
			<stop  offset="0.6101" style="stop-color:#565558"/>
			<stop  offset="1" style="stop-color:#5A595C"/>
		</linearGradient>
		<path id="XMLID_1496_" class="st18" d="M177.09,16.63l4.26,0.8l4.36,5.59c0,0-7.21-2.73-8.95-3.87L177.09,16.63z"/>
		
			<radialGradient id="XMLID_14_" cx="190.1815" cy="30.7654" r="5.6741" gradientTransform="matrix(0.9567 0.2911 -0.2881 0.9469 -9.2645 -37.9241)" gradientUnits="userSpaceOnUse">
			<stop  offset="0.3939" style="stop-color:#FFFFFF"/>
			<stop  offset="0.4279" style="stop-color:#FEFBF7"/>
			<stop  offset="0.5739" style="stop-color:#FDEBDA"/>
			<stop  offset="0.7191" style="stop-color:#FBE0C6"/>
			<stop  offset="0.862" style="stop-color:#FAD9B9"/>
			<stop  offset="1" style="stop-color:#FAD7B5"/>
		</radialGradient>
		<path id="XMLID_1494_" class="st19" d="M168.76,43.14c0,0-1.43,6.99-9.59,6.99C159.18,50.12,165,49.34,168.76,43.14z"/>
		
			<radialGradient id="XMLID_15_" cx="1427.921" cy="-1259.4586" r="5.6715" fx="1427.7152" fy="-1259.326" gradientTransform="matrix(-0.5916 -0.4815 0.3887 -0.4766 1496.703 125.9253)" gradientUnits="userSpaceOnUse">
			<stop  offset="0.3939" style="stop-color:#FFFFFF"/>
			<stop  offset="0.4279" style="stop-color:#FEFBF7"/>
			<stop  offset="0.5739" style="stop-color:#FDEBDA"/>
			<stop  offset="0.7191" style="stop-color:#FBE0C6"/>
			<stop  offset="0.862" style="stop-color:#FAD9B9"/>
			<stop  offset="1" style="stop-color:#FAD7B5"/>
		</radialGradient>
		<path id="XMLID_1493_" class="st20" d="M158.39,38.6c0,0,2.72-3.79,7.94-1.13C166.34,37.47,162.31,36.57,158.39,38.6z"/>
		
			<radialGradient id="XMLID_16_" cx="178.3454" cy="17.8459" r="17.3471" gradientTransform="matrix(0.9567 0.2911 -0.2914 0.9577 -10.991 -33.4212)" gradientUnits="userSpaceOnUse">
			<stop  offset="0.635" style="stop-color:#FFFFFF;stop-opacity:0"/>
			<stop  offset="0.6671" style="stop-color:#FEF4F0;stop-opacity:0.0928"/>
			<stop  offset="0.7292" style="stop-color:#FBD6C8;stop-opacity:0.2718"/>
			<stop  offset="0.814" style="stop-color:#F7A689;stop-opacity:0.5167"/>
			<stop  offset="0.8606" style="stop-color:#F58A63;stop-opacity:0.6512"/>
			<stop  offset="0.8829" style="stop-color:#E68156;stop-opacity:0.699"/>
			<stop  offset="0.9249" style="stop-color:#CF7241;stop-opacity:0.789"/>
			<stop  offset="0.9648" style="stop-color:#C26A35;stop-opacity:0.8745"/>
			<stop  offset="1" style="stop-color:#BD6731;stop-opacity:0.95"/>
		</radialGradient>
		<path id="XMLID_1492_" class="st21" d="M167.2,35.24c0.37-1.03,4.41-8.33-2.56-11.67c-4.22-2.02-6.84-0.86-8.26,0.38c0,0,0,0,0,0
			c-1.13,0.78-1.49-0.04-1.49-0.04c-0.43-1.73-1.6-2.67-2.53-3.13c-1.2-0.58-3.3-0.4-4.92,2.9c-1.62,3.31-1.85,7.63-1.85,7.63
			l-0.65,0.08c-1.94,0.26-3.54,3.11-3.54,3.11c-0.19-0.3-1.85-1.44-2.48-0.01c-0.64,1.43,0.86,3.04,0.86,3.04
			c-1.03-0.5-1.56,0.45-1.56,0.45c-0.87,2.19,1.94,2.5,1.94,2.5c3.28,7.99,11.7,9.63,11.7,9.63c13.01,3.07,16.32-2.58,17.66-6.82
			C170.85,39.04,167.2,35.24,167.2,35.24z"/>
		<path id="XMLID_1491_" class="st10" d="M162.53,26.1c-0.49-0.64-1.08-0.82-1.57-0.83c-0.96,0-1.34,0.51-1.43,0.64
			c-0.02,0.04-0.04,0.07-0.05,0.11c-0.2,0.59,0.26,0.9,0.56,0.62c0.2-0.19,0.55-0.34,0.91-0.39c0.22-0.01,0.78,0.02,1.15,0.52
			c0.02,0.02,0.04,0.04,0.05,0.06c0.02,0.02,0.04,0.05,0.06,0.07c0.19,0.26,0.34,0.51,0.39,0.56c0.09,0.1,0.19-0.03,0.19-0.03
			C162.88,26.87,162.76,26.44,162.53,26.1z"/>
		<path id="XMLID_1490_" class="st10" d="M150.27,23.51c0.61-0.41,1.13-0.35,1.52-0.18c0.73,0.36,0.84,0.97,0.85,1.13
			c0,0.04,0.01,0.08,0,0.12c-0.07,0.62-0.53,0.73-0.66,0.36c-0.09-0.25-0.3-0.52-0.55-0.7c-0.16-0.09-0.6-0.27-1.08,0.05
			c-0.02,0.01-0.05,0.02-0.06,0.04c-0.02,0.02-0.05,0.03-0.07,0.05c-0.25,0.17-0.45,0.34-0.5,0.37c-0.11,0.05-0.14-0.1-0.14-0.1
			C149.71,24.08,149.96,23.73,150.27,23.51z"/>
		
			<radialGradient id="XMLID_17_" cx="183.0901" cy="13.8017" r="3.7976" gradientTransform="matrix(0.9574 0.2889 -0.3391 1.1239 -10.4656 -35.3143)" gradientUnits="userSpaceOnUse">
			<stop  offset="0.8061" style="stop-color:#FFFFFF"/>
			<stop  offset="0.8491" style="stop-color:#F5F5F5"/>
			<stop  offset="0.9258" style="stop-color:#E9E9E8"/>
			<stop  offset="1" style="stop-color:#E5E5E4"/>
		</radialGradient>
		<path id="XMLID_1489_" class="st22" d="M162.82,34.1c-0.82,2.09-2.86,3.23-4.57,2.57c-1.71-0.66-2.43-2.89-1.62-4.98
			c0.81-2.08,2.86-3.23,4.57-2.57C162.9,29.79,163.63,32.02,162.82,34.1z"/>
		
			<linearGradient id="XMLID_18_" gradientUnits="userSpaceOnUse" x1="179.3818" y1="13.9338" x2="186.4259" y2="13.9338" gradientTransform="matrix(0.9589 0.2923 -0.2872 0.9614 -11.6837 -34.0342)">
			<stop  offset="0" style="stop-color:#8E5037"/>
			<stop  offset="0.1671" style="stop-color:#91543B"/>
			<stop  offset="0.3403" style="stop-color:#9B6147"/>
			<stop  offset="0.5162" style="stop-color:#AC755A"/>
			<stop  offset="0.6941" style="stop-color:#C39275"/>
			<stop  offset="0.8717" style="stop-color:#E1B797"/>
			<stop  offset="1" style="stop-color:#FAD7B5"/>
		</linearGradient>
		<path id="XMLID_1488_" class="st23" d="M162.99,34.09c-0.87,2.21-3.04,3.43-4.86,2.73c-1.81-0.7-2.58-3.06-1.71-5.27
			c0.87-2.21,3.04-3.43,4.86-2.73C163.09,29.53,163.85,31.89,162.99,34.09z"/>
		<g id="XMLID_1479_">
			
				<linearGradient id="XMLID_19_" gradientUnits="userSpaceOnUse" x1="132.2816" y1="201.0827" x2="139.3256" y2="201.0827" gradientTransform="matrix(0.7005 0.4448 -0.3412 0.7799 123.6956 -187.6155)">
				<stop  offset="0" style="stop-color:#8E5037"/>
				<stop  offset="0.1671" style="stop-color:#91543B"/>
				<stop  offset="0.3403" style="stop-color:#9B6147"/>
				<stop  offset="0.5162" style="stop-color:#AC755A"/>
				<stop  offset="0.6941" style="stop-color:#C39275"/>
				<stop  offset="0.8717" style="stop-color:#E1B797"/>
				<stop  offset="1" style="stop-color:#FAD7B5"/>
			</linearGradient>
			<path id="XMLID_1486_" class="st24" d="M152.58,31.37c-0.95,1.75-2.77,2.38-4.08,1.41c-1.31-0.97-1.6-3.18-0.66-4.92
				c0.94-1.75,2.77-2.38,4.08-1.41C153.23,27.42,153.53,29.62,152.58,31.37z"/>
			
				<radialGradient id="XMLID_20_" cx="14.2279" cy="-23.1121" r="3.7982" gradientTransform="matrix(0.804 0.0956 -0.1461 1.0132 135.7536 51.853)" gradientUnits="userSpaceOnUse">
				<stop  offset="0.8061" style="stop-color:#FFFFFF"/>
				<stop  offset="0.8491" style="stop-color:#F5F5F5"/>
				<stop  offset="0.9258" style="stop-color:#E9E9E8"/>
				<stop  offset="1" style="stop-color:#E5E5E4"/>
			</radialGradient>
			<path id="XMLID_1485_" class="st25" d="M152.84,30.24c-0.42,1.91-1.94,3.21-3.39,2.92c-1.45-0.3-2.29-2.09-1.87-3.99
				c0.42-1.91,1.94-3.22,3.39-2.92C152.42,26.54,153.26,28.33,152.84,30.24z"/>
			
				<radialGradient id="XMLID_21_" cx="14.6619" cy="-22.5787" r="2.6859" gradientTransform="matrix(-0.309 0.8168 -0.5631 -0.2205 142.6685 13.3434)" gradientUnits="userSpaceOnUse">
				<stop  offset="0.6485" style="stop-color:#8E5037"/>
				<stop  offset="0.7034" style="stop-color:#74402E"/>
				<stop  offset="0.779" style="stop-color:#572F25"/>
				<stop  offset="0.8543" style="stop-color:#43221E"/>
				<stop  offset="0.9285" style="stop-color:#361B19"/>
				<stop  offset="1" style="stop-color:#321818"/>
			</radialGradient>
			<path id="XMLID_1484_" class="st26" d="M152.09,30.73c-0.31,0.9-1.13,1.45-1.82,1.2c-0.69-0.24-1.01-1.17-0.69-2.07
				c0.31-0.91,1.12-1.45,1.82-1.21C152.09,28.9,152.41,29.82,152.09,30.73z"/>
			<path id="XMLID_1483_" class="st27" d="M151.73,30.77c-0.24,0.69-0.84,1.11-1.35,0.93c-0.51-0.17-0.73-0.88-0.49-1.57
				c0.23-0.69,0.84-1.11,1.35-0.94C151.74,29.37,151.96,30.08,151.73,30.77z"/>
			<path id="XMLID_1482_" class="st0" d="M150.64,29.78c-0.12,0.23-0.37,0.33-0.55,0.23c-0.19-0.1-0.25-0.37-0.13-0.6
				c0.12-0.23,0.37-0.33,0.55-0.23C150.7,29.28,150.76,29.54,150.64,29.78z"/>
			<path id="XMLID_1481_" class="st0" d="M151.46,31.45c-0.09,0.18-0.27,0.26-0.41,0.19c-0.14-0.07-0.18-0.28-0.09-0.46
				c0.09-0.18,0.28-0.26,0.42-0.19C151.51,31.06,151.55,31.27,151.46,31.45z"/>
		</g>
		<g id="XMLID_1475_">
			<path id="XMLID_1478_" class="st10" d="M154.04,38.4c0.27-0.42,0.66-1.13,0.22-1.32c-0.43-0.2-0.99,0.51-1.3,0.97L154.04,38.4z"
				/>
			<path id="XMLID_1476_" class="st10" d="M150.2,37.15c0.02-0.5,0.13-1.3,0.6-1.2c0.47,0.09,0.5,1,0.48,1.55L150.2,37.15z"/>
		</g>
		
			<radialGradient id="XMLID_22_" cx="183.0901" cy="13.8017" r="3.7976" gradientTransform="matrix(0.9574 0.2889 -0.3391 1.1239 -10.4656 -35.3143)" gradientUnits="userSpaceOnUse">
			<stop  offset="0.8061" style="stop-color:#FFFFFF"/>
			<stop  offset="0.8491" style="stop-color:#F5F5F5"/>
			<stop  offset="0.9258" style="stop-color:#E9E9E8"/>
			<stop  offset="1" style="stop-color:#E5E5E4"/>
		</radialGradient>
		<path id="XMLID_1474_" class="st28" d="M162.82,34.1c-0.82,2.09-2.86,3.23-4.57,2.57c-1.71-0.66-2.43-2.89-1.62-4.98
			c0.81-2.08,2.86-3.23,4.57-2.57C162.9,29.79,163.63,32.02,162.82,34.1z"/>
		
			<radialGradient id="XMLID_23_" cx="183.5238" cy="14.3349" r="2.6843" gradientTransform="matrix(-0.5047 0.8633 -0.646 -0.3776 262.2896 -119.303)" gradientUnits="userSpaceOnUse">
			<stop  offset="0.6485" style="stop-color:#8E5037"/>
			<stop  offset="0.7034" style="stop-color:#74402E"/>
			<stop  offset="0.779" style="stop-color:#572F25"/>
			<stop  offset="0.8543" style="stop-color:#43221E"/>
			<stop  offset="0.9285" style="stop-color:#361B19"/>
			<stop  offset="1" style="stop-color:#321818"/>
		</radialGradient>
		<path id="XMLID_1473_" class="st29" d="M161.84,34.5c-0.52,0.96-1.59,1.4-2.4,0.97c-0.8-0.43-1.03-1.56-0.51-2.52
			c0.52-0.96,1.59-1.4,2.39-0.97C162.13,32.4,162.36,33.53,161.84,34.5z"/>
		<path id="XMLID_1472_" class="st27" d="M161.54,34.41c-0.39,0.72-1.19,1.04-1.79,0.72c-0.6-0.32-0.77-1.16-0.38-1.88
			c0.39-0.72,1.19-1.04,1.79-0.72C161.76,32.85,161.93,33.69,161.54,34.41z"/>
		<path id="XMLID_1471_" class="st0" d="M160.23,33.08c-0.18,0.24-0.5,0.3-0.7,0.14c-0.21-0.16-0.24-0.48-0.06-0.71
			c0.18-0.23,0.49-0.3,0.71-0.14C160.38,32.53,160.41,32.85,160.23,33.08z"/>
		<path id="XMLID_1470_" class="st0" d="M160.96,35.17c-0.14,0.18-0.38,0.24-0.53,0.12c-0.16-0.12-0.17-0.36-0.03-0.54
			c0.14-0.18,0.38-0.24,0.53-0.12C161.08,34.75,161.1,34.99,160.96,35.17z"/>
		
			<radialGradient id="XMLID_24_" cx="183.6058" cy="-11.1099" r="21.3861" gradientTransform="matrix(0.9574 0.2889 -0.2889 0.9574 -11.1588 -33.0169)" gradientUnits="userSpaceOnUse">
			<stop  offset="0" style="stop-color:#FFFFFF;stop-opacity:0"/>
			<stop  offset="0.1921" style="stop-color:#F0F0F1;stop-opacity:0.1454"/>
			<stop  offset="0.5606" style="stop-color:#C9CACC;stop-opacity:0.4243"/>
			<stop  offset="0.8606" style="stop-color:#A4A6A9;stop-opacity:0.6512"/>
			<stop  offset="0.8751" style="stop-color:#8C8E90;stop-opacity:0.6824"/>
			<stop  offset="0.9022" style="stop-color:#666668;stop-opacity:0.7404"/>
			<stop  offset="0.9288" style="stop-color:#484748;stop-opacity:0.7973"/>
			<stop  offset="0.9544" style="stop-color:#323131;stop-opacity:0.8522"/>
			<stop  offset="0.9786" style="stop-color:#252424;stop-opacity:0.9042"/>
			<stop  offset="1" style="stop-color:#211F1F;stop-opacity:0.95"/>
		</radialGradient>
		<path id="XMLID_1468_" class="st30" d="M186.61,23.68c0,0-9.53-12.52-11.14-14.22c0,0-0.68-0.87-1.43-1.09
			c-0.75-0.22-17.45-4.72-19.45-4.77c0,0,3.11,3.88,8.2,7.71l-4.32,2.41c0,0,1.5,4.33,7.35,6.9c5.85,2.57,10.11,2.47,10.11,2.47
			l0.48-3.71C179.79,21.04,183.15,22.47,186.61,23.68z"/>
		
			<linearGradient id="XMLID_25_" gradientUnits="userSpaceOnUse" x1="198.7065" y1="8.6395" x2="206.9054" y2="8.6395" gradientTransform="matrix(0.9574 0.2889 -0.2889 0.9574 -11.1588 -33.0169)">
			<stop  offset="0.635" style="stop-color:#FFFFFF;stop-opacity:0"/>
			<stop  offset="0.6671" style="stop-color:#FEF4F0;stop-opacity:0.0928"/>
			<stop  offset="0.7292" style="stop-color:#FBD6C8;stop-opacity:0.2718"/>
			<stop  offset="0.814" style="stop-color:#F7A689;stop-opacity:0.5167"/>
			<stop  offset="0.8606" style="stop-color:#F58A63;stop-opacity:0.6512"/>
			<stop  offset="0.8829" style="stop-color:#E68156;stop-opacity:0.699"/>
			<stop  offset="0.9249" style="stop-color:#CF7241;stop-opacity:0.789"/>
			<stop  offset="0.9648" style="stop-color:#C26A35;stop-opacity:0.8745"/>
			<stop  offset="1" style="stop-color:#BD6731;stop-opacity:0.95"/>
		</linearGradient>
		<path id="XMLID_1467_" class="st31" d="M178.36,37.8c0,0-0.8-0.47-0.24-1.38c0.56-0.91,1.48-1.71,0.74-2.14
			c-0.75-0.43-2.95-0.3-0.79-2.28c2.17-1.98,6.8-2.86,7.67-0.33C186.59,34.2,181.88,39.75,178.36,37.8z"/>
		
			<linearGradient id="XMLID_26_" gradientUnits="userSpaceOnUse" x1="123.5471" y1="-78.7658" x2="128.6536" y2="-78.7658" gradientTransform="matrix(0.9895 0.1443 -0.1443 0.9895 11.1362 92.7916)">
			<stop  offset="0.3939" style="stop-color:#FFFFFF"/>
			<stop  offset="0.4279" style="stop-color:#FEFBF7"/>
			<stop  offset="0.5739" style="stop-color:#FDEBDA"/>
			<stop  offset="0.7191" style="stop-color:#FBE0C6"/>
			<stop  offset="0.862" style="stop-color:#FAD9B9"/>
			<stop  offset="1" style="stop-color:#FAD7B5"/>
		</linearGradient>
		<path id="XMLID_1466_" class="st32" d="M149.66,34.43c-1.77-2.21-2.64-2.27-3.81-2.62v0l-1.05,0.5
			C147.2,32.15,149.66,34.43,149.66,34.43z"/>
		
			<linearGradient id="XMLID_27_" gradientUnits="userSpaceOnUse" x1="203.0511" y1="15.9455" x2="202.5985" y2="19.0559" gradientTransform="matrix(0.9574 0.2889 -0.2889 0.9574 -11.1588 -33.0169)">
			<stop  offset="0.3939" style="stop-color:#FFFFFF"/>
			<stop  offset="0.4157" style="stop-color:#FEFAF7"/>
			<stop  offset="0.5348" style="stop-color:#FCE3D2"/>
			<stop  offset="0.6541" style="stop-color:#FAD1B5"/>
			<stop  offset="0.772" style="stop-color:#F8C4A1"/>
			<stop  offset="0.888" style="stop-color:#F7BD94"/>
			<stop  offset="1" style="stop-color:#F7BA90"/>
		</linearGradient>
		<path id="XMLID_1465_" class="st33" d="M175.16,41.46c-0.04,0.24-0.06,0.65-0.23,0.97c4.23,0.48,7.07-1.8,7.07-1.8
			C179.53,41.46,177.1,41.56,175.16,41.46z"/>
		
			<linearGradient id="XMLID_28_" gradientUnits="userSpaceOnUse" x1="321.6232" y1="202.795" x2="322.1983" y2="204.9513" gradientTransform="matrix(0.8377 0.5792 -0.5687 0.8226 -5.6315 -310.3659)">
			<stop  offset="0" style="stop-color:#8E5037"/>
			<stop  offset="0.1671" style="stop-color:#91543B"/>
			<stop  offset="0.3403" style="stop-color:#9B6147"/>
			<stop  offset="0.5162" style="stop-color:#AC755A"/>
			<stop  offset="0.6941" style="stop-color:#C39275"/>
			<stop  offset="0.8717" style="stop-color:#E1B797"/>
			<stop  offset="1" style="stop-color:#FAD7B5"/>
		</linearGradient>
		<path id="XMLID_1463_" class="st34" d="M140.48,38.29c0,0,7.39,8.44,17.01,5.97C157.48,44.26,147.76,44.62,140.48,38.29z"/>
		<g id="XMLID_437_">
			
				<linearGradient id="XMLID_29_" gradientUnits="userSpaceOnUse" x1="196.3484" y1="-5.9324" x2="199.8095" y2="-5.9324" gradientTransform="matrix(0.9574 0.2889 -0.2889 0.9574 -11.1588 -33.0169)">
				<stop  offset="0" style="stop-color:#FCCC0D"/>
				<stop  offset="0.1743" style="stop-color:#FABB13"/>
				<stop  offset="0.4551" style="stop-color:#F8A71B"/>
				<stop  offset="0.7323" style="stop-color:#F69A1F"/>
				<stop  offset="1" style="stop-color:#F69621"/>
			</linearGradient>
			<path id="XMLID_1462_" class="st35" d="M179.58,14.56c-0.23,2.9-0.27,6.08,0.49,7.71l0.76,0.14c0,0-0.95-1.42-0.62-7.06
				L179.58,14.56z"/>
			
				<linearGradient id="XMLID_30_" gradientUnits="userSpaceOnUse" x1="200.0112" y1="-1.4194" x2="201.7921" y2="-2.4089" gradientTransform="matrix(0.9574 0.2889 -0.2889 0.9574 -11.1588 -33.0169)">
				<stop  offset="0" style="stop-color:#FCCC0D"/>
				<stop  offset="0.1743" style="stop-color:#FABB13"/>
				<stop  offset="0.4551" style="stop-color:#F8A71B"/>
				<stop  offset="0.7323" style="stop-color:#F69A1F"/>
				<stop  offset="1" style="stop-color:#F69621"/>
			</linearGradient>
			<path id="XMLID_1461_" class="st36" d="M179.78,25.22l-0.38-2.39c0,0,0.12-0.54,0.35-0.62c0.24-0.08,0.91-0.53,0.91-0.53
				s0.57-0.18,0.74,0.18c0.17,0.36,1.16,1.95,1.16,1.95s0.02,0.41-0.2,0.54C182.16,24.48,180.03,25.58,179.78,25.22z"/>
			
				<linearGradient id="XMLID_31_" gradientUnits="userSpaceOnUse" x1="199.9028" y1="1.4271" x2="204.5025" y2="1.4271" gradientTransform="matrix(0.9574 0.2889 -0.2889 0.9574 -11.1588 -33.0169)">
				<stop  offset="6.060610e-03" style="stop-color:#FFFFFF"/>
				<stop  offset="0.3152" style="stop-color:#FCCC0D"/>
				<stop  offset="0.4345" style="stop-color:#FABB13"/>
				<stop  offset="0.6268" style="stop-color:#F8A71B"/>
				<stop  offset="0.8167" style="stop-color:#F69A1F"/>
				<stop  offset="1" style="stop-color:#F69621"/>
			</linearGradient>
			<path id="XMLID_1460_" class="st37" d="M180.05,25.31l-0.29,3.29c0,0,1.29,0.53,2.52,0.09c1.23-0.45,2.05-1.14,1.95-1.39
				c-0.11-0.26-1.85-2.94-1.85-2.94L180.05,25.31z"/>
			
				<linearGradient id="XMLID_32_" gradientUnits="userSpaceOnUse" x1="199.0306" y1="-0.9107" x2="200.8805" y2="-0.9107" gradientTransform="matrix(0.9574 0.2889 -0.2889 0.9574 -11.1588 -33.0169)">
				<stop  offset="0" style="stop-color:#FFFFFF"/>
				<stop  offset="0.0974" style="stop-color:#FFF5D2"/>
				<stop  offset="0.2281" style="stop-color:#FFEA9D"/>
				<stop  offset="0.3605" style="stop-color:#FFE06F"/>
				<stop  offset="0.492" style="stop-color:#FFD84A"/>
				<stop  offset="0.6223" style="stop-color:#FFD22C"/>
				<stop  offset="0.7511" style="stop-color:#FFCE18"/>
				<stop  offset="0.8778" style="stop-color:#FFCB0B"/>
				<stop  offset="1" style="stop-color:#FFCA07"/>
			</linearGradient>
			<polygon id="XMLID_1459_" class="st38" points="179.73,22.28 180.95,24.61 179.93,25.05 179.6,22.69 			"/>
			
				<radialGradient id="XMLID_33_" cx="201.2403" cy="1.605" r="6.433" gradientTransform="matrix(0.9574 0.2889 -0.2889 0.9574 -11.1588 -33.0169)" gradientUnits="userSpaceOnUse">
				<stop  offset="0.103" style="stop-color:#FFFFFF"/>
				<stop  offset="0.1385" style="stop-color:#FFF5D2"/>
				<stop  offset="0.186" style="stop-color:#FFEA9D"/>
				<stop  offset="0.2341" style="stop-color:#FFE06F"/>
				<stop  offset="0.2819" style="stop-color:#FFD84A"/>
				<stop  offset="0.3293" style="stop-color:#FFD22C"/>
				<stop  offset="0.3762" style="stop-color:#FFCE18"/>
				<stop  offset="0.4222" style="stop-color:#FFCB0B"/>
				<stop  offset="0.4667" style="stop-color:#FFCA07"/>
			</radialGradient>
			<path id="XMLID_443_" class="st39" d="M180.71,28.79l0.05,0.04c0.15,0.02,0.31,0.03,0.48,0.03l-0.52-3.34L180.71,28.79z
				 M181.95,28.78c0.11-0.02,0.22-0.05,0.33-0.09c0.08-0.03,0.17-0.07,0.25-0.1l0.04-0.08l-1.38-2.99L181.95,28.78z M182.4,25.18
				l1.18,2.64l0.02,0.21c0.21-0.14,0.37-0.28,0.48-0.4L182.4,25.18z M182.94,28.4c0.19-0.09,0.36-0.18,0.51-0.28l-1.61-2.64
				L182.94,28.4z"/>
			
				<linearGradient id="XMLID_34_" gradientUnits="userSpaceOnUse" x1="196.5076" y1="-6.8682" x2="198.1493" y2="-6.8682" gradientTransform="matrix(0.9574 0.2889 -0.2889 0.9574 -11.1588 -33.0169)">
				<stop  offset="0" style="stop-color:#FFFFFF"/>
				<stop  offset="0.0974" style="stop-color:#FFF5D2"/>
				<stop  offset="0.2281" style="stop-color:#FFEA9D"/>
				<stop  offset="0.3605" style="stop-color:#FFE06F"/>
				<stop  offset="0.492" style="stop-color:#FFD84A"/>
				<stop  offset="0.6223" style="stop-color:#FFD22C"/>
				<stop  offset="0.7511" style="stop-color:#FFCE18"/>
				<stop  offset="0.8778" style="stop-color:#FFCB0B"/>
				<stop  offset="1" style="stop-color:#FFCA07"/>
			</linearGradient>
			<path id="XMLID_442_" class="st40" d="M179.71,14.71c0,0-0.34,3.8,0.08,5.41c0,0-0.09-3.89,0.11-5.13L179.71,14.71z"/>
			
				<radialGradient id="XMLID_35_" cx="199.9068" cy="1.1191" r="3.8295" gradientTransform="matrix(0.9574 0.2889 -0.2889 0.9574 -11.1588 -33.0169)" gradientUnits="userSpaceOnUse">
				<stop  offset="0.635" style="stop-color:#FFFFFF;stop-opacity:0"/>
				<stop  offset="0.6589" style="stop-color:#FEF7F0;stop-opacity:0.0689"/>
				<stop  offset="0.705" style="stop-color:#FDE1C8;stop-opacity:0.202"/>
				<stop  offset="0.7686" style="stop-color:#FABF88;stop-opacity:0.3857"/>
				<stop  offset="0.8466" style="stop-color:#F69030;stop-opacity:0.6109"/>
				<stop  offset="0.8606" style="stop-color:#F58720;stop-opacity:0.6512"/>
				<stop  offset="0.8694" style="stop-color:#F48221;stop-opacity:0.6701"/>
				<stop  offset="0.9163" style="stop-color:#F26B24;stop-opacity:0.7705"/>
				<stop  offset="0.9607" style="stop-color:#F15E25;stop-opacity:0.8658"/>
				<stop  offset="1" style="stop-color:#F05926;stop-opacity:0.95"/>
			</radialGradient>
			<path id="XMLID_439_" class="st41" d="M184.23,27.29c-0.11-0.26-1.85-2.94-1.85-2.94c0.22-0.13,0.2-0.54,0.2-0.54
				s-0.99-1.58-1.16-1.95c-0.17-0.37-0.74-0.18-0.74-0.18s-0.67,0.45-0.91,0.53c-0.24,0.08-0.35,0.62-0.35,0.62l0.38,2.39
				c0.05,0.08,0.19,0.08,0.37,0.06l-0.1,0.04l-0.29,3.29c0,0,1.29,0.53,2.52,0.09C183.51,28.24,184.34,27.55,184.23,27.29z"/>
		</g>
		<path id="XMLID_434_" class="st10" d="M164.52,42.5c-4.59,1.89-8.99,1.9-12.81,1.08c-0.63-0.14-1.24-0.3-1.83-0.47v0
			c-0.97-0.29-1.86-0.6-2.69-0.94c-0.01-0.01-0.02-0.01-0.03-0.01c-0.37-0.15-0.72-0.3-1.06-0.46c-0.07-0.03-0.15-0.07-0.22-0.1
			c-3.42-1.59-5.42-3.38-6.29-4.3c-0.04-0.03-0.06-0.04-0.06-0.04s1.93,2.64,6.65,4.86c0.07,0.03,0.14,0.07,0.21,0.1
			c0.33,0.15,0.67,0.3,1.03,0.45c0.01,0,0.02,0.01,0.03,0.01c0.8,0.33,1.68,0.64,2.62,0.92l0,0c0.58,0.17,1.17,0.33,1.79,0.46
			c3.73,0.79,8.03,0.75,12.53-1.16c0.17-0.07,0.24-0.26,0.18-0.43C164.57,42.47,164.55,42.49,164.52,42.5z"/>
		<path id="XMLID_433_" class="st10" d="M164.53,41.07c0,0-1.41,2.05,1.28,2.63C165.81,43.71,164.05,42.84,164.53,41.07z"/>
	</g>
	<g id="XMLID_406_">
		<path id="XMLID_511_" class="st15" d="M118.16,41.13c0,0.22-0.17,0.39-0.39,0.39c-0.21,0-0.38-0.17-0.38-0.39v-2.23h-0.56
			c-0.2,0-0.36-0.16-0.36-0.37c0-0.2,0.16-0.36,0.36-0.36h1.88c0.2,0,0.36,0.16,0.36,0.36c0,0.21-0.16,0.37-0.36,0.37h-0.55V41.13z"
			/>
		<path id="XMLID_407_" class="st15" d="M120.41,40.59l-0.37-0.6v1.15c0,0.21-0.17,0.38-0.38,0.38c-0.21,0-0.38-0.17-0.38-0.38
			v-2.68c0-0.16,0.12-0.28,0.28-0.28c0.1,0,0.19,0.06,0.24,0.14l1.05,1.7l1.04-1.7c0.05-0.08,0.14-0.14,0.24-0.14
			c0.16,0,0.28,0.13,0.28,0.28v2.68c0,0.21-0.17,0.38-0.38,0.38c-0.21,0-0.38-0.17-0.38-0.38v-1.15l-0.37,0.6
			c-0.1,0.15-0.25,0.25-0.44,0.25C120.66,40.84,120.5,40.74,120.41,40.59z"/>
	</g>
	<path id="XMLID_87_" class="st42" d="M33.96,35.68c-0.01-0.08-0.03-0.16-0.06-0.24c-0.01-0.03-0.02-0.06-0.03-0.09
		c-0.01-0.04-0.03-0.08-0.05-0.12c-0.04-0.1-0.09-0.18-0.14-0.26l0,0c0,0-0.01-0.01-0.02-0.03c-0.05-0.08-0.1-0.15-0.14-0.21
		c-0.01-0.01-0.02-0.03-0.03-0.04c-0.01-0.01-0.01-0.02-0.02-0.02c-0.01-0.01-0.01-0.01-0.02-0.02c-0.39-0.54-1.18-1.66-1.62-2.44
		c-0.01-0.02-0.02-0.04-0.04-0.06c-0.01-0.02-0.03-0.05-0.04-0.07c-0.36-0.66-0.62-1.19-0.62-1.19l0,0
		c-0.05-0.12-0.11-0.25-0.16-0.37c-0.42-0.93-0.77-1.82-1.05-2.64c-0.72-2.3-1.24-5.88-1.24-5.88v0c-0.06-0.47-0.09-0.8-0.1-0.9
		c-0.05-0.41-0.11-0.79-0.18-1.14c-0.48-2.44-1.48-3.77-3.03-4.05c-0.18-0.03-0.35-0.05-0.53-0.05c-1.29,0-2.57,0.88-3.8,2.63
		c-1.09,1.57-2.26,4.42-2.86,5.97l-1.61,4.27c-0.05,0.14-0.21,0.54-0.55,0.54c-0.17,0-0.4-0.1-0.57-0.59
		c-0.19-0.68-0.35-1.36-0.45-1.97c-0.01-0.04-0.72-4.26-1.85-11.62c-0.63-4.09-2.2-6.28-4.65-6.35c-3.2,0-5.7,4.21-7.44,12.52
		c-2.71,12.91,0.57,21.21,0.71,21.56c0.29,0.71,0.93,1.2,1.69,1.29c0.08,0.01,0.15,0.01,0.23,0.01c0.26,0,0.53-0.05,0.78-0.15
		c1.06-0.43,1.57-1.64,1.15-2.7c-0.03-0.08-2.92-7.59-0.49-19.16c0.91-4.32,1.89-6.67,2.57-7.89c0.15-0.22,0.32-0.34,0.51-0.34
		c0.38,0,0.54,0.44,0.61,0.62c0.09,0.34,0.17,0.75,0.24,1.22c1.13,7.36,1.86,11.65,1.86,11.68c0.57,3.34,1.84,7.39,4.66,7.69
		c0.11,0.01,0.21,0.02,0.32,0.02c2.68,0,4.05-3.56,4.57-4.9l1.67-4.43c0.5-1.32,1.04-2.5,1.41-3.27c0.17-0.35,0.35-0.51,0.56-0.51
		c0.26,0,0.41,0.21,0.45,0.63c0.02,0.21,0.04,0.42,0.05,0.64l0.01,0.1c0.02,0.2,0.41,3.77,2.26,8.13c0.02,0.07,0.05,0.14,0.08,0.21
		c0,0.01,0,0.01,0.01,0.01c0.14,0.34,0.34,0.8,0.59,1.32c0.72,1.51,1.83,3.73,3.03,4.64h0.01c0.15,0.11,0.29,0.21,0.44,0.29
		c0.26,0.11,0.55,0.18,0.85,0.18c1.17,0,2.13-0.95,2.13-2.13c0-0.1-0.01-0.21-0.02-0.31C33.97,35.72,33.96,35.7,33.96,35.68z
		 M42.62,20.62c-4.86,0-8.79,3.94-8.79,8.79c0,4.86,3.94,8.79,8.79,8.79c4.85,0,8.79-3.94,8.79-8.79
		C51.41,24.56,47.48,20.62,42.62,20.62z M46.34,30.84c-1.3,1.59-2.91,2.63-3.71,3.09c0,0,0,0,0,0c0,0,0,0,0,0
		c-0.8-0.46-2.41-1.5-3.71-3.09c-1.81-2.22-0.72-4.8,1.18-4.75c1.77,0.04,2.53,1.77,2.53,1.77s0,0,0-0.01c0,0.01,0,0.01,0,0.01
		s0.76-1.73,2.53-1.77C47.05,26.05,48.15,28.63,46.34,30.84z M102.23,33.82c-0.02-0.61-0.27-1.17-0.7-1.58
		c-0.29-0.28-0.65-0.47-1.04-0.56c-0.16-0.04-0.33-0.06-0.49-0.06c-0.62,0-1.21,0.26-1.63,0.71c-0.79,0.85-1.91,1.34-3.07,1.34
		c-0.3,0-0.61-0.04-0.92-0.1c-1.09-0.25-2.02-0.92-2.62-1.88c-0.6-0.96-0.79-2.1-0.54-3.21c0.43-1.92,2.15-3.3,4.09-3.3
		c0.32,0,0.63,0.04,0.93,0.11c0.53,0.12,1.06,0.36,1.54,0.72c0.13,0.12,0.53,0.53,0.39,0.94c-0.19,0.54-1.22,0.87-3.04,0.98
		l-0.08,0.01l-0.19,0.05c-0.65,0.17-1.11,0.77-1.11,1.45c0,0.79,0.61,1.45,1.39,1.5l0.04,0l0.22-0.01c0.31-0.02,7.5-0.49,7.64-3.75
		l0-0.15c0.06-0.63-0.03-1.27-0.24-1.85c-0.03-0.08-0.06-0.16-0.09-0.24l-0.11-0.22c-0.01-0.03-0.03-0.06-0.07-0.12
		c-0.1-0.17-0.19-0.3-0.25-0.38l-0.09-0.09c-1.23-1.64-3-2.8-4.97-3.25c-0.63-0.15-1.27-0.22-1.93-0.22c-4.01,0-7.57,2.87-8.45,6.83
		c-0.52,2.28-0.12,4.64,1.11,6.62c1.23,1.99,3.16,3.37,5.41,3.89c0.63,0.14,1.27,0.22,1.91,0.22c2.39,0,4.7-1.01,6.34-2.77
		C102.03,35.01,102.25,34.43,102.23,33.82z M120.5,20.68c-0.09-0.01-0.18-0.01-0.32-0.01c-0.01,0-0.03,0-0.05,0
		c-1.07,0.05-1.94,0.86-2.07,1.92c-0.06,0.45-0.69,4.52-3.93,8.86l-0.42,0.54l-0.35,0.32l-0.14-0.46c-0.85-2.66-2.5-6.62-5.49-10.38
		c-0.42-0.52-1.04-0.82-1.71-0.81c-0.48,0-0.94,0.16-1.32,0.46c-0.45,0.36-0.73,0.87-0.8,1.44c-0.07,0.57,0.09,1.13,0.45,1.58
		c3.86,4.87,5.11,10.16,5.25,10.77l0.16,0.98l-0.64,0.48l-0.18,0.15l-0.02-0.01c-3.13,2.25-6.91,3.89-11.24,4.89
		c-0.57,0.13-1.05,0.48-1.36,0.97c-0.31,0.5-0.41,1.08-0.28,1.65c0.23,1.01,1.12,1.71,2.15,1.7l0.09,0
		c0.13-0.01,0.26-0.02,0.39-0.05c21.46-4.93,23.66-21.84,23.74-22.55C122.55,21.91,121.69,20.82,120.5,20.68z M79.46,28.7l0.24-0.22
		c1.69-1.57,3.49-2.89,5.35-3.93c1.04-0.58,1.41-1.89,0.83-2.93c-0.38-0.68-1.1-1.1-1.88-1.1c-0.36,0-0.73,0.09-1.04,0.27
		c-2.46,1.38-4.8,3.15-6.95,5.27l-0.04,0.04l-0.06,0.02l-0.44,0.22v-3.49c0-1.21-0.98-2.19-2.19-2.19c-1.21,0-2.19,0.98-2.19,2.19
		v13.14c0,1.2,0.98,2.19,2.19,2.19c1.21,0,2.19-0.98,2.19-2.19v-4.06l0.04-0.18l0.12-0.09l0.19-0.11h0.08c0.13,0,0.27,0.07,0.4,0.19
		l7.62,7.17c0.41,0.39,0.94,0.6,1.5,0.6c0.6,0,1.18-0.25,1.6-0.69c0.4-0.42,0.61-0.98,0.59-1.56c-0.02-0.59-0.26-1.13-0.69-1.53
		L79.46,28.7z M66.56,20.67c-1.2,0-2.19,0.98-2.19,2.19v8.36l-0.56-0.91c-1.43-2.31-3.94-6.36-4.73-7.51
		c-0.36-0.53-1.45-2.13-3.04-2.13c-0.25,0-0.5,0.04-0.75,0.12c-2.04,0.62-2.05,3.05-2.06,4.6l-0.02,10.61c0,1.2,0.98,2.19,2.19,2.19
		c1.21,0,2.19-0.98,2.19-2.19v-7.42l0.56,0.9c1.62,2.59,3.39,5.46,3.43,5.53c1.29,2.08,2.71,3.17,4.1,3.17
		c0.24,0,0.48-0.03,0.73-0.1c1.49-0.41,2.28-1.81,2.34-4.17V22.85C68.75,21.65,67.77,20.67,66.56,20.67z"/>
</g>
</svg>
