<svg xmlns="http://www.w3.org/2000/svg" viewBox="0 0 108 111.2"><defs><style>.cls-1{isolation:isolate;}.cls-18,.cls-2{fill:#fff;}.cls-3{fill:#d9f0f7;}.cls-4{fill:#9bdaea;}.cls-5{fill:#b477b3;}.cls-6{fill:#8f51a0;}.cls-7{opacity:0.5;mix-blend-mode:multiply;}.cls-8{fill:#f15e73;}.cls-9{fill:#e0394d;}.cls-10{fill:#ffd108;}.cls-11{fill:#f0a61f;}.cls-12{fill:#ea8624;}.cls-13{fill:#4ac0af;}.cls-14{opacity:0.3;}.cls-14,.cls-15{mix-blend-mode:screen;}.cls-16{fill:#00b397;}.cls-17{fill:#7d3333;}.cls-18{opacity:0.2;}</style></defs><title>Asset 6</title><g class="cls-1"><g id="Layer_2" data-name="Layer 2"><g id="Layer_1-2" data-name="Layer 1"><polygon class="cls-2" points="10.6 82.1 10.6 94 76.1 108.6 76.1 96.9 10.6 82.1"/><polygon class="cls-3" points="76.1 98.2 76.1 108.1 10.6 93.4 10.6 83.2 76.1 98.2"/><path class="cls-4" d="M12.6,85.2,74.3,99.8S43.9,94.4,12.6,85.2Z"/><path class="cls-4" d="M13.5,90.9,33,95.3S21.6,94.1,13.5,90.9Z"/><path class="cls-4" d="M46.6,98.4l27.7,5.7A131,131,0,0,1,46.6,98.4Z"/><path class="cls-4" d="M30.3,92.5l27.8,5.7A131.2,131.2,0,0,1,30.3,92.5Z"/><polygon class="cls-2" points="76.1 96.9 102.3 81.6 102.3 92.2 76.1 108.6 76.1 96.9"/><path class="cls-4" d="M76.9,101.9l15.4-8.6A54.3,54.3,0,0,1,76.9,101.9Z"/><path class="cls-4" d="M77.5,99l23.6-14.2S92.8,92.3,77.5,99Z"/><path class="cls-4" d="M101.4,90.9l-11.5,7S96.6,92.3,101.4,90.9Z"/><path class="cls-5" d="M104.8,82.9v7.3a4.1,4.1,0,0,1-.4,1.9h0a3.4,3.4,0,0,1-.6,1.2,2.6,2.6,0,0,1-.9.9,3.9,3.9,0,0,1-1,.8L76.8,110.9a2.6,2.6,0,0,1-1.5.2L8.8,95.2a1.7,1.7,0,0,1-1.2-1.6V92.2l68.5,15.9,26.2-15.9V82.1L76.1,98.2l-8.4-1.9L8.9,82.8v-.9a2,2,0,0,1,.1-.7,2.2,2.2,0,0,1,1.3-1.4L42.6,65.1l58,13,.8.2.9.2a6.9,6.9,0,0,1,1.3,1.1,4.7,4.7,0,0,1,.7,1.2,3.6,3.6,0,0,1,.4,1.1A3.4,3.4,0,0,1,104.8,82.9Z"/><path class="cls-6" d="M102.3,83.4V82.1L76.1,98.2l-8.4-1.9L8.9,82.8v-.9a2,2,0,0,1,.1-.7L76.1,96.6l27.5-17a4.7,4.7,0,0,1,.7,1.2,3.6,3.6,0,0,1,.4,1.1Z"/><polygon class="cls-6" points="10.7 79.5 25.7 86.6 28.5 87.3 13.9 78.1 10.7 79.5"/><path class="cls-6" d="M67.7,96.3,46.6,91.4s40.6-12.1,54-13.3l1.7.4c-6.6,1.8-29.6,7.9-34.6,12.7C64.5,94.2,67.7,96.3,67.7,96.3Z"/><polygon class="cls-6" points="8.6 92.9 76.2 109.1 103.5 92.4 76.3 109.8 8.6 92.9"/><path class="cls-6" d="M104.8,82.9v7.3a4.1,4.1,0,0,1-.4,1.9h0a2.4,2.4,0,0,1-2.1.1V82.1a3.4,3.4,0,0,1,2-1.3A5,5,0,0,1,104.8,82.9Z"/><polygon class="cls-6" points="7.6 92.2 10.6 90.9 10.6 92.9 7.6 92.2"/><g class="cls-7"><path class="cls-6" d="M72.2,94.7h0L14.6,81.5a.2.2,0,0,1-.2-.2c0-.1,0-.2.1-.2a1.1,1.1,0,0,0,.6-.9,1.3,1.3,0,0,0-.5-.9c-.1-.1-.1-.1-.1-.2s0-.2.1-.2L41,67.5h.2a3.3,3.3,0,0,0,2.1.7,3.5,3.5,0,0,0,2.6-1h.2l50,11.5a.1.1,0,0,1,.1.1c.1.1.1.2,0,.2a1.6,1.6,0,0,0-.3.9,1.5,1.5,0,0,0,.8,1.2c0,.1.1.1.1.2s-.1.1-.1.2l-19,12.2h-.2a3.7,3.7,0,0,0-2.1-.6,3.7,3.7,0,0,0-3,1.6ZM15.1,81.2l57,13a4.2,4.2,0,0,1,5.5-1.1L96.2,81.2a1.7,1.7,0,0,1-.7-1.4,1.9,1.9,0,0,1,.2-.8L46.1,67.6a3.9,3.9,0,0,1-2.8,1.1A4.8,4.8,0,0,1,41,68L15.1,79.2a1.3,1.3,0,0,1,.4,1A1.4,1.4,0,0,1,15.1,81.2Z"/></g><polygon class="cls-2" points="103.7 64.2 103.7 76.1 38.2 90.6 38.2 78.9 103.7 64.2"/><polygon class="cls-3" points="38.2 80.3 38.2 90.2 103.7 75 103.7 65.2 38.2 80.3"/><path class="cls-4" d="M101.6,67.3,40,81.9S70.4,76.5,101.6,67.3Z"/><path class="cls-4" d="M100.8,73,81.3,77.4S92.7,76.2,100.8,73Z"/><path class="cls-4" d="M67.7,80.5,40,86.2A138.9,138.9,0,0,0,67.7,80.5Z"/><path class="cls-4" d="M83.9,74.6,56.2,80.3A131,131,0,0,0,83.9,74.6Z"/><polygon class="cls-2" points="38.2 78.9 12 63.7 12 74.3 38.2 90.6 38.2 78.9"/><path class="cls-4" d="M37.4,84,21.9,75.3A54.6,54.6,0,0,0,37.4,84Z"/><path class="cls-4" d="M36.8,81.1,13.2,66.9S21.5,74.4,36.8,81.1Z"/><path class="cls-4" d="M12.9,72.9,24.3,80S17.6,74.4,12.9,72.9Z"/><path class="cls-8" d="M106.7,75.7a1.7,1.7,0,0,1-1.3,1.6L38.2,93.4,12.3,77.1a5.8,5.8,0,0,1-1.8-1.7l-.4-.6a5.1,5.1,0,0,1-.6-2.5V65a4.5,4.5,0,0,1,.4-2A4.5,4.5,0,0,1,11,61.3l1-.7L71.6,47.2l32.5,14.7a2,2,0,0,1,1.1,1.1,1.2,1.2,0,0,1,.2,1v.8L59.8,75.3l-13,3-8.6,2-22.7-14-1.1-.6L12,64.2V74.3L38.2,90.2l68.4-15.9Z"/><path class="cls-9" d="M105.4,64v.8L59.8,75.3l-13,3-8.6,2-22.7-14-1.1-.6a5.3,5.3,0,0,1,3.7.6l20.4,12L105.2,63A1.2,1.2,0,0,1,105.4,64Z"/><polygon class="cls-9" points="93.5 60.7 85.4 69.4 74.3 71.9 93.5 60.7"/><path class="cls-9" d="M46.2,74.8C44.5,73.7,16,66.3,16,66.3h-.5L12,64.2v2.3H9.5V65a4.5,4.5,0,0,1,.4-2A4.5,4.5,0,0,1,11,61.3l48.8,14h.1l-13.1,3C48.9,76.9,48.6,76.4,46.2,74.8Z"/><polygon class="cls-9" points="105.8 74.6 38.1 90.7 10.8 74 38.1 91.5 105.8 74.6"/><path class="cls-9" d="M12,64.2V74.3a3.2,3.2,0,0,1-1.9.5,5.1,5.1,0,0,1-.6-2.5V65a4.5,4.5,0,0,1,.4-2A11.7,11.7,0,0,1,12,64.2Z"/><polygon class="cls-9" points="106.6 74.3 103.7 73 103.7 75 106.6 74.3"/><g class="cls-7"><path class="cls-9" d="M42,76.7a.1.1,0,0,1-.1-.1A3.8,3.8,0,0,0,38.8,75a3.6,3.6,0,0,0-2,.6.2.2,0,0,1-.3,0L17.6,63.5c-.1-.1-.1-.1-.1-.2v-.2a1.9,1.9,0,0,0,.7-1.3A1.6,1.6,0,0,0,18,61v-.2h.2L68.1,49.2h.2a3.5,3.5,0,0,0,2.6,1,3.6,3.6,0,0,0,2.2-.7h.2L99.7,61a.3.3,0,0,1,.1.2v.2a1.1,1.1,0,0,0,0,1.8c.1,0,.1.1.1.2s0,.1-.1.2L42.1,76.7Zm-3.2-2.1a3.9,3.9,0,0,1,3.3,1.7L99.2,63.2a1.2,1.2,0,0,1,0-1.9L73.2,50a4,4,0,0,1-2.3.8,4.3,4.3,0,0,1-2.8-1.1L18.6,61a2.5,2.5,0,0,1,.1.8,2.4,2.4,0,0,1-.6,1.5L36.7,75.2A3.9,3.9,0,0,1,38.8,74.6Z"/></g><path class="cls-8" d="M85.1,71.3s2.1,4.5,1.9,7.2a18.7,18.7,0,0,0,1.6-2.8l1.8,2.2a22.5,22.5,0,0,0-1.5-7.5Z"/><path class="cls-10" d="M91.9,48.7V59.5l1.6-.9v2.1L65.6,77,1.5,60.4a12,12,0,0,1,0-11.6l29.9-15a2.9,2.9,0,0,1,2.2-.3L92.5,46a1.2,1.2,0,0,1,1,1.2v.6Z"/><path class="cls-11" d="M58.3,62.8s-2.5-3,1.6-4.1L88.3,50l.9-.6L45.8,59.8Z"/><path class="cls-11" d="M9.7,44.7s13.4,6.9,13.2,8.2-1,1.2-1,1.2l9.9,2.4-19.7-13Z"/><path class="cls-11" d="M93.5,47.2v.6l-1.6.9L66,64.2h0a6.8,6.8,0,0,1,2.3-2.1L93.5,46.9Z"/><g class="cls-7"><path class="cls-11" d="M63.1,62.1H63L7.7,49.5a.2.2,0,0,1-.2-.2l.2-.3c.8-.1,1.1-.6,1.1-.9a.7.7,0,0,0-.6-.6L8,47.3l.2-.3L31.5,35.4c.1-.1.1-.1.2,0a6.6,6.6,0,0,0,2.8.9,2.5,2.5,0,0,0,2.2-.9c.1,0,.2-.1.3,0L86.7,46c.1,0,.1.1.1.2s0,.2-.1.2-1.2.6-1.2,1.5.4.8.9,1.2a.1.1,0,0,1,.1.1v.2L68.3,61c0,.1-.1.1-.2,0a3.3,3.3,0,0,0-1.9-.6A3.4,3.4,0,0,0,63.3,62ZM8.5,49.2,63,61.6A3.9,3.9,0,0,1,66.2,60a3.6,3.6,0,0,1,2,.6L85.9,49.2a2,2,0,0,1-.8-1.3,2,2,0,0,1,.9-1.6L37,35.8a3.1,3.1,0,0,1-2.5,1h0a5.9,5.9,0,0,1-2.9-1L8.7,47.3a1,1,0,0,1,.5.8A1.3,1.3,0,0,1,8.5,49.2Z"/></g><path class="cls-11" d="M2.3,49.4l62,14.8s-2.4,6.7.7,11.7L2.2,59.7S-.4,54.5,2.3,49.4Z"/><path class="cls-12" d="M7.6,62A11.5,11.5,0,0,1,8.7,50.7a1.4,1.4,0,0,1,1.5.4S6.1,54.3,9,62.3A1.8,1.8,0,0,1,7.6,62Z"/><path class="cls-12" d="M12.2,63.1a11.7,11.7,0,0,1,1.1-11.4,1.1,1.1,0,0,1,1.4.4s-4.1,3.3-1.2,11.4A1.3,1.3,0,0,1,12.2,63.1Z"/><path class="cls-12" d="M42.4,70.9a12.4,12.4,0,0,1,1.2-12.2,1.3,1.3,0,0,1,1.5.4s-4.4,3.6-1.3,12.2A1.5,1.5,0,0,1,42.4,70.9Z"/><path class="cls-12" d="M47.5,72.2A12.7,12.7,0,0,1,48.7,60a1.2,1.2,0,0,1,1.5.4S45.9,64,48.9,72.6A1.6,1.6,0,0,1,47.5,72.2Z"/><polygon class="cls-11" points="93.5 58.6 91.9 57.9 91.9 59.5 93.5 58.6"/><path class="cls-2" d="M91.9,48.7V59.5L66.5,75a7.2,7.2,0,0,1-1-2.4.4.4,0,0,0-.1-.3,15.9,15.9,0,0,1,.6-8.1Z"/><path class="cls-4" d="M78.8,64.9,65.5,72.6a.4.4,0,0,0-.1-.3A84,84,0,0,1,78.8,64.9Z"/><path class="cls-4" d="M91.9,57.1v.5L80.2,64.3A83.1,83.1,0,0,1,91.9,57.1Z"/><path class="cls-4" d="M65.6,68.5l16-9A108.7,108.7,0,0,1,65.6,68.5Z"/><path class="cls-4" d="M67.2,65.1,91,50.9A198,198,0,0,1,67.2,65.1Z"/><polygon class="cls-2" points="105 32.1 105 44 39.5 58.6 39.5 46.9 105 32.1"/><polygon class="cls-3" points="39.5 48.2 39.5 58.1 105 42.9 105 33.2 39.5 48.2"/><path class="cls-4" d="M103,35.3,41.3,49.8S71.7,44.4,103,35.3Z"/><path class="cls-4" d="M102.1,40.9,82.6,45.3S94,44.1,102.1,40.9Z"/><path class="cls-4" d="M69,48.4,41.3,54.1A131,131,0,0,0,69,48.4Z"/><path class="cls-4" d="M85.3,42.5,57.5,48.2A131.2,131.2,0,0,0,85.3,42.5Z"/><polygon class="cls-2" points="39.5 46.9 13.3 31.6 13.3 42.2 39.5 58.6 39.5 46.9"/><path class="cls-4" d="M38.7,52,23.3,43.3A55.9,55.9,0,0,0,38.7,52Z"/><path class="cls-4" d="M38.1,49.1,14.5,34.8S22.8,42.3,38.1,49.1Z"/><path class="cls-4" d="M14.2,40.9l11.5,7S19,42.4,14.2,40.9Z"/><path class="cls-8" d="M24.4,40.8s-2.7,4.1-2.7,6.8a6,6,0,0,1-1.2-2.8l-2,1.5a30.5,30.5,0,0,1,2.7-7.4Z"/><path class="cls-13" d="M10.8,32.9v7.3a5.8,5.8,0,0,0,.3,1.9h0a7.5,7.5,0,0,0,.7,1.2l.8,1,1.1.7L38.8,60.9a2.6,2.6,0,0,0,1.5.2l66.5-15.9a1.7,1.7,0,0,0,1.2-1.6V42.2L39.5,58.1,13.3,42.2V32.1L39.5,48.2l8.4-1.9,58.8-13.5v-.9a1.3,1.3,0,0,0-.1-.6,2.2,2.2,0,0,0-1.3-1.5L73,15.1l-58,13-.8.2-.9.2A6.9,6.9,0,0,0,12,29.6a7.5,7.5,0,0,0-.7,1.2,3.6,3.6,0,0,0-.4,1.1A3.4,3.4,0,0,0,10.8,32.9Z"/><g class="cls-14"><polygon class="cls-13" points="37.5 23.1 24.3 38.9 19.1 35.6 28.1 25.2 37.5 23.1"/></g><g class="cls-14"><polygon class="cls-13" points="85.5 20.8 68.2 41.6 58 44 80.1 18.3 85.5 20.8"/></g><g class="cls-14"><polygon class="cls-13" points="96.5 25.8 86.9 37.3 81.2 38.6 93.5 24.4 96.5 25.8"/></g><g class="cls-14"><polygon class="cls-13" points="66.3 16.6 40.2 48.1 40.2 48.1 39.5 48.2 30 42.4 48.8 20.6 48.8 20.6 66.3 16.6"/></g><g class="cls-15"><path class="cls-13" d="M64.9,23.1,81,30.3h.2l4.5-1.2a.4.4,0,0,0,0-.7L69.9,21.2h-.2L65,22.4A.4.4,0,0,0,64.9,23.1Z"/></g><path class="cls-16" d="M13.3,33.4V32.1L39.5,48.2l8.4-1.9,58.8-13.5v-.9a1.3,1.3,0,0,0-.1-.6L39.5,46.6,12,29.6a7.5,7.5,0,0,0-.7,1.2,3.6,3.6,0,0,0-.4,1.1Z"/><polygon class="cls-16" points="107 42.9 39.4 59.1 12.1 42.4 39.3 59.8 107 42.9"/><path class="cls-16" d="M10.8,32.9v7.3a5.8,5.8,0,0,0,.3,1.9h0a2.6,2.6,0,0,0,2.2.1V32.1a3.4,3.4,0,0,0-2-1.3A5.4,5.4,0,0,0,10.8,32.9Z"/><polygon class="cls-16" points="107.9 42.2 105 40.9 105 42.9 107.9 42.2"/><path class="cls-16" d="M43.4,44.7h-.2A3.7,3.7,0,0,0,40.1,43a3.6,3.6,0,0,0-2,.6h-.2l-19-12.2a.3.3,0,0,1-.1-.2.3.3,0,0,0,.1-.2,1.4,1.4,0,0,0,.7-1.2,1.1,1.1,0,0,0-.2-.8c-.1-.1-.1-.2,0-.2s0-.2.1-.2l50-11.4h.2a3.6,3.6,0,0,0,2.5,1.1,4.1,4.1,0,0,0,2.2-.7h.2L101,28.9c.1.1.1.1.1.2v.2a1.3,1.3,0,0,0-.5.9,1.1,1.1,0,0,0,.6.9c0,.1.1.1.1.2l-.2.2L43.4,44.7Zm-3.3-2.2a4.4,4.4,0,0,1,3.4,1.7l57-13a1.4,1.4,0,0,1-.4-1,1.3,1.3,0,0,1,.4-1L74.6,18a4.8,4.8,0,0,1-2.4.7,3.9,3.9,0,0,1-2.7-1.1L19.9,29a1.9,1.9,0,0,1,.2.8,2.1,2.1,0,0,1-.7,1.4L38,43.1A3.9,3.9,0,0,1,40.1,42.5Z"/><path class="cls-8" d="M48.1,21.2a12.2,12.2,0,0,1-.9,4.6c-2,5.1-7.5,8.8-13.9,8.8-8.2,0-14.9-6-14.9-13.4a13.1,13.1,0,0,1,6.2-10.9,4.5,4.5,0,0,1,2.2-.8h1.8c1.5.1,3,.4,4.7.4s3.7-.4,5.4-.4a6.3,6.3,0,0,1,3.5.9A13.2,13.2,0,0,1,48.1,21.2Z"/><path class="cls-9" d="M38.7,9.5c.5,1.2-.9,2.3-2.3,2.9s-9.1.6-9.9-1.3a1.3,1.3,0,0,1,.3-1.6c1.9-.3,4.2.4,6.5.4S37,9.5,38.7,9.5Z"/><path class="cls-17" d="M32.6,11.3l-.8.3H31S30.8,9.2,28.1,6a8.6,8.6,0,0,0-5.4-2.8.8.8,0,0,1-.7-.8h0a.6.6,0,0,1,.1-.4.8.8,0,0,1,.7-.5C29.4,1.4,32.6,11.3,32.6,11.3Z"/><path class="cls-13" d="M44.6,0S45,9.9,32.2,11.7h.1C32.4,10.6,34.5.7,44.6,0Z"/><path class="cls-16" d="M44.6,0S45,9.9,32.2,11.7h.1L44.6,0Z"/><path class="cls-9" d="M47.2,25.8c-2,5.1-7.5,8.8-13.9,8.8-8.2,0-14.9-6-14.9-13.4a13.1,13.1,0,0,1,6.2-10.9,4.5,4.5,0,0,1,2.2-.8h1.8A10.9,10.9,0,0,1,32.2,13s-5.6-.3-7.9,4.4,1,13.8,9.5,14.2A17.4,17.4,0,0,0,47.2,25.8Z"/><path class="cls-18" d="M40,12.7h.1a2.1,2.1,0,0,1,3.1,0,11,11,0,0,1,1.4,2.1,2.1,2.1,0,0,1-.4,2.5l-.4.3a2,2,0,0,1-2.6-.6l-1.1-1.3A2.1,2.1,0,0,1,40,12.7Z"/><path class="cls-18" d="M44.2,18.4h.2a1.4,1.4,0,0,1,2.1.9h.1a1.6,1.6,0,0,1-.8,1.7l-.4.2a1.6,1.6,0,0,1-1.9-.8h0A1.4,1.4,0,0,1,44.2,18.4Z"/></g></g></g></svg>