<svg xmlns="http://www.w3.org/2000/svg" viewBox="0 0 151.4 141.2"><defs><style>.cls-1{isolation:isolate;}.cls-2{fill:#e3dfd8;}.cls-3{fill:#b02024;}.cls-4{fill:#cdcccc;}.cls-5{fill:#b3b3b2;}.cls-6{fill:#fcc7a5;}.cls-7{fill:#ebad86;}.cls-8{fill:#ce7755;}.cls-9{fill:#009289;}.cls-10,.cls-30{fill:#fff;}.cls-11{fill:#2d2a2b;}.cls-12{fill:#f9b09b;}.cls-13{fill:#fcd3c5;}.cls-14{fill:#fdd9c2;}.cls-15{fill:#333132;}.cls-16{fill:#4c1f1c;}.cls-17{fill:#321614;}.cls-18{fill:#ed756d;}.cls-19{fill:#f58f88;}.cls-20{fill:#f8b1ae;}.cls-21{fill:#dadbdc;}.cls-22{fill:#a9abae;}.cls-23{fill:#231f20;}.cls-24{fill:#393839;}.cls-25{fill:#3e3e3f;}.cls-26{fill:#d5956a;}.cls-27{fill:#e6e6e5;}.cls-28{fill:#ef487f;}.cls-29{fill:#bf215f;}.cls-30{opacity:0.7;mix-blend-mode:soft-light;}.cls-31{fill:#ffca4f;}.cls-32{fill:#ea8425;}.cls-33{fill:#0bb3e5;}.cls-34{fill:#1a8acb;}</style></defs><title>Asset 2</title><g class="cls-1"><g id="Layer_2" data-name="Layer 2"><g id="Layer_1-2" data-name="Layer 1"><path class="cls-2" d="M94.6,114.1c.5,1.1,1,5.3-1.8,5.8s-3.7-3.2-3.5-4.7A11.8,11.8,0,0,1,94.6,114.1Z"/><path class="cls-3" d="M93.6,111.1c.9,1,2.5,6.4-1.1,7.3s-4.2-4.2-3.6-6.5A31.1,31.1,0,0,1,93.6,111.1Z"/><path class="cls-2" d="M55.8,106.1c-.8.2-1.8,1.4-1.9,3.7s.1,5.7,2.8,6.6a1.9,1.9,0,0,0,2.8-1.9Z"/><path class="cls-3" d="M58.1,105c-1,.3-2.8.8-2.9,2.6s-.4,6.7,2.3,7.5,2.8-1.6,2.7-3.2a7.1,7.1,0,0,1,.8-3.5Z"/><path class="cls-4" d="M90.6,86.7s1.7,13.1,3.1,24.1c-.5,2.2-4.3,2.6-5.3,1.2-1.9-6.4-5.7-16.4-8.9-17s-13.1,13.9-17.4,14.5c-4.5-1-4.3-4.8-4.3-4.8A60.4,60.4,0,0,0,70.7,87.3C77.8,84.2,90.6,86.7,90.6,86.7Z"/><path class="cls-5" d="M90.1,87.3l1,6.3s-6.4-4.1-12.9-4-9,1.7-9,1.7,1.7-3.2,2.6-5.1C75.6,85.4,90.1,87.3,90.1,87.3Z"/><path class="cls-6" d="M85.1,65.7s7.3,2.9,19.3-6.6c.9.5,2.1.1,3.4-.9s2-.8,1.7-1.2-1.5.1-1.8.2a20.6,20.6,0,0,1,1.8-1.1c.8-.4.4-1.2-.3-.9l-1.9.9a14.7,14.7,0,0,1,1.7-1.3c.8-.5.3-1.5-.6-.9l-1.8,1.3a6.4,6.4,0,0,1,1-1.3c.6-.8,0-1.4-.8-.7l-2.2,2s-.2-1.4-1-1.3-.4,2.6-.4,2.6-7,7.9-17.8,6C83,63.4,85.1,65.7,85.1,65.7Z"/><path class="cls-7" d="M89.3,63c.1.5.2,1.7.3,2.6a7.8,7.8,0,0,0,3.1-.4c-.6-.1-1.3-.4-1.4-.9s1-1.5,1.4-1.8A12.1,12.1,0,0,1,89.3,63Z"/><path class="cls-8" d="M104.9,57.1h0c-.1,0-.1-.1,0-.1a1.3,1.3,0,0,0-.2-1.7c-.1-.1-.1-.1,0-.1a.1.1,0,0,1,.1-.1,1.4,1.4,0,0,1,.2,2Z"/><path class="cls-6" d="M74,67.5a34.3,34.3,0,0,1-20.2-2.9c-.8.7-2,.5-3.5-.2s-2.1-.4-1.9-.9,1.5-.2,1.8-.2l-2-.6c-.8-.4-.6-1.2.1-1l2.1.5c0-.1-1.6-.8-1.9-1s-.6-1.4.4-.9l2,.8A8.2,8.2,0,0,1,49.7,60c-.7-.6-.2-1.3.7-.7l2.5,1.5s-.1-1.4.7-1.5.9,2.5.9,2.5a31.6,31.6,0,0,0,18.6,2.6C75.6,64.8,74,67.5,74,67.5Z"/><path class="cls-7" d="M68.9,67.8l3.6-.2s2.1-2.3-.5-2.7a19.6,19.6,0,0,1-3.4.1C70,65.2,70.4,66.9,68.9,67.8Z"/><path class="cls-8" d="M52.9,62.7h-.1a1.3,1.3,0,0,1-.1-1.9h.1c.1,0,.1.1,0,.1s-.5,1.2.1,1.7a.1.1,0,0,1,.1.1Z"/><path class="cls-6" d="M74.8,63.5l3.4-1.6a18.1,18.1,0,0,0-.5-2.9l2.5-.5s.4,2.2.5,3.1l4.3.5s1.9,5.5-4.4,6C78.9,68.2,74.8,66.1,74.8,63.5Z"/><path class="cls-7" d="M79.9,58.6l-2.1.5a10.1,10.1,0,0,1,.5,2.2,7.8,7.8,0,0,0,2.2-.3A15.6,15.6,0,0,0,79.9,58.6Z"/><path class="cls-9" d="M76.8,62.5a61.1,61.1,0,0,1-6.5,2,5.6,5.6,0,0,1-.3,4.6,10.1,10.1,0,0,0,3.1-.2c-.1,5.4-1.7,13.6-4.3,17.3,3.6,4.6,19.8,3.9,23.6,1.3-.8-1.9-2.6-13.6-3.7-20.2,0-.2,1.4-.2,2.3-.4.6-2.7-1.2-4.1-1.2-4.5l-7.3-.6C83.5,65.3,77.7,65.5,76.8,62.5Z"/><path class="cls-10" d="M92.1,86.3a10.4,10.4,0,0,0,.3,1.2c-3.8,2.6-20,3.3-23.6-1.3l.6-1.1C73,89.3,87.3,88.6,92.1,86.3Z"/><path class="cls-11" d="M96.1,20.6c.7,0,4.2,4.1,3.6,7.4s.8,3.7,1.9,3.8c-1.9.9-3,.8-3.9-1.2s-1.5-4.9-3.6-6A8.7,8.7,0,0,1,96.1,20.6Z"/><path class="cls-6" d="M97,26.3c3.1,6.3,5.2,26.2-11.5,32.8s-29-4.4-33.4-16.6c-5.3-14.7,5.4-25.7,15.8-28.6C84.2,9.5,93,18,97,26.3Z"/><path class="cls-7" d="M67.9,13.9C57.5,16.8,46.8,27.8,52.1,42.5a32.8,32.8,0,0,0,2.8,6,7.9,7.9,0,0,0,1.5-1.2c.8.5.3-3.1.3-3.1a7.2,7.2,0,0,0,5.7-.5c-3.7.1-6.3-2.5-4-7.6s14-4.3,17.6-9.9a9.8,9.8,0,0,1-4,6.9c5.7-1,8.4-6.2,8.4-6.2s2.3,4.2-.3,6.9c3.7-1.2,5.3-5.6,4.4-9.5,2.7,1.9,8.2,3.4,12.4,1.8C92.8,17.8,84.1,9.5,67.9,13.9Z"/><path class="cls-12" d="M89,42.8c.3,1.7,2.8,2.6,5.2,1.6a4.4,4.4,0,0,0,3-5c-.4-1.8-2.9-2.9-5-.8S88.7,41.1,89,42.8Z"/><path class="cls-13" d="M95.1,39.3c0,.2.3.3.6.3a.7.7,0,0,0,.4-.5.6.6,0,0,0-.6-.3C95.2,38.9,95,39.1,95.1,39.3Z"/><path class="cls-14" d="M80.6,40.4c0,.2.3.3.7.2a.5.5,0,0,0,.5-.4.5.5,0,0,0-.7-.3A.5.5,0,0,0,80.6,40.4Z"/><path class="cls-12" d="M61.9,49c.5,2.2,2.9,3.3,5.8,2.9s5.2-3,4.4-4.9-2.3-.9-5.7-1.5S61.4,46.8,61.9,49Z"/><path class="cls-13" d="M63.6,47.5a.4.4,0,0,0,.6.2.4.4,0,0,0,.4-.4A.5.5,0,0,0,64,47,.5.5,0,0,0,63.6,47.5Z"/><path class="cls-15" d="M88.8,26.5c-2.6-.6-3,2.3-1.3,2.2s3.5.5,3.7.3S90.3,26.8,88.8,26.5Z"/><path class="cls-15" d="M65,31.8c2.1-1.7,3.8.7,2.2,1.4A25.1,25.1,0,0,0,64,35.1C63.3,34.9,63.8,32.7,65,31.8Z"/><path class="cls-7" d="M51.8,42a13.5,13.5,0,0,1,1-11.2,16.9,16.9,0,0,0,.2,9.7c3.9,12.1,16.5,23.4,32.3,16.7,10.9-4.7,13.2-15.4,13-23.5.8,8.2-.2,18.4-13,24.4C70.3,65.2,55.8,54.1,51.8,42Z"/><path class="cls-16" d="M87.1,43.8s2,9.6-4.8,11.2-6.8-8.1-6.8-8.1S80.6,47.6,87.1,43.8Z"/><path class="cls-17" d="M80.9,46.4c.1,2.4-.4,5.9-2.9,7.6-2.5-2.2-2.5-7.1-2.5-7.1A15.8,15.8,0,0,0,80.9,46.4Z"/><path class="cls-18" d="M86.1,52.3A6.1,6.1,0,0,1,82.3,55c-3.4.8-5.1-1.2-5.9-3.4a1.9,1.9,0,0,1,2.4-.6C79.8,49,84.2,50.1,86.1,52.3Z"/><path class="cls-19" d="M77.5,51.3a1.6,1.6,0,0,1,1.5,0,1.8,1.8,0,0,1,1.6-1c2.5-.3,5.8,2.2,2.6,3.6S75.7,52.2,77.5,51.3Z"/><path class="cls-20" d="M82.8,51.1a2.5,2.5,0,0,0-2.3-.4c-.4.5.8,1.1,1.6,1.1S83.2,51.5,82.8,51.1Z"/><path class="cls-10" d="M85.2,44.8a1.9,1.9,0,0,1-1.1,2.5,13.2,13.2,0,0,1-4.3,1.2c-1.6.1-2.4-.5-2.4-1.6A21.2,21.2,0,0,0,85.2,44.8Z"/><path class="cls-7" d="M71.4,36a4.7,4.7,0,1,1-6.7.6A4.7,4.7,0,0,1,71.4,36Z"/><path class="cls-7" d="M66.6,42.8c-1.4.5-1.6,1.3-.4,1.7a9.2,9.2,0,0,0,4.9-.2c1.4-.5,1.6-1.3.3-1.7A8.8,8.8,0,0,0,66.6,42.8Z"/><path class="cls-10" d="M71.5,35.8a4.5,4.5,0,1,1-6.5.6A4.6,4.6,0,0,1,71.5,35.8Z"/><path class="cls-21" d="M64.7,38.6A4.5,4.5,0,0,0,66.4,42a4.2,4.2,0,0,0,5.8-.5,5.6,5.6,0,0,0,.7-1.6,4.3,4.3,0,0,1-.8,2.4,4.1,4.1,0,0,1-5.8.4A4.2,4.2,0,0,1,64.7,38.6Z"/><path class="cls-22" d="M70.5,38.3a2.6,2.6,0,0,1-1.7,3.2,2.5,2.5,0,0,1-3-1.8,2.5,2.5,0,1,1,4.7-1.4Z"/><path class="cls-23" d="M69.4,38.6a1.5,1.5,0,0,1-1,1.9,1.6,1.6,0,0,1-1.9-1.1,1.7,1.7,0,0,1,1-2A1.6,1.6,0,0,1,69.4,38.6Z"/><path class="cls-10" d="M69.6,37.6a.6.6,0,0,1-.4.8.5.5,0,0,1-.7-.5.6.6,0,0,1,.4-.8C69.2,37,69.5,37.2,69.6,37.6Z"/><path class="cls-10" d="M67.3,39.7c.1.2-.1.4-.3.5s-.4-.1-.4-.3a.4.4,0,0,1,.2-.5A.5.5,0,0,1,67.3,39.7Z"/><path class="cls-7" d="M84.2,34.1a4.3,4.3,0,0,0,3.6,4.7A4.3,4.3,0,0,0,92.3,35a4.1,4.1,0,0,0-3.5-4.7A4.2,4.2,0,0,0,84.2,34.1Z"/><path class="cls-7" d="M86.5,37.8c-1.3.4-1.4,1.1-.3,1.4a7.5,7.5,0,0,0,4.2-.1c1.2-.5,1.4-1.1.3-1.5A6.8,6.8,0,0,0,86.5,37.8Z"/><path class="cls-10" d="M84.7,34.1a4,4,0,0,0,3.5,4.6A4,4,0,0,0,92.6,35a4.1,4.1,0,0,0-3.5-4.7A4,4,0,0,0,84.7,34.1Z"/><path class="cls-21" d="M85.2,34.4a5,5,0,0,1,.4-1.3,6.4,6.4,0,0,0-.2.7,3.7,3.7,0,0,0,3.1,4.1,3.3,3.3,0,0,0,3-1.2,3.4,3.4,0,0,1-6.3-2.3Z"/><path class="cls-22" d="M86.3,34.8A2.2,2.2,0,0,0,89,36.5a2.3,2.3,0,0,0,1.5-2.8A2.4,2.4,0,0,0,87.8,32,2.2,2.2,0,0,0,86.3,34.8Z"/><path class="cls-23" d="M87,34.6a1.3,1.3,0,0,0,1.6,1,1.3,1.3,0,0,0,.9-1.7,1.3,1.3,0,0,0-2.5.7Z"/><path class="cls-10" d="M88.6,33.5a.6.6,0,1,0,1.1-.3.8.8,0,0,0-.7-.5A.6.6,0,0,0,88.6,33.5Z"/><path class="cls-10" d="M86.8,34.9a.4.4,0,0,0,.5.2c.1,0,.2-.2.2-.4a.5.5,0,0,0-.4-.3A.5.5,0,0,0,86.8,34.9Z"/><path class="cls-8" d="M81.5,42.9h.1a1.9,1.9,0,0,0,1-2.1,1.7,1.7,0,0,0-1.5-1.5c-.4,0-1.2.1-1.7,1.6s0,.1,0,.2h.2c.3-1,.9-1.5,1.5-1.5a1.7,1.7,0,0,1,.4,3.2h-.1A.1.1,0,0,0,81.5,42.9Z"/><path class="cls-11" d="M74.9,24.6s-1.5,4.8-4.3,7.1c3.8-1.4,8.2-6.6,8.2-6.6s2,4.6-.6,7.4c2.5-.5,6.2-7.1,6.5-9,5.5,3.7,21.7,6,18.1-13.4-1.2,2.7-2.2,3.5-4.2,3.5a5.5,5.5,0,0,0-.8-4.1c0,1.8-.5,4.2-3.5,1.8S90,2.3,78.7.5,57,1.6,55,8.9c-6.3.4-9.4,5-9.9,10.3s-2.7,5.9-4.3,6.2a3.4,3.4,0,0,0,3.1-.1c-.8,2.3-2.5,2.9,0,6.5s6.7,12.7,2.4,14.5c.7,2.4,6,4.5,9.5.9.7.4.3-3.3.3-3.3a3.5,3.5,0,0,0,4.7,1.2c-2.3-1.4-5.3-4.2-3-9.5S71.2,30.3,74.9,24.6Z"/><path class="cls-15" d="M74.2,18.6s5.4,5-3.6,13.1c10.9-3,10.9-11.4,8.8-14.8,3.1,2,2.8,12.9-1.5,15.8,4.5,0,11-11.1,4-17.8,7.1,8,24,15.9,20.9-4.8a11.8,11.8,0,0,1-7.7,5.3c3.1-1.5,3.4-5.2,2.7-5.9,0,1.8-.5,4.2-3.5,1.8S90,2.3,78.7.5,57,1.6,55,8.9c-6.3.4-9.4,5-9.9,10.3s-2.7,5.9-4.3,6.2c1.2.5,3.9-1.6,5.1-2.1-.4,3.2-4.5,4.9-2,8.5s-.4,4.2-2.2,4.3c.2,1.7,3.7,6.5,9.1,1.6-2.7,3.5-.2,6.8-4.5,8.6.7,2.4,6,4.5,9.5.9.7.4-2.3-6.2-2.3-6.2s2.7,3.6,4.1,3.2c-1.3-1.9-3.7-4.6-1.3-9.9S77.9,26.9,74.2,18.6Z"/><path class="cls-15" d="M56.9,7.2s-1.3-3.2.3-5.3c-2.4.2-3.3,3.2-2.7,5.2a5.1,5.1,0,0,0-6,1.3s5-.5,5.9,1.3C57.1,10.3,56.9,7.2,56.9,7.2Z"/><path class="cls-24" d="M88.7,14.3s7.4,6.1,13.4-1.1c-1.8,5.6-4.6,9.9-10.8,7.5,3.4,0,5.4-.9,7.4-3.1A11.9,11.9,0,0,1,88.7,14.3Z"/><path class="cls-24" d="M64.6,14.9c-.4-.1,11,2.6,8.2,6.9s-11,5.5-13.8,8c.7-1.7,3.8-3.3,7.3-5.1S72.1,17.7,64.6,14.9Z"/><path class="cls-24" d="M54.9,9.8s-6.5-.1-8.6,7.5A15.5,15.5,0,0,1,54.9,9.8Z"/><path class="cls-24" d="M90.8,9.4s3.8,4.3,6.6,3.1C95.8,13.5,93.7,15.1,90.8,9.4Z"/><path class="cls-24" d="M80.8,15.2s6.7,4.7,2.1,11.2C83.4,22.4,84.5,21,80.8,15.2Z"/><path class="cls-25" d="M55.5,11.9c-1.7-1.1-9.6,7.3-7.2,15.1,1.3-6.1,3.8-8.3,3.8-8.3S49,23,50.4,31.9c2.9-10,7.1-12.9,7.1-12.9s-2.7,7.2-4.7,11.1c6.5-6,8.4-14.7,6.8-16.5S53.3,20,53.3,20,56.9,12.8,55.5,11.9Z"/><path class="cls-25" d="M57,7.6c3.6-4.4,10.5-9.2,24.4-4.8a25.6,25.6,0,0,0-11.9.7s15.9.2,21.9,8.2C86.1,7.1,74.7,4.2,65.2,7.4A89.8,89.8,0,0,0,79.8,9.5s-13,2.9-18.2-.6A19.7,19.7,0,0,0,71.1,14s-9.9-.5-13.3-5.5c2.6-2,6-3.5,11.8-3.7C64.5,2.5,57,7.6,57,7.6Z"/><path class="cls-6" d="M56.5,45.2a4.4,4.4,0,0,0-5-1.4c-3.3,1.3-2,6.2,1.2,8s6.8.4,6.6-2.3Z"/><path class="cls-7" d="M51.9,44a3.3,3.3,0,0,1,2.1-.3,2.6,2.6,0,0,0-1.5.2c-2.9,1.4-1.6,4.9.5,6.5s5.6,1,6.2-1.2c.2,2.5-3.2,3.9-6.2,2.2S48.9,45.2,51.9,44Z"/><path class="cls-26" d="M51.6,45.4c1.7-1.5,5.6,1.6,4.1,5.2-.5-3.5-2.1-3.9-2.7-1.7-.5-1-.3-1.8.9-2.4A2.7,2.7,0,0,0,51.6,45.4Z"/><path class="cls-2" d="M93.2,112.3c-1-.4-3.1,0-3.6.7a.7.7,0,0,0,.4,1.2c.4,0,1.7-.4,3.1-.5S94,112.6,93.2,112.3Z"/><path class="cls-2" d="M61.2,109.5c-.4-.9-2.2-2.2-3-2.1a.7.7,0,0,0-.7,1.1,23.3,23.3,0,0,1,2.5,1.9C61,111.4,61.5,110.3,61.2,109.5Z"/><path class="cls-27" d="M83.3,97.7a14.5,14.5,0,0,0-6.1-1.9,15.1,15.1,0,0,0-3,.2c-.4,0-1.4.4-1.7.3s-.4-.2-.5-.7a8.1,8.1,0,0,1,0-2.2c.2-1.6,1.1-1.7,2.5-1.4L82,93c2,.2,4.7.8,6.1-1.1s1.2-4.5,1.4-6.5,1.1-4.9.1-7a6.6,6.6,0,0,0-4.2-3.3,26.2,26.2,0,0,0-6.8-.7,45.2,45.2,0,0,0-7.4.6,26.1,26.1,0,0,0-4.2.8h-.5a43.4,43.4,0,0,0-7,1.4c-2,.5-4.3,1.3-5.5,3s-1.3,4.5-1.5,6.6a73.8,73.8,0,0,0-.7,8.1,45.7,45.7,0,0,0-.1,7.4,3.6,3.6,0,0,0,4.2,3.1c2.4-.2,4.6-1.1,7-1.2a11.6,11.6,0,0,1,5.8,1.1,8.4,8.4,0,0,1,4.9,9.7c-.5,1.9-2.2,4.4-4.5,3.7a14,14,0,0,1-5.5-4.1,24.8,24.8,0,0,1-1.9-2.6,4.8,4.8,0,0,0-2-2.2c-2.1-.8-3.5,1.7-4.6,3s-3.3,4.2-5,6.2a16.6,16.6,0,0,0-2.2,3c-.4,1.1.3,1.9.9,2.8,2.8,3.6,5.5,7.4,9.8,9.5A24.1,24.1,0,0,0,71,136.6c4.2-.2,8.9-1.1,12.4-3.6s5.8-6.8,7.2-11a23.4,23.4,0,0,0,.5-14.1A17.1,17.1,0,0,0,83.3,97.7Z"/><path class="cls-28" d="M83.9,77.6c.7.8.5,2,.4,3.1s-.5,4.8-.9,7.2-1,1.3-2.1,1.3l-3.8-.3c-2.3-.2-4.6-1-6.9-1.1a3.9,3.9,0,0,0-3.9,2.7c-1.2,3.1-.6,8.1,3.9,7.3a11.8,11.8,0,0,1,5.9,0,11.3,11.3,0,0,1,5.1,2.9c6.5,6.3,5.3,17,1.1,24.1-2.3,4-6,6-10.4,6.9a27.2,27.2,0,0,1-11.7,0,18.4,18.4,0,0,1-10-6.9l-2.1-2.6c-.4-.6-.8-.8-.4-1.5a10.1,10.1,0,0,1,1.3-1.6l4.6-5.9.9-1.2c.3-.4.7-1.3,1.1-1.5s1.3,1.8,1.6,2.2a21.1,21.1,0,0,0,3.9,4.5c1.5,1.2,3.4,2.5,5.4,2.6a6.1,6.1,0,0,0,4.8-2.4,10.3,10.3,0,0,0,1.4-9.9,12.3,12.3,0,0,0-7.8-7.1,16,16,0,0,0-5.8-.7c-2.2.2-4.3,1-6.6,1.2-.4,0-.7.1-1-.2s-.1-1-.1-1.3-.1-2.5-.1-3.8.1-4.8.3-7.3a41.8,41.8,0,0,1,.9-7.1c.6-2.2,3.2-2.9,5.1-3.5l3-.7h.6a57.4,57.4,0,0,1,14.3-1.4,25.5,25.5,0,0,1,6.1.8A4.7,4.7,0,0,1,83.9,77.6Z"/><path class="cls-29" d="M88.4,106.2a25.4,25.4,0,0,1-.5,14.2c-1.4,4.2-3.6,8.3-7.2,10.9s-8.2,3.4-12.4,3.7a25.6,25.6,0,0,1-12.5-2.3c-4.2-2.1-6.9-5.8-9.7-9.5a2.7,2.7,0,0,1-.9-2.8,14.8,14.8,0,0,1,2.2-2.9c1.7-2.1,3.3-4.2,5-6.2s2.5-3.9,4.5-3a4.5,4.5,0,0,1,2.1,2.2,11.5,11.5,0,0,0,1.9,2.6c1.4,1.6,3.3,3.4,5.4,4s4.1-1.8,4.6-3.7a8.5,8.5,0,0,0-4.9-9.6,13.3,13.3,0,0,0-5.9-1.2c-2.3.1-4.6,1-6.9,1.2s-3.9-.8-4.2-3.1a44.5,44.5,0,0,1,0-7.3c.2-2.7.4-5.4.7-8.1s.3-4.8,1.6-6.6,3.5-2.5,5.4-3.1a55.7,55.7,0,0,1,7.1-1.4h.4a31.5,31.5,0,0,1,4.2-.9,63,63,0,0,1,7.5-.5,21.5,21.5,0,0,1,6.7.7,6.4,6.4,0,0,1,4.3,3.2c1,2.2.2,4.8-.1,7.1s-.2,4.7-1.4,6.4-4.1,1.4-6.1,1.1l-7.5-1c-1.4-.2-2.3-.1-2.5,1.4a4.1,4.1,0,0,0,0,2.2c.1.6,0,.7.4.8a6.5,6.5,0,0,0,1.8-.4,15.1,15.1,0,0,1,3-.1A16.5,16.5,0,0,1,80.6,96,17.8,17.8,0,0,1,88.4,106.2ZM84.3,80.7c.1-1.1.3-2.3-.4-3.1A4.7,4.7,0,0,0,82,76.4a25.5,25.5,0,0,0-6.1-.8A57.4,57.4,0,0,0,61.6,77H61l-3,.7c-1.9.6-4.5,1.3-5.1,3.5a41.8,41.8,0,0,0-.9,7.1c-.2,2.5-.3,4.9-.3,7.3s0,2.6.1,3.8-.1,1,.1,1.3.6.2,1,.2c2.3-.2,4.4-1,6.6-1.2a16,16,0,0,1,5.8.7,12.3,12.3,0,0,1,7.8,7.1,10.3,10.3,0,0,1-1.4,9.9,6.1,6.1,0,0,1-4.8,2.4c-2-.1-3.9-1.4-5.4-2.6a21.1,21.1,0,0,1-3.9-4.5c-.3-.4-1.2-2.4-1.6-2.2s-.8,1.1-1.1,1.5l-.9,1.2-4.6,5.9a10.1,10.1,0,0,0-1.3,1.6c-.4.7,0,.9.4,1.5l2.1,2.6a18.4,18.4,0,0,0,10,6.9,27.2,27.2,0,0,0,11.7,0c4.4-.9,8.1-2.9,10.4-6.9,4.2-7.1,5.4-17.8-1.1-24.1a11.3,11.3,0,0,0-5.1-2.9,11.8,11.8,0,0,0-5.9,0c-4.5.8-5.1-4.2-3.9-7.3a3.9,3.9,0,0,1,3.9-2.7c2.3.1,4.6.9,6.9,1.1l3.8.3c1.1,0,2,0,2.1-1.3S84,83.1,84.3,80.7Z"/><path class="cls-30" d="M74.3,77.9c-2.2-1.3-5.4-1-7.8-.7A24.3,24.3,0,0,0,59.1,79c-4.4,1.9-5.2,6.2-4.9,10.6,0,1.2,1.9,1.6,2.2.3a26.4,26.4,0,0,1,1.4-4.8,5.8,5.8,0,0,1,3.6-2.9A25.4,25.4,0,0,1,67.5,81c2.1-.2,4.4.3,6.4-.2A1.6,1.6,0,0,0,74.3,77.9Z"/><path class="cls-30" d="M79.2,77.8h-.1l-.4-.2h-.6a1.8,1.8,0,0,0-1,.4,4.3,4.3,0,0,0-.4.7,1.6,1.6,0,0,0,.2,1.2H77a1.6,1.6,0,0,0,2.5.4A1.7,1.7,0,0,0,79.2,77.8Z"/><path class="cls-30" d="M78,101.5c-.6-.3-1.1.3-.7.9a16.2,16.2,0,0,1,3.9,11.9,17,17,0,0,1-2.2,6.2c-1.2,2-2.9,3.5-4.2,5.4s.8,2.6,2,2a14,14,0,0,0,5.3-6,19.6,19.6,0,0,0,2.3-7.8C84.8,109.2,82.8,103.5,78,101.5Z"/><path class="cls-30" d="M70.2,127.3h-.1a1.5,1.5,0,0,0-2,0h0a1.5,1.5,0,0,0-.3,1.7,1,1,0,0,0,.4.5,1.8,1.8,0,0,0,.9.4,1.8,1.8,0,0,0,1.3-.8A1.7,1.7,0,0,0,70.2,127.3Z"/><path class="cls-27" d="M35.6,75A20.3,20.3,0,0,0,24,72.6a18.5,18.5,0,0,0-9.3,3.2,22.1,22.1,0,0,0-8.1,7.1A19.7,19.7,0,0,0,2.9,96.6a17.6,17.6,0,0,0,6.4,11.2c3.9,3.4,8.9,5.3,14,6.4-3.1,7.7-9.1,13.6-14.6,19.7a1.3,1.3,0,0,0,.2,2.1,51.5,51.5,0,0,0,11.2,4.5,15.6,15.6,0,0,0,5.7.6,8.9,8.9,0,0,0,4.6-2.8c5.6-5.6,9.5-13.1,12.4-20.4A47.9,47.9,0,0,0,46.4,94C45.4,86.5,42.4,78.9,35.6,75ZM19.3,96.1a7.3,7.3,0,0,1,6.1-8.6h.7A7,7,0,0,1,32.7,94a6.9,6.9,0,0,1-5.9,7.5A6.7,6.7,0,0,1,19.3,96.1Z"/><path class="cls-31" d="M40.3,90.9c1.4,7.2.4,14.6-1.9,21.5a64.3,64.3,0,0,1-9.6,18.8,24.3,24.3,0,0,1-4,4.5c-1.8,1.5-3.7,1.3-5.9.8a41.9,41.9,0,0,1-9.7-3.6c6.1-6.1,11.9-12.9,15-21.1a1.6,1.6,0,0,0-1.1-2c-8-1.5-17.2-4.9-19.9-13.5S6.3,79.4,13.4,75.8a20.2,20.2,0,0,1,7.2-1.9,20.3,20.3,0,0,1,7.8.5h.2l1.1.5C36,77.9,39.1,84.2,40.3,90.9Zm-8.2,3.6a9.3,9.3,0,0,0-6.6-10.4,8.4,8.4,0,0,0-6.9,1,7.6,7.6,0,0,0-3.7,5.8,6.5,6.5,0,0,0-.4,1.9,8.7,8.7,0,0,0,7.8,9.3A8.9,8.9,0,0,0,32.1,94.5Z"/><path class="cls-32" d="M43.6,92.3c1.1,8.2-.5,16.4-3.5,24s-6.9,14.8-12.4,20.4a8.8,8.8,0,0,1-4.7,2.8,14,14,0,0,1-5.7-.7,55.8,55.8,0,0,1-11.1-4.4,1.5,1.5,0,0,1-.3-2.2c5.6-6,11.5-11.9,14.7-19.6-5.1-1.1-10.1-3-14.1-6.4A18.8,18.8,0,0,1,.1,94.9,20.3,20.3,0,0,1,3.8,81.2,23.3,23.3,0,0,1,12,74.1a19.2,19.2,0,0,1,9.3-3.2,19.6,19.6,0,0,1,11.6,2.5C39.7,77.3,42.7,84.9,43.6,92.3Zm-5.2,20.1c2.3-6.9,3.3-14.3,1.9-21.5s-4.3-13-10.6-16l-1.1-.5h-.2a20.3,20.3,0,0,0-7.8-.5,20.2,20.2,0,0,0-7.2,1.9C6.3,79.4.8,88.2,3.2,96.3s11.9,12,19.9,13.5a1.6,1.6,0,0,1,1.1,2c-3.1,8.2-8.9,15-15,21.1a41.9,41.9,0,0,0,9.7,3.6c2.2.5,4.1.7,5.9-.8a24.3,24.3,0,0,0,4-4.5A64.3,64.3,0,0,0,38.4,112.4Z"/><path class="cls-32" d="M25.5,84.1a9.3,9.3,0,0,1,6.6,10.4,8.9,8.9,0,0,1-9.8,7.6,8.7,8.7,0,0,1-7.8-9.3,6.5,6.5,0,0,1,.4-1.9,7.6,7.6,0,0,1,3.7-5.8A8.4,8.4,0,0,1,25.5,84.1ZM24.1,99.9A7.2,7.2,0,0,0,30,92.4a7.1,7.1,0,0,0-6.7-6.5h-.6a7.3,7.3,0,0,0-6.1,8.6A6.8,6.8,0,0,0,24.1,99.9Z"/><path class="cls-30" d="M30.6,79.1c-1.1-2.2-4.7-3.2-7-3.7a12.9,12.9,0,0,0-8,.6,24.2,24.2,0,0,0-6.4,4.4,11.9,11.9,0,0,0-3.6,6.8.8.8,0,0,0,1.5.4,14.5,14.5,0,0,1,4.1-5.1,20.4,20.4,0,0,1,5.5-3.7,10.6,10.6,0,0,1,6.8-.4,16.6,16.6,0,0,1,3.1,1.2,8.2,8.2,0,0,0,3.1,1.1A1.1,1.1,0,0,0,30.6,79.1Z"/><path class="cls-30" d="M34.1,81.7l-.4-.6c-.1-.2-.2-.2-.4-.3a1.1,1.1,0,0,0-.8-.2,1,1,0,0,0-.7.2,1.5,1.5,0,0,0,0,2.6,1,1,0,0,0,.7.2,1.1,1.1,0,0,0,.8-.2c.2-.1.3-.1.4-.3l.3-.4a1.3,1.3,0,0,0,.1-.6Z"/><path class="cls-30" d="M36.1,86.1a.6.6,0,0,0-1.2.4,49.6,49.6,0,0,1,1.7,9.2,37.8,37.8,0,0,1-.8,9.5,43.8,43.8,0,0,1-3,8.6c-1.3,2.7-3,5.2-4.1,8-.5,1,1,1.6,1.7,1a26,26,0,0,0,5.2-8.2,42.7,42.7,0,0,0,2.9-9.4C39.6,99,39.5,91.6,36.1,86.1Z"/><path class="cls-27" d="M139.1,107.5a15.6,15.6,0,0,0-10.9,3.6c-2.3,2.1-3.8,5.2-3.2,8.3a11.7,11.7,0,0,0,9.7,12.4c7,1.1,15-3,16.5-10.3S146.4,107.9,139.1,107.5ZM137.7,118a2.1,2.1,0,0,1,2.5,2.8c-.5,1.4-3.1,3.4-4.2,1.5A3.5,3.5,0,0,1,137.7,118Z"/><path class="cls-27" d="M120.7,89.1c1.6-7.6-4.8-13.6-12.1-14a15.2,15.2,0,0,0-10.8,3.6A9,9,0,0,0,94.5,87a11.8,11.8,0,0,0,9.7,12.4C111.2,100.5,119.2,96.3,120.7,89.1Zm-11-.8c-.5,1.5-3.1,3.5-4.2,1.5s.3-3.8,1.7-4.2A2.1,2.1,0,0,1,109.7,88.3Z"/><path class="cls-27" d="M142.3,88.6l3.1-3.8a6.2,6.2,0,0,0,1.7-3.3c.3-2.5-2-4.8-3.9-6.2s-2.2-1.7-3.5-1.7-2,1.6-2.7,2.6-4.2,4.1-5.9,6.3-3.8,5.3-5.7,7.9c-3.7,5.1-7.6,10.3-11.5,15.1s-8.5,10.3-12.6,15.6c-1.4,1.7-4.4,4.3-3.1,6.8s3.3,4.1,5.7,4,4-2.8,5.5-4.6,4.4-5.3,6.6-7.9c4.4-5,8.8-10.1,13.1-15.2S137.9,93.8,142.3,88.6Z"/><path class="cls-33" d="M134.4,108.4c5.6-.3,11.9,3.4,11.4,9.6s-6.6,9.5-12,9.4a9.7,9.7,0,0,1-9.5-9.6,9.1,9.1,0,0,1,2-5.8A11.3,11.3,0,0,1,134.4,108.4Zm4.6,11.8c1.2-2.4-.3-5.8-3.2-5.8a4.2,4.2,0,0,0-3.9,2.9,4.1,4.1,0,0,0,.5,4.7C134.4,124.3,138,122.6,139,120.2Z"/><path class="cls-33" d="M104,75.9c5.5-.2,11.8,3.4,11.3,9.6s-6.6,9.5-12,9.4a9.6,9.6,0,0,1-7.5-15.4A12.2,12.2,0,0,1,104,75.9Zm4.6,11.9c1.1-2.5-.4-5.9-3.3-5.9a4.2,4.2,0,0,0-3.9,2.9,4.1,4.1,0,0,0,.5,4.7C103.9,91.8,107.5,90.1,108.6,87.8Z"/><path class="cls-33" d="M141.4,79.2c.3,1.2-1.2,2.5-1.9,3.3l-2.7,3.3c-3.7,4.6-7.5,9.1-11.1,13.7l-10.9,13.8c-3.6,4.6-7.1,9.3-11.1,13.6-.9,1-1.9,1.8-3.3,1a7.4,7.4,0,0,1-1.3-1.2c-.2-.3-1.2-1.3-1.2-1.7s1.6-2.4,2.1-3l2.6-3.4,10.3-13.7c7.5-9.6,15.1-19.1,22.7-28.6l.2-.2c.4-.4.8-1.2,1.3-1.5h.2l.7.5a6.9,6.9,0,0,1,1.3,1.1C140,77,141.2,78.1,141.4,79.2Z"/><path class="cls-34" d="M136.4,105.9c7.2.4,13.6,6.4,12,14s-9.5,11.4-16.4,10.3a11.8,11.8,0,0,1-9.7-12.4,8.9,8.9,0,0,1,3.2-8.3A15.3,15.3,0,0,1,136.4,105.9Zm9.4,12.1c.5-6.2-5.8-9.9-11.4-9.6a11.3,11.3,0,0,0-8.1,3.6,9.1,9.1,0,0,0-2,5.8,9.7,9.7,0,0,0,9.5,9.6C139.2,127.5,145.3,123.9,145.8,118Z"/><path class="cls-34" d="M140.5,73.6c1.9,1.4,4.1,3.7,3.9,6.3a6.2,6.2,0,0,1-1.7,3.3l-3.2,3.7c-4.3,5.3-8.7,10.5-13.1,15.7s-8.8,10.1-13.1,15.2l-6.7,7.8c-1.4,1.8-2.8,4.7-5.4,4.7s-4.6-2.1-5.7-4.1,1.7-5,3-6.7c4.1-5.3,8.4-10.4,12.6-15.6s7.8-10,11.5-15.1c1.9-2.7,3.8-5.4,5.7-7.9s4.2-4,5.9-6.3,1.3-2.6,2.8-2.7S139.5,72.9,140.5,73.6Zm-1,8.9c.7-.8,2.2-2.1,1.9-3.3s-1.4-2.2-2.1-2.9a6.9,6.9,0,0,0-1.3-1.1l-.7-.5h-.2c-.5.3-.9,1.1-1.3,1.5l-.2.2c-7.6,9.5-15.2,19-22.7,28.6l-10.3,13.7L100,122c-.5.6-2.1,2.2-2.1,3s1,1.4,1.2,1.7a7.4,7.4,0,0,0,1.3,1.2c1.4.8,2.4,0,3.3-1,4-4.3,7.5-9,11.1-13.6l10.9-13.8c3.6-4.6,7.4-9.1,11.1-13.7Z"/><path class="cls-34" d="M135.8,114.4c2.9,0,4.4,3.4,3.2,5.8s-4.6,4.1-6.6,1.8a4.1,4.1,0,0,1-.5-4.7A4.2,4.2,0,0,1,135.8,114.4Zm1.6,4.8a2.1,2.1,0,0,0-2.5-2.8c-1.4.4-2.3,2.9-1.6,4.3S137,120.6,137.4,119.2Z"/><path class="cls-34" d="M105.9,73.4c7.2.4,13.6,6.4,12.1,14s-9.6,11.4-16.5,10.3a11.7,11.7,0,0,1-9.7-12.4A8.9,8.9,0,0,1,95,77,15.5,15.5,0,0,1,105.9,73.4Zm9.4,12.1c.5-6.2-5.8-9.8-11.3-9.6a12.2,12.2,0,0,0-8.2,3.6,9.6,9.6,0,0,0,7.5,15.4C108.7,95,114.9,91.4,115.3,85.5Z"/><path class="cls-34" d="M105.3,81.9c2.9,0,4.4,3.4,3.3,5.9s-4.7,4-6.7,1.7a4.1,4.1,0,0,1-.5-4.7A4.2,4.2,0,0,1,105.3,81.9Zm1.7,4.8a2.1,2.1,0,0,0-2.5-2.8c-1.5.4-2.4,2.9-1.7,4.3S106.5,88.1,107,86.7Z"/><path class="cls-30" d="M112.3,81.5a7.8,7.8,0,0,0-5-3.7A.6.6,0,1,0,107,79a6.5,6.5,0,0,1,3.8,3.3c.7,1.8.1,3.5.1,5.3s.9,1.1,1.3.6S113.4,83.5,112.3,81.5Z"/><path class="cls-30" d="M111.1,89.8H111a1.2,1.2,0,0,0-1.1-.7,1.2,1.2,0,0,0-1.2.7h-.1a1.9,1.9,0,0,0-.2.7,2.4,2.4,0,0,0,.2.8,1.7,1.7,0,0,0,1.3.7,1.5,1.5,0,0,0,1.2-.7,2.4,2.4,0,0,0,.2-.8A1.9,1.9,0,0,0,111.1,89.8Z"/><path class="cls-30" d="M137.1,78.6c-3.9,3.3-6.8,7.8-9.9,11.8l-4.8,6a46.4,46.4,0,0,0-4.6,6.1c-.4.9.6,2.2,1.5,1.5a33.5,33.5,0,0,0,5-5.7l5-6.3c3.1-4,6.6-8.2,8.6-12.9C138.1,78.6,137.4,78.3,137.1,78.6Z"/><path class="cls-30" d="M116,105.6c-.1-.3-.5-.5-.8-.6h-.7c-.3,0-.6.3-.8.5a1.5,1.5,0,0,0-.1.9,1.6,1.6,0,0,0,.6.8,1.1,1.1,0,0,0,.8.1h0a1.2,1.2,0,0,0,1-.5,1,1,0,0,0,0-1.2Z"/><path class="cls-30" d="M112,109.3c-2,2.5-4.3,5-5.8,7.7a1.1,1.1,0,0,0,1.7,1.3c2.2-2.2,3.9-5.1,5.7-7.7C114.3,109.6,112.7,108.4,112,109.3Z"/><path class="cls-30" d="M139.1,110.9a8.2,8.2,0,0,0-4.3-1.2,9.8,9.8,0,0,0-4.3,1.6c-.8.4-.2,1.6.6,1.4a21.4,21.4,0,0,1,3.5-.6,7.3,7.3,0,0,1,3.4,1.2,8.6,8.6,0,0,1,3.8,3.5c.5,1.1,1.9.5,2-.5C144,113.6,141.2,112,139.1,110.9Z"/><path class="cls-30" d="M144.6,118.6h0c-.2-.3-.3-.6-.5-.7a1.6,1.6,0,0,0-.9-.3h-.6c-.4.2-.5.5-.7.9h0a1.2,1.2,0,0,0,.4,1.4,1.5,1.5,0,0,0,.9.4,1.5,1.5,0,0,0,1-.4A1.4,1.4,0,0,0,144.6,118.6Z"/></g></g></g></svg>