<svg xmlns="http://www.w3.org/2000/svg" viewBox="0 0 135.98 25.62"><defs><style>.cls-1{fill:#797979;}.cls-2{fill:#9f214f;}.cls-3{fill:#fff;}</style></defs><title>Asset 7</title><g id="Layer_2" data-name="Layer 2"><g id="Layer_1-2" data-name="Layer 1"><path class="cls-1" d="M79.46,9.49h-5.3v2.73h5.3a1.2,1.2,0,0,0,.87-.22.84.84,0,0,0,.22-.6V10.3a.84.84,0,0,0-.22-.6,1.22,1.22,0,0,0-.87-.22ZM71.81,17.9V7.74h8.74a2.65,2.65,0,0,1,1.75.49,1.91,1.91,0,0,1,.54,1.47V12a2,2,0,0,1-.54,1.48,2.74,2.74,0,0,1-1.75.49H74.16V17.9Z"/><path class="cls-1" d="M92.48,9.49h-5.3v2.84h5.3a1.58,1.58,0,0,0,.87-.17.88.88,0,0,0,.22-.65V10.3a.84.84,0,0,0-.22-.6,1.22,1.22,0,0,0-.87-.22ZM84.83,17.9V7.74h8.7a2.71,2.71,0,0,1,1.8.49,1.92,1.92,0,0,1,.55,1.47v2.41a1.87,1.87,0,0,1-.55,1.48,2.77,2.77,0,0,1-1.8.49H92.21l4.71,3.83H93.53l-4.1-3.83H87.18V17.9Z"/><polygon class="cls-1" points="98.66 17.9 98.66 7.74 109.1 7.74 109.1 9.48 101.07 9.48 101.07 11.72 105.77 11.72 105.77 13.47 101.07 13.47 101.07 15.99 109.21 15.99 109.21 17.9 98.66 17.9"/><path class="cls-1" d="M120.32,9.54h-6.67v2.19H120a3,3,0,0,1,2,.49,2.51,2.51,0,0,1,.55,1.91V15.5a2.53,2.53,0,0,1-.55,1.92,3,3,0,0,1-2,.49H113.7a3.12,3.12,0,0,1-2-.49,2.79,2.79,0,0,1-.49-1.92v-.28l2.08-.43V16h7.15v-2.3h-6.34a2.57,2.57,0,0,1-2-.54,2.34,2.34,0,0,1-.55-1.86V10.14a2.34,2.34,0,0,1,.55-1.86,2.57,2.57,0,0,1,2-.54h5.8a2.86,2.86,0,0,1,2,.49,2.24,2.24,0,0,1,.54,1.74v.22l-2.08.49V9.54Z"/><path class="cls-1" d="M133.79,9.54h-6.67v2.19h6.34a3.09,3.09,0,0,1,2,.49,2.75,2.75,0,0,1,.5,1.91V15.5a2.78,2.78,0,0,1-.5,1.92,3.09,3.09,0,0,1-2,.49h-6.29a3,3,0,0,1-2-.49,2.49,2.49,0,0,1-.55-1.92v-.28l2.08-.43V16h7.21v-2.3h-6.33a2.81,2.81,0,0,1-2-.54,2.61,2.61,0,0,1-.5-1.86V10.14a2.61,2.61,0,0,1,.5-1.86,2.81,2.81,0,0,1,2-.54h5.79a3,3,0,0,1,2,.49,2.24,2.24,0,0,1,.55,1.74v.22l-2.08.49V9.54Z"/><polygon class="cls-1" points="56.41 17.9 61.22 12.71 56.3 7.74 59.47 7.74 62.69 11.18 65.81 7.74 68.49 7.74 64.06 12.44 69.58 17.9 66.35 17.9 62.64 13.96 59.19 17.9 56.41 17.9"/><polygon class="cls-1" points="5.9 17.9 0 7.74 2.73 7.74 6.83 15.11 10.77 7.74 13.12 7.74 7.54 17.9 5.9 17.9"/><path class="cls-1" d="M15,17.9V7.74h1.59l7.16,6c.22.17.44.35.65.54a5.71,5.71,0,0,1,.55.55c-.06-.55-.11-1-.11-1.2V7.74h2.12V17.9H25.29L17.8,11.62a3.05,3.05,0,0,1-.44-.44A1.19,1.19,0,0,1,17,10.8a5.68,5.68,0,0,1,.05.93,3.35,3.35,0,0,1,.05.71V17.9Z"/><path class="cls-2" d="M53,24.4a1.22,1.22,0,0,1-1.22,1.22H31.46a1.22,1.22,0,0,1-1.22-1.22V1.22A1.22,1.22,0,0,1,31.46,0H51.79A1.22,1.22,0,0,1,53,1.22Z"/><path class="cls-3" d="M40,7.72h9.88A1.09,1.09,0,0,0,51,6.55V3.3A1.17,1.17,0,0,0,49.87,2H33.6A1.36,1.36,0,0,0,32.27,3.3V22.41a1.28,1.28,0,0,0,1.33,1.17H49.87A1.09,1.09,0,0,0,51,22.41V19.15a1.16,1.16,0,0,0-1.1-1.26H40v-2h3.37a1.1,1.1,0,0,0,1.11-1.18V11a1.16,1.16,0,0,0-1.11-1.26H40ZM40.11,11h3.14v3.66H38.77v4.47h11v3.25H33.49V3.25H49.75V6.5h-11V11Z"/></g></g></svg>