<svg xmlns="http://www.w3.org/2000/svg" viewBox="0 0 107.8 131.6"><defs><style>.cls-1{isolation:isolate;}.cls-2{fill:#71301d;}.cls-3{fill:#ffca0d;}.cls-4{fill:#ce7c2a;}.cls-5{fill:#fcc7a5;}.cls-6{fill:#d55f43;}.cls-7{fill:#e3816a;}.cls-8{fill:#ebad86;}.cls-9{fill:#ce7755;}.cls-10{fill:#f9b09b;}.cls-11{fill:#fcd3c5;}.cls-12{fill:#fdd9c2;}.cls-13{fill:#712914;}.cls-14{fill:#4c1f1c;}.cls-15{fill:#321614;}.cls-16{fill:#ed756d;}.cls-17{fill:#f58f88;}.cls-18{fill:#f8b1ae;}.cls-19{fill:#fff;}.cls-20{fill:#dadbdc;}.cls-21{fill:#8a6f68;}.cls-22{fill:#231f20;}.cls-23{fill:#8a4a37;}.cls-24{fill:#5e281a;}.cls-25{fill:#d5956a;}.cls-26{fill:#ef4734;}.cls-27{fill:#75a8c0;}.cls-28{fill:#5e94ad;}.cls-29{fill:#e9a518;}.cls-30{fill:#ffdb5d;}.cls-31{fill:#c9eaf1;}.cls-32{fill:#f15b6c;}.cls-33{fill:#e0394d;}.cls-34{opacity:0.3;mix-blend-mode:multiply;}.cls-35{fill:#9e1d4e;}.cls-36{fill:#febe10;}.cls-37{fill:#fed715;}</style></defs><title>Asset 4</title><g class="cls-1"><g id="Layer_2" data-name="Layer 2"><g id="Layer_1-2" data-name="Layer 1"><path class="cls-2" d="M76.5,17.4c.3-.2,4.6-.7,5.6,2.7.7-2.2,4.1-3,5.4-.7-.3-2.8,1.9-2.9,3.7-2.3-1.5-2.6,1.1-5,3.3-3.7a9,9,0,0,0,2.2-9.3c1.8.7,2.4,4.1,2.4,4.1s1.5-.8,1.6-4c2,4.5.6,7.4-5,10.2,1.8,1.9-1.4,4.8-3.8,3.9a2.6,2.6,0,0,1-4,2.9c-.8,3.8-5.5,3.1-5.8.9-1.8,3.1-5.9,3.6-7.3,1.3A6.6,6.6,0,0,1,76.5,17.4Z"/><path class="cls-3" d="M94.3,13.1s.2-1.9,1.5-1.5,2,2,2,2a1.8,1.8,0,0,1-1.7,1.8A8.8,8.8,0,0,0,94.3,13.1Z"/><path class="cls-2" d="M24.9,41.6c-.3,0-3.3,3.3-1.1,6.2-2.2-.8-4.8,1.4-3.7,3.8-2.1-1.8-3.5-.1-4.1,1.7-1.2-2.7-4.7-2.1-4.9.5-3,.3-6.3-.2-8.9-3.7-.4,1.8,2,4.4,2,4.4s-1.5.7-4.2-1.2c2.4,4.3,5.6,4.9,11.1,2,.5,2.6,4.8,1.7,5.5-.7a2.6,2.6,0,0,0,4.7-1.5c3.5,1.6,5.7-2.7,4.2-4.2,3.5.3,6.3-2.6,5.3-5.1A6.5,6.5,0,0,0,24.9,41.6Z"/><path class="cls-3" d="M11,53.4s-1.7-.9-2.1.4a2.3,2.3,0,0,0,.4,2.8,1.8,1.8,0,0,0,2.4-.4A7.2,7.2,0,0,1,11,53.4Z"/><path class="cls-4" d="M45.3,94.2s-.1,1,5.2-.1c3.2-.7,10.4-3,18.9-2s9.3,2.2,9.5,1.4-10.5-5.7-18-5.3S47,92.3,45.3,94.2Z"/><path class="cls-5" d="M69.5,89.4c-.1.5.7,7.5-6.9,15.4.1,1.2-.4,3-.8,3.2-2.2,1.3-2.7-1.6-2.6-2.5a3.3,3.3,0,0,1,1.1-2.9c2.1-1.4,6-6,6-13.4A7.8,7.8,0,0,1,69.5,89.4Z"/><path class="cls-6" d="M59.8,103.4c-.2.8-.5,3.8,1.4,4s1.4-2.6,1.4-2.6.4,5.9-1.5,6.3-2.8-1.6-2.8-4.7,1.8-3.7,2-3.8A3,3,0,0,0,59.8,103.4Z"/><path class="cls-7" d="M61.3,109.2c.1-.8,1.1-.5.5.6s-1.4,1.2-2.1.1A1.1,1.1,0,0,0,61.3,109.2Z"/><path class="cls-5" d="M60.3,89.4a38.8,38.8,0,0,1-8.7,21.9c.1,1.2-.4,3-.8,3.2-2.2,1.3-2.7-1.6-2.6-2.5a5,5,0,0,1,1.1-2.9c3.8-4.5,6.6-10,7.7-19.9A8.1,8.1,0,0,1,60.3,89.4Z"/><path class="cls-6" d="M48.8,109.9c-.2.8-.5,3.8,1.4,4s1.4-2.6,1.4-2.6.4,5.9-1.5,6.3-2.8-1.6-2.8-4.7,1.8-3.7,2-3.8Z"/><path class="cls-7" d="M50.3,115.7c.1-.7,1.1-.5.5.6s-1.4,1.2-2.1.1A1.1,1.1,0,0,0,50.3,115.7Z"/><path class="cls-5" d="M68.6,62s8.1-.3,15.4-14.2c1.2.1,2-.8,3-2.2s1.5-1.6,1.1-1.9-1.4.7-1.7.9l1.3-1.7c.5-.7-.1-1.3-.7-.8l-1.5,1.7,1.1-1.9c.6-.9-.3-1.6-.9-.6l-1.2,1.9c0-.1.3-1.1.4-1.7s-.6-1.3-1-.2l-1.3,2.8s-.7-1.3-1.4-.9.6,2.7.6,2.7-3.3,10.3-14.3,13C65.6,60.7,68.6,62,68.6,62Z"/><path class="cls-8" d="M68.4,58.6c.2.7.7,2,1.2,3.2a14.8,14.8,0,0,0,3.7-1.5c-.7,0-1.7-.1-2.1-.7s.8-2.2,1.3-2.7A16.8,16.8,0,0,1,68.4,58.6Z"/><path class="cls-9" d="M83.7,45.7h.1a1.5,1.5,0,0,0-1-1.8.1.1,0,0,0-.1.1h0c.5.2,1.2.7.9,1.5a.1.1,0,0,0,.1.1Z"/><path class="cls-5" d="M51.9,64.8a35.4,35.4,0,0,1-20.3-5.5c-.9.6-2.1.2-3.6-.6s-2-.7-1.8-1.2,1.6,0,1.9,0l-2-.9c-.8-.4-.5-1.2.3-1l2.1.8-1.9-1.2c-.8-.5-.4-1.5.6-.9l1.9,1.1c0-.1-.7-.8-1.1-1.3s-.1-1.4.8-.6l2.4,1.9s0-1.5.9-1.5.6,2.7.6,2.7a32.4,32.4,0,0,0,18.7,5C53.9,62.3,51.9,64.8,51.9,64.8Z"/><path class="cls-8" d="M48.4,64.8a31.8,31.8,0,0,0,3.5,0s2-2.5-.5-3.2H47.9C49.2,61.8,51.9,64.1,48.4,64.8Z"/><path class="cls-9" d="M30.9,57.3H31a1.4,1.4,0,0,1,.1-1.8H31a1.3,1.3,0,0,0-.1,2Z"/><path class="cls-5" d="M58.2,55.6l.5,3.8a40.5,40.5,0,0,1-4.8,1.3l1.2,4.6,10.5-1.1.4-5.4a24.3,24.3,0,0,1-4.9.3c-.2-1.7-.5-3.9-.5-3.9Z"/><path class="cls-8" d="M62.6,59.1H61.1c-.2-1.7-.5-3.9-.5-3.9l-2.4.4.5,3.8-1.2.4C60.9,61.1,62.3,59.5,62.6,59.1Z"/><path class="cls-5" d="M76.3,21C80,27.2,85,47.1,67.5,55.9s-30.4-1.8-36-14c-6.8-14.7,3.2-27.1,13.7-31C61.6,4.8,71.4,12.8,76.3,21Z"/><path class="cls-8" d="M76.3,21C71.4,12.8,61.6,4.8,45.2,10.9c-10.5,3.9-20.5,16.3-13.7,31a30,30,0,0,0,2.6,4.6c8.2-9,6.1-21.8,6.1-21.8,6.6,9.1,20.1-.8,22.7-4.4,5.2-7.2,13.7.2,15.5,6.2l.3.4A22.4,22.4,0,0,0,76.3,21Z"/><path class="cls-10" d="M69.6,38.8c.4,1.6,3.2,2.3,5.5,1.1a4.5,4.5,0,0,0,2.6-5.4c-.5-1.8-3.2-2.7-5.2-.3S69.2,37.1,69.6,38.8Z"/><path class="cls-11" d="M75.6,34.6c0,.2.3.3.6.2a.5.5,0,0,0,.4-.5A.7.7,0,0,0,76,34C75.7,34.1,75.5,34.4,75.6,34.6Z"/><path class="cls-12" d="M60.7,37a.6.6,0,0,0,.7.2c.4-.1.6-.3.5-.5s-.4-.3-.7-.2S60.7,36.8,60.7,37Z"/><path class="cls-10" d="M42.5,46.2c.8,2.3,3.3,3.2,6.3,2.6s5.2-3.6,4.1-5.6-2.4-.7-6-1S41.8,44,42.5,46.2Z"/><path class="cls-11" d="M44.2,44.5a.4.4,0,0,0,.6.2c.3,0,.4-.3.4-.5a.5.5,0,0,0-.6-.2C44.3,44.1,44.1,44.3,44.2,44.5Z"/><path class="cls-13" d="M68,21.9c-2.8-.4-3,2.7-1.2,2.4s3.6.3,3.8.1S69.5,22.2,68,21.9Z"/><path class="cls-13" d="M43.7,29.2c2-2,3.9.4,2.3,1.2s-2.8,2.3-3.1,2.3S42.5,30.3,43.7,29.2Z"/><path class="cls-8" d="M31.2,41.4a14.4,14.4,0,0,1,0-11.7,17.6,17.6,0,0,0,1,10c5.2,12.1,19.2,22.7,35,14.2,10.8-5.8,12.1-17,11.2-25.4,1.5,8.4,1.4,19.1-11.2,26.4C52.4,63.6,36.4,53.5,31.2,41.4Z"/><path class="cls-14" d="M67.2,40.5s2.9,9.7-4,12-7.7-7.8-7.7-7.8S60.8,45.1,67.2,40.5Z"/><path class="cls-15" d="M61,43.7c.3,2.5.2,6.1-2.3,8.2-2.8-2.1-3.2-7.2-3.2-7.2A14,14,0,0,0,61,43.7Z"/><path class="cls-16" d="M66.9,49.4a6.2,6.2,0,0,1-3.7,3.1c-3.3,1.1-5.3-.8-6.4-3a2,2,0,0,1,2.4-.8C60.1,46.6,64.8,47.3,66.9,49.4Z"/><path class="cls-17" d="M58,49.1a2.1,2.1,0,0,1,1.5-.2A1.9,1.9,0,0,1,61,47.8c2.6-.5,6.2,1.7,3.1,3.5S56.1,50.2,58,49.1Z"/><path class="cls-18" d="M63.4,48.5c-.6-.5-2.1-.7-2.4-.2s.9,1,1.7.9S63.8,48.8,63.4,48.5Z"/><path class="cls-19" d="M65.3,41.7a1.8,1.8,0,0,1-.9,2.6A11.9,11.9,0,0,1,60,46c-1.5.2-2.4-.3-2.5-1.4A20.8,20.8,0,0,0,65.3,41.7Z"/><path class="cls-9" d="M61.9,39.5H62a2.1,2.1,0,0,0,.9-2.3,2,2,0,0,0-1.7-1.4c-.5.1-1.3.3-1.7,1.9h.1c.1.1.1,0,.1-.1s.8-1.6,1.5-1.6a1.6,1.6,0,0,1,1.4,1.2,1.7,1.7,0,0,1-.8,2v.2Z"/><path class="cls-8" d="M51,32.4a5,5,0,0,1,1.3,6.9,4.9,4.9,0,0,1-6.9.8,5,5,0,0,1-1.3-6.9A4.9,4.9,0,0,1,51,32.4Z"/><path class="cls-8" d="M46.4,39.6c-1.5.6-1.7,1.4-.4,1.8a8.7,8.7,0,0,0,5-.4c1.5-.6,1.6-1.4.4-1.8A8.7,8.7,0,0,0,46.4,39.6Z"/><path class="cls-19" d="M51.1,32.2a4.7,4.7,0,1,1-5.5,7.5,4.7,4.7,0,1,1,5.5-7.5Z"/><path class="cls-20" d="M44.2,35.3a4.4,4.4,0,0,0,1.9,3.4A4.1,4.1,0,0,0,52,38a3.8,3.8,0,0,0,.8-1.7,4.4,4.4,0,0,1-.8,2.5,4.3,4.3,0,0,1-6,.8A4.7,4.7,0,0,1,44.2,35.3Z"/><path class="cls-21" d="M50.5,35.9a2.6,2.6,0,0,1-1.6,3.4,2.7,2.7,0,0,1-1.6-5.1A2.5,2.5,0,0,1,50.5,35.9Z"/><path class="cls-22" d="M49.6,36.3a1.6,1.6,0,1,1-3,1,1.7,1.7,0,0,1,1-2.1A1.6,1.6,0,0,1,49.6,36.3Z"/><path class="cls-19" d="M49.4,35.4a.7.7,0,0,1-.4.8.7.7,0,1,1-.5-1.3A.8.8,0,0,1,49.4,35.4Z"/><path class="cls-19" d="M47.9,38.1c.1.2,0,.5-.2.5a.4.4,0,0,1-.5-.2c-.1-.3,0-.5.2-.5S47.9,37.9,47.9,38.1Z"/><path class="cls-8" d="M64.3,29.9a4.3,4.3,0,0,0,3.8,4.7,4.2,4.2,0,0,0,4.5-4.1,4.2,4.2,0,1,0-8.3-.6Z"/><path class="cls-8" d="M66.8,33.6c-1.3.5-1.5,1.2-.3,1.5a7.2,7.2,0,0,0,4.3-.3c1.3-.5,1.4-1.2.3-1.5A7.1,7.1,0,0,0,66.8,33.6Z"/><path class="cls-19" d="M64.7,29.8a4.3,4.3,0,0,0,3.8,4.7,4.2,4.2,0,0,0,4.5-4,4.2,4.2,0,0,0-3.8-4.7A4.2,4.2,0,0,0,64.7,29.8Z"/><path class="cls-20" d="M65.3,30.1a6.1,6.1,0,0,1,.3-1.3c0,.2-.1.5-.1.7a3.8,3.8,0,0,0,3.4,4.2,3.6,3.6,0,0,0,3-1.4,3.6,3.6,0,0,1-3.3,1.9A3.7,3.7,0,0,1,65.3,30.1Z"/><path class="cls-21" d="M66.1,31.4A2.3,2.3,0,0,0,69,33a2.4,2.4,0,0,0-1.5-4.5A2.3,2.3,0,0,0,66.1,31.4Z"/><path class="cls-22" d="M67,31.2a1.4,1.4,0,0,0,1.7,1,1.5,1.5,0,0,0,.9-1.8,1.4,1.4,0,0,0-1.7-.9A1.4,1.4,0,0,0,67,31.2Z"/><path class="cls-19" d="M68.2,30a.6.6,0,0,0,.7.4.7.7,0,0,0,.4-.8.6.6,0,0,0-.7-.4A.6.6,0,0,0,68.2,30Z"/><path class="cls-19" d="M67.3,32.1c.1.2.3.3.4.2s.3-.2.3-.4a.5.5,0,0,0-.5-.3A.4.4,0,0,0,67.3,32.1Z"/><path class="cls-2" d="M50.2.2c-17.2,2.2-21,13.5-21,13.5s-6.2,1.6-8,11.6c-2,11.6,4.5,17.9,10.7,23.8C44.6,40.8,39,23.4,39,23.4c6.8,9.3,20.6-.9,23.3-4.6,5.3-7.3,14,.2,15.8,6.3C81,12.4,66.7-1.9,50.2.2Z"/><path class="cls-23" d="M29.6,18c-1.9-.7-8.2,9.3-4.2,16.8.1-6.4,2.2-9.1,2.2-9.1s-2.3,4.9,1,13.6c.9-10.7,4.5-14.6,4.5-14.6A116.9,116.9,0,0,1,30.6,37c5.5-7.4,5.6-16.6,3.6-18.2s-5.1,7.8-5.1,7.8S31.3,18.6,29.6,18Z"/><path class="cls-23" d="M34.3,12.3C37.9,6.5,45-.3,61.2,2.8,53,2.5,47.9,5.5,47.9,5.5s17.9-2.2,25.5,6.4C67,7.2,53.8,5.6,43.5,10.8c6.9,1.1,16.7.3,16.7.3s-14.3,5.5-20.6,2.1a20.4,20.4,0,0,0,11.3,4.7s-11.1.9-15.6-4.6C38,10.5,41.7,8.1,48.2,7,42.1,5,34.3,12.3,34.3,12.3Z"/><path class="cls-24" d="M36.9,21c0,.5,6.5,17.9-6.4,28a18.6,18.6,0,0,1-6.6-12.1s3.5,6,6.5,4C39.2,34.9,36.9,21,36.9,21Z"/><path class="cls-24" d="M38.6,20.3c5.4,4.7,14,4.3,20-1.8s9.9-4.8,11.9-2.9c-3.1-1.2-5.5-1.4-9.1,2.4C53.3,26.6,42.8,28.5,38.6,20.3Z"/><path class="cls-5" d="M36,44.5a4.6,4.6,0,0,0-5.3-.9c-3.2,1.6-1.5,6.5,2,8.1s7-.2,6.6-3Z"/><path class="cls-8" d="M31.2,43.7a4.6,4.6,0,0,1,2.1-.5,2.8,2.8,0,0,0-1.5.4c-2.9,1.6-1.2,5.2,1,6.6s5.9.5,6.4-1.8c.4,2.6-3,4.3-6.2,2.8S28.2,45.2,31.2,43.7Z"/><path class="cls-25" d="M31,45.2c1.6-1.7,5.9,1.2,4.7,5-.8-3.6-2.5-3.8-2.9-1.6-.7-.9-.6-1.8.7-2.5A3.1,3.1,0,0,0,31,45.2Z"/><path class="cls-3" d="M35.1,30c-2.8-1.2-7-.9-7.4-.1s4,3.6,7.3,2.9S36.7,30.6,35.1,30Zm-.3,1.4c-.3,1.3-5.1-.5-5.1-.9s1.9-.4,2.9-.2S35,30.9,34.8,31.4Z"/><path class="cls-3" d="M75.1,14.9c-.5-2.6-2.6-5.7-3.4-5.6s-.6,4.6,1.3,6.8S75.4,16.4,75.1,14.9Zm-1.1.5c-1,.3-2.1-4.2-1.8-4.4s1.1,1.3,1.5,2.1S74.4,15.2,74,15.4Z"/><path class="cls-26" d="M47.9,45.3A8.7,8.7,0,0,1,50.4,28h.2A8.7,8.7,0,0,1,48,45.3ZM50.4,29h-.1a7.8,7.8,0,0,0-8.8,6.6A8,8,0,0,0,48,44.4h.2A7.8,7.8,0,0,0,50.4,29Z"/><path class="cls-26" d="M68.1,38.6a8.7,8.7,0,0,1,2.6-17.3h.1a8.7,8.7,0,0,1-2.5,17.2Zm2.6-16.3h-.2a7.7,7.7,0,0,0-8.7,6.6,7.8,7.8,0,0,0,6.5,8.8h.1a8,8,0,0,0,5.8-1.5,8.2,8.2,0,0,0,3-5.2A7.8,7.8,0,0,0,70.7,22.3Z"/><path class="cls-26" d="M56.8,33.8a.3.3,0,0,1-.3-.3.4.4,0,0,1,.3-.6l4.4-1.5a.5.5,0,0,1,.6.3.4.4,0,0,1-.3.6l-4.4,1.5Z"/><path class="cls-26" d="M36.4,44.9l-.3-.2a.5.5,0,0,1,.1-.7l5.3-3.8a.5.5,0,1,1,.6.8l-5.4,3.8Z"/><path class="cls-26" d="M77.2,27.4c-.2,0-.3-.1-.4-.3s.1-.5.3-.6l1.5-.6c.2-.1.5.1.6.3a.4.4,0,0,1-.3.6l-1.5.6Z"/><path class="cls-27" d="M55.8,89.3a31.2,31.2,0,0,1-4.6,17,2.2,2.2,0,0,0,3.1,1.9c4-6.1,6.9-15.7,6.7-19.1Z"/><path class="cls-28" d="M56.4,89.6a19.1,19.1,0,0,1-.3,4.8c.8-1,3.2-1.8,3.5,0a14.9,14.9,0,0,0,.8-4.8A16.4,16.4,0,0,0,56.4,89.6Z"/><path class="cls-27" d="M66.3,89.2s-.6,8.3-5.2,12.7c.1,1.9,1.3,2.8,2.3,2.4,2.8-2.6,6.8-8.4,6.9-14.7A9.3,9.3,0,0,0,66.3,89.2Z"/><path class="cls-28" d="M66.6,89.4c-.3,2.2-.7,4.4-.9,5.2.8-1,3.1-1.7,3.4.1a19.1,19.1,0,0,0,.9-5.1A9,9,0,0,0,66.6,89.4Z"/><path class="cls-3" d="M50.8,61.3c.2-.5,2.8-1.5,4.8-1.2,2.3,6,10.3,4.1,8.3-1.2a9.9,9.9,0,0,1,3.6-.4c4.7,4.8,12.5,27.6,11.4,35-4.1-4.4-22.5-4.9-33.6.7.3-7.5,7.4-22.7,5-27.8C52.2,65.6,52.1,62.6,50.8,61.3Z"/><path class="cls-29" d="M52.1,65.4c2.5,8-3.1,20.7,3.7,20.7s20.2,1.2,22,4.8c-9.3-4.9-22.3-3.3-30.4-.3,1.7-9.9,5.6-14,3.5-24.4C50.8,65.9,52.1,65.4,52.1,65.4Z"/><path class="cls-30" d="M66,63.5c-.1-2.2,2.6-2.5,4.2,1.3a10.3,10.3,0,0,1,1.2,6C69,66.7,66.1,65.7,66,63.5Z"/><path class="cls-27" d="M51.7,60.7c1,.7,1.3,5.1-1,6.4a.7.7,0,0,1-.5-1,3.8,3.8,0,0,0,.4-4.9C50.8,60.7,51.7,60.7,51.7,60.7Z"/><path class="cls-27" d="M56.2,60c.4,1.3,2.5,4,5.3,3.4s1.9-4.5,1.9-4.5a.8.8,0,0,1,1.1-.1c.4,2.6-.1,4.8-2.7,5.5a6.2,6.2,0,0,1-7-4.3C55.3,59.5,56.2,60,56.2,60Z"/><path class="cls-27" d="M67.9,58.4s2.3,2.8,2.2,3.9a20.4,20.4,0,0,0-3.4-3.8C67,58,67.9,58.4,67.9,58.4Z"/><path class="cls-19" d="M98.8,56.8c1.8-8.9-4.7-8.9-4.7-8.9s3.3,1.1,2,6.6c-2,8.5-12.9,16-16,21a7.8,7.8,0,0,0,.4,9.1Z"/><path class="cls-31" d="M100.3,49.1s.1,5-5.4,11.8C81.3,77.5,78.7,76.6,81.1,84.1c0,0,16-14.7,20.6-25.8A12.8,12.8,0,0,0,100.3,49.1Z"/><path class="cls-31" d="M100.1,59.9s-1.8,4.2-8,10-9.3,9.2-9.3,12.3c0,0-1.1-2.4,1.8-5.7S93.5,69,100.1,59.9Z"/><path class="cls-19" d="M103.1,60.4C100.9,65.3,85.3,82,81.4,84.8a8.1,8.1,0,0,1,.9-7.7c2.8-3.9,19.6-19.5,19.4-28.1a12.3,12.3,0,0,1,1,2.8,8.9,8.9,0,0,1,0,4.6h0a7.5,7.5,0,0,0,1.5-2.9S105.2,55.7,103.1,60.4Z"/><path class="cls-31" d="M83,83.3a2.6,2.6,0,0,1,.2-2.7c.8-1.7,6-6.7,6-6.7a64.5,64.5,0,0,0-5.1,6.2A5.4,5.4,0,0,0,83,83.3Z"/><path class="cls-31" d="M102.7,51.8a8.9,8.9,0,0,1,0,4.6h0A39.5,39.5,0,0,1,98.9,62c-2.6,3.2-11.7,12.6-11.7,12.6,2.2-3.3,11.6-12.9,13.3-16a15.6,15.6,0,0,0,2.2-6.8Z"/><path class="cls-19" d="M46.3,78.7a18.8,18.8,0,0,1-8.6-9.8s2.2,4.1,10.1,6.3,20.9.7,26.7,1.8,5.7,6.8,5.7,6.8Z"/><path class="cls-31" d="M36.3,77.2a8.4,8.4,0,0,1-3.1-5.4s4.7,4.8,18.4,6.4c21.3,2.4,25.7-2.5,28.6,5.4C80.2,83.6,44.2,84.7,36.3,77.2Z"/><path class="cls-19" d="M31.7,83.2l1.7-.5A14.2,14.2,0,0,1,29,79.8h0a14.5,14.5,0,0,0,5.2.7h.1a27.9,27.9,0,0,1-4-4.2h0c.1,0,28.1,4.4,37.8,3.5s12.1,3.8,12.1,3.8-31,6.3-48.6,2.2Z"/><path class="cls-31" d="M34.2,80.5h.1a27.9,27.9,0,0,1-4-4.2,16.4,16.4,0,0,0,6.4,3.9c2.6.6,9.8,1.4,10,1.4S39.3,81.8,34.2,80.5Z"/><path class="cls-31" d="M49.5,81.3s4.3,1.5,12.8.9,13-.8,15.3,1.3c0,0-1-2.4-5.4-2.5S60.7,82.6,49.5,81.3Z"/><path class="cls-31" d="M49.2,83.4a77.6,77.6,0,0,1-15.9-.7h.1A14.2,14.2,0,0,1,29,79.8h0a18.5,18.5,0,0,0,7.7,2.7C41.5,83.1,49.2,83.4,49.2,83.4Z"/><path class="cls-32" d="M106.4,58.1l.8,22.4.6,18a.6.6,0,0,1-.1.4L95.9,123.8h0c-.7,1.3-1.5,3.3-2.6,4.3h0a12.8,12.8,0,0,1-6.7,3l-2.1.3H83.4l-2,.2h-.1l-44-2.1a1.1,1.1,0,0,1-.9-.8L29.8,92.1l-1.1-6.5a.9.9,0,0,1,.9-1.1l45.7-.6h0s6.6,1.1,10-3.8h0l.8-.9,18.6-21.6A1,1,0,0,1,106.4,58.1Z"/><path class="cls-33" d="M90.7,73.8a15.9,15.9,0,0,1,1.8,5.8,41.2,41.2,0,0,1,.4,5.5l1.5,2.1.5-.2s-.1-6.2-1.1-9a22,22,0,0,0-2.6-4.9Z"/><path class="cls-33" d="M107.2,80.5l.6,18a.6.6,0,0,1-.1.4L95.9,123.8h0c-.7,1.3-1.5,3.3-2.6,4.3l-3.5-20.6s2.7,8.9,8.6,3.9S106.8,92.4,107.2,80.5Z"/><g class="cls-34"><path class="cls-35" d="M97.6,116.1h-.4l-.6-.3a2.3,2.3,0,0,0-1.8.1.2.2,0,0,1-.3,0l-.2-.2L89.1,83.4c0-.1,0-.2.2-.3h.2a3.4,3.4,0,0,0,1.3-4.7.3.3,0,0,1-.1-.2.3.3,0,0,1,0-.4l11.8-13.6h.3l.3.2a1.6,1.6,0,0,0,.9.7,1.4,1.4,0,0,0,.9.1h.3c.1,0,.1.1.1.2l1.4,30.4c0,.1,0,.2-.1.2a2.4,2.4,0,0,0-.7,1.2,2.3,2.3,0,0,0,0,2v.2l-8.2,16.6Zm-2.7-1a3.1,3.1,0,0,1,1.9,0l.5.2,7.9-16.1a3.6,3.6,0,0,1,.1-2.3,2.7,2.7,0,0,1,.7-1.3l-1.3-29.9h-.9a2.6,2.6,0,0,1-1-.7l-11.5,13h.1a4,4,0,0,1-1.6,5.5h0Z"/></g><path class="cls-36" d="M94.6,72.4c.2.4.3,1,.5,1.5s.6,2.7.8,4.1.2,2.2.3,3.1.2,2.8.2,2.8L94.9,87l-.7-1-.6-1a9.4,9.4,0,0,1-.1-1.4c-.1-1.1-.2-2.8-.5-4.4a11.2,11.2,0,0,0-.4-2.1,7.1,7.1,0,0,0-1.7-3.6s.3-2.5,2.2-2.5S94.2,71.5,94.6,72.4Z"/><path class="cls-37" d="M94.6,72.4c.2.4.3,1,.5,1.5L93,79.2a11.2,11.2,0,0,0-.4-2.1Z"/><path class="cls-37" d="M95.9,78c.1,1.1.2,2.2.3,3.1l-2,4.9-.6-1a9.4,9.4,0,0,1-.1-1.4Z"/><path class="cls-33" d="M80.5,114.4l2.9,17h0l-2,.2h-.1l-44-2.1a1.1,1.1,0,0,1-.9-.8L29.8,92.1h0s4.8,28.8,19.6,33.5C74.9,133.7,80.5,114.4,80.5,114.4Z"/><g class="cls-34"><path class="cls-35" d="M75.2,129.8H75c-9.9-.3-24.4-1.4-32.1-1.9l-.2-.2c-.1,0-.1-.1-.1-.2a3.9,3.9,0,0,0-.4-2.6,4.4,4.4,0,0,0-4.3-2.1c-.2.1-.3,0-.4-.2l-6-31.5a.4.4,0,0,1,.1-.3c0-.1.1-.1.2-.1l1.3-.5a4.2,4.2,0,0,0,2.1-3.9.3.3,0,0,1,.1-.2c0-.1.1-.1.2-.1l34.1-.4h.2a.4.4,0,0,1,.1.3,5,5,0,0,0,.5,2.1,4.1,4.1,0,0,0,4.5,2h.2a.2.2,0,0,1,.2.2l4.6,34c0,.1,0,.2-.1.2h-.3a4.2,4.2,0,0,0-2.1.6,4,4,0,0,0-2,4.1c0,.1,0,.2-.1.2A.1.1,0,0,1,75.2,129.8Zm-31.9-2.5c7.7.6,21.6,1.6,31.4,1.9a4.7,4.7,0,0,1,2.4-4.4,3.7,3.7,0,0,1,2.1-.6L74.7,90.9a5.7,5.7,0,0,1-2.6-.3,4.1,4.1,0,0,1-2.2-2.1,3.7,3.7,0,0,1-.6-2.1l-33.4.3a5,5,0,0,1-2.5,4.2,3.3,3.3,0,0,1-1.2.5l5.9,30.9a4.6,4.6,0,0,1,4.6,2.4A4,4,0,0,1,43.3,127.3Z"/></g><polygon class="cls-31" points="30.3 76.3 30.3 76.3 30.3 76.3 30.3 76.3"/><path class="cls-35" d="M75.3,83.9l5.4-2.2a41.8,41.8,0,0,0,5.2-2.4,9.9,9.9,0,0,1-4.2,4.2A11.1,11.1,0,0,1,75.3,83.9Z"/><path class="cls-33" d="M86.1,79.1l7.2,49h0a12.8,12.8,0,0,1-6.7,3l-2.1.3H83.4L75.1,83.9h1.4c2,.1,6.3-.3,8.8-4h0l.8-.9Z"/><path class="cls-32" d="M90.4,129.2a13.7,13.7,0,0,1-2.8,1,10.1,10.1,0,0,1-2.7,0h-.2L77.4,85.4v-.2h.2a8,8,0,0,0,6-1.4,8.6,8.6,0,0,0,2-1.9h.2a.2.2,0,0,1,.2.2l6.5,45.2v.2A7,7,0,0,1,90.4,129.2Zm-5.3.7a11.8,11.8,0,0,0,2.5-.1,7.6,7.6,0,0,0,4.5-2.6L85.7,82.5a11.9,11.9,0,0,1-1.9,1.7,9,9,0,0,1-6,1.4Z"/><g class="cls-34"><path class="cls-35" d="M88.2,93.6l.3,1.8c-3.5,2.8-7.9,2.7-9.8,2.5.7,3.9,1.4,8.1,2.3,12a13.1,13.1,0,0,0,9.2-3l.2,1.5a12.3,12.3,0,0,1-9.2,2.6c1.2,5.4,2.4,9.9,3.4,11.6.1.1.2.2.2.3,2.8,0,6.2-1.8,7-2.2a6.8,6.8,0,0,1-.2,1.4,10.6,10.6,0,0,1-5.9,1.9c2.4,2.4,5,.9,5.9-1.9l.6-.5,1.1,6.5a12.8,12.8,0,0,1-6.7,3l-2.2.3h-1L75.1,83.9h1.4s.8,5.6,2,12.7C83.7,97,88.2,93.6,88.2,93.6Z"/></g><g class="cls-34"><path class="cls-35" d="M91.8,119.3l.2,1.3.2,1-.6.5a6.8,6.8,0,0,0,.2-1.4A3.3,3.3,0,0,0,91.8,119.3Z"/></g><path class="cls-35" d="M92,120.6l.2,1-.6.5a6.8,6.8,0,0,0,.2-1.4Z"/><path class="cls-36" d="M86.4,95.6a10,10,0,0,1-2.5,1,12.4,12.4,0,0,1-6.8,0l.6-1.5h0a10.6,10.6,0,0,0,5.8-.1c3.3-.8,4-2.5,4-2.6h0l1.5.5A5.8,5.8,0,0,1,86.4,95.6Z"/><path class="cls-36" d="M88.1,108.7a13.4,13.4,0,0,1-2.4.9c-4.2,1-6.5.1-6.6,0l.6-1.4h0a10.6,10.6,0,0,0,5.6-.2c3.4-.8,4.3-3,4.3-3a.8.8,0,0,1,1-.5,1,1,0,0,1,.5,1.1A7.9,7.9,0,0,1,88.1,108.7Z"/><path class="cls-36" d="M90.5,122.1l-2.4.9c-4.2,1-6.5.1-6.6,0l.6-1.4h0a10.7,10.7,0,0,0,5.6-.2c3.4-.8,4.3-3,4.3-3a.9.9,0,0,1,1-.5,1,1,0,0,1,.5,1.1A7.9,7.9,0,0,1,90.5,122.1Z"/><path class="cls-36" d="M64.1,93.3l.3,1.5.7,4a.8.8,0,0,1-.7.8H51.6l-5.6.2H42.2a.7.7,0,0,1-.7-.6h0l-.3-1.8-.6-3.5a.6.6,0,0,1,.6-.8h7.3l5.2-.2h5.8l4-.2a.5.5,0,0,1,.5.3A.4.4,0,0,1,64.1,93.3Z"/><polygon class="cls-37" points="59.5 92.9 51.6 99.9 46 100.1 53.7 93 59.5 92.9"/><polygon class="cls-37" points="48.5 93.2 41.5 99.5 41.2 97.7 46 93.3 48.5 93.2"/><path class="cls-37" d="M64.1,93.3l.3,1.5-5.5,4.9H56.5L64,93A.4.4,0,0,1,64.1,93.3Z"/></g></g></g></svg>