<svg xmlns="http://www.w3.org/2000/svg" viewBox="0 0 6.43 16.09"><defs><style>.cls-1{fill:#ed232f;}</style></defs><title>Asset 16</title><g id="Layer_2" data-name="Layer 2"><g id="Layer_1-2" data-name="Layer 1"><path class="cls-1" d="M4.05,15.68c-.61.1-1.82.35-2.44.4A1.49,1.49,0,0,1,.29,15.4,1.6,1.6,0,0,1,.1,13.93L2.53,7.24H0A3,3,0,0,1,2.38,4.43,9.24,9.24,0,0,1,4.83,4a1.92,1.92,0,0,1,1.31.69,1.61,1.61,0,0,1,.2,1.47L3.9,12.87H6.43a2.85,2.85,0,0,1-2.38,2.81Z"/><path class="cls-1" d="M4.83,3.22a1.61,1.61,0,1,1,1.6-1.61,1.61,1.61,0,0,1-1.6,1.61Z"/></g></g></svg>