<svg xmlns="http://www.w3.org/2000/svg" viewBox="0 0 11.93 8.95"><defs><style>.cls-1{fill:#ed232f;}</style></defs><title>Asset 15</title><g id="Layer_2" data-name="Layer 2"><g id="Layer_1-2" data-name="Layer 1"><path class="cls-1" d="M11.93,8.2a.75.75,0,0,1-.74.75H.75A.76.76,0,0,1,0,8.2V2.78l.05,0,5.18,3A1.47,1.47,0,0,0,6,6a1.49,1.49,0,0,0,.74-.2l5.17-3,0,0Z"/><path class="cls-1" d="M11.93,1.49a.75.75,0,0,1-.41.67l-5.18,3a.74.74,0,0,1-.37.1.69.69,0,0,1-.37-.1l-5.19-3A.77.77,0,0,1,0,1.49V.75A.74.74,0,0,1,.75,0H11.19a.74.74,0,0,1,.74.75Z"/></g></g></svg>