<svg xmlns="http://www.w3.org/2000/svg" viewBox="0 0 12.77 12.77"><defs><style>.cls-1{fill:#ed232f;}</style></defs><title>Asset 14</title><g id="Layer_2" data-name="Layer 2"><g id="Layer_1-2" data-name="Layer 1"><path class="cls-1" d="M12.06,12.77A12.07,12.07,0,0,1,0,.71.71.71,0,0,1,.71,0H3.33A.71.71,0,0,1,4,.71a7.91,7.91,0,0,0,.79,3.47.68.68,0,0,1,0,.54.75.75,0,0,1-.37.41l-1.06.51A10,10,0,0,0,7.13,9.33l.51-1.06a.7.7,0,0,1,.41-.36.72.72,0,0,1,.54,0,7.81,7.81,0,0,0,3.47.79.71.71,0,0,1,.71.71v2.62h0A.7.7,0,0,1,12.06,12.77Z"/></g></g></svg>