<svg xmlns="http://www.w3.org/2000/svg" xmlns:xlink="http://www.w3.org/1999/xlink" viewBox="0 0 2560 591.2"><defs><style>.cls-1{fill:#ed232f;}.cls-2{fill:url(#linear-gradient);}</style><linearGradient id="linear-gradient" x1="1322.6" y1="-1466.13" x2="1237.36" y2="-1696.54" gradientTransform="translate(2560 -1324.67) rotate(180)" gradientUnits="userSpaceOnUse"><stop offset="0" stop-color="#ed232f"/><stop offset="0.89" stop-color="#f26d58"/></linearGradient></defs><title>Asset 18</title><g id="Layer_2" data-name="Layer 2"><g id="Layer_1-2" data-name="Layer 1"><path class="cls-1" d="M0,509.55c154.47-2,475.45-14.75,683-82.31,209.9-68.33,377.06-92.32,677.83,60.91C1767.66,695.43,2380.87,535,2560,480.64V3.68a42.56,42.56,0,0,0-4.68-.93c-112.56-15.56-889.46,34.59-1203.29,160C1086,269,1128.38,271.63,784.86,309.23c-284.4,31.13-663-143-784.86-203.9Z"/><path class="cls-2" d="M0,509.55l1.66,0L17,509.29q10.56-.18,21.93-.43l11.55-.27,11.94-.31,6.3-.18q6-.17,12.26-.37l12.8-.42q12.81-.45,26.23-1l.6,0q16.63-.68,34.1-1.52l7.51-.38q10.75-.54,21.78-1.16,7.11-.41,14.33-.83l.94-.06q10.66-.63,21.53-1.35l8.16-.54,7.65-.52,8.28-.59q7.41-.54,14.9-1.1,11.67-.9,23.48-1.87l7.89-.66q24.15-2.07,48.7-4.52,11.07-1.12,22.2-2.32l2-.22q7.05-.76,14.09-1.57l2.08-.24q11-1.26,22-2.61l2.24-.28q10.92-1.36,21.83-2.81l2.42-.32L442.3,479q12.66-1.77,25.26-3.68,15.19-2.31,30.26-4.82,5.44-.9,10.88-1.85,14.12-2.43,28-5.07,21.12-4,41.64-8.46,5.63-1.23,11.2-2.49,13.16-3,26-6.17,5.18-1.29,10.29-2.61,5.73-1.49,11.36-3,4.88-1.32,9.69-2.67l4.43-1.25q4.66-1.33,9.26-2.7l4.6-1.37c3-.89,5.9-1.8,8.82-2.71s6-1.9,9-2.87h0l7.61-2.46,1.26-.4,7.27-2.32,1.42-.45,7.33-2.3.9-.28,7.17-2.21.71-.22,7.34-2.22,1.31-.4,7.2-2.14,1.18-.34c2.49-.73,5-1.46,7.45-2.17l.23-.06c2.45-.71,4.9-1.4,7.34-2.09l1-.28,7.19-2,1.25-.34,7.21-1.94.86-.23c2.45-.65,4.89-1.28,7.33-1.91l.27-.07q3.69-1,7.36-1.87l1.11-.27c2.38-.6,4.77-1.18,7.14-1.75l1.11-.27,7.34-1.73.32-.07c2.45-.57,4.9-1.12,7.34-1.67l.69-.15c2.41-.53,4.82-1.06,7.23-1.57l1.12-.24c2.4-.51,4.8-1,7.2-1.49l.82-.17q7.5-1.5,15-2.87l.89-.16c2.41-.44,4.82-.86,7.23-1.28l1-.17c2.46-.42,4.92-.82,7.38-1.22l.38-.06c2.5-.39,5-.78,7.5-1.15l.38-.06q3.7-.54,7.41-1.05l1-.13,7.32-1,.8-.1q7.6-.94,15.25-1.71l.68-.07q3.71-.37,7.43-.7l.92-.08c2.51-.22,5-.42,7.52-.61l.45,0q3.92-.28,7.85-.54h0q3.85-.24,7.71-.43l.84,0q3.76-.18,7.54-.32l.8,0q7.84-.28,15.77-.36h.47q3.85,0,7.74,0h.87c2.58,0,5.17,0,7.77.09H969q8,.14,16.13.5l.71,0c2.62.11,5.25.25,7.89.4l.79.05q8.25.48,16.61,1.2h.2q4.08.36,8.19.76l.81.08q4.07.4,8.15.87l.58.06q8.43,1,17,2.15l.57.08c2.77.39,5.56.8,8.35,1.23l.81.13c2.84.44,5.68.89,8.53,1.37l.15,0q8.79,1.47,17.72,3.2l.76.15q4.31.84,8.64,1.74l.67.14q8.94,1.86,18,4l.42.09c3,.7,5.95,1.42,8.94,2.16l.83.2c3,.75,6,1.51,9,2.3l.33.08q9.32,2.43,18.8,5.13l.73.2c3.06.88,6.15,1.78,9.24,2.7l.75.22q9.63,2.88,19.45,6l.23.07q4.8,1.55,9.65,3.17l.88.29q4.82,1.62,9.68,3.29l.51.18q10,3.47,20.16,7.22l.67.24q5,1.83,10,3.74l.88.34q5.1,1.93,10.25,4c59.94-21.47,102.71-48.73,133.95-82.07C1464.72,257.69,1662.53,89,1974,103.05c2.08.11,326.73,17.88,586,233.64V3.68a42.56,42.56,0,0,0-4.68-.93c-93.88-13-649.86,19.75-1013.9,103.71-64.36,15.7-128.61,34.4-189.38,56.26h0C1086,269,1128.38,271.63,784.86,309.23c-142.23,15.57-308-20.21-453.49-67.49q-12.35-4-24.5-8.13C172,187.92,57.47,134,0,105.33Z"/></g></g></svg>