<?xml version="1.0" encoding="utf-8"?>
<!-- Generator: Adobe Illustrator 24.0.0, SVG Export Plug-In . SVG Version: 6.00 Build 0)  -->
<svg version="1.1" id="Layer_1" xmlns="http://www.w3.org/2000/svg" xmlns:xlink="http://www.w3.org/1999/xlink" x="0px" y="0px"
	 viewBox="0 0 2560 644.58" style="enable-background:new 0 0 2560 644.58;" xml:space="preserve">
<style type="text/css">
	.st0{fill:#ED232F;}
	.st1{fill:url(#XMLID_2_);}
	.st2{fill:#BE1E2D;}
	.st3{fill:#FBAD18;}
	.st4{fill:#84B240;}
	.st5{fill:#F05A28;}
</style>
<g>
	<path id="XMLID_106_" class="st0" d="M0,585.63c127.69,14.23,454.94,59.38,884.2,58.95c200.48-0.31,448.03-36.95,731.78-63.05
		c508.31-46.75,717.15,4.55,944.02,18.47V0H0V585.63z"/>
	
		<linearGradient id="XMLID_2_" gradientUnits="userSpaceOnUse" x1="1531.4341" y1="497.7358" x2="1700.7023" y2="140.392" gradientTransform="matrix(1 0 0 -1 0 650)">
		<stop  offset="0" style="stop-color:#ED232F"/>
		<stop  offset="1" style="stop-color:#F25F68"/>
	</linearGradient>
	<path id="XMLID_139_" class="st1" d="M1825.32,279.99c0,0,434.4-9,734.68,280.61V3.21H639.29v586.11
		c14.21,3.17,33.56,7.21,57.39,11.58c44.99-38.66,131.09-77,291.92-57.57c304.31,36.76,433.07,11.44,495.83-74.09
		C1537.67,396.68,1657.18,265.78,1825.32,279.99L1825.32,279.99z"/>
	<path id="XMLID_57_" class="st2" d="M0,1.21v585.63c77.39,8.62,228.1,28.61,430.38,42.91c28.85-19.59,50.59-43.07,59.91-71.13
		c46-138.41,78-332.97,209-394.69C824.01,105.17,855.24,144.04,930.5,1.21H0z"/>
	<path id="XMLID_576_" class="st3" d="M1511.51,498.54l-20.92-16.4l5.47-25.1c0.49-2.36,2.06-9.6-2.28-14.08
		c-1.37-1.4-4.43-3.62-9.72-2.71c-3.78,0.74-7.2,2.78-7.99,3.3l-21.25,14.31l-24.44-14.21c-2.57-1.25-6.42-2.62-10.08-1.92
		c-2.53,0.45-4.69,1.82-6.12,3.89c-1.86,2.68-2.36,6.22-1.38,11.34l7.82,27.45l-24.11,21.61c-4.12,4.72-3.87,8.66-2.97,11.08
		c1.47,3.81,5.13,6.11,11.48,6.89l30.28,1.12l11.37,25.76c4.4,9.6,9.99,10.13,12.93,9.6c5.89-1.08,8.3-7.67,9.1-9.8l9.85-26.94
		l25.02-2.53c1.16-0.13,2.15-0.29,3.05-0.45c6.51-1.19,10.37-4.04,11.44-8.42C1519.74,505.56,1513.46,500.07,1511.51,498.54z
		 M1467.71,509.76l-10.32,28.23l-12.15-27.51l-29.98-1.11l22.35-20.04l-8.23-28.9l26.02,15.13l24.93-16.79l-6.4,29.38l23.71,18.59
		L1467.71,509.76z"/>
	<path id="XMLID_567_" class="st4" d="M1775.41,288.64c-5.61,7.15-12.62,11.91-16.13,14.02c0,0-0.01,0-0.02,0c0,0-0.01,0-0.02,0
		c-3.59-1.96-10.79-6.43-16.7-13.34c-8.22-9.63-3.61-21.13,4.78-21.12c7.85,0.01,11.35,7.59,11.35,7.59s0.01-0.01,0.02-0.04
		c0.01,0.02,0.02,0.04,0.02,0.04s3.19-7.72,11.03-8.05C1778.14,267.38,1783.23,278.68,1775.41,288.64z"/>
	<path id="XMLID_56_" class="st5" d="M1853.72,396.3c-31.14-31.14-74.11-50.4-121.64-50.4c-47.54,0-90.59,19.29-121.75,50.45
		c-31.17,31.17-50.45,74.22-50.45,121.76c0,24,4.93,46.85,13.81,67.61c14.01-1.35,28.1-2.68,42.29-3.99
		c1.18-0.11,2.34-0.21,3.52-0.32c-10.55-18.71-16.57-40.3-16.57-63.3c0-35.66,14.45-67.95,37.83-91.32
		c23.38-23.38,55.66-37.83,91.32-37.83c35.63,0,67.86,14.44,91.2,37.78c23.44,23.44,37.87,55.75,37.96,91.37v37.67
		c0,3.63-1.21,6.96-3.24,9.65c15.58-0.62,30.82-1.14,45.72-1.55c0.36-2.65,0.56-5.35,0.56-8.1v-37.67
		C1904.18,470.47,1884.82,427.41,1853.72,396.3z M1828.95,518.11c0-26.75-10.84-50.96-28.38-68.49s-41.75-28.38-68.5-28.38
		c-26.74,0-50.95,10.84-68.49,28.38c-17.52,17.52-28.38,41.74-28.38,68.49c0,22.71,7.84,43.57,20.93,60.08
		c63.59-5.37,122.34-9.17,176.92-11.69c-2.55-2.85-4.1-6.6-4.1-10.72L1828.95,518.11L1828.95,518.11z M1770.14,556.17
		c-9.74,9.73-23.2,15.76-38.06,15.76c-14.86,0-28.31-6.03-38.05-15.76c-9.74-9.75-15.76-23.2-15.76-38.06s6.02-28.32,15.76-38.05
		c9.74-9.75,23.18-15.77,38.05-15.77c14.86,0,28.32,6.02,38.06,15.77c9.74,9.73,15.76,23.18,15.76,38.05
		C1785.9,532.97,1779.87,546.42,1770.14,556.17z"/>
</g>
</svg>
