<?xml version="1.0" encoding="utf-8"?>
<!-- Generator: Adobe Illustrator 24.0.0, SVG Export Plug-In . SVG Version: 6.00 Build 0)  -->
<svg version="1.1" id="Layer_1" xmlns="http://www.w3.org/2000/svg" xmlns:xlink="http://www.w3.org/1999/xlink" x="0px" y="0px"
	 viewBox="0 0 196 173" style="enable-background:new 0 0 196 173;" xml:space="preserve">
<style type="text/css">
	.st0{opacity:0.2;fill:#FFFFFF;enable-background:new    ;}
</style>
<title>Asset 2</title>
<path class="st0" d="M159.8,16.2l-34.3,26V0h-12.6v55.5c0,3.5,2.8,6.3,6.3,6.3h63.2c1.4,8.7,1.4,17.7,0,26.4h-63.2
	c-3.5,0-6.3,2.8-6.3,6.3v64.6c-4.8,0.8-9.6,1.3-14.4,1.3H98c-5,0-10-0.4-14.9-1.3V94.5c0-3.5-2.8-6.3-6.3-6.3H13.6
	c-1.4-8.8-1.4-17.7,0-26.4h63.2c3.5,0,6.3-2.8,6.3-6.3V0H70.5v43.9L35,17.4c0.9-0.9,1.8-1.9,2.7-2.8C43.4,8.8,49.9,3.9,57.1,0H34.9
	c-2.1,1.8-4.2,3.7-6.2,5.6C15.5,18.8,6.3,35.6,2.3,53.8c-0.1,0.2-0.1,0.3-0.1,0.5C0.6,61.6-0.1,69,0,76.4C0.8,129.8,44.7,173,98,173
	h0.5c14.6,0,29-3.4,42.1-9.8h22.8c11,0,20-9,20-20v-20.4C206.5,81.8,197,30.2,161,0h-22.2C146.6,4.3,153.7,9.7,159.8,16.2z
	 M27.2,27.2l29.3,22h-40C19,41.4,22.6,34,27.2,27.2L27.2,27.2z M28.4,124.3c-5.1-7.2-9.1-15.1-11.8-23.5H57L28.4,124.3z M70.5,155.7
	c-12.9-4.4-24.6-11.9-34-21.7l34-28.1V155.7z M163.5,150.5h-24.3c-1,0-2,0.2-2.8,0.7c-3.5,1.8-7.1,3.3-10.9,4.6v-47.4l45,37.4
	C169.4,148.6,166.6,150.6,163.5,150.5L163.5,150.5z M171.8,118c-0.6,1-0.9,2.1-0.9,3.2v8.6l-34.8-29h43.2
	C177.5,106.8,174.9,112.6,171.8,118z M167.8,26c5,7.1,8.9,14.9,11.5,23.2h-42.1L167.8,26z"/>
</svg>
