<svg xmlns="http://www.w3.org/2000/svg" xmlns:xlink="http://www.w3.org/1999/xlink" viewBox="0 0 47.5 47.5"><defs><style>.cls-1{fill:#fbad18;}.cls-2{fill:url(#linear-gradient);}.cls-3{fill:#fff;}</style><linearGradient id="linear-gradient" x1="966.97" y1="1617.44" x2="992.97" y2="1647.44" gradientTransform="translate(-1829.5 -439.4) rotate(-45)" gradientUnits="userSpaceOnUse"><stop offset="0" stop-color="#fff"/><stop offset="1" stop-color="#fbad18"/></linearGradient></defs><title>Asset 15</title><g id="Layer_2" data-name="Layer 2"><g id="Layer_1-2" data-name="Layer 1"><circle class="cls-1" cx="23.8" cy="23.8" r="23.7"/><path class="cls-2" d="M20.7,38.8a24.4,24.4,0,0,0,12.8,6.6,22.7,22.7,0,0,0,7-4.9A23.6,23.6,0,0,0,40.5,7,23.2,23.2,0,0,0,27.7.3a25.3,25.3,0,0,0-7,4.9A23.9,23.9,0,0,0,20.7,38.8Z"/><path class="cls-3" d="M33.2,13.8a13.2,13.2,0,0,0-9.4-3.9,13.4,13.4,0,0,0,0,26.7,13.2,13.2,0,0,0,9.4-3.9,13.2,13.2,0,0,0,0-18.9Zm1.9,8.7V24H33V22.5ZM16.8,17.3l-1.5-1.5,1.1-1.1,1.5,1.5Zm1.1,13-1.5,1.5-1.1-1.2,1.5-1.4Zm11.4-7.8V24H23V17.7h1.6v4.8Zm-4.7-8.4H23V12h1.6ZM23,32.4h1.6v2.1H23Zm6.7-2.1,1.2-1.1,1.4,1.4-1.1,1.2Zm1.2-13-1.2-1.1,1.5-1.5,1.1,1.1ZM14.6,22.5V24h-2V22.5Z"/></g></g></svg>