<svg xmlns="http://www.w3.org/2000/svg" xmlns:xlink="http://www.w3.org/1999/xlink" viewBox="0 0 47.5 47.5"><defs><style>.cls-1{fill:#7a428d;}.cls-2{fill:url(#linear-gradient);}.cls-3{fill:#fff;}</style><linearGradient id="linear-gradient" x1="1470.55" y1="1615.54" x2="1496.55" y2="1645.54" gradientTransform="translate(1659.8 -1462.8) rotate(90)" gradientUnits="userSpaceOnUse"><stop offset="0" stop-color="#fff"/><stop offset="1" stop-color="#7a428d"/></linearGradient></defs><title>Asset 17</title><g id="Layer_2" data-name="Layer 2"><g id="Layer_1-2" data-name="Layer 1"><circle class="cls-1" cx="23.8" cy="23.7" r="23.7" transform="translate(-9.8 23.7) rotate(-45)"/><path class="cls-2" d="M15.2,11A23.3,23.3,0,0,0,1.5,15.4,23.1,23.1,0,0,0,0,23.7,23.7,23.7,0,0,0,23.7,47.5a23.4,23.4,0,0,0,13.8-4.4A23.2,23.2,0,0,0,39,34.7,23.7,23.7,0,0,0,15.2,11Z"/><path class="cls-3" d="M24.9,20.5s-10,.6-12.8-8.8c0,0-.5-1.3-1.1-1.1s-.5,5,.9,7.6,2.9,4.6,1.8,8.4-2.3,7.3-2.3,7.3S19,42,23.9,34c0,0-4.5-2.4-2.8-4.5,0,0-1.8-4.2-1.4-6.5,0,0,4,.1,5.6-.8A4.5,4.5,0,0,0,24.9,20.5Z"/><path class="cls-3" d="M14.4,35.5s.3,5.1,1.7,5.3.8-4.5.8-4.5l1.6.2s1.1,5.6,2.1,5.5.6-6.1.6-6.1l-5.4-3.2Z"/><path class="cls-3" d="M21.3,30.6s0-.6.7-.4,2.8,1.7,5.2,1.3a11,11,0,0,0,4.6-2s.6-.6.9-.4.6,1.9-2.5,4c0,0,.7,9.6-1.1,10.7,0,0-1.4.8-1.2-4.7h-.4s.4,4.7-1.1,4.8S25,33.7,25,33.7,21.3,32.5,21.3,30.6Z"/><path class="cls-3" d="M36.8,12c-1.8,2.5-4.7,3.6-9.4,4.9s-8,1.9-8,1.9,5.2,1,5.8,1.1.7,1,.7,1V26a2,2,0,0,1,1.1-.2,2.9,2.9,0,0,1,3,3,3.1,3.1,0,0,1-.1,1l1.4-.9a2,2,0,0,1,1.2-.6.7.7,0,0,1,.6.2,1.4,1.4,0,0,1,.5,1.2c0,.7-.3,2.1-2.7,3.8a44,44,0,0,1,.2,4.5c0,.6-.1,1.2-.1,1.7.3,2.7.7,3.3,1.2,3.3s1-1.1,1.5-3.2,0-9.7-.2-13.6a65.1,65.1,0,0,1,.2-7.1c3.4-1.9,5.4-6.3,5.7-6.9S38.6,9.5,36.8,12Z"/><circle class="cls-3" cx="27" cy="28.8" r="2.3"/><circle class="cls-3" cx="18.5" cy="15.3" r="2.6"/><circle class="cls-3" cx="28" cy="13" r="2.6"/></g></g></svg>