<svg xmlns="http://www.w3.org/2000/svg" xmlns:xlink="http://www.w3.org/1999/xlink" viewBox="0 0 47.5 47.5"><defs><style>.cls-1{fill:#92c83e;}.cls-2{fill:url(#linear-gradient);}.cls-3{fill:#fff;}</style><linearGradient id="linear-gradient" x1="1115.02" y1="1901.57" x2="1141.02" y2="1931.57" gradientTransform="translate(-1107.3 -1898.4)" gradientUnits="userSpaceOnUse"><stop offset="0" stop-color="#fff"/><stop offset="1" stop-color="#92c83e"/></linearGradient></defs><title>Asset 16</title><g id="Layer_2" data-name="Layer 2"><g id="Layer_1-2" data-name="Layer 1"><circle class="cls-1" cx="23.7" cy="23.8" r="23.7" transform="translate(-9.8 23.7) rotate(-45)"/><path class="cls-2" d="M11,32.3A23.3,23.3,0,0,0,15.4,46a23.1,23.1,0,0,0,8.3,1.5A23.7,23.7,0,0,0,47.5,23.8,23.4,23.4,0,0,0,43.1,10a23.2,23.2,0,0,0-8.4-1.5A23.7,23.7,0,0,0,11,32.3Z"/><path class="cls-3" d="M17.1,30.4l-1-.9c-.2-.3-.5-.3-.7-.4s-1.3-.5-1.6-.3-.7.3-.8,0-.3-.4-.5-.4-.1-.3-.1-.5-.1-.5-.3-.3-.6.5-.7.3-.4-1,.1-1.2a1.7,1.7,0,0,1,1.1.1c.2.2.3.6.4.5s.1-.3.2-.6.4-.6.6-.9.2-.5.4-.6.3-.3.6-.4l.6-.4.8-.3c.2.1.3,0,.2-.3a9.8,9.8,0,0,1-.6-1.4,2.2,2.2,0,0,1-.5-.8c-.1-.3-.3-.6-.4-.4s-.3.6-.4.3-.1-.3-.3-.4-.2-.2-.4-.3-.5,0-.4.2-.2.6-.1.9.3.5.1.6,0,.7-.2.6-.3.1-.3-.1.1-.6-.2-.6a1.3,1.3,0,0,1-.8-.3c-.2-.2-.4-.1-.3-.5s-.1-.5.2-.7.3-.3.5-.3h.5c.1-.1.3,0,.3-.2s-.2-.1-.2-.3.1-.2.2-.5-.3-1-.6-.9-.9.5-1,.3-.3-.1-.7,0a4,4,0,0,1-2.2-.3s-.2-.2-.4-.1-.7.1-.9.1-.3.2-.6.1-1-.2-1.1-.4H5c-.1-.1-.6-.1-.6,0s-.5.3-.6.5-.4.1-.2.4-.4.6-.3.9,0,1.3.6,1.5,1.1.3,1.4,0,.9-.2,1,.1a2.4,2.4,0,0,0,.8,1,2.2,2.2,0,0,1,1,1.4,3.1,3.1,0,0,0,.5,2.1c.6.7,1.1,1.8,1.2,1.6s0-.6.2-.4.4.8.9.9a1.5,1.5,0,0,1,.9.4c.2.1.4.3.6.3a2.4,2.4,0,0,1,.8.6.8.8,0,0,1,0,.7c-.1.3-.3.6-.1.8a3.5,3.5,0,0,0,.7,1.2.8.8,0,0,1,.4.9c0,.4-.3,2-.3,2.4s-.3,1.6,0,2.1.8.7,1,.6.1-.1,0-.3a1.1,1.1,0,0,1,0-.8.6.6,0,0,0,0-.6.6.6,0,0,1,.2-.5,7.6,7.6,0,0,1,.9-.9l1.6-1.9a1.9,1.9,0,0,0,.7-.8c.1-.5.5-1.4.2-1.7A6.3,6.3,0,0,0,17.1,30.4Z"/><path class="cls-3" d="M20,17.3l.4-.8H15.7A6.6,6.6,0,0,1,16,18c-.1.5,0,.3.2.5a.6.6,0,0,1,0,.6,1.7,1.7,0,0,0,.1,1.2c.2.5.5,1.2.8,1.2s.1.4.3.3.2-.4.3-.8.2-.7.5-.9L19.7,19c.2-.2.4-.3.4-.7A1.9,1.9,0,0,1,20,17.3Z"/><path class="cls-3" d="M43.1,19.1c-.1-.1-1.2-1-1.7-.8a2.9,2.9,0,0,1-1.4-.4,10.1,10.1,0,0,0-1.8-.4l-2-.5c-.5-.2-.9-1.3-1.9-1.1a6.2,6.2,0,0,0-1.6.4l-.5.7c-.2,0-.7,0-.7.2s.2,1,0,.8-.4-.4-.5-.2-.2.4-.3.3-.5,0-.6.2a1.9,1.9,0,0,1-.9.5l-.5.3c-.1,0-1.1.5-1.3.3H27l-.6-.3c-.2-.3-.2-.2-.5-.5s-.3-.5-.5-.4a9.1,9.1,0,0,0-1.8,1.7c-.4.5-1.1,1-.8,1.4s.6.3.6.5.1.4.2.5.4.3.6-.1.2-.6.4-.5.3.2.1.5-.1.7-.5.7-.7-.3-.8-.2l-.4.2c-.1.1-.5.7-.8.7s-.6,0-.4.3.4.7.2.7-.7-.1-.8.2-.1.4-.1.6.3.6.5.4a1.6,1.6,0,0,0,.9-.5c.1-.3.2-.6.5-.6s1,.4,1,.6-.2.4-.1.3l.5-.2c.1-.1.2.1.3.2s.3.2.4,0,.1-.1.3,0,.7.1.7.2.3.2.1.5a.6.6,0,0,1-.8.1c-.4-.1-.7.2-1.1,0s-.2-.4-.7-.6a3.6,3.6,0,0,0-1.8.1l-.5.3c-.1.1-1,1.2-1,1.7s.3,2.2,1.4,2,1.7-.1,1.6.2-.1.4.1.8.6,2.7.7,3.1,0,.9.4.8,1.1-.2,1.3-.6.2-1,.5-1.3.6-.2.6-.6a3.7,3.7,0,0,1,.1-1.5,5.8,5.8,0,0,0,1.1-1.5c.1-.3.2-.4-.2-.4s-.9-.1-1-.4a6.4,6.4,0,0,1-.6-1c0-.2.3-.1.4.2s.5,1.1,1,.9,1.1-.4,1.1-.7-.2-.6-.4-.6-.5-.1-.5-.3,0-.1.3,0,.4.3.8.3a3.5,3.5,0,0,1,1.2.7c.2.2.6,1.4.7,1.5s.3.2.4-.1a4.2,4.2,0,0,1,.8-1.2c.2-.3.2-.5.4-.4s.8.7.8,1,0,.9.1.7.2-.6.4-.4.1.4.4.2.7-.3.5-.7-.1-.7,0-.7,1.3-.2,1.4-.9-.4-.9-.2-1.2.4-.6.5-.4-.2.8.1.7.6-.1.6-.3-.1-.6,0-.8a4.3,4.3,0,0,0,1.1-1.2c.1-.4.3-.6.2-.9s-.5-.2-.2-.5.5-.6.8-.6.7,1,.7,1.3,0,.9.1.6a3.3,3.3,0,0,1,.6-1c.3-.3.4-.4.4-.7s.1-.3.3-.4,1.4-.6,1.5-.9-.2-.5.1-.5.5.3.7.2l.4-.6C43.8,19.6,43.3,19.2,43.1,19.1Z"/><path class="cls-3" d="M38.4,24.3a2.4,2.4,0,0,0-.3.7l-.2.6-.6.4a1.5,1.5,0,0,0-.3.5c-.2.3.8-.3,1.1-.5s.3-.5.3-.8a.5.5,0,0,1,.3-.5c.1-.1,0-.4-.1-.6S38.4,24.1,38.4,24.3Z"/><path class="cls-3" d="M35.3,31.4c.1-.1.1-.3.2-.2s.3.1.5,0,.4-.1.3-.3v-.5c0-.2-.3-.2-.5-.1s-.5.5-.5.4.2-.4.1-.5,0-.3-.3-.2-.4.1-.5.3-.3.4-.4.2l-.7-.5c-.1-.1-.7-.6-.5-.2a4.9,4.9,0,0,1,.7,1.1c.2.2.3.4.5.3s.2-.2.4,0S35.2,31.5,35.3,31.4Z"/><path class="cls-3" d="M39,31c-.3-.2-.2-.3-.6-.3h-.7c-.1-.1-.5-.2-.4,0s.4.3.5.3-.1.2.1.4.3.3.5.2.4.1.6.1.4,0,.3-.1a.4.4,0,0,1-.1-.3Z"/><path class="cls-3" d="M38.8,32.3c-.1-.3-.3-.8-.4-.6a.9.9,0,0,1-.6.5c-.2,0-.1-.2-.1-.3s-.1-.2-.4-.1-.4.4-.5.4a.4.4,0,0,0-.5,0l-.4.6c-.2.1-.8.1-.8.4s.1.6.1.8-.3.7.1.8a.6.6,0,0,0,.6,0,4.3,4.3,0,0,1,1.4-.4l.4.5.5.4h.6c.1,0,.5-.1.5-.4l.4-.9c0-.3.1-.6-.1-.8S38.9,32.7,38.8,32.3Z"/></g></g></svg>