<?xml version="1.0" encoding="utf-8"?>
<!-- Generator: Adobe Illustrator 24.0.0, SVG Export Plug-In . SVG Version: 6.00 Build 0)  -->
<svg version="1.1" id="Layer_1" xmlns="http://www.w3.org/2000/svg" xmlns:xlink="http://www.w3.org/1999/xlink" x="0px" y="0px"
	 viewBox="0 0 9.8 8.15" style="enable-background:new 0 0 9.8 8.15;" xml:space="preserve">
<style type="text/css">
	.st0{fill:#ED232F;}
</style>
<path id="XMLID_94_" class="st0" d="M0,1.19c0-0.2,0.05-0.4,0.15-0.57C0.35,0.24,0.76,0,1.19,0L8.6,0c0.44,0,0.84,0.24,1.05,0.62
	C9.74,0.79,9.8,0.99,9.8,1.19c0,0.23-0.07,0.46-0.19,0.65L5.9,7.6c-0.22,0.34-0.6,0.55-1,0.55c-0.41,0-0.78-0.2-1-0.55L0.19,1.84
	C0.07,1.65,0,1.42,0,1.19z"/>
<text transform="matrix(1 0 0 1 683 384)" style="font-family:'MyriadPro-Regular'; font-size:12px;">caret-down</text>
<text transform="matrix(1 0 0 1 683 384)" style="font-family:'MyriadPro-Regular'; font-size:12px;">caret-down</text>
</svg>
