<svg xmlns="http://www.w3.org/2000/svg" xmlns:xlink="http://www.w3.org/1999/xlink" viewBox="0 0 47.5 47.5"><defs><style>.cls-1{fill:#ed232f;}.cls-2{fill:url(#linear-gradient);}.cls-3{fill:#fff;}</style><linearGradient id="linear-gradient" x1="569.76" y1="565.2" x2="595.76" y2="595.2" gradientTransform="translate(-562 -562)" gradientUnits="userSpaceOnUse"><stop offset="0" stop-color="#fbad18"/><stop offset="1" stop-color="#ed232f"/></linearGradient></defs><title>Asset 8</title><g id="Layer_2" data-name="Layer 2"><g id="Layer_1-2" data-name="Layer 1"><circle class="cls-1" cx="23.75" cy="23.75" r="23.75" transform="translate(-9.84 23.75) rotate(-45)"/><path class="cls-2" d="M11,32.25A23.65,23.65,0,0,0,15.37,46,23.75,23.75,0,0,0,43.13,10,23.77,23.77,0,0,0,11,32.25Z"/><path class="cls-3" d="M24.13,30a5.63,5.63,0,1,0-4-1.65A5.61,5.61,0,0,0,24.13,30Zm-1.42-7a2,2,0,1,1-.59,1.41A2,2,0,0,1,22.71,22.94Z"/><path class="cls-3" d="M30.76,32.29a1.81,1.81,0,0,0,2.57,0,11.23,11.23,0,0,0,0-15.9A1.81,1.81,0,1,0,30.77,19a7.6,7.6,0,0,1,0,10.76A1.8,1.8,0,0,0,30.76,32.29Z"/><path class="cls-3" d="M14.91,32.3a1.81,1.81,0,0,0,2.57,0,1.8,1.8,0,0,0,0-2.56,7.6,7.6,0,0,1,0-10.76,1.81,1.81,0,1,0-2.56-2.57,11.23,11.23,0,0,0,0,15.9Z"/><path class="cls-3" d="M39.33,24.35a15,15,0,0,1-4.45,10.72,1.82,1.82,0,1,0,2.56,2.58,18.78,18.78,0,0,0,0-26.6,1.82,1.82,0,0,0-2.56,2.58A15,15,0,0,1,39.33,24.35Z"/><path class="cls-3" d="M12.08,38.18a1.83,1.83,0,0,0,1.29-3.11,15.11,15.11,0,0,1,0-21.44,1.82,1.82,0,0,0-2.57-2.58,18.78,18.78,0,0,0,0,26.6A1.82,1.82,0,0,0,12.08,38.18Z"/></g></g></svg>