<?xml version="1.0" encoding="utf-8"?>
<!-- Generator: Adobe Illustrator 23.0.0, SVG Export Plug-In . SVG Version: 6.00 Build 0)  -->
<svg version="1.1" id="Layer_1" xmlns="http://www.w3.org/2000/svg" xmlns:xlink="http://www.w3.org/1999/xlink" x="0px" y="0px"
	 viewBox="0 0 47.5 47.5" style="enable-background:new 0 0 47.5 47.5;" xml:space="preserve">
<style type="text/css">
	.st0{fill:#ED232F;}
	.st1{fill:url(#XMLID_3_);}
	.st2{fill:#FFFFFF;}
</style>
<g id="XMLID_117_">
	
		<ellipse id="XMLID_135_" transform="matrix(0.7071 -0.7071 0.7071 0.7071 -9.8376 23.7501)" class="st0" cx="23.75" cy="23.75" rx="23.75" ry="23.75"/>
	
		<linearGradient id="XMLID_3_" gradientUnits="userSpaceOnUse" x1="2741.0056" y1="3680.3608" x2="2767.0056" y2="3710.3608" gradientTransform="matrix(-4.489700e-11 -1 1 -4.489700e-11 -3677.1594 2780.7478)">
		<stop  offset="0" style="stop-color:#FBAD18"/>
		<stop  offset="1" style="stop-color:#ED232F"/>
	</linearGradient>
	<path id="XMLID_118_" class="st1" d="M32.25,36.5c5.12,0,9.85-1.62,13.73-4.37c0.98-2.61,1.52-5.43,1.52-8.38
		C47.5,10.63,36.87,0,23.75,0c-5.12,0-9.85,1.62-13.73,4.37C9.04,6.98,8.5,9.8,8.5,12.75C8.5,25.87,19.13,36.5,32.25,36.5z"/>
</g>
<path id="XMLID_676_" class="st2" d="M10.5,31.53c-0.63,1.1-0.26,2.5,0.84,3.13c0.36,0.21,0.75,0.31,1.14,0.31
	c0.79,0,1.57-0.41,1.99-1.15l1.78-3.08h-5.3L10.5,31.53z M24.92,24.33h-4.96l3.54-6.13v0l1.39-2.41l2.93-5.08
	c0.21-0.36,0.32-0.77,0.31-1.18c0-0.19-0.03-0.37-0.08-0.56c-0.16-0.59-0.54-1.09-1.07-1.39c-1.1-0.63-2.5-0.26-3.13,0.84L23.5,9.01
	v0L23.15,8.4c-0.63-1.1-2.04-1.47-3.13-0.84h0c-1.1,0.63-1.47,2.04-0.84,3.13l1.68,2.91l-6.19,10.72h-4.51
	c-1.27,0-2.29,1.03-2.29,2.29c0,1.27,1.03,2.29,2.29,2.29h17.43l-0.15-0.25L24.92,24.33z M36.85,24.33h-4.51l-5.13-8.89l-2.65,4.59
	l7.97,13.8c0.31,0.53,0.8,0.91,1.39,1.07c0.2,0.05,0.4,0.08,0.6,0.08c0.4,0,0.79-0.1,1.14-0.31c1.1-0.63,1.47-2.04,0.84-3.13
	l-1.51-2.62h1.86c1.27,0,2.29-1.03,2.29-2.29C39.15,25.36,38.12,24.33,36.85,24.33z"/>
</svg>
