<?xml version="1.0" encoding="utf-8"?>
<!-- Generator: Adobe Illustrator 23.0.0, SVG Export Plug-In . SVG Version: 6.00 Build 0)  -->
<svg version="1.1" id="Layer_1" xmlns="http://www.w3.org/2000/svg" xmlns:xlink="http://www.w3.org/1999/xlink" x="0px" y="0px"
	 viewBox="0 0 33.5 33.5" style="enable-background:new 0 0 33.5 33.5;" xml:space="preserve">
<style type="text/css">
	.st0{fill:#ED232F;stroke:#ED232F;stroke-miterlimit:10;}
	.st1{fill:#FFFFFF;}
</style>
<circle id="XMLID_141_" class="st0" cx="16.75" cy="16.75" r="16.25"/>
<g id="XMLID_1725_">
	<path id="XMLID_1726_" class="st1" d="M22.47,7.19l3.02,3.02c0.24,0.24,0.35,0.54,0.35,0.85c0,0.31-0.12,0.62-0.35,0.85l-1.69,1.69
		l-4.73-4.73l1.69-1.69c0.24-0.24,0.55-0.35,0.85-0.35C21.92,6.84,22.23,6.95,22.47,7.19L22.47,7.19z M9.96,17.89l4.83,4.83
		L23,14.51l-0.78-0.78l-0.85-0.85l-1.56-1.56l-0.85-0.85l-0.78-0.78L9.96,17.89L9.96,17.89z M6.55,25.36l0.67-1.85l1.95,1.95
		l-1.85,0.67l0,0c-0.13,0.05-0.27,0.05-0.41,0C6.6,26.01,6.44,25.67,6.55,25.36L6.55,25.36z M7.68,22.25l1.27-3.5
		c0.01-0.04,0.03-0.08,0.05-0.12l5.04,5.04c-0.02,0.01-0.05,0.02-0.08,0.03L10.43,25L7.68,22.25z"/>
</g>
</svg>
