<?xml version="1.0" encoding="utf-8"?>
<!-- Generator: Adobe Illustrator 24.0.0, SVG Export Plug-In . SVG Version: 6.00 Build 0)  -->
<svg version="1.1" id="Layer_1" xmlns="http://www.w3.org/2000/svg" xmlns:xlink="http://www.w3.org/1999/xlink" x="0px" y="0px"
	 viewBox="0 0 78 78" style="enable-background:new 0 0 78 78;" xml:space="preserve">
<style type="text/css">
	.st0{opacity:0.5;fill:#FFFFFF;}
	.st1{fill:#FFFFFF;}
	.st2{fill:#ED232F;}
</style>
<g id="XMLID_112_">
	<circle id="XMLID_81_" class="st0" cx="39" cy="39" r="39"/>
	<circle id="XMLID_83_" class="st1" cx="39" cy="39" r="31"/>
	<path id="XMLID_82_" class="st2" d="M33.33,53.76c-0.6,0-1.19-0.15-1.72-0.44c-1.15-0.63-1.87-1.84-1.87-3.15V27.84
		c0-1.32,0.72-2.52,1.87-3.15c0.52-0.29,1.12-0.44,1.72-0.44c0.7,0,1.37,0.2,1.96,0.58l17.35,11.16c1.03,0.66,1.65,1.79,1.65,3.02
		c0,1.23-0.62,2.35-1.65,3.02L35.27,53.18C34.7,53.56,34.02,53.76,33.33,53.76z"/>
</g>
</svg>
