<?xml version="1.0" encoding="utf-8"?>
<!-- Generator: Adobe Illustrator 24.0.0, SVG Export Plug-In . SVG Version: 6.00 Build 0)  -->
<svg version="1.1" id="Layer_1" xmlns="http://www.w3.org/2000/svg" xmlns:xlink="http://www.w3.org/1999/xlink" x="0px" y="0px"
	 viewBox="0 0 597 597" style="enable-background:new 0 0 597 597;" xml:space="preserve">
<style type="text/css">
	.st0{clip-path:url(#SVGID_2_);}
	.st1{clip-path:url(#SVGID_4_);}
	.st2{fill:#012169;}
	.st3{stroke:#FFFFFF;stroke-width:120;stroke-miterlimit:80;}
	.st4{clip-path:url(#SVGID_6_);stroke:#C8102E;stroke-width:80;stroke-miterlimit:80;}
	.st5{stroke:#FFFFFF;stroke-width:200;stroke-miterlimit:80;}
	.st6{stroke:#C8102E;stroke-width:120;stroke-miterlimit:80;}
</style>
<g>
	<defs>
		<circle id="SVGID_1_" cx="298.5" cy="298.5" r="298.5"/>
	</defs>
	<clipPath id="SVGID_2_">
		<use xlink:href="#SVGID_1_"  style="overflow:visible;"/>
	</clipPath>
	<g class="st0">
		<g>
			<defs>
				<rect id="SVGID_3_" x="-282" y="-1.5" width="1200" height="600"/>
			</defs>
			<clipPath id="SVGID_4_">
				<use xlink:href="#SVGID_3_"  style="overflow:visible;"/>
			</clipPath>
			<g class="st1">
				<path class="st2" d="M-282-1.5v600H918v-600H-282z"/>
				<path class="st3" d="M-282-1.5l1200,600 M918-1.5l-1200,600"/>
				<g>
					<g>
						<defs>
							<polygon id="SVGID_5_" points="318,298.5 918,298.5 918,598.5 318,598.5 -282,598.5 -282,298.5 -282,-1.5 318,-1.5 918,-1.5 
															"/>
						</defs>
						<clipPath id="SVGID_6_">
							<use xlink:href="#SVGID_5_"  style="overflow:visible;"/>
						</clipPath>
						<path class="st4" d="M-282-1.5l1200,600 M918-1.5l-1200,600"/>
					</g>
				</g>
				<path class="st5" d="M318-1.5v600 M-282,298.5H918"/>
				<path class="st6" d="M318-1.5v600 M-282,298.5H918"/>
			</g>
		</g>
	</g>
</g>
</svg>
