<svg xmlns="http://www.w3.org/2000/svg" viewBox="0 0 39.31 39.31"><defs><style>.cls-1{fill:#fff;}.cls-2{fill:#ed232f;}</style></defs><title>Asset 6</title><g id="Layer_2" data-name="Layer 2"><g id="Layer_1-2" data-name="Layer 1"><circle class="cls-1" cx="19.65" cy="19.65" r="19.65" transform="translate(-8.14 19.65) rotate(-45)"/><path class="cls-2" d="M25.44,11.2a.32.32,0,0,1-.32.32H22.63a1.1,1.1,0,0,0-1.11,1.11v2.61h3.55a.31.31,0,0,1,.31.34l-.31,3.69a.32.32,0,0,1-.31.29H21.52V31.79a.31.31,0,0,1-.32.31H16.73a.31.31,0,0,1-.31-.31V19.56H14.18a.31.31,0,0,1-.31-.32V15.56a.31.31,0,0,1,.31-.32h2.24V11.69A4.49,4.49,0,0,1,20.9,7.2h4.22a.32.32,0,0,1,.32.32Z"/></g></g></svg>