<?xml version="1.0" encoding="utf-8"?>
<!-- Generator: Adobe Illustrator 23.0.0, SVG Export Plug-In . SVG Version: 6.00 Build 0)  -->
<svg version="1.1" id="Layer_1" xmlns="http://www.w3.org/2000/svg" xmlns:xlink="http://www.w3.org/1999/xlink" x="0px" y="0px"
	 viewBox="0 0 33.5 33.5" style="enable-background:new 0 0 33.5 33.5;" xml:space="preserve">
<style type="text/css">
	.st0{fill:#ED232F;}
	.st1{fill:#F3EA32;}
</style>
<g id="XMLID_174_">
	<circle class="st0" cx="16.75" cy="16.75" r="16.25"/>
	<path class="st0" d="M16.75,33.5C7.51,33.5,0,25.99,0,16.75C0,7.51,7.51,0,16.75,0C25.99,0,33.5,7.51,33.5,16.75
		C33.5,25.99,25.99,33.5,16.75,33.5z M16.75,1C8.07,1,1,8.07,1,16.75S8.07,32.5,16.75,32.5S32.5,25.43,32.5,16.75S25.43,1,16.75,1z"
		/>
</g>
<g id="XMLID_113_">
	<polygon class="st1" points="20.43,17.67 22.85,25.1 16.53,20.51 10.22,25.1 12.63,17.67 6.31,13.09 14.12,13.09 16.53,5.66 
		18.95,13.09 26.75,13.09 	"/>
</g>
</svg>
