<svg xmlns="http://www.w3.org/2000/svg" xmlns:xlink="http://www.w3.org/1999/xlink" viewBox="0 0 47.5 47.5"><defs><style>.cls-1{fill:#ed232f;}.cls-2{fill:url(#linear-gradient);}.cls-3{fill:#fff;}</style><linearGradient id="linear-gradient" x1="1497.75" y1="1985.11" x2="1523.75" y2="2015.11" gradientTransform="translate(-1981.91 1537.5) rotate(-90)" gradientUnits="userSpaceOnUse"><stop offset="0" stop-color="#fbad18"/><stop offset="1" stop-color="#ed232f"/></linearGradient></defs><title>Asset 6</title><g id="Layer_2" data-name="Layer 2"><g id="Layer_1-2" data-name="Layer 1"><circle class="cls-1" cx="23.75" cy="23.75" r="23.75" transform="translate(-9.84 23.75) rotate(-45)"/><path class="cls-2" d="M32.25,36.5A23.65,23.65,0,0,0,46,32.13,23.75,23.75,0,0,0,10,4.37,23.77,23.77,0,0,0,32.25,36.5Z"/><path class="cls-3" d="M16.74,36.1c-.57-.26-1.47-1-1.07-3.23L16.82,27l-5.11-3.86c-1-.91-1.36-1.75-1.15-2.59A2.24,2.24,0,0,1,12.41,19l6.79-.82,2-5.7a3.07,3.07,0,0,1,1.61-1.8,2,2,0,0,1,1.53.07,3.64,3.64,0,0,1,1.52,1.55l2.51,5.42,5.41.1a5.42,5.42,0,0,1,1.78.4,2.2,2.2,0,0,1,1.36,1.64c.21,1.3-.94,2.36-1.31,2.71l-4,3.69,1.64,5.37c.15.5.57,2.21-.53,3.18-.72.63-1.73.66-3,.08l-.59-.29L24.47,32l-5,3.48a3,3,0,0,1-2.77.59Z"/></g></g></svg>