<svg xmlns="http://www.w3.org/2000/svg" xmlns:xlink="http://www.w3.org/1999/xlink" viewBox="0 0 47.5 47.5"><defs><style>.cls-1{fill:#ed232f;}.cls-2{fill:url(#linear-gradient);}.cls-3{fill:#fff;}</style><linearGradient id="linear-gradient" x1="571.15" y1="1216.76" x2="597.15" y2="1246.76" gradientTransform="translate(-1213.6 610.9) rotate(-90)" gradientUnits="userSpaceOnUse"><stop offset="0" stop-color="#fbad18"/><stop offset="1" stop-color="#ed232f"/></linearGradient></defs><title>Asset 18</title><g id="Layer_2" data-name="Layer 2"><g id="Layer_1-2" data-name="Layer 1"><circle class="cls-1" cx="23.8" cy="23.8" r="23.7" transform="translate(-9.8 23.8) rotate(-45)"/><path class="cls-2" d="M32.3,36.5A23.3,23.3,0,0,0,46,32.1a23.1,23.1,0,0,0,1.5-8.3A23.7,23.7,0,0,0,23.8,0,23.4,23.4,0,0,0,10,4.4a23.2,23.2,0,0,0-1.5,8.4A23.7,23.7,0,0,0,32.3,36.5Z"/><path class="cls-3" d="M23.3,12.6a.9.9,0,0,1-.9-.9V9.2a.9.9,0,0,1,.9-1,1,1,0,0,1,1,1v2.5A1,1,0,0,1,23.3,12.6Z"/><path class="cls-3" d="M31.7,16.1a.9.9,0,0,1-.7-.3,1,1,0,0,1,0-1.4l1.7-1.7a1,1,0,0,1,1.4,0,.9.9,0,0,1,0,1.3l-1.8,1.8A.7.7,0,0,1,31.7,16.1Z"/><path class="cls-3" d="M37.6,24.4H35.1a.9.9,0,0,1-.9-.9.9.9,0,0,1,.9-1h2.5a1,1,0,0,1,1,1A1,1,0,0,1,37.6,24.4Z"/><path class="cls-3" d="M33.4,34.5a1,1,0,0,1-.7-.2L31,32.5a.9.9,0,0,1,1.3-1.3l1.8,1.7a1,1,0,0,1,0,1.4A.8.8,0,0,1,33.4,34.5Z"/><path class="cls-3" d="M13.2,34.5a.8.8,0,0,1-.7-.2,1,1,0,0,1,0-1.4l1.8-1.7a.9.9,0,0,1,1.3,1.3l-1.7,1.8A1,1,0,0,1,13.2,34.5Z"/><path class="cls-3" d="M11.5,24.4H9a1,1,0,0,1-1-.9,1,1,0,0,1,1-1h2.5a.9.9,0,0,1,.9,1A.9.9,0,0,1,11.5,24.4Z"/><path class="cls-3" d="M14.9,16.1a.9.9,0,0,1-.6-.3L12.5,14a.9.9,0,0,1,0-1.3,1,1,0,0,1,1.4,0l1.7,1.7a1,1,0,0,1,0,1.4A.9.9,0,0,1,14.9,16.1Z"/><path class="cls-3" d="M27.1,34.9v1.6a2.2,2.2,0,0,1-2.2,2.2H21.7c-1.1,0-2.2-.8-2.2-2.6V34.9Z"/><path class="cls-3" d="M28.9,16.6a8.9,8.9,0,0,0-14.3,5,9,9,0,0,0,3.4,9A3.9,3.9,0,0,1,19.4,33h7.8a4,4,0,0,1,1.6-2.5,8.9,8.9,0,0,0,.1-13.9Zm-.8,7.5a1,1,0,0,1-1-.9,3.4,3.4,0,0,0-3.5-3.5,1,1,0,0,1,0-2A5.5,5.5,0,0,1,29,23.2.9.9,0,0,1,28.1,24.1Z"/><path class="cls-3" d="M19.4,33h0Z"/><path class="cls-3" d="M27.2,33Z"/></g></g></svg>