<svg xmlns="http://www.w3.org/2000/svg" xmlns:xlink="http://www.w3.org/1999/xlink" viewBox="0 0 110 89.9"><defs><style>.cls-1{isolation:isolate;}.cls-2{fill:#fff;}.cls-3{fill:#fcd9b7;}.cls-4{fill:url(#radial-gradient);}.cls-5{fill:#e08e62;}.cls-6{opacity:0.33;fill:url(#linear-gradient);}.cls-14,.cls-23,.cls-31,.cls-32,.cls-42,.cls-6{mix-blend-mode:multiply;}.cls-7{fill:#eb2227;}.cls-8{fill:url(#linear-gradient-2);}.cls-9{fill:url(#radial-gradient-2);}.cls-10{fill:url(#radial-gradient-3);}.cls-11{fill:url(#linear-gradient-3);}.cls-12{fill:#603a17;}.cls-13{fill:url(#radial-gradient-4);}.cls-14,.cls-23,.cls-32,.cls-42{opacity:0.43;}.cls-14{fill:url(#radial-gradient-5);}.cls-15{fill:#49494b;}.cls-16{fill:url(#linear-gradient-4);}.cls-17{fill:#4e4c50;}.cls-18{fill:url(#linear-gradient-5);}.cls-19,.cls-20{opacity:0.78;}.cls-19{fill:url(#linear-gradient-6);}.cls-20{fill:url(#linear-gradient-7);}.cls-21{opacity:0.65;fill:url(#radial-gradient-6);}.cls-22{fill:url(#radial-gradient-7);}.cls-23{fill:url(#radial-gradient-8);}.cls-24{fill:url(#radial-gradient-9);}.cls-25,.cls-26{opacity:0.13;}.cls-25{fill:url(#linear-gradient-8);}.cls-26{fill:url(#linear-gradient-9);}.cls-27{fill:url(#radial-gradient-10);}.cls-28{fill:url(#radial-gradient-11);}.cls-29{fill:#341718;}.cls-30{fill:url(#radial-gradient-13);}.cls-31{fill:url(#radial-gradient-14);}.cls-32{fill:url(#linear-gradient-10);}.cls-33{opacity:0.9;fill:url(#linear-gradient-11);}.cls-34{opacity:0.42;fill:url(#linear-gradient-12);}.cls-35{opacity:0.27;fill:url(#linear-gradient-13);}.cls-36{fill:url(#linear-gradient-14);}.cls-37{fill:url(#linear-gradient-15);}.cls-38{fill:url(#linear-gradient-16);}.cls-39{fill:url(#linear-gradient-17);}.cls-40{fill:url(#radial-gradient-15);}.cls-41{opacity:0.88;fill:url(#linear-gradient-18);}.cls-42{fill:url(#radial-gradient-16);}.cls-43{fill:#ed232f;}</style><radialGradient id="radial-gradient" cx="202.66" cy="118.28" r="5.93" gradientTransform="matrix(0.08, 1, -0.59, 0.05, 94.59, -185.72)" gradientUnits="userSpaceOnUse"><stop offset="0.39" stop-color="#fff"/><stop offset="0.42" stop-color="#fffcf9"/><stop offset="0.57" stop-color="#feeddc"/><stop offset="0.72" stop-color="#fde2c8"/><stop offset="0.86" stop-color="#fcdbbb"/><stop offset="1" stop-color="#fcd9b7"/></radialGradient><linearGradient id="linear-gradient" x1="191.04" y1="118.68" x2="208.5" y2="118.68" gradientTransform="translate(-118.7 -149.8) rotate(16.8)" gradientUnits="userSpaceOnUse"><stop offset="0.63" stop-color="#fff" stop-opacity="0"/><stop offset="0.67" stop-color="#fef4f0" stop-opacity="0.06"/><stop offset="0.73" stop-color="#fcd8c9" stop-opacity="0.22"/><stop offset="0.81" stop-color="#f8ab8b" stop-opacity="0.48"/><stop offset="0.86" stop-color="#f68d62" stop-opacity="0.65"/><stop offset="0.87" stop-color="#ee885c" stop-opacity="0.69"/><stop offset="0.94" stop-color="#cb703e" stop-opacity="0.88"/><stop offset="1" stop-color="#bf6834" stop-opacity="0.95"/></linearGradient><linearGradient id="linear-gradient-2" x1="235.48" y1="122.64" x2="232.55" y2="130.02" gradientTransform="translate(-118.7 -149.8) rotate(16.8)" gradientUnits="userSpaceOnUse"><stop offset="0" stop-color="#a91f27"/><stop offset="0.17" stop-color="#ad1f27"/><stop offset="0.35" stop-color="#ba1f28"/><stop offset="0.54" stop-color="#ce2029"/><stop offset="0.58" stop-color="#d42029"/><stop offset="0.74" stop-color="#eb2227"/></linearGradient><radialGradient id="radial-gradient-2" cx="205.7" cy="106.58" r="19.5" gradientTransform="translate(-118.7 -149.8) rotate(16.8)" gradientUnits="userSpaceOnUse"><stop offset="0" stop-color="#fff"/><stop offset="0.04" stop-color="#fdedee"/><stop offset="0.18" stop-color="#f9b8b9"/><stop offset="0.32" stop-color="#f48a8d"/><stop offset="0.46" stop-color="#f16468"/><stop offset="0.6" stop-color="#ee474c"/><stop offset="0.74" stop-color="#ed3337"/><stop offset="0.87" stop-color="#eb262b"/><stop offset="1" stop-color="#eb2227"/></radialGradient><radialGradient id="radial-gradient-3" cx="210.58" cy="122.26" r="16.42" gradientTransform="translate(-118.7 -149.8) rotate(16.8)" xlink:href="#radial-gradient"/><linearGradient id="linear-gradient-3" x1="234.49" y1="111.14" x2="228.24" y2="111.99" gradientTransform="translate(-118.7 -149.8) rotate(16.8)" gradientUnits="userSpaceOnUse"><stop offset="0" stop-color="#ae1f28"/><stop offset="0.19" stop-color="#b21f28"/><stop offset="0.38" stop-color="#bf1f28"/><stop offset="0.57" stop-color="#d32029"/><stop offset="0.58" stop-color="#d42029"/><stop offset="0.74" stop-color="#eb2227"/></linearGradient><radialGradient id="radial-gradient-4" cx="238.72" cy="113.99" r="9.62" gradientTransform="translate(-118.7 -149.8) rotate(16.8)" xlink:href="#radial-gradient"/><radialGradient id="radial-gradient-5" cx="237.12" cy="115.94" r="9.34" gradientTransform="translate(-118.7 -149.8) rotate(16.8)" xlink:href="#linear-gradient"/><linearGradient id="linear-gradient-4" x1="208.5" y1="98.92" x2="235.34" y2="98.92" gradientTransform="translate(-118.7 -149.8) rotate(16.8)" gradientUnits="userSpaceOnUse"><stop offset="0" stop-color="#929497"/><stop offset="0.12" stop-color="#808284"/><stop offset="0.35" stop-color="#656567"/><stop offset="0.57" stop-color="#515153"/><stop offset="0.79" stop-color="#454546"/><stop offset="1" stop-color="#414142"/></linearGradient><linearGradient id="linear-gradient-5" x1="217.89" y1="101" x2="220.62" y2="102.64" gradientTransform="translate(-118.7 -149.8) rotate(16.8)" gradientUnits="userSpaceOnUse"><stop offset="0" stop-color="#fff"/><stop offset="0.05" stop-color="#eee"/><stop offset="0.21" stop-color="#c1c1c2"/><stop offset="0.38" stop-color="#9b9c9d"/><stop offset="0.54" stop-color="#7e7f81"/><stop offset="0.69" stop-color="#6a6b6c"/><stop offset="0.85" stop-color="#5d5e60"/><stop offset="1" stop-color="#595a5c"/></linearGradient><linearGradient id="linear-gradient-6" x1="228.93" y1="105.99" x2="234.34" y2="101.68" gradientTransform="translate(-118.7 -149.8) rotate(16.8)" gradientUnits="userSpaceOnUse"><stop offset="0" stop-color="#414142"/><stop offset="0.21" stop-color="#4a4a4b"/><stop offset="0.61" stop-color="#555658"/><stop offset="1" stop-color="#595a5c"/></linearGradient><linearGradient id="linear-gradient-7" x1="237.98" y1="105.16" x2="228.67" y2="100.98" xlink:href="#linear-gradient-6"/><radialGradient id="radial-gradient-6" cx="227.49" cy="142.63" r="5.1" gradientTransform="matrix(0.96, 0.29, -0.29, 0.95, -115.61, -158.88)" xlink:href="#radial-gradient"/><radialGradient id="radial-gradient-7" cx="1876.68" cy="-2667.03" r="5.1" gradientTransform="matrix(-0.59, -0.48, 0.39, -0.48, 2204, -336.49)" xlink:href="#radial-gradient"/><radialGradient id="radial-gradient-8" cx="216.9" cy="124.46" r="15.59" gradientTransform="matrix(0.96, 0.29, -0.29, 0.96, -118.69, -149.84)" xlink:href="#linear-gradient"/><radialGradient id="radial-gradient-9" cx="221.17" cy="120.83" r="3.41" gradientTransform="matrix(0.96, 0.29, -0.34, 1.12, -112.62, -169.95)" gradientUnits="userSpaceOnUse"><stop offset="0.81" stop-color="#fff"/><stop offset="0.84" stop-color="#f8f8f8"/><stop offset="0.92" stop-color="#ebebeb"/><stop offset="1" stop-color="#e7e7e7"/></radialGradient><linearGradient id="linear-gradient-8" x1="217.13" y1="120.07" x2="223.46" y2="120.07" gradientTransform="matrix(0.96, 0.29, -0.29, 0.96, -119.01, -150.33)" gradientUnits="userSpaceOnUse"><stop offset="0" stop-color="#914f37"/><stop offset="0.17" stop-color="#94533b"/><stop offset="0.34" stop-color="#9e6046"/><stop offset="0.51" stop-color="#ae745a"/><stop offset="0.69" stop-color="#c49175"/><stop offset="0.86" stop-color="#e1b697"/><stop offset="1" stop-color="#fcd9b7"/></linearGradient><linearGradient id="linear-gradient-9" x1="184.83" y1="481.83" x2="191.16" y2="481.83" gradientTransform="matrix(0.7, 0.44, -0.34, 0.78, 81.93, -432.79)" xlink:href="#linear-gradient-8"/><radialGradient id="radial-gradient-10" cx="-111.5" cy="92.24" r="3.41" gradientTransform="matrix(0.8, 0.1, -0.15, 1.01, 152.67, -56.02)" xlink:href="#radial-gradient-9"/><radialGradient id="radial-gradient-11" cx="-111.11" cy="92.72" r="2.41" gradientTransform="matrix(-0.31, 0.82, -0.56, -0.22, 67.68, 138.43)" gradientUnits="userSpaceOnUse"><stop offset="0.65" stop-color="#914f37"/><stop offset="0.71" stop-color="#763f2e"/><stop offset="0.78" stop-color="#592d24"/><stop offset="0.86" stop-color="#45211e"/><stop offset="0.93" stop-color="#381a19"/><stop offset="1" stop-color="#341718"/></radialGradient><radialGradient id="radial-gradient-13" cx="221.56" cy="121.31" r="2.41" gradientTransform="matrix(-0.5, 0.86, -0.65, -0.38, 248.56, -115.16)" xlink:href="#radial-gradient-11"/><radialGradient id="radial-gradient-14" cx="221.63" cy="98.44" r="19.22" gradientTransform="translate(-118.7 -149.8) rotate(16.8)" gradientUnits="userSpaceOnUse"><stop offset="0" stop-color="#fff" stop-opacity="0"/><stop offset="0.16" stop-color="#f3f3f4" stop-opacity="0.09"/><stop offset="0.47" stop-color="#d4d5d6" stop-opacity="0.32"/><stop offset="0.86" stop-color="#a6a8ac" stop-opacity="0.65"/><stop offset="0.87" stop-color="#97999c" stop-opacity="0.68"/><stop offset="0.9" stop-color="#656466" stop-opacity="0.8"/><stop offset="0.94" stop-color="#403e3f" stop-opacity="0.88"/><stop offset="0.97" stop-color="#2a2728" stop-opacity="0.93"/><stop offset="1" stop-color="#231f20" stop-opacity="0.95"/></radialGradient><linearGradient id="linear-gradient-10" x1="235.2" y1="116.19" x2="242.57" y2="116.19" xlink:href="#linear-gradient"/><linearGradient id="linear-gradient-11" x1="88.24" y1="-22.6" x2="92.83" y2="-22.6" gradientTransform="matrix(0.99, 0.14, -0.14, 0.99, -46.26, 39)" xlink:href="#radial-gradient"/><linearGradient id="linear-gradient-12" x1="239.1" y1="122.75" x2="238.7" y2="125.55" gradientTransform="translate(-118.7 -149.8) rotate(16.8)" gradientUnits="userSpaceOnUse"><stop offset="0.39" stop-color="#fff"/><stop offset="0.41" stop-color="#fffcfa"/><stop offset="0.53" stop-color="#fde5d5"/><stop offset="0.65" stop-color="#fcd3b8"/><stop offset="0.77" stop-color="#fbc6a4"/><stop offset="0.89" stop-color="#fabf97"/><stop offset="1" stop-color="#fabc93"/></linearGradient><linearGradient id="linear-gradient-13" x1="539.57" y1="376.06" x2="540.08" y2="378" gradientTransform="matrix(0.84, 0.58, -0.57, 0.82, -190.48, -583.46)" xlink:href="#linear-gradient-8"/><linearGradient id="linear-gradient-14" x1="233.08" y1="103.1" x2="236.19" y2="103.1" gradientTransform="translate(-118.7 -149.8) rotate(16.8)" gradientUnits="userSpaceOnUse"><stop offset="0" stop-color="#fecf0a"/><stop offset="0.18" stop-color="#fcbd11"/><stop offset="0.46" stop-color="#f9a919"/><stop offset="0.73" stop-color="#f89c1e"/><stop offset="1" stop-color="#f79820"/></linearGradient><linearGradient id="linear-gradient-15" x1="236.37" y1="107.15" x2="237.97" y2="106.26" xlink:href="#linear-gradient-14"/><linearGradient id="linear-gradient-16" x1="236.27" y1="109.71" x2="240.41" y2="109.71" gradientTransform="translate(-118.7 -149.8) rotate(16.8)" gradientUnits="userSpaceOnUse"><stop offset="0.01" stop-color="#fff"/><stop offset="0.32" stop-color="#fecf0a"/><stop offset="0.44" stop-color="#fcbd11"/><stop offset="0.63" stop-color="#f9a919"/><stop offset="0.82" stop-color="#f89c1e"/><stop offset="1" stop-color="#f79820"/></linearGradient><linearGradient id="linear-gradient-17" x1="235.49" y1="107.61" x2="237.15" y2="107.61" gradientTransform="translate(-118.7 -149.8) rotate(16.8)" gradientUnits="userSpaceOnUse"><stop offset="0" stop-color="#fff"/><stop offset="0.09" stop-color="#fff6d5"/><stop offset="0.22" stop-color="#ffeba0"/><stop offset="0.36" stop-color="#ffe172"/><stop offset="0.49" stop-color="#ffd94d"/><stop offset="0.62" stop-color="#ffd32f"/><stop offset="0.75" stop-color="#ffcf1b"/><stop offset="0.88" stop-color="#ffcc0e"/><stop offset="1" stop-color="#ffcb0a"/></linearGradient><radialGradient id="radial-gradient-15" cx="237.48" cy="109.87" r="5.78" gradientTransform="translate(-118.7 -149.8) rotate(16.8)" gradientUnits="userSpaceOnUse"><stop offset="0.1" stop-color="#fff"/><stop offset="0.14" stop-color="#fff6d5"/><stop offset="0.18" stop-color="#ffeba0"/><stop offset="0.23" stop-color="#ffe172"/><stop offset="0.28" stop-color="#ffd94d"/><stop offset="0.33" stop-color="#ffd32f"/><stop offset="0.38" stop-color="#ffcf1b"/><stop offset="0.42" stop-color="#ffcc0e"/><stop offset="0.47" stop-color="#ffcb0a"/></radialGradient><linearGradient id="linear-gradient-18" x1="233.22" y1="102.26" x2="234.7" y2="102.26" xlink:href="#linear-gradient-17"/><radialGradient id="radial-gradient-16" cx="236.28" cy="109.43" r="3.44" gradientTransform="translate(-118.7 -149.8) rotate(16.8)" gradientUnits="userSpaceOnUse"><stop offset="0.63" stop-color="#fff" stop-opacity="0"/><stop offset="0.67" stop-color="#fef4ea" stop-opacity="0.06"/><stop offset="0.73" stop-color="#fcd7b3" stop-opacity="0.22"/><stop offset="0.81" stop-color="#f8a95a" stop-opacity="0.48"/><stop offset="0.86" stop-color="#f68a20" stop-opacity="0.65"/><stop offset="0.9" stop-color="#f47722" stop-opacity="0.77"/><stop offset="0.93" stop-color="#f26724" stop-opacity="0.87"/><stop offset="0.97" stop-color="#f15d25" stop-opacity="0.93"/><stop offset="1" stop-color="#f15a25" stop-opacity="0.95"/></radialGradient></defs><title>Asset 1</title><g class="cls-1"><g id="Layer_2" data-name="Layer 2"><g id="Layer_1-2" data-name="Layer 1"><path class="cls-2" d="M56.7,49.1H53.8l-.9-.2h-.4l-.9-.2h-.4L50,48.2a20.1,20.1,0,0,1-10.5-6.6.1.1,0,0,0-.1-.1h0A9.7,9.7,0,0,1,37.9,39h-.6l-.2-.2c-.1,0-.1-.1-.2-.2l-.3-.2a.2.2,0,0,1-.2-.2l-.3-.3-.3-.4a.8.8,0,0,1-.2-.4l-.2-.3a1.9,1.9,0,0,1-.2-.7.3.3,0,0,0-.1-.2h0a6.3,6.3,0,0,1,.3-2.7l.2-.4a.3.3,0,0,0,.1-.2v-.6h0V31a.6.6,0,0,0,.1-.4.3.3,0,0,1,.1-.2,1.4,1.4,0,0,1,.2-.7l.4-.7h.1l.4-.6h.1c0-.1.1-.1.2-.2l.4-.3h0a11.5,11.5,0,0,1-.9-9.2h0a8.4,8.4,0,0,1,7.5-5.7h1l-.4-1a4.1,4.1,0,0,1,1.2-4.1,3.9,3.9,0,0,1,1.1-.6,3.7,3.7,0,0,1,1.5-.3h.9l.3-.3.3-.2h0l.9-.4h.1l-.4-.5-.2-.2a3,3,0,0,1-.3-3.4A3.1,3.1,0,0,1,53.2,0h0c2.5.1,18.2,4.4,18.3,4.4a6.1,6.1,0,0,1,2.9,2c.3.4,1,1.1,2.8,3.5l1,1.2c0,.1.1.1.1.2l.4.5h.1l.9,1.2h.1l4.7,6.1a3.3,3.3,0,0,1,.4,3.3,9.4,9.4,0,0,1,2.5,7.2h0c0,.2-.1.5-.1.7v.2c-.1.2-.1.4-.2.5v.2a6.4,6.4,0,0,1-.2.7h0A15.4,15.4,0,0,1,80.5,40h-.4A16.1,16.1,0,0,1,72.6,42h-1l-.9,1h-.1l-.8.9h-.2l-.8.6-.2.2-.4.3-.4.3-.5.3-.4.3-.4.3-.5.2-.3.2-.6.3h0a31.2,31.2,0,0,1-3.9,1.5l-1.4.3h-.5Z"/><path class="cls-3" d="M44.4,16l1.6.2a7.6,7.6,0,0,1,2.3,1.3h0c2.5,2.1,3.9,6.1,3.9,9.3,0,0-3.3.1-4.4,5.1-2.1-.3-4.5-2-6.3-4.1s-2.3-6.3-1.7-8.1A5.2,5.2,0,0,1,44.4,16Z"/><path class="cls-4" d="M42.5,28.3c-2.3-3.5-2.3-6.3-1.7-8.2a5.2,5.2,0,0,1,4.6-3.6l1.5.2.6.2L46,16.2,44.4,16a5.2,5.2,0,0,0-4.6,3.7c-.6,1.8-.6,4.6,1.7,8.1a12.4,12.4,0,0,0,4.7,3.6A11,11,0,0,1,42.5,28.3Z"/><path class="cls-5" d="M46.1,26.7s.7-.1.6-1-.5-1.7.2-1.8,2.2.8,1.3-1.4-4.1-4.3-5.5-2.7S42.9,27,46.1,26.7Z"/><path class="cls-6" d="M44.4,16l1.6.2a7.6,7.6,0,0,1,2.3,1.3h0c2.5,2.1,3.9,6.1,3.9,9.3,0,0-3.3.1-4.4,5.1-2.1-.3-4.5-2-6.3-4.1s-2.3-6.3-1.7-8.1A5.2,5.2,0,0,1,44.4,16Z"/><path class="cls-7" d="M66.4,14.6c-3.4-1.8-6.1-2.5-9-2.3h0A2.5,2.5,0,0,1,54.7,11c-.6-.9-2.3-3-3.2-1.4S53.6,13,53.6,13l-.8-.4a14.3,14.3,0,0,1-2.2-1.5c-.9-.9-1.9-1.4-2.4-.9s-.2,2.6,3.3,3.4h-.3a.1.1,0,0,1-.1.1l-1.6.9h-.1A13.6,13.6,0,0,0,46,18.2a12.3,12.3,0,0,0-1.2,2.6,14.6,14.6,0,0,0-.7,7.5h0c-1.6.5-2.8,2.7-2.8,2.7s-1.7-1.3-2.2,0,.7,2.7.7,2.7a1.1,1.1,0,0,0-1.4.4c-.7,2,1.8,2.3,1.8,2.3C43.1,43.6,50.7,45,50.7,45a21.3,21.3,0,0,0,8.3.7h1.1c3.5-.8,7.7-3,11.5-8.5l.6-1C75.4,29.5,74.7,19,66.4,14.6Z"/><path class="cls-8" d="M63.7,44.1a20.7,20.7,0,0,0,6.9-5.8V34.6s-2.8,6.4-6.3,8.8A2.2,2.2,0,0,0,63.7,44.1Z"/><path class="cls-9" d="M41.7,30.4a1.5,1.5,0,0,1,.6.4s1.2-2.2,2.8-2.7h0a15.9,15.9,0,0,1,.6-7.5A21,21,0,0,1,47,18a13.6,13.6,0,0,1,3.4-3.4h.1l1.6-.9h.4c-3.3-.8-3.8-2.7-3.4-3.3s-.7-.1-.9.1-.2,2.6,3.3,3.4h-.3a.1.1,0,0,1-.1.1l-1.6.9h-.1A13.6,13.6,0,0,0,46,18.2a12.3,12.3,0,0,0-1.2,2.6,14.6,14.6,0,0,0-.7,7.5h0A6.2,6.2,0,0,0,41.7,30.4ZM60,45.5a21,21,0,0,1-8.3-.7s-7.6-1.4-10.5-8.6c0,0-2.6-.3-1.8-2.3l.3-.2a1.1,1.1,0,0,0-1.3.4c-.7,2,1.8,2.3,1.8,2.3C43.1,43.6,50.7,45,50.7,45a21.3,21.3,0,0,0,8.3.7h1ZM51.6,10.9a10.7,10.7,0,0,0,2.2,1.5l.7.4s-2.9-1.9-2-3.4l.2-.3a.9.9,0,0,0-1.2.5,1.3,1.3,0,0,0,0,1.2ZM39.7,33.6a1,1,0,0,1,1.1-.1s-1.3-1.4-.7-2.7a.5.5,0,0,1,.2-.4,1,1,0,0,0-1.2.6A2.7,2.7,0,0,0,39.7,33.6Z"/><path class="cls-3" d="M64.5,31.7c.3-1,3.9-7.5-2.3-10.5-3.8-1.8-6.2-.8-7.4.3h0c-1.1.7-1.4,0-1.4,0a4.1,4.1,0,0,0-2.2-2.8c-1.1-.6-3-.4-4.5,2.6a21.3,21.3,0,0,0-1.6,6.8h-.6c-1.8.3-3.2,2.8-3.2,2.8s-1.7-1.3-2.2,0,.7,2.7.7,2.7a1.1,1.1,0,0,0-1.4.4c-.7,2,1.8,2.3,1.8,2.3C43.1,43.6,50.7,45,50.7,45c11.7,2.8,14.7-2.3,15.9-6.1S64.5,31.7,64.5,31.7Z"/><path class="cls-10" d="M62.2,21.2c-3.8-1.8-6.2-.8-7.4.3h0l-.6.3c.1.2.1.4.2.6s.3.8,1.3.1h0c1.3-1.1,3.7-2,7.5-.1a6.7,6.7,0,0,1,2,1.6A5.5,5.5,0,0,0,62.2,21.2Zm3.1,11.4c-.1.2-.2.3-.2.4a7.9,7.9,0,0,1,1.4,2.1A9.7,9.7,0,0,0,65.3,32.6ZM40.4,36.8A12,12,0,0,0,42,39.5a9,9,0,0,1-1.3-2.6Zm6.3-15.5a21.3,21.3,0,0,0-1.6,6.8h-.6c-1.8.3-3.2,2.8-3.2,2.8s-1.7-1.3-2.2,0,.7,2.7.7,2.7a1.1,1.1,0,0,0-1.4.4A1.4,1.4,0,0,0,39,36a1.4,1.4,0,0,1,0-1.4,1.1,1.1,0,0,1,1.4-.4s-1.3-1.5-.7-2.7,1.5-.2,1.6.1,1.9-2.7,3.9-2.7h.6A22.3,22.3,0,0,1,47.7,22c1.6-2.9,3.5-3,4.5-2.5l.3.2a3.8,3.8,0,0,0-1.3-1C50.1,18.1,48.2,18.3,46.7,21.3Z"/><path class="cls-11" d="M73.9,27c-.3-4.5-2.2-9.1-6.6-11.8-1.4.2-2.7,1.2-.8,2.9,5.4,4.8,1.3,13.4,1.3,13.4S72,27.9,73.9,27Z"/><path class="cls-3" d="M81.1,23.8a4.8,4.8,0,0,0-1.7-.5,5.7,5.7,0,0,0-2.9.2h-.1c-3.5,1-6.8,4.5-8.2,7.8,0,0,3.4,1.6,2.2,7.2,2.3.7,5.6.1,8.3-1.3s5.3-5.4,5.5-7.6A5.9,5.9,0,0,0,81.1,23.8Z"/><path class="cls-5" d="M74.5,34a.9.9,0,0,1-.2-1.3c.5-.8,1.3-1.5.7-1.9s-2.7-.3-.7-2.1,6.1-2.5,6.8-.2S77.7,35.7,74.5,34Z"/><path class="cls-12" d="M77.3,31.4a7.9,7.9,0,0,1-2,2.9l-.8-.3a.9.9,0,0,1-.2-1.3c.5-.8,1.3-1.5.7-1.9s-2.7-.3-.7-2.1l1.3-.9C76.8,28.2,78.2,29.2,77.3,31.4Z"/><path class="cls-13" d="M76,24.9h0a7.6,7.6,0,0,1,3-.1,5.3,5.3,0,0,1,1.7.4,5.8,5.8,0,0,1,3,5.8,2.8,2.8,0,0,1-.1.9,11.2,11.2,0,0,0,.6-2.3,5.9,5.9,0,0,0-3.1-5.8,4.8,4.8,0,0,0-1.7-.5,5.7,5.7,0,0,0-2.9.2h-.1c-3.5,1-6.8,4.5-8.2,7.8l.2.2C70.1,28.6,72.9,25.8,76,24.9Z"/><path class="cls-14" d="M81.1,23.8a4.8,4.8,0,0,0-1.7-.5,5.7,5.7,0,0,0-2.9.2h-.1c-3.5,1-6.8,4.5-8.2,7.8,0,0,3.4,1.6,2.2,7.2,2.3.7,5.6.1,8.3-1.3s5.3-5.4,5.5-7.6A5.9,5.9,0,0,0,81.1,23.8Z"/><path class="cls-15" d="M53.2,3.2a43.6,43.6,0,0,0,10.3,9,92.3,92.3,0,0,0,18.4,9.1S73.4,10,71.9,8.5a3.1,3.1,0,0,0-1.3-1C70,7.3,54.9,3.3,53.2,3.2Z"/><path class="cls-16" d="M69.7,8.4s6.2,5.7,7.6,7.3.1,0-.1-.6c-2.3-2.9-4.6-5.9-5.3-6.6a3.1,3.1,0,0,0-1.3-1C70,7.3,54.9,3.3,53.2,3.2a39.4,39.4,0,0,0,3.3,3.5l.3.2-.9-1.7C55.8,5,66.2,7.5,69.7,8.4Z"/><path class="cls-17" d="M62.5,9l-5.9,3.3s1.4,3.9,6.6,6.2a23.7,23.7,0,0,0,9.1,2.2l.8-5.7S68.9,9.8,62.5,9Z"/><path class="cls-18" d="M70.8,13.1a8.4,8.4,0,0,0-1.3-1.2,15,15,0,0,0-7-2.9l-5.9,3.3a11.1,11.1,0,0,0,2.9,3.9h.2l-1.4-3.1,4.3-2.5A17.7,17.7,0,0,1,70.8,13.1Z"/><path class="cls-19" d="M72.3,20.7l.8-5.7a16.4,16.4,0,0,0-1.8-1.7h-.1L69.1,18c-.8,1.8-3.4,1.5-3.4,1.5l2.2.7,1.3.2A11.8,11.8,0,0,0,72.3,20.7Z"/><path class="cls-20" d="M73.4,14.9l3.8.8,3.9,5a78.9,78.9,0,0,1-8-3.5Z"/><path class="cls-21" d="M65.9,38.8S64.6,45,57.3,45A13.1,13.1,0,0,0,65.9,38.8Z"/><path class="cls-22" d="M56.6,34.7s2.4-3.4,7.1-1A11.6,11.6,0,0,0,56.6,34.7Z"/><path class="cls-23" d="M64.5,31.7c.3-1,3.9-7.5-2.3-10.5-3.8-1.8-6.2-.8-7.4.3h0c-1.1.7-1.4,0-1.4,0a4.1,4.1,0,0,0-2.2-2.8c-1.1-.6-3-.4-4.5,2.6a21.3,21.3,0,0,0-1.6,6.8h-.6c-1.8.3-3.2,2.8-3.2,2.8s-1.7-1.3-2.2,0,.7,2.7.7,2.7a1.1,1.1,0,0,0-1.4.4c-.7,2,1.8,2.3,1.8,2.3C43.1,43.6,50.7,45,50.7,45c11.7,2.8,14.7-2.3,15.9-6.1S64.5,31.7,64.5,31.7Z"/><path class="cls-12" d="M60.3,23.4a2.1,2.1,0,0,0-1.4-.7,1.5,1.5,0,0,0-1.3.6h-.1c-.1.5.3.8.5.5a1.9,1.9,0,0,1,.9-.3,1.1,1.1,0,0,1,1,.5H60a.9.9,0,0,1,.3.5.1.1,0,0,0,.2,0A1.8,1.8,0,0,0,60.3,23.4Z"/><path class="cls-12" d="M49.3,21.1a1.2,1.2,0,0,1,1.3-.1,1.1,1.1,0,0,1,.8,1h0c-.1.5-.5.6-.6.3a1.5,1.5,0,0,0-.5-.6.8.8,0,0,0-1,0h-.1l-.4.3c-.1.1-.2-.1-.2-.1A2,2,0,0,1,49.3,21.1Z"/><path class="cls-24" d="M60.5,30.6A3.4,3.4,0,0,1,56.4,33c-1.5-.6-2.1-2.6-1.4-4.5s2.6-2.9,4.1-2.3A3.2,3.2,0,0,1,60.5,30.6Z"/><path class="cls-25" d="M60.7,30.6c-.8,2-2.7,3.1-4.4,2.5s-2.3-2.8-1.5-4.7,2.7-3.1,4.4-2.5S61.5,28.7,60.7,30.6Z"/><path class="cls-26" d="M51.4,28.2c-.9,1.6-2.5,2.1-3.7,1.3s-1.4-2.9-.6-4.5,2.5-2.1,3.7-1.2S52.2,26.6,51.4,28.2Z"/><path class="cls-27" d="M51.6,27.2c-.4,1.7-1.8,2.9-3.1,2.6s-2-1.9-1.6-3.6,1.7-2.9,3-2.6S52,25.5,51.6,27.2Z"/><path class="cls-28" d="M50.9,27.6c-.3.8-1,1.3-1.6,1.1a1.5,1.5,0,0,1-.6-1.9,1.4,1.4,0,0,1,1.6-1.1A1.5,1.5,0,0,1,50.9,27.6Z"/><path class="cls-29" d="M50.6,27.6a1.1,1.1,0,0,1-1.2.9,1.1,1.1,0,0,1-.5-1.4c.2-.6.8-1,1.2-.9A1.1,1.1,0,0,1,50.6,27.6Z"/><path class="cls-2" d="M49.6,26.8a.4.4,0,0,1-.5.2c-.2-.1-.2-.4-.1-.6a.4.4,0,0,1,.5-.2C49.7,26.3,49.7,26.5,49.6,26.8Z"/><path class="cls-2" d="M50.3,28.3a.2.2,0,0,1-.3.1c-.2,0-.2-.2-.1-.4l.4-.2A.4.4,0,0,1,50.3,28.3Z"/><path class="cls-12" d="M52.7,34.5c.2-.4.6-1,.2-1.2s-.9.5-1.2.9Z"/><path class="cls-12" d="M49.2,33.4c0-.5.1-1.2.6-1.1s.4.9.4,1.4Z"/><path class="cls-24" d="M60.5,30.6A3.4,3.4,0,0,1,56.4,33c-1.5-.6-2.1-2.6-1.4-4.5s2.6-2.9,4.1-2.3A3.2,3.2,0,0,1,60.5,30.6Z"/><path class="cls-30" d="M59.7,31a1.7,1.7,0,0,1-2.2.9,1.7,1.7,0,0,1-.4-2.3,1.6,1.6,0,0,1,2.1-.9A1.8,1.8,0,0,1,59.7,31Z"/><path class="cls-29" d="M59.4,30.9a1.2,1.2,0,0,1-1.6.7,1.2,1.2,0,0,1-.3-1.7,1.2,1.2,0,0,1,1.6-.7A1.2,1.2,0,0,1,59.4,30.9Z"/><path class="cls-2" d="M58.2,29.7a.5.5,0,0,1-.6.2.6.6,0,0,1-.1-.7.5.5,0,0,1,.7-.1C58.4,29.2,58.4,29.5,58.2,29.7Z"/><path class="cls-2" d="M58.9,31.6c-.2.2-.4.2-.5.1a.3.3,0,0,1,0-.5.4.4,0,0,1,.5-.1A.4.4,0,0,1,58.9,31.6Z"/><path class="cls-31" d="M81.9,21.3S73.4,10,71.9,8.5a3.1,3.1,0,0,0-1.3-1C70,7.3,54.9,3.3,53.2,3.2a47.9,47.9,0,0,0,7.3,7l-3.9,2.1s1.4,3.9,6.6,6.2a23.7,23.7,0,0,0,9.1,2.2l.5-3.3A80.3,80.3,0,0,0,81.9,21.3Z"/><path class="cls-32" d="M74.5,34a.9.9,0,0,1-.2-1.3c.5-.8,1.3-1.5.7-1.9s-2.7-.3-.7-2.1,6.1-2.5,6.8-.2S77.7,35.7,74.5,34Z"/><path class="cls-33" d="M48.7,30.9c-1.6-1.9-2.3-2-3.4-2.3h0l-.9.4C46.5,28.9,48.7,30.9,48.7,30.9Z"/><path class="cls-34" d="M71.6,37.2a1.5,1.5,0,0,1-.2.9,9,9,0,0,0,6.4-1.6A15.4,15.4,0,0,1,71.6,37.2Z"/><path class="cls-35" d="M40.5,34.4s6.6,7.6,15.3,5.4C55.8,39.8,47,40.1,40.5,34.4Z"/><path class="cls-36" d="M75.6,13.1c-.2,2.6-.2,5.5.5,6.9h.6s-.8-1.2-.5-6.3Z"/><path class="cls-37" d="M75.8,22.7l-.3-2.2s.1-.5.3-.5l.8-.5s.5-.2.7.1a13,13,0,0,0,1,1.8s0,.4-.2.5S76,23,75.8,22.7Z"/><path class="cls-38" d="M76,22.7l-.2,3a3.2,3.2,0,0,0,2.2.1c1.1-.4,1.9-1,1.8-1.3l-1.7-2.6Z"/><polygon class="cls-39" points="75.7 20 76.8 22.1 75.9 22.5 75.6 20.4 75.7 20"/><path class="cls-40" d="M76.6,25.9h.5l-.5-3Zm1.1,0h.6l-1.2-2.7Zm.4-3.3L79.2,25v.2l.5-.4Zm.5,2.9.5-.2-1.5-2.4Z"/><path class="cls-41" d="M75.7,13.2a20.6,20.6,0,0,0,.1,4.9,38.8,38.8,0,0,1,.1-4.6Z"/><path class="cls-42" d="M79.8,24.5l-1.7-2.6c.2-.1.2-.5.2-.5a13,13,0,0,1-1-1.8c-.2-.3-.7-.1-.7-.1l-.8.5c-.2,0-.3.5-.3.5l.3,2.2H76l-.2,3a3.2,3.2,0,0,0,2.2.1C79.1,25.4,79.9,24.8,79.8,24.5Z"/><path class="cls-12" d="M62.1,38.2a19.4,19.4,0,0,1-11.5,1l-1.7-.5h0l-2.4-.8h0l-1-.4c0-.1-.1-.1-.2-.1a19.3,19.3,0,0,1-5.6-3.9h-.1a16.1,16.1,0,0,0,6,4.3h.2l.9.4h.1l2.3.9h0l1.6.4A18.1,18.1,0,0,0,62,38.5a.2.2,0,0,0,.1-.3Z"/><path class="cls-12" d="M62.1,36.9s-1.3,1.8,1.1,2.4A2.2,2.2,0,0,1,62.1,36.9Z"/><path class="cls-2" d="M106.2,74.6c0,.2-.2.3-.4.3a.3.3,0,0,1-.3-.3v-2H105a.3.3,0,0,1-.3-.3c0-.2.1-.4.3-.4h1.7c.2,0,.3.2.3.4a.3.3,0,0,1-.3.3h-.5Z"/><path class="cls-2" d="M108.2,74.1l-.3-.5v1c0,.2-.2.3-.4.3a.3.3,0,0,1-.3-.3V72.2c0-.1.1-.3.2-.3l.2.2,1,1.5.9-1.5.2-.2a.3.3,0,0,1,.3.3v2.4a.3.3,0,0,1-.3.3c-.2,0-.4-.1-.4-.3v-1l-.3.5a.5.5,0,0,1-.4.2Z"/><path class="cls-43" d="M30.5,69.7v-.2h-.1v-.2h-.2a21,21,0,0,1-1.5-2.2h-.1L28,65.4h0l-.2-.3c-.3-.9-.7-1.7-.9-2.4a34.3,34.3,0,0,1-1.1-5.3h0a3.2,3.2,0,0,1-.1-.8c-.1-.4-.1-.7-.2-1-.4-2.2-1.3-3.4-2.7-3.7h-.5c-1.1,0-2.3.8-3.4,2.4a25.4,25.4,0,0,0-2.5,5.3l-1.5,3.9c0,.1-.2.5-.5.5s-.4-.1-.5-.6a13.6,13.6,0,0,1-.4-1.7c0-.1-.7-3.9-1.7-10.5q-.7-5.6-4.2-5.7c-2.8,0-5.1,3.8-6.6,11.3-2.5,11.6.5,19,.6,19.3a1.8,1.8,0,0,0,1.5,1.2H4a2,2,0,0,0,1.1-2.5c-.1,0-2.7-6.8-.5-17.2a25.7,25.7,0,0,1,2.3-7.1c.2-.2.3-.3.5-.3s.5.4.5.6a3.6,3.6,0,0,1,.2,1.1c1.1,6.6,1.7,10.4,1.7,10.5.5,3,1.7,6.6,4.2,6.9h.3c2.4,0,3.6-3.2,4.1-4.4l1.5-4a16.3,16.3,0,0,1,1.3-2.9c.1-.3.3-.5.5-.5s.3.2.4.6v.6h0a29.8,29.8,0,0,0,2,7.3c.1,0,.1.1.1.2h0l.5,1.1c.7,1.4,1.7,3.4,2.8,4.2h0l.4.3h.7A1.8,1.8,0,0,0,30.5,70v-.2Zm7.8-13.5a7.9,7.9,0,1,0,7.9,7.9A7.9,7.9,0,0,0,38.3,56.2Zm3.3,9.2a11.4,11.4,0,0,1-3.3,2.7h0A11.4,11.4,0,0,1,35,65.4c-1.7-2-.7-4.4,1-4.3a2.7,2.7,0,0,1,2.3,1.6h0a2.7,2.7,0,0,1,2.3-1.6C42.3,61,43.3,63.4,41.6,65.4ZM91.9,68a2.7,2.7,0,0,0-.7-1.4l-.9-.5h-.5a2,2,0,0,0-1.4.6,3.6,3.6,0,0,1-2.8,1.2h-.8a3.7,3.7,0,0,1-2.4-1.7,3.7,3.7,0,0,1-.4-2.9,3.6,3.6,0,0,1,3.6-2.9h.9l1.4.6c.1.1.4.5.3.8s-1.1.8-2.7.9h-.3a1.3,1.3,0,0,0-1,1.3,1.3,1.3,0,0,0,1.3,1.3h.2c.3,0,6.8-.4,6.9-3.4h0a5,5,0,0,0-.2-1.7c-.1,0-.1-.1-.1-.2v-.2h-.1l-.2-.3h-.1a7.6,7.6,0,0,0-4.4-2.9l-1.8-.2A7.9,7.9,0,0,0,78,62.3a8.4,8.4,0,0,0,1,6,7.9,7.9,0,0,0,4.9,3.5l1.7.2a7.7,7.7,0,0,0,5.7-2.5A2,2,0,0,0,91.9,68Zm16.4-11.8h-.4a2,2,0,0,0-1.8,1.7,18.6,18.6,0,0,1-3.6,8l-.3.5-.3.3-.2-.4a28.4,28.4,0,0,0-4.9-9.4,2.1,2.1,0,0,0-1.5-.7,1.6,1.6,0,0,0-1.2.4,1.7,1.7,0,0,0-.7,1.3,1.5,1.5,0,0,0,.4,1.4A27.2,27.2,0,0,1,98.5,69v.9l-.5.4h-.2a26.5,26.5,0,0,1-10.1,4.4,2.4,2.4,0,0,0-1.3.9,2.5,2.5,0,0,0-.2,1.5,1.9,1.9,0,0,0,1.9,1.5h.5C107.9,74.2,109.9,59,110,58.4A2,2,0,0,0,108.3,56.2ZM71.4,63.4l.2-.2a22.6,22.6,0,0,1,4.8-3.5,1.9,1.9,0,0,0,.8-2.6,1.9,1.9,0,0,0-1.7-1l-1,.2A27.4,27.4,0,0,0,68.3,61h-.1l-.4.2V58.2a2,2,0,1,0-3.9,0V70a1.9,1.9,0,0,0,1.9,1.9,1.9,1.9,0,0,0,2-1.9V66.3h.8l6.8,6.5a2.4,2.4,0,0,0,1.4.5,2,2,0,0,0,1.4-.6,2.4,2.4,0,0,0,.5-1.4,2,2,0,0,0-.6-1.4ZM59.8,56.2a2,2,0,0,0-2,2v7.5l-.5-.8-4.2-6.8a3.6,3.6,0,0,0-2.8-1.9h-.6c-1.9.6-1.9,2.7-1.9,4.1V70a1.9,1.9,0,0,0,2,1.9A1.8,1.8,0,0,0,51.7,70V63.3l.5.8,3.1,5c1.2,1.9,2.5,2.8,3.7,2.8h.7c1.3-.4,2-1.7,2.1-3.8V58.2A2,2,0,0,0,59.8,56.2Z"/><path class="cls-2" d="M28.6,88.3a1.2,1.2,0,0,1,1.2-1.2h.4a3.5,3.5,0,0,0,1.5.3,1.3,1.3,0,0,0,1.5-1.3V80.7a1.3,1.3,0,0,1,2.6,0v5.4c0,3.3-2.6,3.8-3.9,3.8a6,6,0,0,1-2.7-.5A1.1,1.1,0,0,1,28.6,88.3Z"/><path class="cls-2" d="M45.9,85.1c0,4.1-2.3,4.8-4.2,4.8h-.1c-1.9,0-4.2-.7-4.2-4.8V80.7a1.2,1.2,0,0,1,1.2-1.2,1.2,1.2,0,0,1,1.3,1.2v4.4c0,1.9.8,2.4,1.7,2.4s1.8-.5,1.8-2.4V80.7a1.2,1.2,0,0,1,1.2-1.2,1.2,1.2,0,0,1,1.3,1.2Z"/><path class="cls-2" d="M50,84.1v4.5a1.2,1.2,0,0,1-1.2,1.2,1.2,1.2,0,0,1-1.3-1.2V81A1.5,1.5,0,0,1,49,79.5a1.5,1.5,0,0,1,1.3.6l3.5,5V80.7a1.3,1.3,0,0,1,2.6,0v7.6a1.5,1.5,0,0,1-1.5,1.5,1.6,1.6,0,0,1-1.3-.6Z"/><path class="cls-2" d="M58.2,84a1.3,1.3,0,0,1,2.6,0v4.6a1.3,1.3,0,0,1-2.6,0Z"/><path class="cls-2" d="M62.1,84.5a5,5,0,1,1,10,0c0,4.4-3.1,5.4-5,5.4S62.1,88.9,62.1,84.5Zm7.4.1c0-2.2-1.3-2.8-2.4-2.8s-2.5.6-2.5,2.8,1.5,2.9,2.5,2.9S69.5,87,69.5,84.6Z"/><path class="cls-2" d="M78.5,87.8c-.3-.8-.7-1.2-1.1-1.2H75.9v2a1.2,1.2,0,0,1-1.2,1.2,1.2,1.2,0,0,1-1.3-1.2V80.7a1.2,1.2,0,0,1,1.3-1.2H78A3.3,3.3,0,0,1,81.4,83,2.5,2.5,0,0,1,80,85.5a5.2,5.2,0,0,1,1,1.8l.2.8a.9.9,0,0,1,.1.5A1.2,1.2,0,0,1,80,89.8a1.1,1.1,0,0,1-1.1-.8Zm-.6-3.7c.4,0,1,0,1-1.1a1,1,0,0,0-1-1.1h-2v2.2Z"/><path class="cls-2" d="M58,82.3c-.1,0-.3-.2-.2-.6l.3-1.1-.9-.8c-.2-.2-.3-.4-.2-.5a.3.3,0,0,1,.3-.3h1.4l.4-1.1.3-.3h.3l.3.3.4,1.1h1.4a.5.5,0,0,1,.3.4.9.9,0,0,1-.3.5l-.8.7.2,1a.5.5,0,0,1-.1.6h-.7l-.8-.5-1,.6a.6.6,0,0,1-.6.1Z"/></g></g></g></svg>