<svg xmlns="http://www.w3.org/2000/svg" viewBox="0 0 47.5 47.5"><defs><style>.cls-1{fill:#ed232f;}.cls-2{fill:#fff;}</style></defs><title>Asset 2</title><g id="Layer_2" data-name="Layer 2"><g id="Layer_1-2" data-name="Layer 1"><circle class="cls-1" cx="23.75" cy="23.75" r="23.75" transform="translate(-9.84 23.75) rotate(-45)"/><path class="cls-2" d="M23,30.55l-.62,2.24a10.83,10.83,0,0,1-7-7l2.23-.61V18.39H9.33v4.13a16.3,16.3,0,0,0,16.31,16.3h4.13V30.55Z"/><path class="cls-2" d="M33.8,14.35a14.35,14.35,0,0,0-20.27,0l1.19,1.19a12.65,12.65,0,1,1,17.89,17.9l1.19,1.18a14.33,14.33,0,0,0,0-20.27Z"/><polygon class="cls-2" points="22.34 24.55 22.34 22.87 25.7 22.87 25.7 17.83 20.66 17.83 20.66 19.51 24.03 19.51 24.03 21.19 20.66 21.19 20.66 26.23 25.71 26.23 25.71 24.55 22.34 24.55"/><polygon class="cls-2" points="30.75 17.83 30.75 21.19 29.07 21.19 29.07 17.83 27.39 17.83 27.39 22.87 30.75 22.87 30.75 26.23 32.43 26.23 32.43 17.83 30.75 17.83"/></g></g></svg>