<svg xmlns="http://www.w3.org/2000/svg" xmlns:xlink="http://www.w3.org/1999/xlink" viewBox="0 0 110 87.99"><defs><style>.cls-1{isolation:isolate;}.cls-2{fill:#fff;}.cls-3{fill:#fcd9b7;}.cls-4{fill:url(#radial-gradient);}.cls-5{fill:#e08e62;}.cls-6{opacity:0.33;fill:url(#linear-gradient);}.cls-14,.cls-23,.cls-31,.cls-32,.cls-42,.cls-6{mix-blend-mode:multiply;}.cls-7{fill:#eb2227;}.cls-8{fill:url(#linear-gradient-2);}.cls-9{fill:url(#radial-gradient-2);}.cls-10{fill:url(#radial-gradient-3);}.cls-11{fill:url(#linear-gradient-3);}.cls-12{fill:#603a17;}.cls-13{fill:url(#radial-gradient-4);}.cls-14,.cls-23,.cls-32,.cls-42{opacity:0.43;}.cls-14{fill:url(#radial-gradient-5);}.cls-15{fill:#49494b;}.cls-16{fill:url(#linear-gradient-4);}.cls-17{fill:#4e4c50;}.cls-18{fill:url(#linear-gradient-5);}.cls-19,.cls-20{opacity:0.78;}.cls-19{fill:url(#linear-gradient-6);}.cls-20{fill:url(#linear-gradient-7);}.cls-21{opacity:0.65;fill:url(#radial-gradient-6);}.cls-22{fill:url(#radial-gradient-7);}.cls-23{fill:url(#radial-gradient-8);}.cls-24{fill:url(#radial-gradient-9);}.cls-25,.cls-26{opacity:0.13;}.cls-25{fill:url(#linear-gradient-8);}.cls-26{fill:url(#linear-gradient-9);}.cls-27{fill:url(#radial-gradient-10);}.cls-28{fill:url(#radial-gradient-11);}.cls-29{fill:#341718;}.cls-30{fill:url(#radial-gradient-13);}.cls-31{fill:url(#radial-gradient-14);}.cls-32{fill:url(#linear-gradient-10);}.cls-33{opacity:0.9;fill:url(#linear-gradient-11);}.cls-34{opacity:0.42;fill:url(#linear-gradient-12);}.cls-35{opacity:0.27;fill:url(#linear-gradient-13);}.cls-36{fill:url(#linear-gradient-14);}.cls-37{fill:url(#linear-gradient-15);}.cls-38{fill:url(#linear-gradient-16);}.cls-39{fill:url(#linear-gradient-17);}.cls-40{fill:url(#radial-gradient-15);}.cls-41{opacity:0.88;fill:url(#linear-gradient-18);}.cls-42{fill:url(#radial-gradient-16);}.cls-43{fill:#ed232f;}</style><radialGradient id="radial-gradient" cx="-180.34" cy="90.63" r="5.93" gradientTransform="matrix(0.08, 1, -0.59, 0.05, 109.23, 197.36)" gradientUnits="userSpaceOnUse"><stop offset="0.39" stop-color="#fff"/><stop offset="0.42" stop-color="#fffcf9"/><stop offset="0.57" stop-color="#feeddc"/><stop offset="0.72" stop-color="#fde2c8"/><stop offset="0.86" stop-color="#fcdbbb"/><stop offset="1" stop-color="#fcd9b7"/></radialGradient><linearGradient id="linear-gradient" x1="-191.96" y1="91.03" x2="-174.5" y2="91.03" gradientTransform="translate(240.01 -12.72) rotate(16.79)" gradientUnits="userSpaceOnUse"><stop offset="0.63" stop-color="#fff" stop-opacity="0"/><stop offset="0.67" stop-color="#fef4f0" stop-opacity="0.06"/><stop offset="0.73" stop-color="#fcd8c9" stop-opacity="0.22"/><stop offset="0.81" stop-color="#f8ab8b" stop-opacity="0.48"/><stop offset="0.86" stop-color="#f68d62" stop-opacity="0.65"/><stop offset="0.87" stop-color="#ee885c" stop-opacity="0.69"/><stop offset="0.94" stop-color="#cb703e" stop-opacity="0.88"/><stop offset="1" stop-color="#bf6834" stop-opacity="0.95"/></linearGradient><linearGradient id="linear-gradient-2" x1="-147.53" y1="95" x2="-150.45" y2="102.37" gradientTransform="translate(240.01 -12.72) rotate(16.79)" gradientUnits="userSpaceOnUse"><stop offset="0" stop-color="#a91f27"/><stop offset="0.17" stop-color="#ad1f27"/><stop offset="0.35" stop-color="#ba1f28"/><stop offset="0.54" stop-color="#ce2029"/><stop offset="0.58" stop-color="#d42029"/><stop offset="0.74" stop-color="#eb2227"/></linearGradient><radialGradient id="radial-gradient-2" cx="-177.31" cy="78.93" r="19.5" gradientTransform="translate(240.01 -12.72) rotate(16.79)" gradientUnits="userSpaceOnUse"><stop offset="0" stop-color="#fff"/><stop offset="0.04" stop-color="#fdedee"/><stop offset="0.18" stop-color="#f9b8b9"/><stop offset="0.32" stop-color="#f48a8d"/><stop offset="0.46" stop-color="#f16468"/><stop offset="0.6" stop-color="#ee474c"/><stop offset="0.74" stop-color="#ed3337"/><stop offset="0.87" stop-color="#eb262b"/><stop offset="1" stop-color="#eb2227"/></radialGradient><radialGradient id="radial-gradient-3" cx="-172.42" cy="94.61" r="16.42" gradientTransform="translate(240.01 -12.72) rotate(16.79)" xlink:href="#radial-gradient"/><linearGradient id="linear-gradient-3" x1="-148.52" y1="83.49" x2="-154.76" y2="84.34" gradientTransform="translate(240.01 -12.72) rotate(16.79)" gradientUnits="userSpaceOnUse"><stop offset="0" stop-color="#ae1f28"/><stop offset="0.19" stop-color="#b21f28"/><stop offset="0.38" stop-color="#bf1f28"/><stop offset="0.57" stop-color="#d32029"/><stop offset="0.58" stop-color="#d42029"/><stop offset="0.74" stop-color="#eb2227"/></linearGradient><radialGradient id="radial-gradient-4" cx="-144.29" cy="86.34" r="9.62" gradientTransform="translate(240.01 -12.72) rotate(16.79)" xlink:href="#radial-gradient"/><radialGradient id="radial-gradient-5" cx="-145.88" cy="88.3" r="9.34" gradientTransform="translate(240.01 -12.72) rotate(16.79)" xlink:href="#linear-gradient"/><linearGradient id="linear-gradient-4" x1="-174.51" y1="71.27" x2="-147.67" y2="71.27" gradientTransform="translate(240.01 -12.72) rotate(16.79)" gradientUnits="userSpaceOnUse"><stop offset="0" stop-color="#929497"/><stop offset="0.12" stop-color="#808284"/><stop offset="0.35" stop-color="#656567"/><stop offset="0.57" stop-color="#515153"/><stop offset="0.79" stop-color="#454546"/><stop offset="1" stop-color="#414142"/></linearGradient><linearGradient id="linear-gradient-5" x1="-165.11" y1="73.35" x2="-162.38" y2="74.99" gradientTransform="translate(240.01 -12.72) rotate(16.79)" gradientUnits="userSpaceOnUse"><stop offset="0" stop-color="#fff"/><stop offset="0.05" stop-color="#eee"/><stop offset="0.21" stop-color="#c1c1c2"/><stop offset="0.38" stop-color="#9b9c9d"/><stop offset="0.54" stop-color="#7e7f81"/><stop offset="0.69" stop-color="#6a6b6c"/><stop offset="0.85" stop-color="#5d5e60"/><stop offset="1" stop-color="#595a5c"/></linearGradient><linearGradient id="linear-gradient-6" x1="-154.08" y1="78.34" x2="-148.66" y2="74.03" gradientTransform="translate(240.01 -12.72) rotate(16.79)" gradientUnits="userSpaceOnUse"><stop offset="0" stop-color="#414142"/><stop offset="0.21" stop-color="#4a4a4b"/><stop offset="0.61" stop-color="#555658"/><stop offset="1" stop-color="#595a5c"/></linearGradient><linearGradient id="linear-gradient-7" x1="-145.03" y1="77.51" x2="-154.33" y2="73.33" xlink:href="#linear-gradient-6"/><radialGradient id="radial-gradient-6" cx="-155.47" cy="100" r="5.1" gradientTransform="matrix(0.96, 0.29, -0.29, 0.95, 239.23, -9.15)" xlink:href="#radial-gradient"/><radialGradient id="radial-gradient-7" cx="2360.62" cy="532.24" r="5.1" gradientTransform="matrix(-0.59, -0.48, 0.39, -0.48, 1252.43, 1423.32)" xlink:href="#radial-gradient"/><radialGradient id="radial-gradient-8" cx="-166.1" cy="96.81" r="15.59" gradientTransform="matrix(0.96, 0.29, -0.29, 0.96, 240.39, -13.99)" xlink:href="#linear-gradient"/><radialGradient id="radial-gradient-9" cx="-161.84" cy="93.18" r="3.41" gradientTransform="matrix(0.96, 0.29, -0.34, 1.12, 244.69, -28.23)" gradientUnits="userSpaceOnUse"><stop offset="0.81" stop-color="#fff"/><stop offset="0.84" stop-color="#f8f8f8"/><stop offset="0.92" stop-color="#ebebeb"/><stop offset="1" stop-color="#e7e7e7"/></radialGradient><linearGradient id="linear-gradient-8" x1="-162.01" y1="97.05" x2="-155.68" y2="97.05" gradientTransform="matrix(0.96, 0.29, -0.29, 0.96, 237.93, -17.38)" gradientUnits="userSpaceOnUse"><stop offset="0" stop-color="#914f37"/><stop offset="0.17" stop-color="#94533b"/><stop offset="0.34" stop-color="#9e6046"/><stop offset="0.51" stop-color="#ae745a"/><stop offset="0.69" stop-color="#c49175"/><stop offset="0.86" stop-color="#e1b697"/><stop offset="1" stop-color="#fcd9b7"/></linearGradient><linearGradient id="linear-gradient-9" x1="-409.14" y1="295.58" x2="-402.81" y2="295.58" gradientTransform="matrix(0.7, 0.44, -0.34, 0.78, 434.46, -23.33)" xlink:href="#linear-gradient-8"/><radialGradient id="radial-gradient-10" cx="-274.35" cy="-124.94" r="3.41" gradientTransform="matrix(0.8, 0.1, -0.15, 1.01, 251.86, 179.59)" xlink:href="#radial-gradient-9"/><radialGradient id="radial-gradient-11" cx="-273.96" cy="-124.46" r="2.41" gradientTransform="matrix(-0.31, 0.82, -0.56, -0.22, -104.94, 223.56)" gradientUnits="userSpaceOnUse"><stop offset="0.65" stop-color="#914f37"/><stop offset="0.71" stop-color="#763f2e"/><stop offset="0.78" stop-color="#592d24"/><stop offset="0.86" stop-color="#45211e"/><stop offset="0.93" stop-color="#381a19"/><stop offset="1" stop-color="#341718"/></radialGradient><radialGradient id="radial-gradient-13" cx="-161.45" cy="93.66" r="2.41" gradientTransform="matrix(-0.5, 0.86, -0.65, -0.38, 37.4, 205.06)" xlink:href="#radial-gradient-11"/><radialGradient id="radial-gradient-14" cx="-161.37" cy="70.8" r="19.22" gradientTransform="translate(240.01 -12.72) rotate(16.79)" gradientUnits="userSpaceOnUse"><stop offset="0" stop-color="#fff" stop-opacity="0"/><stop offset="0.16" stop-color="#f3f3f4" stop-opacity="0.09"/><stop offset="0.47" stop-color="#d4d5d6" stop-opacity="0.32"/><stop offset="0.86" stop-color="#a6a8ac" stop-opacity="0.65"/><stop offset="0.87" stop-color="#97999c" stop-opacity="0.68"/><stop offset="0.9" stop-color="#656466" stop-opacity="0.8"/><stop offset="0.94" stop-color="#403e3f" stop-opacity="0.88"/><stop offset="0.97" stop-color="#2a2728" stop-opacity="0.93"/><stop offset="1" stop-color="#231f20" stop-opacity="0.95"/></radialGradient><linearGradient id="linear-gradient-10" x1="-147.8" y1="88.54" x2="-140.44" y2="88.54" xlink:href="#linear-gradient"/><linearGradient id="linear-gradient-11" x1="-99.98" y1="-50.39" x2="-95.39" y2="-50.39" gradientTransform="matrix(0.99, 0.14, -0.14, 0.99, 135.98, 93.65)" xlink:href="#radial-gradient"/><linearGradient id="linear-gradient-12" x1="-143.9" y1="95.11" x2="-144.31" y2="97.9" gradientTransform="translate(240.01 -12.72) rotate(16.79)" gradientUnits="userSpaceOnUse"><stop offset="0.39" stop-color="#fff"/><stop offset="0.41" stop-color="#fffcfa"/><stop offset="0.53" stop-color="#fde5d5"/><stop offset="0.65" stop-color="#fcd3b8"/><stop offset="0.77" stop-color="#fbc6a4"/><stop offset="0.89" stop-color="#fabf97"/><stop offset="1" stop-color="#fabc93"/></linearGradient><linearGradient id="linear-gradient-13" x1="-232.09" y1="441.65" x2="-231.58" y2="443.58" gradientTransform="matrix(0.84, 0.58, -0.57, 0.82, 493.24, -190.47)" xlink:href="#linear-gradient-8"/><linearGradient id="linear-gradient-14" x1="-149.92" y1="75.45" x2="-146.81" y2="75.45" gradientTransform="translate(240.01 -12.72) rotate(16.79)" gradientUnits="userSpaceOnUse"><stop offset="0" stop-color="#fecf0a"/><stop offset="0.18" stop-color="#fcbd11"/><stop offset="0.46" stop-color="#f9a919"/><stop offset="0.73" stop-color="#f89c1e"/><stop offset="1" stop-color="#f79820"/></linearGradient><linearGradient id="linear-gradient-15" x1="-146.63" y1="79.5" x2="-145.03" y2="78.61" xlink:href="#linear-gradient-14"/><linearGradient id="linear-gradient-16" x1="-146.73" y1="82.06" x2="-142.6" y2="82.06" gradientTransform="translate(240.01 -12.72) rotate(16.79)" gradientUnits="userSpaceOnUse"><stop offset="0.01" stop-color="#fff"/><stop offset="0.32" stop-color="#fecf0a"/><stop offset="0.44" stop-color="#fcbd11"/><stop offset="0.63" stop-color="#f9a919"/><stop offset="0.82" stop-color="#f89c1e"/><stop offset="1" stop-color="#f79820"/></linearGradient><linearGradient id="linear-gradient-17" x1="-147.51" y1="79.96" x2="-145.85" y2="79.96" gradientTransform="translate(240.01 -12.72) rotate(16.79)" gradientUnits="userSpaceOnUse"><stop offset="0" stop-color="#fff"/><stop offset="0.09" stop-color="#fff6d5"/><stop offset="0.22" stop-color="#ffeba0"/><stop offset="0.36" stop-color="#ffe172"/><stop offset="0.49" stop-color="#ffd94d"/><stop offset="0.62" stop-color="#ffd32f"/><stop offset="0.75" stop-color="#ffcf1b"/><stop offset="0.88" stop-color="#ffcc0e"/><stop offset="1" stop-color="#ffcb0a"/></linearGradient><radialGradient id="radial-gradient-15" cx="-145.53" cy="82.22" r="5.78" gradientTransform="translate(240.01 -12.72) rotate(16.79)" gradientUnits="userSpaceOnUse"><stop offset="0.1" stop-color="#fff"/><stop offset="0.14" stop-color="#fff6d5"/><stop offset="0.18" stop-color="#ffeba0"/><stop offset="0.23" stop-color="#ffe172"/><stop offset="0.28" stop-color="#ffd94d"/><stop offset="0.33" stop-color="#ffd32f"/><stop offset="0.38" stop-color="#ffcf1b"/><stop offset="0.42" stop-color="#ffcc0e"/><stop offset="0.47" stop-color="#ffcb0a"/></radialGradient><linearGradient id="linear-gradient-18" x1="-149.78" y1="74.61" x2="-148.31" y2="74.61" xlink:href="#linear-gradient-17"/><radialGradient id="radial-gradient-16" cx="-146.73" cy="81.78" r="3.44" gradientTransform="translate(240.01 -12.72) rotate(16.79)" gradientUnits="userSpaceOnUse"><stop offset="0.63" stop-color="#fff" stop-opacity="0"/><stop offset="0.67" stop-color="#fef4ea" stop-opacity="0.06"/><stop offset="0.73" stop-color="#fcd7b3" stop-opacity="0.22"/><stop offset="0.81" stop-color="#f8a95a" stop-opacity="0.48"/><stop offset="0.86" stop-color="#f68a20" stop-opacity="0.65"/><stop offset="0.9" stop-color="#f47722" stop-opacity="0.77"/><stop offset="0.93" stop-color="#f26724" stop-opacity="0.87"/><stop offset="0.97" stop-color="#f15d25" stop-opacity="0.93"/><stop offset="1" stop-color="#f15a25" stop-opacity="0.95"/></radialGradient></defs><title>Asset 3</title><g class="cls-1"><g id="Layer_2" data-name="Layer 2"><g id="Layer_1-2" data-name="Layer 1"><path class="cls-2" d="M53.75,85.9c-.31-.9-.67-1.26-1.11-1.26H51.13v2a1.33,1.33,0,1,1-2.66,0V78.51a1.33,1.33,0,0,1,1.32-1.33h3.47a3.48,3.48,0,0,1,3.61,3.66,2.65,2.65,0,0,1-1.49,2.62,4.78,4.78,0,0,1,1,1.93l.28.79a1.71,1.71,0,0,1,.09.51A1.31,1.31,0,0,1,55.4,88a1.27,1.27,0,0,1-1.23-.86Zm-.55-3.85c.42,0,1-.07,1-1.15,0-.92-.55-1.14-1-1.14H51.13v2.29Z"/><path class="cls-2" d="M23,79.83c-.69,0-1.73.14-1.73.59,0,1,5.61.9,5.61,4.24,0,2.46-2,3.27-4.46,3.27a5.42,5.42,0,0,1-2.88-.74A1.48,1.48,0,0,1,18.87,86c0-.6.32-1.08.85-1.08a1.11,1.11,0,0,1,.39.07,5.21,5.21,0,0,0,2.12.5c.44,0,2.05,0,2.05-.62,0-1.2-5.62-1-5.62-4.35,0-2.5,2.07-3.19,4.23-3.19a7.76,7.76,0,0,1,2.17.29,1.28,1.28,0,0,1,1,1.41c0,.52-.2,1.2-.85,1.2A11.92,11.92,0,0,0,23,79.83Z"/><path class="cls-2" d="M30.38,79.88h-1.5a1.25,1.25,0,1,1,0-2.49h5.59a1.25,1.25,0,1,1,0,2.49H33v6.67a1.29,1.29,0,0,1-2.57,0Z"/><path class="cls-2" d="M36.61,82.47a4.82,4.82,0,0,1,5-5.19,4.81,4.81,0,0,1,5,5.19c0,4.46-3.11,5.46-5,5.46S36.61,86.93,36.61,82.47Zm7.48,0c0-2.18-1.27-2.74-2.47-2.74s-2.44.56-2.44,2.74c0,2.46,1.5,2.92,2.44,2.92S44.09,85,44.09,82.52Z"/><path class="cls-2" d="M58.6,82a1.28,1.28,0,0,1,1.27-1.29A1.3,1.3,0,0,1,61.16,82v4.59a1.3,1.3,0,0,1-1.29,1.29,1.28,1.28,0,0,1-1.27-1.29Z"/><path class="cls-2" d="M62.75,78.68A1.27,1.27,0,0,1,64,77.39h4.81a1.25,1.25,0,1,1,0,2.49h-3.5v1.67H68a1.27,1.27,0,0,1,0,2.53H65.32v1.25h3.5a1.27,1.27,0,0,1,1.26,1.26,1.25,1.25,0,0,1-1.26,1.24H64a1.27,1.27,0,0,1-1.26-1.29Z"/><path class="cls-2" d="M75.44,79.83c-.69,0-1.74.14-1.74.59,0,1,5.61.9,5.61,4.24,0,2.46-2,3.27-4.46,3.27A5.42,5.42,0,0,1,72,87.19,1.48,1.48,0,0,1,71.26,86c0-.6.32-1.08.85-1.08a1,1,0,0,1,.39.07,5.21,5.21,0,0,0,2.12.5c.45,0,2.06,0,2.06-.62,0-1.2-5.63-1-5.63-4.35,0-2.5,2.07-3.19,4.23-3.19a7.7,7.7,0,0,1,2.17.29,1.27,1.27,0,0,1,1,1.41c0,.52-.19,1.2-.85,1.2A12,12,0,0,0,75.44,79.83Z"/><path class="cls-2" d="M58.53,80.05c-.11-.06-.28-.21-.18-.64l.28-1.12-1-.79a.54.54,0,0,1-.2-.51.45.45,0,0,1,.38-.29l1.32-.09.44-1.09a.58.58,0,0,1,.33-.33.33.33,0,0,1,.29,0,.66.66,0,0,1,.28.32L61,76.6l1,.07a1.48,1.48,0,0,1,.34.1.44.44,0,0,1,.25.33.68.68,0,0,1-.28.51l-.81.68.27,1.06a.61.61,0,0,1-.14.61.51.51,0,0,1-.58,0l-.11-.06-.88-.54-1,.62a.57.57,0,0,1-.54.09Z"/><path class="cls-2" d="M56.69,49.05c-.49,0-1,0-1.54,0h-.1l-1-.09-.27,0-.91-.13-.34-.05-.93-.17-.34-.06L50,48.19A19.39,19.39,0,0,1,39.51,41.6l-.07-.09,0-.07A16.87,16.87,0,0,1,37.86,39l-.36-.19-.17-.09-.21-.14-.25-.17-.25-.22a1.94,1.94,0,0,1-.26-.23c-.11-.11-.19-.21-.28-.31l-.26-.34a3.45,3.45,0,0,1-.24-.41,3.15,3.15,0,0,1-.17-.36,3.51,3.51,0,0,1-.22-.67c0-.06,0-.12,0-.18v0a5,5,0,0,1,.3-2.73c.06-.13.12-.27.19-.39l.12-.2c0-.18,0-.35,0-.52v-.12c0-.17,0-.33,0-.5s0-.13,0-.18a4.64,4.64,0,0,1,.09-.46c0-.07,0-.13,0-.2a4.43,4.43,0,0,1,.25-.68,3.64,3.64,0,0,1,.38-.7.43.43,0,0,0,0-.07.18.18,0,0,0,.05-.07,4.65,4.65,0,0,1,.45-.53l0,0,.23-.2a3.21,3.21,0,0,1,.43-.33h0a11.5,11.5,0,0,1-1-9.17.19.19,0,0,1,0-.07,8.49,8.49,0,0,1,7.5-5.76h.22l.76.05a5.1,5.1,0,0,1-.35-1,4.11,4.11,0,0,1,1.16-4.11,3.74,3.74,0,0,1,1.09-.66,3.84,3.84,0,0,1,1.51-.3,3.77,3.77,0,0,1,.88.1q.18-.17.36-.3l.26-.18,0,0A3.84,3.84,0,0,1,51.07,6l.14,0-.42-.49-.19-.24A3.23,3.23,0,0,1,53.15,0h.08c2.48.06,18.16,4.37,18.31,4.41a6.19,6.19,0,0,1,2.82,2c.35.37,1,1.17,2.86,3.5l1,1.27.12.15.38.49.12.15.88,1.13.06.08c2.39,3.1,4.7,6.14,4.73,6.17a3.24,3.24,0,0,1,.37,3.29,9.33,9.33,0,0,1,2.51,7.19v.09c0,.23,0,.46-.09.7l0,.17c0,.21-.07.4-.11.58l-.05.2q-.07.32-.18.63a.74.74,0,0,1,0,.14c-.95,2.93-3.11,5.5-6.43,7.65a2.48,2.48,0,0,1-.31.18,17.4,17.4,0,0,1-7.55,1.91h0c-.31,0-.63,0-.93,0-.32.34-.64.68-1,1l0,0c-.29.29-.59.56-.89.82l-.14.12c-.26.23-.52.44-.78.65l-.2.16-.42.32-.38.27-.52.36-.38.24-.46.29-.46.26-.32.18-.55.29-.08,0a20.23,20.23,0,0,1-3.86,1.45,14.24,14.24,0,0,1-1.44.32l-.14,0-.35.05A19.54,19.54,0,0,1,56.69,49.05Z"/><path class="cls-3" d="M44.41,16a6.85,6.85,0,0,1,1.55.24,6,6,0,0,1,2.34,1.22h0c2.51,2.09,3.91,6.11,3.89,9.34,0,0-3.32.09-4.38,5.05-2.15-.25-4.56-1.92-6.31-4-2.33-3.56-2.33-6.29-1.69-8.19A5.28,5.28,0,0,1,44.41,16Z"/><path class="cls-4" d="M42.49,28.32c-2.34-3.57-2.34-6.3-1.69-8.19a5.22,5.22,0,0,1,4.59-3.65,6.33,6.33,0,0,1,1.55.24,5.6,5.6,0,0,1,.54.17A5.86,5.86,0,0,0,46,16.24,6.85,6.85,0,0,0,44.41,16a5.28,5.28,0,0,0-4.59,3.65c-.64,1.9-.64,4.63,1.69,8.19a12.4,12.4,0,0,0,4.66,3.58A13.28,13.28,0,0,1,42.49,28.32Z"/><path class="cls-5" d="M46.1,26.68a.75.75,0,0,0,.62-.94c-.11-.85-.53-1.73.16-1.8s2.25.73,1.32-1.42-4.06-4.29-5.51-2.72S42.89,27,46.1,26.68Z"/><path class="cls-6" d="M44.41,16a6.85,6.85,0,0,1,1.55.24,6,6,0,0,1,2.34,1.22h0c2.51,2.09,3.91,6.11,3.89,9.34,0,0-3.32.09-4.38,5.05-2.15-.25-4.56-1.92-6.31-4-2.33-3.56-2.33-6.29-1.69-8.19A5.28,5.28,0,0,1,44.41,16Z"/><path class="cls-7" d="M66.39,14.6c-3.39-1.8-6.11-2.52-9-2.34h0c-1.66.17-1.94-.39-2.61-1.28S52.42,8.05,51.5,9.56,53.56,13,53.56,13l-.75-.4a11.86,11.86,0,0,1-2.18-1.46c-1-.9-1.92-1.4-2.42-1s-.23,2.57,3.27,3.44l-.27.12h0l-.11,0a12.78,12.78,0,0,0-1.56.89l-.12.09h0A12.53,12.53,0,0,0,46,18.2a16.44,16.44,0,0,0-1.28,2.55,15.54,15.54,0,0,0-.68,7.56h0c-1.56.53-2.78,2.7-2.78,2.7-.17-.27-1.66-1.3-2.23,0s.77,2.74.77,2.74a1,1,0,0,0-1.4.4c-.78,2,1.74,2.24,1.74,2.24C43.13,43.56,50.7,45,50.7,45a22,22,0,0,0,8.28.63h0l.19,0,.37-.08.2,0,.34-.08c3.46-.84,7.71-3.06,11.47-8.5.21-.34.41-.7.59-1.06C75.35,29.5,74.68,19,66.39,14.6Z"/><path class="cls-8" d="M63.69,44.1a20.53,20.53,0,0,0,6.87-5.79l.15-3.68s-2.86,6.4-6.32,8.78A1.93,1.93,0,0,0,63.69,44.1Z"/><path class="cls-9" d="M41.71,30.38a1.87,1.87,0,0,1,.58.43s1.22-2.16,2.77-2.69h0a15.65,15.65,0,0,1,.68-7.56A16.16,16.16,0,0,1,47,18a12.52,12.52,0,0,1,3.38-3.43h0l.12-.08a12.09,12.09,0,0,1,1.55-.89l.12-.06h0l.26-.12c-3.25-.8-3.71-2.71-3.36-3.32a.86.86,0,0,0-.89.08c-.5.43-.23,2.57,3.27,3.44l-.27.12h0l-.11,0a12.78,12.78,0,0,0-1.56.89l-.12.09h0A12.53,12.53,0,0,0,46,18.2a16.44,16.44,0,0,0-1.28,2.55,15.54,15.54,0,0,0-.68,7.56h0A5.57,5.57,0,0,0,41.71,30.38ZM60,45.46a21.85,21.85,0,0,1-8.28-.63s-7.56-1.46-10.51-8.64c0,0-2.53-.27-1.75-2.25a1.47,1.47,0,0,1,.23-.27,1.06,1.06,0,0,0-1.21.47c-.78,2,1.74,2.24,1.74,2.24C43.13,43.56,50.7,45,50.7,45a22,22,0,0,0,8.28.63h0l.19,0,.37-.08.2,0,.2,0ZM51.62,10.94a11.46,11.46,0,0,0,2.17,1.46l.75.39s-3-1.91-2.06-3.43a2.13,2.13,0,0,1,.22-.27.93.93,0,0,0-1.2.47,1.33,1.33,0,0,0,0,1.24ZM39.74,33.61a1,1,0,0,1,1.09-.07s-1.35-1.44-.77-2.73a1.16,1.16,0,0,1,.26-.39,1,1,0,0,0-1.25.58A2.74,2.74,0,0,0,39.74,33.61Z"/><path class="cls-3" d="M64.49,31.66c.32-.92,4-7.48-2.3-10.49-3.79-1.81-6.15-.77-7.42.35h0c-1,.7-1.34,0-1.34,0a4.22,4.22,0,0,0-2.27-2.81c-1.07-.53-3-.36-4.42,2.61a20.78,20.78,0,0,0-1.66,6.86l-.59.07c-1.74.24-3.18,2.8-3.18,2.8-.17-.27-1.66-1.3-2.23,0s.77,2.74.77,2.74a1,1,0,0,0-1.4.4c-.78,2,1.74,2.24,1.74,2.24C43.13,43.56,50.7,45,50.7,45c11.69,2.76,14.66-2.31,15.86-6.13S64.49,31.66,64.49,31.66Z"/><path class="cls-10" d="M62.19,21.17c-3.79-1.81-6.15-.77-7.42.35h0a1.75,1.75,0,0,1-.56.27,5.36,5.36,0,0,1,.19.64s.3.74,1.34.07h0c1.31-1.07,3.7-2,7.43-.1A7.25,7.25,0,0,1,65.25,24,6.29,6.29,0,0,0,62.19,21.17Zm3.07,11.47c-.06.14-.12.25-.14.32a10,10,0,0,1,1.36,2.12A9.89,9.89,0,0,0,65.26,32.64ZM40.38,36.83A13.53,13.53,0,0,0,42,39.54a14,14,0,0,1-1.34-2.65Zm6.35-15.55a20.78,20.78,0,0,0-1.66,6.86l-.59.07c-1.74.24-3.18,2.8-3.18,2.8-.17-.27-1.66-1.3-2.23,0s.77,2.74.77,2.74a1,1,0,0,0-1.4.4A1.37,1.37,0,0,0,39,36a1.45,1.45,0,0,1,0-1.42,1,1,0,0,1,1.42-.35s-1.3-1.49-.68-2.76,1.43-.15,1.59.12c0,0,1.89-2.7,3.91-2.73l.58-.06A20.76,20.76,0,0,1,47.71,22c1.55-2.93,3.44-3,4.5-2.47l.31.18a4.37,4.37,0,0,0-1.37-1C50.08,18.14,48.19,18.31,46.73,21.28Z"/><path class="cls-11" d="M73.89,27a14.6,14.6,0,0,0-6.55-11.81c-1.44.19-2.7,1.22-.85,2.88,5.38,4.82,1.32,13.4,1.32,13.4A47.11,47.11,0,0,1,73.89,27Z"/><path class="cls-3" d="M81.1,23.77a7,7,0,0,0-1.7-.45,6.71,6.71,0,0,0-3,.18h0c-3.53,1-6.8,4.49-8.24,7.82,0,0,3.38,1.6,2.2,7.18,2.32.72,5.56.1,8.31-1.26,4-2.6,5.26-5.41,5.46-7.64A5.89,5.89,0,0,0,81.1,23.77Z"/><path class="cls-5" d="M74.51,34a.86.86,0,0,1-.21-1.25c.5-.82,1.33-1.53.66-1.92s-2.65-.27-.71-2.05,6.11-2.57,6.89-.3S77.68,35.72,74.51,34Z"/><path class="cls-12" d="M77.28,31.38a8.8,8.8,0,0,1-1.94,2.89,2.78,2.78,0,0,1-.83-.3.86.86,0,0,1-.21-1.25c.5-.82,1.33-1.53.66-1.92s-2.65-.27-.71-2.05a6.23,6.23,0,0,1,1.4-.94A2.43,2.43,0,0,1,77.28,31.38Z"/><path class="cls-13" d="M76,25h0a6.85,6.85,0,0,1,3-.19,7.27,7.27,0,0,1,1.69.46A5.87,5.87,0,0,1,83.72,31a6.15,6.15,0,0,1-.12.83,7.94,7.94,0,0,0,.56-2.26,5.89,5.89,0,0,0-3.06-5.84,7,7,0,0,0-1.7-.45,6.71,6.71,0,0,0-3,.18h0c-3.53,1-6.8,4.49-8.24,7.82a1.51,1.51,0,0,1,.22.13C70.06,28.57,72.93,25.82,76,25Z"/><path class="cls-14" d="M81.1,23.77a7,7,0,0,0-1.7-.45,6.71,6.71,0,0,0-3,.18h0c-3.53,1-6.79,4.49-8.24,7.82,0,0,3.38,1.6,2.2,7.18,2.32.72,5.56.1,8.31-1.26,4-2.6,5.26-5.41,5.46-7.64A5.89,5.89,0,0,0,81.1,23.77Z"/><path class="cls-15" d="M53.15,3.23a45.31,45.31,0,0,0,10.39,9,92.49,92.49,0,0,0,18.39,9.05S73.36,10,71.92,8.5a3.27,3.27,0,0,0-1.29-1C70,7.32,55,3.27,53.15,3.23Z"/><path class="cls-16" d="M69.67,8.42s6.2,5.68,7.6,7.23c.25.27.17,0-.12-.59-2.23-2.89-4.54-5.83-5.23-6.56a3.27,3.27,0,0,0-1.29-1C70,7.32,55,3.27,53.15,3.23a38.81,38.81,0,0,0,3.31,3.5l.33.15S56,5.42,55.92,5.23,66.23,7.53,69.67,8.42Z"/><path class="cls-17" d="M62.54,9l-5.9,3.28s1.35,3.89,6.6,6.2a23.56,23.56,0,0,0,9.09,2.22L73.07,15S68.85,9.78,62.54,9Z"/><path class="cls-18" d="M70.84,13.1a10.4,10.4,0,0,0-1.29-1.25,15.64,15.64,0,0,0-7-2.81l-5.9,3.28a10.24,10.24,0,0,0,2.89,3.87l.19,0L58.3,13.13l4.31-2.55A18.61,18.61,0,0,1,70.84,13.1Z"/><path class="cls-19" d="M72.33,20.74,73.07,15a15.29,15.29,0,0,0-1.72-1.75h-.11L69.1,18c-.84,1.84-3.38,1.45-3.38,1.45l2.21.7s.42.11,1.24.23A17.41,17.41,0,0,0,72.33,20.74Z"/><path class="cls-20" d="M73.37,15l3.83.72,3.91,5a78.41,78.41,0,0,1-8-3.47Z"/><path class="cls-21" d="M65.89,38.76S64.6,45,57.28,45A13,13,0,0,0,65.89,38.76Z"/><path class="cls-22" d="M56.57,34.68s2.45-3.4,7.14-1A11.57,11.57,0,0,0,56.57,34.68Z"/><path class="cls-23" d="M64.49,31.66c.32-.92,4-7.48-2.3-10.49-3.79-1.81-6.15-.77-7.42.35h0c-1,.7-1.34,0-1.34,0a4.22,4.22,0,0,0-2.27-2.81c-1.07-.53-3-.36-4.42,2.61a20.78,20.78,0,0,0-1.66,6.86l-.59.07c-1.74.24-3.18,2.8-3.18,2.8-.17-.27-1.66-1.3-2.23,0s.77,2.74.77,2.74a1,1,0,0,0-1.4.4c-.78,2,1.74,2.24,1.74,2.24C43.13,43.56,50.7,45,50.7,45c11.69,2.76,14.66-2.31,15.86-6.13S64.49,31.66,64.49,31.66Z"/><path class="cls-12" d="M60.29,23.45a1.79,1.79,0,0,0-1.41-.75,1.49,1.49,0,0,0-1.29.58.93.93,0,0,1-.05.1c-.17.53.24.81.51.56a1.51,1.51,0,0,1,.81-.35,1.21,1.21,0,0,1,1,.47.12.12,0,0,1,.05.05l0,.06c.17.24.31.46.35.5s.17,0,.17,0A1.54,1.54,0,0,0,60.29,23.45Z"/><path class="cls-12" d="M49.27,21.12A1.38,1.38,0,0,1,50.64,21a1.29,1.29,0,0,1,.76,1,.34.34,0,0,1,0,.1c-.06.56-.48.66-.59.33a1.37,1.37,0,0,0-.5-.63.93.93,0,0,0-1,0l-.05,0-.06,0c-.22.15-.41.31-.46.33s-.12-.09-.12-.09A1.71,1.71,0,0,1,49.27,21.12Z"/><path class="cls-24" d="M60.55,30.64C59.81,32.51,58,33.55,56.44,33s-2.19-2.6-1.46-4.47,2.57-2.91,4.11-2.31S61.28,28.77,60.55,30.64Z"/><path class="cls-25" d="M60.7,30.64c-.78,2-2.73,3.07-4.37,2.45S54,30.34,54.79,28.35s2.74-3.08,4.37-2.45S61.48,28.65,60.7,30.64Z"/><path class="cls-26" d="M51.35,28.19c-.85,1.57-2.49,2.13-3.66,1.27A3.55,3.55,0,0,1,47.1,25c.85-1.57,2.49-2.14,3.66-1.27A3.56,3.56,0,0,1,51.35,28.19Z"/><path class="cls-27" d="M51.58,27.17c-.38,1.72-1.74,2.89-3,2.62s-2.05-1.88-1.68-3.59,1.75-2.89,3-2.62S52,25.46,51.58,27.17Z"/><path class="cls-28" d="M50.91,27.61a1.24,1.24,0,1,1-2.26-.78,1.24,1.24,0,1,1,2.26.78Z"/><path class="cls-29" d="M50.59,27.65c-.22.62-.76,1-1.21.83a1.24,1.24,0,0,1,.77-2.25A1.09,1.09,0,0,1,50.59,27.65Z"/><path class="cls-2" d="M49.61,26.75a.38.38,0,0,1-.5.21.4.4,0,0,1-.12-.54.38.38,0,0,1,.5-.2A.4.4,0,0,1,49.61,26.75Z"/><path class="cls-2" d="M50.34,28.26a.28.28,0,0,1-.37.17.31.31,0,0,1-.08-.41.29.29,0,0,1,.38-.17A.3.3,0,0,1,50.34,28.26Z"/><path class="cls-12" d="M52.66,34.5c.25-.37.6-1,.2-1.19s-.89.46-1.17.88Z"/><path class="cls-12" d="M49.21,33.38c0-.45.12-1.17.54-1.08s.45.89.44,1.39Z"/><path class="cls-24" d="M60.55,30.64C59.81,32.51,58,33.55,56.44,33s-2.19-2.6-1.46-4.47,2.57-2.91,4.11-2.31S61.28,28.77,60.55,30.64Z"/><path class="cls-30" d="M59.67,31a1.67,1.67,0,0,1-2.16.87,1.65,1.65,0,0,1-.45-2.27,1.67,1.67,0,0,1,2.15-.87A1.65,1.65,0,0,1,59.67,31Z"/><path class="cls-29" d="M59.4,30.92a1.23,1.23,0,0,1-1.6.64,1.21,1.21,0,0,1-.34-1.68,1.12,1.12,0,1,1,1.94,1Z"/><path class="cls-2" d="M58.22,29.72a.46.46,0,0,1-.63.13.45.45,0,0,1-.05-.64.45.45,0,0,1,.63-.12A.43.43,0,0,1,58.22,29.72Z"/><path class="cls-2" d="M58.88,31.61a.36.36,0,0,1-.48.11.38.38,0,1,1,.48-.11Z"/><path class="cls-31" d="M81.93,21.28S73.36,10,71.92,8.5a3.27,3.27,0,0,0-1.29-1C70,7.32,55,3.27,53.15,3.23a44.93,44.93,0,0,0,7.38,6.93l-3.89,2.16s1.35,3.89,6.6,6.2a23.56,23.56,0,0,0,9.09,2.22l.43-3.34A78.41,78.41,0,0,0,81.93,21.28Z"/><path class="cls-32" d="M74.51,34a.86.86,0,0,1-.21-1.25c.5-.82,1.33-1.53.66-1.92s-2.65-.27-.71-2.05,6.11-2.57,6.89-.3S77.68,35.72,74.51,34Z"/><path class="cls-33" d="M48.72,30.94a5.25,5.25,0,0,0-3.42-2.36h0l-.94.45C46.52,28.89,48.72,30.94,48.72,30.94Z"/><path class="cls-34" d="M71.63,37.25a2.79,2.79,0,0,1-.2.88,9.14,9.14,0,0,0,6.35-1.62A16.51,16.51,0,0,1,71.63,37.25Z"/><path class="cls-35" d="M40.47,34.4S47.12,42,55.75,39.77C55.75,39.77,47,40.09,40.47,34.4Z"/><path class="cls-36" d="M75.61,13.08c-.2,2.61-.24,5.47.45,6.93l.67.13s-.85-1.28-.55-6.34Z"/><path class="cls-37" d="M75.79,22.66l-.34-2.15s.11-.48.32-.55a5.75,5.75,0,0,0,.82-.48s.52-.16.67.17,1,1.75,1,1.75,0,.37-.17.48S76,23,75.79,22.66Z"/><path class="cls-38" d="M76,22.75l-.25,2.95a3.49,3.49,0,0,0,2.26.08c1.1-.41,1.84-1,1.75-1.26s-1.66-2.64-1.66-2.64Z"/><polygon class="cls-39" points="75.75 20.02 76.84 22.12 75.92 22.5 75.63 20.38 75.75 20.02"/><path class="cls-40" d="M76.63,25.87l.05,0a2.82,2.82,0,0,0,.42,0l-.46-3Zm1.11,0,.3-.08.22-.09,0-.07-1.23-2.68Zm.4-3.23L79.2,25l0,.19a2.12,2.12,0,0,0,.43-.36Zm.49,2.89a3.14,3.14,0,0,0,.45-.25L77.64,22.9Z"/><path class="cls-41" d="M75.72,13.22a21.08,21.08,0,0,0,.08,4.86,44,44,0,0,1,.1-4.61Z"/><path class="cls-42" d="M79.79,24.52c-.1-.23-1.66-2.64-1.66-2.64.19-.11.17-.48.17-.48s-.88-1.43-1-1.75-.67-.17-.67-.17a5.75,5.75,0,0,1-.82.48c-.21.07-.32.55-.32.55l.34,2.15c0,.07.17.07.33.05l-.09,0-.25,2.95a3.49,3.49,0,0,0,2.26.08C79.14,25.37,79.88,24.75,79.79,24.52Z"/><path class="cls-12" d="M62.08,38.19a19.28,19.28,0,0,1-11.51,1c-.56-.12-1.11-.27-1.64-.42h0c-.87-.26-1.68-.55-2.42-.85h0c-.33-.13-.65-.27-1-.41l-.2-.09a18.78,18.78,0,0,1-5.65-3.86l-.06,0a16.26,16.26,0,0,0,6,4.37l.2.09.92.4h0c.72.29,1.5.57,2.35.82h0c.52.16,1.06.3,1.61.42A18.55,18.55,0,0,0,62,38.54a.31.31,0,0,0,.16-.39Z"/><path class="cls-12" d="M62.09,36.91s-1.27,1.83,1.15,2.36A2.11,2.11,0,0,1,62.09,36.91Z"/><path class="cls-2" d="M106.17,74.59a.34.34,0,0,1-.34.35.33.33,0,0,1-.34-.35v-2H105a.33.33,0,1,1,0-.65h1.68a.33.33,0,1,1,0,.65h-.5Z"/><path class="cls-2" d="M108.19,74.11l-.34-.54v1a.34.34,0,0,1-.34.34.34.34,0,0,1-.34-.34V72.2a.26.26,0,0,1,.26-.26.27.27,0,0,1,.22.12l.94,1.53.94-1.53a.25.25,0,0,1,.47.14v2.4a.34.34,0,0,1-.68,0v-1l-.34.54a.46.46,0,0,1-.39.23A.49.49,0,0,1,108.19,74.11Z"/><path class="cls-43" d="M30.51,69.7a1.42,1.42,0,0,0-.05-.22l0-.07a.36.36,0,0,0,0-.11,1.26,1.26,0,0,0-.13-.23h0l0,0-.13-.18a.08.08,0,0,0,0,0l0,0,0,0c-.35-.49-1.06-1.49-1.45-2.19l0-.06,0-.06c-.32-.6-.56-1.07-.56-1.07h0l-.14-.32c-.38-.84-.69-1.64-.94-2.38a42.87,42.87,0,0,1-1.12-5.28h0c-.05-.42-.08-.72-.09-.81-.05-.36-.1-.71-.16-1-.44-2.19-1.33-3.39-2.72-3.63a2.61,2.61,0,0,0-.48-.05c-1.16,0-2.31.8-3.41,2.36a30.15,30.15,0,0,0-2.57,5.37L14.9,63.46c0,.13-.18.49-.49.49-.15,0-.36-.09-.51-.53-.17-.62-.32-1.23-.41-1.77,0,0-.65-3.83-1.66-10.44-.56-3.67-2-5.65-4.18-5.7-2.87,0-5.12,3.78-6.69,11.25-2.43,11.59.51,19.06.64,19.37a1.85,1.85,0,0,0,1.52,1.15h.21a1.93,1.93,0,0,0,.7-.13,1.88,1.88,0,0,0,1-2.43c0-.07-2.63-6.82-.45-17.21a26.08,26.08,0,0,1,2.31-7.09.56.56,0,0,1,.46-.3c.34,0,.49.39.54.55.08.31.15.67.22,1.1,1,6.61,1.67,10.47,1.67,10.49.52,3,1.66,6.65,4.19,6.92h.29c2.4,0,3.64-3.2,4.1-4.4l1.5-4c.45-1.19.94-2.25,1.27-2.94.15-.31.31-.46.5-.46s.37.19.4.57c0,.19,0,.38,0,.58v.09a27.77,27.77,0,0,0,2,7.31,1.34,1.34,0,0,0,.07.18h0c.13.31.31.72.53,1.19.65,1.36,1.64,3.35,2.72,4.17h0a3.85,3.85,0,0,0,.4.26A1.91,1.91,0,0,0,30.54,70a2.64,2.64,0,0,0,0-.28A.43.43,0,0,1,30.51,69.7ZM38.3,56.16a7.9,7.9,0,1,0,7.89,7.9A7.9,7.9,0,0,0,38.3,56.16Zm3.34,9.19a12.56,12.56,0,0,1-3.34,2.78h0A12.4,12.4,0,0,1,35,65.35c-1.63-2-.65-4.31,1.06-4.27a2.73,2.73,0,0,1,2.27,1.59h0a2.73,2.73,0,0,1,2.27-1.59C42.28,61,43.27,63.36,41.64,65.35ZM91.86,68a2,2,0,0,0-.64-1.42,2,2,0,0,0-.93-.51,2.12,2.12,0,0,0-.44,0,2,2,0,0,0-1.47.64,3.77,3.77,0,0,1-2.76,1.21,4,4,0,0,1-.83-.09,3.73,3.73,0,0,1-2.35-1.7,3.82,3.82,0,0,1,3.19-5.85,3.31,3.31,0,0,1,.83.1,3.8,3.8,0,0,1,1.39.64c.12.11.48.48.35.85s-1.09.78-2.73.87H85.4l-.17,0a1.35,1.35,0,0,0,.26,2.65h.23c.28,0,6.74-.44,6.87-3.37v-.14a3.76,3.76,0,0,0-.22-1.66,1.31,1.31,0,0,0-.08-.21l-.1-.21a.41.41,0,0,0-.06-.1c-.09-.15-.17-.27-.22-.34l-.08-.08a7.76,7.76,0,0,0-4.47-2.92,7.12,7.12,0,0,0-1.73-.2A7.9,7.9,0,0,0,79,68.28,7.79,7.79,0,0,0,85.62,72a7.83,7.83,0,0,0,5.69-2.48A2.08,2.08,0,0,0,91.86,68Zm16.42-11.81-.29,0h0a2,2,0,0,0-1.86,1.72,18.36,18.36,0,0,1-3.53,8l-.38.49-.31.29-.13-.41a30,30,0,0,0-4.93-9.33,1.93,1.93,0,0,0-1.54-.73,1.88,1.88,0,0,0-1.18.41,2,2,0,0,0-.72,1.3,1.91,1.91,0,0,0,.41,1.42A25.77,25.77,0,0,1,98.48,69l.15.87-.58.44-.16.13h0a28,28,0,0,1-10.1,4.39,1.94,1.94,0,0,0-1.22.87,2,2,0,0,0,1.67,3h.08a2,2,0,0,0,.35,0C107.93,74.23,109.91,59,110,58.39A2,2,0,0,0,108.28,56.22ZM71.4,63.42l.21-.2a25,25,0,0,1,4.81-3.53,1.93,1.93,0,0,0-.94-3.62,1.91,1.91,0,0,0-.94.24,28.75,28.75,0,0,0-6.24,4.74l0,0-.05,0-.4.2V58.17a2,2,0,1,0-3.93,0V70a2,2,0,1,0,3.93,0V66.32l0-.16.11-.08.17-.1h.07a.55.55,0,0,1,.36.17l6.85,6.45a2,2,0,0,0,3.31-1.49,2,2,0,0,0-.62-1.38ZM59.81,56.2a2,2,0,0,0-2,2v7.51l-.51-.82c-1.28-2.07-3.54-5.71-4.25-6.75-.32-.47-1.3-1.91-2.73-1.91a2.29,2.29,0,0,0-.68.1c-1.83.56-1.84,2.75-1.85,4.14V70a2,2,0,1,0,3.93,0V63.31l.51.81,3.08,5C56.49,71,57.76,71.94,59,71.94a2.5,2.5,0,0,0,.66-.09c1.34-.36,2-1.62,2.1-3.74V58.17A2,2,0,0,0,59.81,56.2Z"/></g></g></g></svg>