<svg xmlns="http://www.w3.org/2000/svg" viewBox="0 0 26.41 25.68"><defs><style>.cls-1{fill:#00c2f3;}</style></defs><title>Asset 1</title><g id="Layer_2" data-name="Layer 2"><g id="Layer_1-2" data-name="Layer 1"><path class="cls-1" d="M6.24,25.51c-.57-.26-1.47-1-1.07-3.23l1.15-5.83L1.21,12.59C.2,11.68-.15,10.84.06,10A2.24,2.24,0,0,1,1.91,8.44L8.7,7.62l2-5.7A3.07,3.07,0,0,1,12.28.12a2,2,0,0,1,1.53.07,3.64,3.64,0,0,1,1.52,1.55l2.51,5.42,5.41.1a5.42,5.42,0,0,1,1.78.4A2.2,2.2,0,0,1,26.39,9.3c.21,1.3-.94,2.36-1.31,2.71l-4,3.69,1.64,5.37c.15.5.57,2.21-.53,3.18-.72.63-1.73.66-3,.08L18.61,24,14,21.44,9,24.92a3,3,0,0,1-2.77.59Z"/></g></g></svg>