<svg xmlns="http://www.w3.org/2000/svg" viewBox="0 0 39.31 39.31"><defs><style>.cls-1{fill:#fff;}.cls-2{fill:#ed232f;}</style></defs><title>Asset 7</title><g id="Layer_2" data-name="Layer 2"><g id="Layer_1-2" data-name="Layer 1"><circle class="cls-1" cx="19.65" cy="19.65" r="19.65" transform="translate(-8.14 19.65) rotate(-45)"/><circle class="cls-2" cx="10.25" cy="16.51" r="2.55"/><path class="cls-2" d="M10.25,20.11a5.36,5.36,0,0,0-5.36,5.37v.46c0,1.51,1.23,1.92,2.73,1.92h5.27c1.5,0,2.73-.41,2.73-1.92v-.46A5.36,5.36,0,0,0,10.25,20.11Z"/><circle class="cls-2" cx="29.05" cy="16.51" r="2.55"/><path class="cls-2" d="M29.05,20.11a5.36,5.36,0,0,0-5.36,5.37v-.36a2.74,2.74,0,0,0,2.73,2.74h5.27a2.74,2.74,0,0,0,2.73-2.74v.36A5.36,5.36,0,0,0,29.05,20.11Z"/><circle class="cls-2" cx="19.52" cy="8.05" r="2.55"/><path class="cls-2" d="M19.52,11.65A5.36,5.36,0,0,0,14.15,17v-.35a2.74,2.74,0,0,0,2.73,2.73h5.27a2.73,2.73,0,0,0,2.73-2.73V17A5.36,5.36,0,0,0,19.52,11.65Z"/></g></g></svg>