<svg xmlns="http://www.w3.org/2000/svg" viewBox="0 0 414 438.11"><defs><style>.cls-1{fill:#d1d3d4;}.cls-2{opacity:0.2;}.cls-3{fill:#fff;}</style></defs><title>Asset 1</title><g id="Layer_2" data-name="Layer 2"><g id="Layer_1-2" data-name="Layer 1"><rect class="cls-1" width="414" height="438.11" rx="24"/><g class="cls-2"><path class="cls-3" d="M251.45,226.75l-6.54,23.72A115.06,115.06,0,0,1,170.48,176l23.71-6.54V97.42H106.33v43.93A173.27,173.27,0,0,0,279.6,314.61h43.93V226.75Z"/><path class="cls-3" d="M366.38,54.57a152.32,152.32,0,0,0-215.43,0l12.63,12.62A134.48,134.48,0,1,1,353.76,257.37L366.38,270a152.31,152.31,0,0,0,0-215.42Z"/><polygon class="cls-3" points="244.59 162.95 244.59 145.07 280.33 145.07 280.33 91.49 226.74 91.49 226.74 109.34 262.48 109.34 262.48 127.22 226.74 127.22 226.74 180.8 280.34 180.8 280.34 162.95 244.59 162.95"/><polygon class="cls-3" points="333.94 91.48 333.94 127.22 316.06 127.22 316.06 91.48 298.21 91.48 298.21 145.07 333.94 145.07 333.94 180.81 351.79 180.81 351.79 91.48 333.94 91.48"/></g></g></g></svg>