<svg xmlns="http://www.w3.org/2000/svg" xmlns:xlink="http://www.w3.org/1999/xlink" viewBox="0 0 47.5 47.5"><defs><style>.cls-1{fill:#00c2f3;}.cls-2{fill:url(#linear-gradient);}.cls-3{fill:#fff;}</style><linearGradient id="linear-gradient" x1="1135.7" y1="1133.21" x2="1161.7" y2="1163.21" gradientTransform="translate(-1130 1175.4) rotate(-90)" gradientUnits="userSpaceOnUse"><stop offset="0" stop-color="#fff"/><stop offset="1" stop-color="#00c2f3"/></linearGradient></defs><title>Asset 14</title><g id="Layer_2" data-name="Layer 2"><g id="Layer_1-2" data-name="Layer 1"><circle class="cls-1" cx="23.7" cy="23.8" r="23.7" transform="translate(-9.8 23.7) rotate(-45)"/><path class="cls-2" d="M32.3,36.5A23.3,23.3,0,0,0,46,32.1a23.1,23.1,0,0,0,1.5-8.3A23.7,23.7,0,0,0,23.8,0,23.4,23.4,0,0,0,10,4.4a23.2,23.2,0,0,0-1.5,8.4A23.7,23.7,0,0,0,32.3,36.5Z"/><path class="cls-3" d="M27.3,28.5c-.5-.3-1.2-.8-.8-2.5l.8-4.5-3.9-3a2,2,0,0,1-.9-1.9A1.8,1.8,0,0,1,24,15.4l5.2-.7,1.5-4.3A2.2,2.2,0,0,1,31.9,9a1.7,1.7,0,0,1,1.2,0,3.1,3.1,0,0,1,1.1,1.2l2,4.2h4.1a3.1,3.1,0,0,1,1.4.3,1.4,1.4,0,0,1,1,1.2c.2,1-.7,1.8-1,2.1l-3,2.8L39.9,25a2.4,2.4,0,0,1-.4,2.5c-.5.5-1.3.5-2.3,0l-.4-.2-3.6-2L29.4,28a2.2,2.2,0,0,1-2.1.5Z"/><polygon class="cls-3" points="2.3 30.6 21.2 18.6 24.7 21.8 2.3 30.6"/><polygon class="cls-3" points="12.1 29.6 24.7 24.4 23.8 27.7 12.1 29.6"/></g></g></svg>